<svg xmlns="http://www.w3.org/2000/svg" viewBox="0 0 490 661"><defs><style>.cls-1{isolation:isolate;}.cls-2{fill:#231f20;}.cls-3{fill:#fef5ab;}.cls-4{fill:#7fbb47;}.cls-5{fill:#80a22f;}.cls-16,.cls-5,.cls-8,.cls-9{opacity:0.4;}.cls-15,.cls-5{mix-blend-mode:multiply;}.cls-6{fill:#b2cd3c;}.cls-7,.cls-8,.cls-9{fill:#fff;}.cls-8{mix-blend-mode:screen;}.cls-9{mix-blend-mode:overlay;}.cls-10{fill:#50423d;}.cls-11{fill:#332723;}.cls-12{fill:#35622a;opacity:0.3;}.cls-13,.cls-15{fill:#ce4e4b;}.cls-14,.cls-16{fill:#d2a09a;}.cls-16{mix-blend-mode:color-burn;}.cls-17{fill:#4d4d4d;}.cls-18{fill:#999;}.cls-19{fill:#ccc;}.cls-20{fill:#936037;}</style></defs><g class="cls-1"><g id="Calque_1" data-name="Calque 1"><path class="cls-2" d="M394,609.17c-4.39-9.63-11.81-18-16.55-27.64-5.18-10.49-9-21.48-13.47-32.25-13.28-32.31-24.05-74.46-64.84-85-18.68-4.82-39.26-.38-57,5.47-1.16.4-2.33.83-3.5,1.24-.49.16-1,.35-1.46.52s-1.3.45-1.95.69q-2.66,1-5.26,2.13c-11.88,5-23.2,11.64-32.2,20.29-16.71,14.21-26.33,32.61-34.28,52.23-16.07,39.54-57.81,81.31-28.41,124.5,12.16,17.89,33.19,30.84,54.68,36.63a241.42,241.42,0,0,0,76.7,7.57c25.73-1.77,52.37-10.38,74.59-22.49a1.25,1.25,0,0,0,1.33-.2c2.54-1.61,5.06-3.2,7.53-4.82,15.41-9.06,31.6-20.46,41.22-34.2C400.46,640.52,400.5,623.44,394,609.17Z" transform="translate(-19.69 -149.34)"/><path class="cls-3" d="M244.56,710.7c-24.84-1.21-50.93-4.61-72.84-15.73-12.45-7.79-23.33-16.88-31.08-29.58-12.34-20.23-5.49-40.62-1.13-61.68,3.9-8.51,9.06-16.5,13.63-24.69,6.41-11.49,12.39-23.44,18.21-35.2C183,520.19,195.14,498.14,220,484.58c21.42-11.7,48.77-19.64,73.63-15.48,25.09,4.19,40.33,25.12,50.13,45.25,10.17,20.91,18.59,42.67,28,63.9A190.38,190.38,0,0,0,384.8,602c6.74,15,10.61,29.4,1.73,46.13-4,7.66-10,14.31-16.56,20.27l-3.15,2.33a245.7,245.7,0,0,1-34.87,22C306,705.93,273.94,712.12,244.56,710.7Z" transform="translate(-19.69 -149.34)"/><path class="cls-4" d="M384.8,602a190.38,190.38,0,0,1-13.12-23.74c-9.37-21.23-17.79-43-28-63.9-9.8-20.13-25-41.06-50.13-45.25-24.86-4.16-52.21,3.78-73.63,15.48-24.82,13.56-36.94,35.61-48.61,59.24-5.82,11.76-11.8,23.71-18.21,35.2-4.57,8.19-9.73,16.18-13.63,24.69-4.36,21.06-11.21,41.45,1.13,61.68,7.75,12.7,18.63,21.79,31.08,29.58.75.37,1.54.68,2.3,1-3.72-7.23-6.14-15.39-7.54-19.94-6.39-20.53-6.57-40.68-2-61.72,7.84-36.16,27.73-70.84,66.06-85.2,30.83-11.54,74.7-14.79,97.22,12.84,31.46,38.59,38.12,103.17,11.81,146.64a268.2,268.2,0,0,0,27.25-17.91l3.15-2.33c6.54-6,12.51-12.61,16.56-20.27C395.41,631.39,391.54,617,384.8,602Z" transform="translate(-19.69 -149.34)"/><path class="cls-4" d="M384.8,602a190.38,190.38,0,0,1-13.12-23.74c-9.37-21.23-17.79-43-28-63.9-9.8-20.13-25-41.06-50.13-45.25-24.86-4.16-52.21,3.78-73.63,15.48-24.82,13.56-36.94,35.61-48.61,59.24-5.82,11.76-11.8,23.71-18.21,35.2-4.57,8.19-9.73,16.18-13.63,24.69-4.36,21.06-11.21,41.45,1.13,61.68,7.75,12.7,18.63,21.79,31.08,29.58.75.37,1.54.68,2.3,1-3.72-7.23-6.14-15.39-7.54-19.94-6.39-20.53-6.57-40.68-2-61.72,7.84-36.16,27.73-70.84,66.06-85.2,30.83-11.54,74.7-14.79,97.22,12.84,31.46,38.59,38.12,103.17,11.81,146.64a268.2,268.2,0,0,0,27.25-17.91l3.15-2.33c6.54-6,12.51-12.61,16.56-20.27C395.41,631.39,391.54,617,384.8,602Z" transform="translate(-19.69 -149.34)"/><path class="cls-5" d="M187.52,528.47c9.47-7.91,20.24-13.3,33-14.77,13.73-1.6,27.6.06,41.32-1.39,27.23-2.86,56.59-13.66,79.24,6.52a96.88,96.88,0,0,1,9.09,9.39c-2.08-4.65-4.21-9.29-6.43-13.87-9.8-20.13-25-41.06-50.13-45.25-24.86-4.16-52.21,3.78-73.63,15.48-24.82,13.56-36.94,35.61-48.61,59.24-.77,1.53-1.56,3.08-2.33,4.62A114.82,114.82,0,0,1,187.52,528.47Z" transform="translate(-19.69 -149.34)"/><path class="cls-2" d="M350.43,728.5c5.34,12.36,15,21.79,22.6,32.82,5.78,8.3,9.11,16.9,12.4,26.22a42,42,0,0,0,7.41,13.85c5.73,6.8,19.29,12.38,27.61,6.44,7.73-5.5,10.79-15,9.11-23.85-1.4-7.32-4.87-14.25-13.19-16.16-5.3-1.22-9.08,1.29-11.66,4.9a14.42,14.42,0,0,0-2-2.43,43.51,43.51,0,0,1-6-8.89c-1.26-2.36-2.8-4.72-4.15-7.12,15.1-2.72,36.21,12.37,43.56,23.84-.26,5.85,4.16,12.44,9.15,15.11a24.51,24.51,0,0,0,6.54,2.24c4.54,1.23,9.3,1,13.5-2.29,5.44-4.24,8.89-10.88,8-17.53,3.34,6.32,7.27,13,14.73,13.62,11.91,1,20.07-9.56,21.48-19.54,1.26-8.84-3.49-17.11-12.2-20.71-3.61-1.48-9.82-1.9-13.43-.3a12.43,12.43,0,0,0-3.49,2.14c-19.18-6.73-38.91-12-58-19.06-4.33-1.61-26.74-8.65-29.88-14.63.53-.57,1.07-1.12,1.58-1.69,4.8-5.26,9.93-10.28,14.45-15.78a303.12,303.12,0,0,0,26.59-37.45c15.31-25.77,24.67-53,31.29-81.82,2.36-10.24,4.85-22.75-.95-32.48-4.32-7.24-11.44-12.33-20.88-10.55-13.29,2.5-26,11.79-36,19.93-6.45,5.22-11.59,11.63-17.41,17.41-3.61,3.61-8,7.56-9.19,12.56-1.36,6,3.47,9,5.84,14,3.32,6.89,7.92,13.89,9.34,21.4a66.37,66.37,0,0,1-.6,25.08c-8.41,19.11-18.25,37.93-25.74,57.34-3.13-5.15-12.25-5.42-16.86-1.65C346,709.85,346.78,720.05,350.43,728.5Z" transform="translate(-19.69 -149.34)"/><path class="cls-4" d="M351.53,718.81c-.07-4.39.5-9.63,5-12.21,3.7-2.13,9.54-3.84,12.75.14a1.4,1.4,0,0,0,.63.45c-1.38,3.66-2.68,7.33-3.85,11,0,.06,0,.12,0,.2,1.19-2.4,2.83-4.67,4.09-7,4.38-8.12,8.39-16.35,12.4-24.63,5.53-11.45,11.28-22.82,17.15-34.11,1.24-3,2.46-5.94,3.6-8.93,9.8-25.48,18.7-52,33.69-75.4.25-.38-.43-1.18-.82-.8-8.59,8.63-13.39,21-18.85,31.51-6.15,11.79-10.79,24.06-15.64,36.35a47.65,47.65,0,0,0-3.07-18.22C394.1,606,385.45,594.34,388.43,583a84,84,0,0,1,22-23.33c8.64-6.33,19.57-14.53,30.22-17.54,39.09-11.05,19.14,46.26,14.86,62.15-6.31,23.35-16.67,45-30.15,65.56a268.21,268.21,0,0,1-22.17,29.88c-1.35,1.53-2.71,3.11-4.08,4.72-1.49,1.94-2.95,3.89-4.49,5.8-3.81,4.78-7.47,10-11.88,14.37a28.15,28.15,0,0,0,8.6-6.25c7.31,12.66,74.15,31.88,87.08,35.09a30,30,0,0,1-1.2,3.18c-.57.08-.5.59-.29,1a42.07,42.07,0,0,1,3.67-2.29,6.86,6.86,0,0,1,.63-.47c.27-.16.59-.24.87-.39a6.63,6.63,0,0,1,3.6-2.2c4.85-1.17,11.35-.95,15.19,2.48,5.94,5.28,6.85,14.89,2.58,21.44-5.14,7.87-17.07,15.25-24.3,4.53-3.11-4.6-5-10-9-14a1.3,1.3,0,0,0-.64-.36c-.27-.43-.6-.83-.9-1.24l-.2-.15a22.7,22.7,0,0,0-16.28-8.05,16.2,16.2,0,0,1,3.19,1.18,11.51,11.51,0,0,1,2.82,2c4.38,2,8.11,5.12,9.92,9.52,2.58,6.27,2.43,14.52-3.63,19.26-5.49,4.29-10.91,4.09-16.47,2a13.94,13.94,0,0,1-2.38-1.35,20.74,20.74,0,0,1-4.81-6.14,17.91,17.91,0,0,1-2.26-5.59,12.3,12.3,0,0,1-.07-4.32h0a.9.9,0,0,0-1.26.38,9,9,0,0,0-.95,2.56c-3.52-7.74-11.65-12.49-18.92-17.09-7-4.42-17.18-10.53-25.92-7.19a0,0,0,0,0,0,0,21.6,21.6,0,0,1-1.9-5.19c-.28.85-.54,1.71-.78,2.57,1,3.9,3.35,7.47,5.17,11.13a79.16,79.16,0,0,0,9.47,14.07,28.77,28.77,0,0,0-2.39,6,1.22,1.22,0,0,0,.32,1,11.65,11.65,0,0,1,4.4-6.18,20.22,20.22,0,0,1,1.87-1.94A11,11,0,0,1,409,772.4c2.8-2.14,5.87-3.16,8.58-1.76a9,9,0,0,1,5.48,3.74c4.08,6,5.26,15.33,1.39,21.7-6.16,10.19-17,12.06-27.07,4.38-7.75-5.94-9.38-15.5-12.58-23.86-4.85-12.65-14-22.57-22-33.51C357.69,736.1,351.71,727.62,351.53,718.81Z" transform="translate(-19.69 -149.34)"/><path class="cls-2" d="M175.48,703.43c-4.59-3.77-13.72-3.5-16.83,1.65-7.5-19.41-17.34-38.23-25.76-57.34-1.62-8.16-2.16-16.89-.59-25.08,1.42-7.51,6-14.51,9.34-21.4a25,25,0,0,0,2.36-14.1c.28-.18.54-.56.39-.85-.31-.61,2.09-2.28,1.78-2.87,4.54-3.26-5.76-6.31-9-9.21a85.55,85.55,0,0,0-16.27-16.9c-10-8.14-22.76-17.43-36-19.93-9.44-1.78-16.56,3.31-20.89,10.55-5.78,9.73-3.28,22.24-.95,32.48,6.62,28.77,16,56.05,31.31,81.82a304.11,304.11,0,0,0,26.58,37.45c4.52,5.5,9.65,10.52,14.45,15.78.52.57,1,1.12,1.59,1.69-3.14,6-25.56,13-29.89,14.63-19.09,7.07-38.84,12.33-58,19.06a12.66,12.66,0,0,0-3.48-2.14c-3.63-1.6-9.82-1.18-13.43.3-8.72,3.6-13.46,11.87-12.21,20.71,1.41,10,9.57,20.58,21.47,19.54,7.47-.64,11.4-7.3,14.75-13.62-.94,6.65,2.52,13.29,8,17.53,4.2,3.29,9,3.52,13.51,2.29a24.51,24.51,0,0,0,6.54-2.24c5-2.67,9.39-9.26,9.15-15.11,7.35-11.47,28.46-26.56,43.56-23.84h0c-1.36,2.4-2.9,4.76-4.16,7.12a43.11,43.11,0,0,1-6,8.89,13.94,13.94,0,0,0-2,2.43c-2.58-3.61-6.35-6.12-11.67-4.9-8.31,1.91-11.77,8.84-13.17,16.16-1.68,8.83,1.38,18.35,9.09,23.85,8.34,5.94,21.89.36,27.61-6.44,3.6-4.27,5.62-8.74,7.42-13.85,3.3-9.32,6.62-17.92,12.39-26.22,7.66-11,17.27-20.46,22.62-32.82C182.61,720.05,183.34,709.85,175.48,703.43Z" transform="translate(-19.69 -149.34)"/><path class="cls-4" d="M166.58,743.09c-8,10.94-17.17,20.86-22,33.51-3.2,8.36-4.84,17.92-12.59,23.86-10.06,7.68-20.91,5.81-27.07-4.38-3.87-6.37-2.69-15.75,1.39-21.7a9.09,9.09,0,0,1,5.47-3.74c2.71-1.4,5.79-.38,8.59,1.76a9.83,9.83,0,0,1,1.4,1.18,23,23,0,0,1,1.87,1.94,11.87,11.87,0,0,1,4.4,6.18,1.24,1.24,0,0,0,.31-1,28.23,28.23,0,0,0-2.39-6,78.1,78.1,0,0,0,9.47-14.07c1.84-3.66,4.21-7.23,5.18-11.13-.24-.86-.5-1.72-.79-2.57a22,22,0,0,1-1.89,5.19,0,0,0,0,1,0,0C129.17,748.84,119,755,112,759.37c-7.28,4.6-15.42,9.35-18.93,17.09a8.69,8.69,0,0,0-.95-2.56.89.89,0,0,0-1.25-.38h0a12.3,12.3,0,0,1-.06,4.32,17.49,17.49,0,0,1-2.28,5.59,13.59,13.59,0,0,1-2.2,3.42,14.57,14.57,0,0,1-2.59,2.72,14.1,14.1,0,0,1-2.39,1.35c-5.57,2.06-11,2.26-16.47-2-6.06-4.74-6.21-13-3.62-19.26,1.8-4.4,5.53-7.53,9.9-9.52a12,12,0,0,1,2.83-2,15.83,15.83,0,0,1,3.2-1.18A22.71,22.71,0,0,0,60.89,765a1.49,1.49,0,0,1-.2.15c-.29.41-.62.81-.9,1.24a1.32,1.32,0,0,0-.63.36c-3.94,4.08-5.85,9.43-9,14C43,791.45,31,784.07,25.9,776.2c-4.27-6.55-3.37-16.16,2.58-21.44,3.83-3.43,10.34-3.65,15.19-2.48a6.71,6.71,0,0,1,3.6,2.2c.28.15.59.23.87.39a5.5,5.5,0,0,1,.61.47,38,38,0,0,1,3.67,2.29c.23-.43.3-.94-.28-1-.11,0-.77-2-1.21-3.18,13-3.21,79.78-22.43,87.11-35.09a28.3,28.3,0,0,0,8.58,6.25c-4.42-4.41-8.06-9.59-11.88-14.37-1.53-1.91-3-3.86-4.49-5.8-1.38-1.61-2.72-3.19-4.07-4.72A267,267,0,0,1,104,669.82c-13.48-20.52-23.85-42.21-30.16-65.56-4.29-15.89-24.22-73.2,14.85-62.15,10.65,3,21.58,11.21,30.24,17.54A84,84,0,0,1,141,583c3,11.36-5.67,23-10.16,34.23a47.65,47.65,0,0,0-3.07,18.22c-4.86-12.29-9.49-24.56-15.64-36.35-5.48-10.5-10.26-22.88-18.86-31.51-.38-.38-1.06.42-.82.8,15,23.36,23.89,49.92,33.69,75.4q1.74,4.49,3.59,8.93,8.83,16.93,17.17,34.11c4,8.28,8,16.51,12.4,24.63,1.26,2.31,2.9,4.58,4.07,7a.67.67,0,0,0,0-.2c-1.18-3.7-2.49-7.37-3.86-11a1.4,1.4,0,0,0,.63-.45c3.22-4,9.06-2.27,12.75-.14,4.52,2.58,5.11,7.82,5,12.21C177.67,727.62,171.69,736.1,166.58,743.09Z" transform="translate(-19.69 -149.34)"/><path class="cls-5" d="M114.75,558.13c2.36,4.76,7.34,13.79,3.76,19.06-3.68,5.43-12.72.65-21.39-5.09,6.24,8.13,10.38,18.2,15,27,6.15,11.79,10.78,24.06,15.64,36.35a47.65,47.65,0,0,1,3.07-18.22C135.28,606,144,594.34,141,583a84,84,0,0,0-22-23.33c-1.75-1.29-3.63-2.65-5.55-4C113.84,556.45,114.33,557.28,114.75,558.13Z" transform="translate(-19.69 -149.34)"/><path class="cls-5" d="M172.84,706.6c-3.69-2.13-9.53-3.84-12.75.14a1.4,1.4,0,0,1-.63.45c1.37,3.66,2.68,7.33,3.86,11a.67.67,0,0,1,0,.2c-1.17-2.4-2.81-4.67-4.07-7-4.38-8.12-8.4-16.35-12.4-24.63q-8.31-17.17-17.17-34.11-1.85-4.44-3.59-8.93c-9.67-25.15-18.5-51.35-33.15-74.48-4.11-2.84-7.93-5.56-10.74-7,7.21,17,15.36,33.75,22.29,50.9,7.35,18.15,13,36.79,21.73,54.46,4.51,9.19,9.36,18.25,14.78,27,4.51,7.32,10.24,14.37,13.83,22.12,4.91,10.58,2.82,19.59-.67,30.33-2.69,8.27-21.06,62.29-38.23,48.76-6.16-4.85-9.47-17.05-5.68-24.69a9.13,9.13,0,0,0-3.94,3.24c-4.08,6-5.26,15.33-1.39,21.7,6.16,10.19,17,12.06,27.07,4.38,7.75-5.94,9.39-15.5,12.59-23.86,4.83-12.65,14-22.57,22-33.51,5.11-7,11.09-15.47,11.27-24.28C178,714.42,177.36,709.18,172.84,706.6Z" transform="translate(-19.69 -149.34)"/><path class="cls-5" d="M135.48,751.52c3.08-3.48,5-10.46-2.18-10-5.2.36-10.17,2.46-14.69,4.75-10.76,5.45-17.1,13.56-25.61,21.52-5.71,5.33-12.58,11.1-21.06,7.72-3.12-1.24-4.61-4.28-5.64-7.06-.43-1.16.93-4.81,1.31-6.34a16.93,16.93,0,0,0-6.36,7.5c-2.59,6.27-2.44,14.52,3.62,19.26,5.51,4.29,10.9,4.09,16.47,2a14.1,14.1,0,0,0,2.39-1.35,14.57,14.57,0,0,0,2.59-2.72,13.59,13.59,0,0,0,2.2-3.42,17.49,17.49,0,0,0,2.28-5.59,12.3,12.3,0,0,0,.06-4.32h0a.89.89,0,0,1,1.25.38,8.69,8.69,0,0,1,.95,2.56c3.51-7.74,11.65-12.49,18.93-17.09C118.37,755.36,127.32,750,135.48,751.52Z" transform="translate(-19.69 -149.34)"/><path class="cls-5" d="M30.82,761.07A14.75,14.75,0,0,1,29,754.41a4.42,4.42,0,0,0-.47.35c-5.95,5.28-6.85,14.89-2.58,21.44C31,784.07,43,791.45,50.2,780.73c3.11-4.6,5-10,9-14a1.32,1.32,0,0,1,.63-.36c.28-.43.61-.83.9-1.24a1.49,1.49,0,0,0,.2-.15c.49-.56,1-1.07,1.49-1.56C51.06,767.44,37.41,773.05,30.82,761.07Z" transform="translate(-19.69 -149.34)"/><path class="cls-4" d="M351.53,718.81c-.07-4.39.5-9.63,5-12.21,3.7-2.13,9.54-3.84,12.75.14a1.4,1.4,0,0,0,.63.45c-1.38,3.66-2.68,7.33-3.85,11,0,.06,0,.12,0,.2,1.19-2.4,2.83-4.67,4.09-7,4.38-8.12,8.39-16.35,12.4-24.63,5.53-11.45,11.28-22.82,17.15-34.11,1.24-3,2.46-5.94,3.6-8.93,9.8-25.48,18.7-52,33.69-75.4.25-.38-.43-1.18-.82-.8-8.59,8.63-13.39,21-18.85,31.51-6.15,11.79-10.79,24.06-15.64,36.35a47.65,47.65,0,0,0-3.07-18.22C394.1,606,385.45,594.34,388.43,583a84,84,0,0,1,22-23.33c8.64-6.33,19.57-14.53,30.22-17.54,39.09-11.05,19.14,46.26,14.86,62.15-6.31,23.35-16.67,45-30.15,65.56a268.21,268.21,0,0,1-22.17,29.88c-1.35,1.53-2.71,3.11-4.08,4.72-1.49,1.94-2.95,3.89-4.49,5.8-3.81,4.78-7.47,10-11.88,14.37a28.15,28.15,0,0,0,8.6-6.25c7.31,12.66,74.15,31.88,87.08,35.09a30,30,0,0,1-1.2,3.18c-.57.08-.5.59-.29,1a42.07,42.07,0,0,1,3.67-2.29,6.86,6.86,0,0,1,.63-.47c.27-.16.59-.24.87-.39a6.63,6.63,0,0,1,3.6-2.2c4.85-1.17,11.35-.95,15.19,2.48,5.94,5.28,6.85,14.89,2.58,21.44-5.14,7.87-17.07,15.25-24.3,4.53-3.11-4.6-5-10-9-14a1.3,1.3,0,0,0-.64-.36c-.27-.43-.6-.83-.9-1.24l-.2-.15a22.7,22.7,0,0,0-16.28-8.05,16.2,16.2,0,0,1,3.19,1.18,11.51,11.51,0,0,1,2.82,2c4.38,2,8.11,5.12,9.92,9.52,2.58,6.27,2.43,14.52-3.63,19.26-5.49,4.29-10.91,4.09-16.47,2a13.94,13.94,0,0,1-2.38-1.35,20.74,20.74,0,0,1-4.81-6.14,17.91,17.91,0,0,1-2.26-5.59,12.3,12.3,0,0,1-.07-4.32h0a.9.9,0,0,0-1.26.38,9,9,0,0,0-.95,2.56c-3.52-7.74-11.65-12.49-18.92-17.09-7-4.42-17.18-10.53-25.92-7.19a0,0,0,0,0,0,0,21.6,21.6,0,0,1-1.9-5.19c-.28.85-.54,1.71-.78,2.57,1,3.9,3.35,7.47,5.17,11.13a79.16,79.16,0,0,0,9.47,14.07,28.77,28.77,0,0,0-2.39,6,1.22,1.22,0,0,0,.32,1,11.65,11.65,0,0,1,4.4-6.18,20.22,20.22,0,0,1,1.87-1.94A11,11,0,0,1,409,772.4c2.8-2.14,5.87-3.16,8.58-1.76a9,9,0,0,1,5.48,3.74c4.08,6,5.26,15.33,1.39,21.7-6.16,10.19-17,12.06-27.07,4.38-7.75-5.94-9.38-15.5-12.58-23.86-4.85-12.65-14-22.57-22-33.51C357.69,736.1,351.71,727.62,351.53,718.81Z" transform="translate(-19.69 -149.34)"/><path class="cls-4" d="M351.53,718.81c-.07-4.39.5-9.63,5-12.21,3.7-2.13,9.54-3.84,12.75.14a1.4,1.4,0,0,0,.63.45c-1.38,3.66-2.68,7.33-3.85,11,0,.06,0,.12,0,.2,1.19-2.4,2.83-4.67,4.09-7,4.38-8.12,8.39-16.35,12.4-24.63,5.53-11.45,11.28-22.82,17.15-34.11,1.24-3,2.46-5.94,3.6-8.93,9.8-25.48,18.7-52,33.69-75.4.25-.38-.43-1.18-.82-.8-8.59,8.63-13.39,21-18.85,31.51-6.15,11.79-10.79,24.06-15.64,36.35a47.65,47.65,0,0,0-3.07-18.22C394.1,606,385.45,594.34,388.43,583a84,84,0,0,1,22-23.33c8.64-6.33,19.57-14.53,30.22-17.54,39.09-11.05,19.14,46.26,14.86,62.15-6.31,23.35-16.67,45-30.15,65.56a268.21,268.21,0,0,1-22.17,29.88c-1.35,1.53-2.71,3.11-4.08,4.72-1.49,1.94-2.95,3.89-4.49,5.8-3.81,4.78-7.47,10-11.88,14.37a28.15,28.15,0,0,0,8.6-6.25c7.31,12.66,74.15,31.88,87.08,35.09a30,30,0,0,1-1.2,3.18c-.57.08-.5.59-.29,1a42.07,42.07,0,0,1,3.67-2.29,6.86,6.86,0,0,1,.63-.47c.27-.16.59-.24.87-.39a6.63,6.63,0,0,1,3.6-2.2c4.85-1.17,11.35-.95,15.19,2.48,5.94,5.28,6.85,14.89,2.58,21.44-5.14,7.87-17.07,15.25-24.3,4.53-3.11-4.6-5-10-9-14a1.3,1.3,0,0,0-.64-.36c-.27-.43-.6-.83-.9-1.24l-.2-.15a22.7,22.7,0,0,0-16.28-8.05,16.2,16.2,0,0,1,3.19,1.18,11.51,11.51,0,0,1,2.82,2c4.38,2,8.11,5.12,9.92,9.52,2.58,6.27,2.43,14.52-3.63,19.26-5.49,4.29-10.91,4.09-16.47,2a13.94,13.94,0,0,1-2.38-1.35,20.74,20.74,0,0,1-4.81-6.14,17.91,17.91,0,0,1-2.26-5.59,12.3,12.3,0,0,1-.07-4.32h0a.9.9,0,0,0-1.26.38,9,9,0,0,0-.95,2.56c-3.52-7.74-11.65-12.49-18.92-17.09-7-4.42-17.18-10.53-25.92-7.19a0,0,0,0,0,0,0,21.6,21.6,0,0,1-1.9-5.19c-.28.85-.54,1.71-.78,2.57,1,3.9,3.35,7.47,5.17,11.13a79.16,79.16,0,0,0,9.47,14.07,28.77,28.77,0,0,0-2.39,6,1.22,1.22,0,0,0,.32,1,11.65,11.65,0,0,1,4.4-6.18,20.22,20.22,0,0,1,1.87-1.94A11,11,0,0,1,409,772.4c2.8-2.14,5.87-3.16,8.58-1.76a9,9,0,0,1,5.48,3.74c4.08,6,5.26,15.33,1.39,21.7-6.16,10.19-17,12.06-27.07,4.38-7.75-5.94-9.38-15.5-12.58-23.86-4.85-12.65-14-22.57-22-33.51C357.69,736.1,351.71,727.62,351.53,718.81Z" transform="translate(-19.69 -149.34)"/><path class="cls-4" d="M408.15,561.48c-.87,1.58-1.78,3.14-2.58,4.77-2.92,5.85-8.77,15.4-6.77,22.15,3.27,11.06,19.77-8.15,22.37-11.11,6.57-7.52,13.63-14.81,22.65-19.84,1.25-.69,2.64,1.1,2.32,2.15-6.64,22-19,41.77-27.18,63.17C415,633,410.5,642.88,406.29,653c-4.13,9.93-18.94,43-9.08,54l1.92-2.5c1.37-1.61,2.73-3.19,4.08-4.72a268.21,268.21,0,0,0,22.17-29.88c13.48-20.52,23.84-42.21,30.15-65.56,4.28-15.89,24.23-73.2-14.86-62.15-10.65,3-21.58,11.21-30.22,17.54C409.64,560.24,408.93,560.88,408.15,561.48Z" transform="translate(-19.69 -149.34)"/><path class="cls-4" d="M417.59,770.64c-2.71-1.4-5.78-.38-8.58,1.76a11,11,0,0,0-1.39,1.18,20.22,20.22,0,0,0-1.87,1.94,11.65,11.65,0,0,0-4.4,6.18,1.22,1.22,0,0,1-.32-1,28.77,28.77,0,0,1,2.39-6A79.16,79.16,0,0,1,394,760.7c-1.22-2.43-2.62-4.84-3.75-7.33a19.19,19.19,0,0,0-2,1.27c-1.53,7.18,8.73,26.13,10.85,29.49,2.76,4.35,6.12,6.64,11.07,8.79a64.2,64.2,0,0,0,13.54,4.31,11.44,11.44,0,0,0,.76-1.15c3.87-6.37,2.69-15.75-1.39-21.7A9,9,0,0,0,417.59,770.64Z" transform="translate(-19.69 -149.34)"/><path class="cls-5" d="M446.89,774.13c-15.07-8-34.65-28.06-52.3-22.68,8-1.14,16.61,4,22.8,7.92,7.27,4.6,15.4,9.35,18.92,17.09a9,9,0,0,1,.95-2.56.9.9,0,0,1,1.26-.38h0a12.3,12.3,0,0,0,.07,4.32,17.91,17.91,0,0,0,2.26,5.59,20.74,20.74,0,0,0,4.81,6.14,13.94,13.94,0,0,0,2.38,1.35c5.56,2.06,11,2.26,16.47-2,5.11-4,6-10.46,4.61-16.14C466.23,781.25,455.32,778.58,446.89,774.13Z" transform="translate(-19.69 -149.34)"/><path class="cls-5" d="M504,758.65a20.15,20.15,0,0,1-6.17,8.12c-7.92,6.31-17.52,6.83-25.57,2.4,2.67,3.65,4.45,7.83,7,11.56,7.23,10.72,19.16,3.34,24.3-4.53A17.34,17.34,0,0,0,504,758.65Z" transform="translate(-19.69 -149.34)"/><path class="cls-5" d="M385.79,688.86c3.79-7.36,7.75-14.76,11.65-22.19l.48-1.33c4.55-12.44,10.32-24.38,15.31-36.65,8.94-22,20.87-43.25,28.38-65.72-11.64,8.08-18.3,20.15-29.68,28.49-4,3-12.42,5.58-15.21-.51-3-6.53.5-14.56,3.24-20.66.47-1,1-2,1.45-3a83.68,83.68,0,0,0-13,15.7c-3,11.36,5.67,23,10.17,34.23a47.65,47.65,0,0,1,3.07,18.22c4.85-12.29,9.49-24.56,15.64-36.35,5.46-10.5,10.26-22.88,18.85-31.51.39-.38,1.07.42.82.8-15,23.36-23.89,49.92-33.69,75.4-1.14,3-2.36,6-3.6,8.93-5.87,11.29-11.62,22.66-17.15,34.11-2.94,6-5.91,12.05-9,18v.79a1.33,1.33,0,0,1-1,1.13c-.82,1.57-1.59,3.13-2.42,4.69-.7,1.29-1.51,2.55-2.29,3.84.33,3.91,1.76,8.92,3.83,14.39C371.05,715.72,379.94,700.18,385.79,688.86Z" transform="translate(-19.69 -149.34)"/><path class="cls-5" d="M397.39,787a128.33,128.33,0,0,1-6.68-12.56c-9-11.7-15.67-26.6-20.88-39.43-2.83-6.92-6.56-15.34-5.67-22.94a9.5,9.5,0,0,1,2.4-5.83,6.26,6.26,0,0,1,1.09-.92c-3.31-2-8-.54-11.11,1.27-4.51,2.58-5.08,7.82-5,12.21.18,8.81,6.16,17.29,11.27,24.28,8,10.94,17.16,20.86,22,33.51,3.2,8.36,4.83,17.92,12.58,23.86,8.49,6.48,17.52,6.13,23.85-.23C411.7,798.17,400.28,791.6,397.39,787Z" transform="translate(-19.69 -149.34)"/><path class="cls-2" d="M240,753.23c-11.36-4.94-18.55-15.25-27-23.53a1.44,1.44,0,0,0,.19-1c-4.59-19.59-10-38.6-12.53-58.6a324.05,324.05,0,0,1-1.56-57.34c1.1-20,4-39.9,5.24-59.9.29-5,2.9-20.6-1.73-27.38a.17.17,0,0,0,0-.2,9.8,9.8,0,0,0-1.09-1.51c3.3,13.28,1.3,26.73-.83,40.2-.26,1.69-3.77,1.93-3.47-.08.75-4.66,1.45-9.33,2-14a.87.87,0,0,1-.62-.92c.14-2.48.36-5,.51-7.64a82,82,0,0,0-1.26-15.55c-.11-.38-.29-.74-.43-1.11a103.68,103.68,0,0,0-7.2,15.62c-2.28,7.13-3.77,14.4-3.12,22,.16,1.77-3.38,2.55-3.54.8-.1-1.07-.07-2.13-.09-3.2a1.12,1.12,0,0,1-.32-.85,59.22,59.22,0,0,1,.69-7c.18-1.34.44-2.67.71-4a.31.31,0,0,0,0-.09,67.66,67.66,0,0,1,2-7.67c1.41-4.22,2.64-8.93,4.87-12.85.8-1.41,1.68-2.79,2.54-4.18-4.13,3.23-7.75,10.58-9.11,13.65-8.77,19.84-10,41.54-11.22,62.69-1.33,23-1.61,46.2.3,69.22,1.61,19.34,4.28,40,10.78,58.71,0,.05,0,.11,0,.16,3,6.85-5.54,13.86-10.23,18.09C170.17,749.7,162.14,757.2,156,757c-11.4-.45-17.59,9.78-11.64,18.41,4.53,6.6,17.22,9.44,22.3,1.79,1.71-2.55,2.29-5.36,3.06-8.15,3-3.07,6.77-5.53,11.26-3,3,1.68,3.9,5.05,6.13,7.35-2.18,2.19-3.94,5-2.4,8.16a18.38,18.38,0,0,0,24.47,8.63c7.36-3.39,6.95-11.1,4.95-18.19,1.57-3.26,2.75-6.26,6.66-8.21,4.9-2.44,9.17.23,13.24,2.53a1.14,1.14,0,0,0,.05.91c5.35,8.26,23.77,12.84,23.86-1.26C258,754.91,248.46,756.9,240,753.23Z" transform="translate(-19.69 -149.34)"/><path class="cls-6" d="M189.08,770.93c-1.77-4.32-5.77-8.46-10.7-8.83a10.07,10.07,0,0,0-7,2.42c0-.07.07-.15.11-.23,2.29-4.24,12-17.06,17.62-11.72l.07,0C189.8,758.21,191.83,766,189.08,770.93Z" transform="translate(-19.69 -149.34)"/><path class="cls-6" d="M220.72,761.14a17.5,17.5,0,0,0-7.81,7.09c-.87-2.44-1.8-4.69-2.5-6.48-.44-1.11-4.42-13.48-2-12.48,3,1.28,5.75,3.34,8.8,4.7a53.29,53.29,0,0,1,10.93,6.33A13.59,13.59,0,0,0,220.72,761.14Z" transform="translate(-19.69 -149.34)"/><path class="cls-4" d="M237,766a1,1,0,0,0-.08-.93c-.23-.29-.52-.54-.77-.8C232,756,222,753.2,214.14,748.45c-3.71-2.24-11-4.39-10.74,2.71.18,5.3,2.72,10.09,4.68,15a76,76,0,0,1,3.85,13q-5.58,13.59-15.66,8.77a17.31,17.31,0,0,1-5.78-4.1c-5-4.72,1.86-12.34,2.57-17.35.77-5.39-.54-11.28-1.32-16.61-.18-1.22-1.58-1-2.32-.22-3.85-2.55-10,2.38-12.6,5A63,63,0,0,0,168.38,765a14.68,14.68,0,0,0-1.9,4.93c-2.23,8.94-10.75,10.84-17.87,5-7.48-6.16.65-15.22,9.61-15a12.89,12.89,0,0,0,6.29-2.11c4.41-3.75,8.78-7.63,13.05-11.52,3.34-3.06,8.09-7.68,9.52-12.46,0,0,0,0,0,.06.6,1.47,3.28.11,3-1.18-3.44-16.75-7.93-33.11-10.2-50.1-2.32-17.42-2.94-35-2.92-52.52,0-17.84.73-35.78,2.19-53.56A169.88,169.88,0,0,1,183.77,549a112.18,112.18,0,0,1,4.83-14.51c.78-2,4.67-10.75,9.16-11.35,0,0,0,.05.07.07,5.58,1.86,4.44,13.13,4.42,17.5-.05,9.7-.84,19.39-1.71,29.06-1.68,18.57-4,37.07-4.59,55.74A357.31,357.31,0,0,0,198.6,680c1.88,15.43,4.57,31.87,10.19,46.67-.41.23-.69.69-.39,1.08l1.6,2,.18.48a1,1,0,0,0,.69.63c7.7,9.61,15.68,18.75,27,24.94,6.59,3.6,18.4,2.11,16.6,12.72C252.87,778,241.4,769.21,237,766Z" transform="translate(-19.69 -149.34)"/><path class="cls-5" d="M190.11,732.66c.27,1.29-2.41,2.65-3,1.18,0,0,0,0,0-.06-1.43,4.78-6.18,9.4-9.52,12.46-2.31,2.1-4.69,4.14-7.05,6.22,8.41-2.09,19.14-10.66,22.22-16.19,5.9-10.59-.44-24.64-2.54-35.61a478.48,478.48,0,0,1-8.34-67c-1.09-21.48-1-43.22-.25-64.72.2-5.11.53-10.23,1.09-15.32a168,168,0,0,0-3.51,22.84C177.72,594.26,177,612.2,177,630c0,17.54.6,35.1,2.92,52.52C182.18,699.55,186.67,715.91,190.11,732.66Z" transform="translate(-19.69 -149.34)"/><path class="cls-5" d="M150,768.15a11.26,11.26,0,0,1-1.23-4.82c-3.54,3.15-4.67,7.86-.19,11.55,6.62,5.46,14.38,4.11,17.23-3.27C160.27,774.51,153.26,774.6,150,768.15Z" transform="translate(-19.69 -149.34)"/><path class="cls-5" d="M198.87,781.16c-5.06.38-8.17-1.08-10-3.52-.47,2.26-.24,4.4,1.6,6.13a17.31,17.31,0,0,0,5.78,4.1q10.08,4.82,15.66-8.77a80.85,80.85,0,0,0-2.31-8.5C208.4,776,205.33,780.66,198.87,781.16Z" transform="translate(-19.69 -149.34)"/><path class="cls-5" d="M249.13,759.48a8.88,8.88,0,0,1-3.24,8.34,11,11,0,0,1-3.59,1.84c5,3.13,11,5.53,12.19-1.12C255.41,763.14,252.78,760.88,249.13,759.48Z" transform="translate(-19.69 -149.34)"/><path class="cls-2" d="M364.27,757c-6.19.24-14.23-7.26-18.56-11.18-4.68-4.23-13.22-11.24-10.23-18.09,0-.05,0-.11,0-.16,6.5-18.71,9.19-39.37,10.78-58.71,1.92-23,1.64-46.18.3-69.22-1.2-21.15-2.43-42.85-11.21-62.69-1.38-3.12-5.12-10.67-9.34-13.79,4,6.15,7.76,11.83,9.79,19.48a114.93,114.93,0,0,1,4.34,27.21c0,1.68-3.27,2.94-3.33.94A103.92,103.92,0,0,0,331,538.43c-1.93-5.43-5.39-10-8.67-14.73-.31.58-.57,1.17-.83,1.77-1.59,8.68,1.47,20.37,3.26,26.65.38,1.33-1.41,2-2.59,1.55.9,3.83,1.86,7.45,2.57,10.61.43,2-3.11,1.79-3.47.11-2.46-11.17-7.85-27.52-3.38-39.55a3.86,3.86,0,0,0-.34.42.25.25,0,0,0,0,.2c-4.63,6.78-2,22.37-1.73,27.38,1.21,20,4.14,39.89,5.23,59.9a321.22,321.22,0,0,1-1.55,57.34c-2.49,20-7.94,39-12.53,58.6a1.45,1.45,0,0,0,.2,1c-8.45,8.28-15.62,18.59-27,23.53-8.43,3.67-17.94,1.68-17.89,12.73.11,14.1,18.53,9.52,23.87,1.26a1,1,0,0,0,.05-.91c4.08-2.3,8.34-5,13.24-2.53,3.93,2,5.11,5,6.65,8.21-2,7.09-2.39,14.8,5,18.19a18.38,18.38,0,0,0,24.47-8.63c1.54-3.15-.23-6-2.39-8.16,2.22-2.3,3.17-5.67,6.12-7.35,4.5-2.56,8.27-.1,11.28,3,.77,2.79,1.34,5.6,3.05,8.15,5.08,7.65,17.76,4.81,22.3-1.79C381.86,766.74,375.68,756.51,364.27,757Z" transform="translate(-19.69 -149.34)"/><path class="cls-6" d="M331.09,752.62s0,0,.07,0c5.59-5.34,15.32,7.48,17.61,11.72a1.67,1.67,0,0,0,.12.23,10.07,10.07,0,0,0-7-2.42c-4.94.37-8.93,4.51-10.71,8.83C328.41,766,330.44,758.21,331.09,752.62Z" transform="translate(-19.69 -149.34)"/><path class="cls-6" d="M292.13,760.3A53,53,0,0,1,303.06,754c3-1.36,5.78-3.42,8.8-4.7,2.39-1-1.6,11.37-2,12.48-.71,1.79-1.65,4-2.52,6.48a17.53,17.53,0,0,0-7.8-7.09A13.62,13.62,0,0,0,292.13,760.3Z" transform="translate(-19.69 -149.34)"/><path class="cls-4" d="M265.75,768.54c-1.81-10.61,10-9.12,16.6-12.72,11.35-6.19,19.33-15.33,27-24.94a1,1,0,0,0,.7-.63c.07-.17.12-.33.2-.48.51-.67,1.05-1.33,1.56-2,.32-.39,0-.85-.37-1.08,5.63-14.8,8.31-31.24,10.2-46.67a356,356,0,0,0,2.64-54.51c-.56-18.67-2.91-37.17-4.59-55.74-.87-9.67-1.66-19.36-1.71-29.06,0-4.37-1.16-15.64,4.4-17.5.05,0,.05,0,.09-.07,4.51.6,8.38,9.37,9.16,11.35A113.78,113.78,0,0,1,336.47,549a171,171,0,0,1,4.59,27.48c1.47,17.78,2.16,35.72,2.18,53.56,0,17.54-.59,35.1-2.92,52.52-2.26,17-6.75,33.35-10.2,50.1-.26,1.29,2.42,2.65,3,1.18a.07.07,0,0,0,0-.06c1.42,4.78,6.17,9.4,9.52,12.46,4.27,3.89,8.65,7.77,13,11.52a13,13,0,0,0,6.32,2.11c8.94-.21,17.09,8.85,9.59,15-7.1,5.87-15.62,4-17.86-5a14.7,14.7,0,0,0-1.91-4.93,62.94,62.94,0,0,0-8.43-10.39c-2.64-2.62-8.76-7.55-12.59-5-.75-.74-2.16-1-2.33.22-.78,5.33-2.1,11.22-1.34,16.61.71,5,7.62,12.63,2.59,17.35a17.41,17.41,0,0,1-5.78,4.1q-10.08,4.82-15.67-8.77a77,77,0,0,1,3.85-13c2-4.9,4.5-9.69,4.69-15,.26-7.1-7-4.95-10.75-2.71-7.87,4.75-17.89,7.54-22,15.82-.24.26-.52.51-.76.8a.94.94,0,0,0-.08.93C278.84,769.21,267.37,778,265.75,768.54Z" transform="translate(-19.69 -149.34)"/><path class="cls-5" d="M337.06,592.55c0,25.4.44,50.81-1.36,76.17A243.08,243.08,0,0,1,331,704.05c-2.23,10.16-7.47,23.59-.44,33.08,5.38,7.23,15.76,19.15,26.25,21.33a5.81,5.81,0,0,1-1.13-.7c-4.38-3.75-8.76-7.63-13-11.52-3.35-3.06-8.1-7.68-9.52-12.46a.07.07,0,0,1,0,.06c-.59,1.47-3.27.11-3-1.18,3.45-16.75,7.94-33.11,10.2-50.1,2.33-17.42,2.95-35,2.92-52.52,0-17.84-.71-35.78-2.18-53.56a168.57,168.57,0,0,0-3.95-24.64C338,565.4,337.06,579.24,337.06,592.55Z" transform="translate(-19.69 -149.34)"/><path class="cls-5" d="M328.36,750.74a10.88,10.88,0,0,0-1.54.71,21,21,0,0,0-.51,3.69,52,52,0,0,0,.91,12.87c.95,5.06,1.33,10.64-2.86,14.63a15.69,15.69,0,0,1-10.6,4.53c2.9,2.29,6.29,2.57,10.21.7a17.41,17.41,0,0,0,5.78-4.1c5-4.72-1.88-12.34-2.59-17.35S327.57,755.83,328.36,750.74Z" transform="translate(-19.69 -149.34)"/><path class="cls-5" d="M271.74,763a17.9,17.9,0,0,1-4.17-1.52c-1.57,1.48-2.39,3.62-1.82,7,1.62,9.43,13.09.67,17.47-2.54a.94.94,0,0,1,.08-.93c.24-.29.52-.54.76-.8,4.14-8.28,14.16-11.07,22-15.82a19.13,19.13,0,0,1,2.72-1.32C294.79,748.77,286.72,766.49,271.74,763Z" transform="translate(-19.69 -149.34)"/><path class="cls-2" d="M457.86,307.17C432.41,271.17,384.2,256,340,254.46a430.22,430.22,0,0,0-78.73,5,261.93,261.93,0,0,0-35.1,7.82c-6.19,1.32-12.33,2.8-18.43,4.53-22.38,6.33-42.23,16.77-60.77,29.92-35.22,24.94-64.24,63-59.18,105.93,5.31,45.24,46.18,71.55,89.6,83.68A318,318,0,0,0,256.05,503c26.91.57,51-5.16,76.7-11.85,23.86-6.24,44.9-17.35,64.87-30.91,19.34-13.13,37.92-28.79,51.88-47C472.67,383,480.73,339.48,457.86,307.17Z" transform="translate(-19.69 -149.34)"/><path class="cls-4" d="M379.33,466.7c-23.52,14-50.25,21.62-77.24,27.58-28.23,6.24-58.72,4.55-87.09.16-33.85-5.24-68.95-15.05-94.94-36.78C90.32,432.79,84.18,392,100.12,358.91c14.3-29.63,42.31-52.7,71.75-69.14a172.58,172.58,0,0,1,21.91-10.22c-.56.39-1.13.74-1.68,1.17-2.14,1.66-.46,4.89,2,3,9.88-7.6,24.38-10.22,36.41-13.72,15.25-4.43,31.4-6.7,47.22-8.44,27.84-3,57.1-4.19,84.88-.15,49,7.12,101.79,38.29,103.81,88.74C468.5,401.77,422.17,441.18,379.33,466.7Z" transform="translate(-19.69 -149.34)"/><path class="cls-5" d="M466.43,350.14c-2-50.45-54.77-81.62-103.81-88.74-27.78-4-57-2.88-84.88.15-15.82,1.74-32,4-47.22,8.44-12,3.5-26.53,6.12-36.41,13.72-2.47,1.9-4.15-1.33-2-3,.55-.43,1.12-.78,1.68-1.17a172.58,172.58,0,0,0-21.91,10.22c-29.44,16.44-57.45,39.51-71.75,69.14-15.94,33.08-9.8,73.88,19.94,98.75,26,21.73,61.09,31.54,94.94,36.78,28.37,4.39,58.86,6.08,87.09-.16,27-6,53.72-13.58,77.24-27.58C422.17,441.18,468.5,401.77,466.43,350.14Zm-48.57,43.29c-6.93,19.79-19.73,37.76-36.05,52A156.29,156.29,0,0,1,347,468.12c-22.65,15.64-55.62,20.49-82.21,21.66-40.58,1.76-80.43-.88-114.28-24-29.1-19.88-46.81-48.79-45-82.84,1-19.31,6-42.88,23.58-52.83,4.82-3.37,9.64-7.47,16-5.88,8.27,2.06,10.75,12.78,15.58,18.13,13.26,14.67,44.5,20.3,63.13,12.38,15.41-6.56,25.93-21.25,42.07-26.41,17.17-5.49,25.53,8.64,39.13,15.46,23.27,11.66,50.16,6.14,74-.17,10.65-2.82,27.08-7.3,35.92,1.7C426.66,357.25,422.74,379.49,417.86,393.43Z" transform="translate(-19.69 -149.34)"/><path class="cls-2" d="M390.47,328.63A151.47,151.47,0,0,1,367,336a61.77,61.77,0,0,0,15.21-14.39c12.06-15.81,17.8-37.49,17.41-56.66-.4-20-6-43.08-22.29-57.24C369,200.42,357,198,345.31,199c-17.33-1.72-35.67,5.43-46.89,17.68-.93,1,.2,1.92,1.24,1.07a65.7,65.7,0,0,1,25.19-13.16c-.39.19-.8.37-1.17.58a58.59,58.59,0,0,0-5.27,3.14,43.67,43.67,0,0,0-10.31,6c-8.71,6.78-14.43,15.86-18.86,25.45a69.12,69.12,0,0,0-4.78,14.56c.74-9.11,0-18.16-3.18-26.31-2.5-6.43-5.31-10.81-10-14.52,2.47.58,4.95,1.24,7.4,2,.76.24,1.62-.85.86-1.3A61.44,61.44,0,0,0,251.9,206l-.63,0c-27.62-1.41-56.41,13.82-73.3,33.57-12.83,15-20.05,34.79-21.2,53.83-.7,11.48,2.09,25.17,9.27,35.52A49.41,49.41,0,0,1,149.58,311c-.32-.59-1.26.16-1,.68,5.4,12.78,16.14,23.82,30,28.57l.41.26c16.75,8.84,38.37,4.33,54.37-4,19.09-10,32.13-25.26,40.52-43.83a132.1,132.1,0,0,0,9.18-28c-.92,14,2,28.21,7.4,41.36a63.11,63.11,0,0,0,7.15,12.9c1.23,1.94,2.54,3.84,3.95,5.65a1.69,1.69,0,0,0,1.26.64A57.59,57.59,0,0,0,322,338.57a111.44,111.44,0,0,1-20.58-4.49c-.48-.15-1.1.63-.56.84a125.08,125.08,0,0,0,35.76,7.86,43,43,0,0,0,13,.07A95.19,95.19,0,0,0,391.28,331C392.64,330.26,392.29,327.89,390.47,328.63Z" transform="translate(-19.69 -149.34)"/><path class="cls-7" d="M268.59,296.46c-7.78,16.84-22.31,29.88-39.64,38.19-16.27,7.81-37.66,10.77-52.39-1.17C162.47,322.06,160,302,162.14,285.9c2.3-17.43,10.87-34.59,23.36-47.65,18.56-19.4,45.23-28.1,71.81-25.68a40,40,0,0,1,5.4,1.85c9.24,4,12.81,14.47,15,22.94C282.48,256.05,276.56,279.23,268.59,296.46Z" transform="translate(-19.69 -149.34)"/><path class="cls-7" d="M301.06,314.51c-15.47-29.39-16.23-65.86,7.11-92.19,14.73-16.63,42.9-25.31,63.07-11.76,18.27,12.28,23.17,39.47,22.94,58.88-.23,20.18-7.57,42.18-22.3,57.28-17.08,17.47-44.61,12.83-61.68-2A55,55,0,0,1,301.06,314.51Z" transform="translate(-19.69 -149.34)"/><path class="cls-8" d="M115,669.87c-11.47-19.53-21.86-38.73-30.68-59.46-3.9-9.18-6.29-19-8.36-28.66-1.85-8.61-.59-19-4.26-27.1-.39-.87-1.47,0-1.38.7.61,4.46-.42,8.81,0,13.25.46,5.18.59,10.16,1.43,15.27a148.69,148.69,0,0,0,9,31.71c8,19.41,16.34,40.86,31.37,56.59C113.47,673.65,115.87,671.4,115,669.87Z" transform="translate(-19.69 -149.34)"/><path class="cls-8" d="M450.86,583.34c-.76,1.71-1.51,3.43-2.28,5.14l-1.62,3.9c-2,9.52-4.43,19.17-8.26,28.21-8.8,20.74-19.2,39.94-30.68,59.46-.88,1.53,1.5,3.78,2.91,2.31,15-15.73,23.38-37.19,31.37-56.6a146.88,146.88,0,0,0,9-31.69,111.6,111.6,0,0,0,1.13-11.16A11.63,11.63,0,0,0,450.86,583.34Z" transform="translate(-19.69 -149.34)"/><path class="cls-8" d="M49.31,760.54a3,3,0,0,0-.4-1.54,3.41,3.41,0,0,0-.1-.6c-.75-1.59-3-3.1-5.21-3.94a7.23,7.23,0,0,0-3.78-.71,5.54,5.54,0,0,0-4.37,1.77c-1,1.24-.24,3,1.55,4.33a13.58,13.58,0,0,0,6.65,3.73C47.14,764.27,49.21,762.78,49.31,760.54Z" transform="translate(-19.69 -149.34)"/><path class="cls-8" d="M122.1,776.47a6.47,6.47,0,0,0-.68-.62c-.12-.18-.2-.41-.33-.57a3.11,3.11,0,0,0-.46-.57,1.75,1.75,0,0,0-1.38-.57,2.82,2.82,0,0,0-2.55-.92c-2.1.4-3,2.34-3.48,4.09-1.31,4.92.91,10,5,13.2a5,5,0,0,0,8.11-4.18A17,17,0,0,0,122.1,776.47Z" transform="translate(-19.69 -149.34)"/><path class="cls-8" d="M82.42,768.73a2.9,2.9,0,0,0-.64-2.26c-.07-.1-.17-.18-.23-.27a4.53,4.53,0,0,0-1-1.87,4.6,4.6,0,0,0-3-1.42,2.55,2.55,0,0,0-.33-.17,4.14,4.14,0,0,0-5.64,2.18,2.56,2.56,0,0,0-.11.46,3.53,3.53,0,0,0-.42,4c.86,1.67,3.14,2.77,5.25,3a5.45,5.45,0,0,0,4.13-.47A4.4,4.4,0,0,0,82,770.17a2.94,2.94,0,0,0,.42-1.38S82.42,768.75,82.42,768.73Z" transform="translate(-19.69 -149.34)"/><path class="cls-8" d="M200.68,769.68a7.33,7.33,0,0,0-4.77,1.65,5.16,5.16,0,0,0-3.44,5.09c.28,3.09,3.49,4.34,6.47,3.83s6-2.58,6.23-5.57A4.41,4.41,0,0,0,200.68,769.68Z" transform="translate(-19.69 -149.34)"/><path class="cls-8" d="M160.19,763.17a4.85,4.85,0,0,0-3.1-1.3,3.9,3.9,0,0,0-4.21.92c-1.43,1.6-.51,3.6,1.15,4.65s4.16,1.38,5.78.08A2.76,2.76,0,0,0,160.19,763.17Z" transform="translate(-19.69 -149.34)"/><path class="cls-8" d="M246.77,761.89a4.93,4.93,0,0,0-3.11-1.3,3.93,3.93,0,0,0-4.21.92c-1.41,1.61-.51,3.61,1.16,4.66s4.15,1.39,5.78.07A2.77,2.77,0,0,0,246.77,761.89Z" transform="translate(-19.69 -149.34)"/><path class="cls-8" d="M366.08,763.75a7.23,7.23,0,0,0-4.77,1.64,5.16,5.16,0,0,0-3.44,5.09c.31,3.09,3.52,4.34,6.49,3.82s6-2.57,6.24-5.56A4.43,4.43,0,0,0,366.08,763.75Z" transform="translate(-19.69 -149.34)"/><path class="cls-8" d="M322.41,774.2a4.87,4.87,0,0,0-3.11-1.29,3.87,3.87,0,0,0-4.2.92c-1.42,1.6-.52,3.6,1.15,4.65s4.16,1.39,5.79.07A2.77,2.77,0,0,0,322.41,774.2Z" transform="translate(-19.69 -149.34)"/><path class="cls-8" d="M276,759.35a2.79,2.79,0,0,0-1.93-.36,2.2,2.2,0,0,0-2.26,1c-.57,1.07.23,2.1,1.32,2.48a3,3,0,0,0,3.27-.65A1.6,1.6,0,0,0,276,759.35Z" transform="translate(-19.69 -149.34)"/><path class="cls-9" d="M198.89,542.27c-2.26,6.33-3.17,13.16-4.37,19.6-.79,4.28-1.69,8.54-2.56,12.78-.05.37-.09.73-.14,1.1A384.91,384.91,0,0,0,188.19,616c-.85,26.13.29,54,7.73,79.33.5,1.68,2.77,0,2.57-1.29a418,418,0,0,1-5.27-85.59c.53-13.41,2.47-26.64,4.13-39.95.74-6.06.53-12.12,1.72-18.13.55-2.82,1.38-5.33-.06-7.94A.71.71,0,0,0,198.89,542.27Z" transform="translate(-19.69 -149.34)"/><path class="cls-9" d="M329.63,612.52c-.52-15.09-1.1-30-2.38-45-.51-6-1.09-12-2-18-.55-3.63-.37-8-3.73-10.38l-.11,0c.11,7.78,1.72,15.68,2.08,23.42.28,6.17.62,12.34,1.07,18.49,1.17,11.83,2.52,24.82,3,36.78.49,14-.18,26.75-.38,40.75s-2.28,27.89-3.83,41.86c-.15,1.28,1.77.62,2-.26C332.45,671.63,330.66,641.55,329.63,612.52Z" transform="translate(-19.69 -149.34)"/><path class="cls-8" d="M495.3,756.56a3.22,3.22,0,0,0-1.44-.82,2.39,2.39,0,0,0-.54-.35c-1.71-.63-4.45-.21-6.67.67a6.83,6.83,0,0,0-3.19,2,4.83,4.83,0,0,0-1.73,4.14c.23,1.56,2.14,2.3,4.38,2a14.3,14.3,0,0,0,7.54-1.77C496.64,760.61,496.94,758.19,495.3,756.56Z" transform="translate(-19.69 -149.34)"/><path class="cls-8" d="M419.66,776a5.61,5.61,0,0,0-.68-.62c-.12-.18-.21-.39-.32-.56a2.55,2.55,0,0,0-.46-.56,1.76,1.76,0,0,0-1.39-.59,2.81,2.81,0,0,0-2.54-.92c-2.1.4-3,2.34-3.48,4.09-1.31,4.92.9,10,5,13.2a5,5,0,0,0,8.1-4.18A17.14,17.14,0,0,0,419.66,776Z" transform="translate(-19.69 -149.34)"/><path class="cls-8" d="M464.74,769.58a2.91,2.91,0,0,0-.64-2.26,2.09,2.09,0,0,1-.23-.29,4.37,4.37,0,0,0-3.95-3.27c-.13,0-.22-.12-.34-.17a4.15,4.15,0,0,0-5.64,2.17,2.83,2.83,0,0,0-.1.47,3.52,3.52,0,0,0-.43,4c.86,1.67,3.15,2.77,5.25,3a5.45,5.45,0,0,0,4.13-.48,4.37,4.37,0,0,0,1.54-1.78,3,3,0,0,0,.42-1.38A.35.35,0,0,0,464.74,769.58Z" transform="translate(-19.69 -149.34)"/><path class="cls-10" d="M257.9,282.76c-6.22,24.29-26.77,40.53-45.9,36.27s-29.61-27.37-23.38-51.66,26.76-40.52,45.89-36.28S264.12,258.48,257.9,282.76Z" transform="translate(-19.69 -149.34)"/><path class="cls-11" d="M242.28,280.92c-3.57,13.95-15.37,23.27-26.36,20.82s-17-15.71-13.42-29.65,15.37-23.27,26.36-20.83S245.84,267,242.28,280.92Z" transform="translate(-19.69 -149.34)"/><path class="cls-7" d="M225.11,261.23c-2.32,9-10,15.08-17.09,13.5s-11-10.19-8.7-19.24,10-15.08,17.09-13.5S227.42,252.18,225.11,261.23Z" transform="translate(-19.69 -149.34)"/><path class="cls-7" d="M215.13,289.81c-.81,3.15-3.48,5.25-6,4.69s-3.82-3.54-3-6.68,3.46-5.25,5.95-4.7S215.92,286.66,215.13,289.81Z" transform="translate(-19.69 -149.34)"/><path class="cls-10" d="M379.63,272.14c-.39,25-16.63,45-36.31,44.73S308,296.16,308.4,271.2s16.63-45,36.31-44.74S380,247.17,379.63,272.14Z" transform="translate(-19.69 -149.34)"/><path class="cls-11" d="M364,273.53c-.22,14.33-9.54,25.82-20.83,25.68S322.85,287.32,323.05,273s9.55-25.84,20.84-25.68S364.16,259.19,364,273.53Z" transform="translate(-19.69 -149.34)"/><path class="cls-7" d="M342.58,257.79c-.14,9.29-6.2,16.75-13.53,16.66s-13.13-7.72-13-17,6.18-16.74,13.5-16.65S342.71,248.5,342.58,257.79Z" transform="translate(-19.69 -149.34)"/><path class="cls-7" d="M339.54,287.71c-.07,3.23-2.17,5.83-4.71,5.8s-4.57-2.69-4.52-5.92,2.16-5.83,4.7-5.79S339.57,284.49,339.54,287.71Z" transform="translate(-19.69 -149.34)"/><path class="cls-12" d="M379,607.44c-.44-3.26-1.95-7.5-5.93-8.05a3.27,3.27,0,0,0-2.25.5,1.9,1.9,0,0,0-1.65,1c-1.77,3.29-1.59,7.54-.4,11,1.07,3,4,5.92,7.61,4.43C379.71,614.89,379.35,610.12,379,607.44Z" transform="translate(-19.69 -149.34)"/><path class="cls-12" d="M384.43,625.27a.93.93,0,0,0-.76-.48c-.42-.91-2-.06-2.09,1a8.35,8.35,0,0,0,.05,1.24,7.87,7.87,0,0,0-.1,1,1,1,0,0,0,1.23,1.12c.67.49,1.57-.24,1.9-.77C385.42,627.1,385.15,626.43,384.43,625.27Z" transform="translate(-19.69 -149.34)"/><path class="cls-12" d="M377.27,635a3.25,3.25,0,0,0-2.93-.42c-1.31-.51-2.43.46-2.83,1.79a4.65,4.65,0,0,0-.63,2.84c-.21,1.85.46,3.7,2.32,4.25a2.81,2.81,0,0,0,3-.43,5.8,5.8,0,0,0,1.66-2.11,1,1,0,0,0,.55-.6C378.85,638.51,378.91,636.31,377.27,635Z" transform="translate(-19.69 -149.34)"/><path class="cls-12" d="M370.75,655.11h-.13a.86.86,0,0,0-.54.14c-.53,0-1.14.7-.92,1.16s.08.86.59,1.21a.94.94,0,0,0,1.21-.31,2,2,0,0,0,.55-1.41A.76.76,0,0,0,370.75,655.11Z" transform="translate(-19.69 -149.34)"/><path class="cls-12" d="M360.85,659.55a2.32,2.32,0,0,0-1.82,3.68,1.58,1.58,0,0,0,.46.88c1.28,1.3,3.13-.33,3.41-1.62S362.59,659.58,360.85,659.55Z" transform="translate(-19.69 -149.34)"/><path class="cls-12" d="M146.75,622.64c3.56,1.51,6.57-1.43,7.62-4.42,1.2-3.41,1.37-7.66-.39-11a1.92,1.92,0,0,0-1.67-1,3.27,3.27,0,0,0-2.25-.52c-4,.57-5.49,4.81-5.92,8.06C143.77,616.49,143.44,621.26,146.75,622.64Z" transform="translate(-19.69 -149.34)"/><path class="cls-12" d="M138.69,631.63a1,1,0,0,1,.77-.47c.41-.9,2-.06,2.09,1a10.14,10.14,0,0,1,0,1.24,7.94,7.94,0,0,1,.08,1c0,.91-.57,1.2-1.21,1.12-.69.49-1.59-.26-1.9-.78C137.71,633.47,138,632.8,138.69,631.63Z" transform="translate(-19.69 -149.34)"/><path class="cls-12" d="M145.86,641.37a3.21,3.21,0,0,1,2.94-.42c1.3-.51,2.41.46,2.82,1.79a4.54,4.54,0,0,1,.62,2.82c.2,1.87-.46,3.71-2.31,4.27a2.87,2.87,0,0,1-3.06-.43,5.85,5.85,0,0,1-1.64-2.11c-.25-.15-.51-.34-.56-.6C144.28,644.87,144.23,642.68,145.86,641.37Z" transform="translate(-19.69 -149.34)"/><path class="cls-12" d="M152.38,661.48h.14a.87.87,0,0,1,.53.14c.52,0,1.14.7.93,1.16s-.09.86-.6,1.21a1,1,0,0,1-1.22-.31,2,2,0,0,1-.54-1.41A.76.76,0,0,1,152.38,661.48Z" transform="translate(-19.69 -149.34)"/><path class="cls-12" d="M162.27,665.92a2.32,2.32,0,0,1,1.85,3.68,1.7,1.7,0,0,1-.49.88c-1.28,1.3-3.13-.35-3.41-1.64S160.53,666,162.27,665.92Z" transform="translate(-19.69 -149.34)"/><path class="cls-2" d="M258.68,179.62c-3.86-5.36-11.38-9.2-16.76-12.24-7.27-4.11-14.48-8.46-22.47-11.23a95.09,95.09,0,0,0-17.82-4.23,71.93,71.93,0,0,0-27.12,3.58c-16,5.34-23.36,19.34-21.22,34.68,1,7,5.18,14.45,9.8,19.91.92,1.09,1.95,2.43,3,3.74,3.36,1,5.49-.79,6.93-3.61-2.85-16.75,8.72-34.1,26.77-38.56,20.93-5.19,38.61,5.67,56.9,12.56a1.82,1.82,0,0,0,2.34-1.75A7.27,7.27,0,0,0,258.68,179.62Z" transform="translate(-19.69 -149.34)"/><path class="cls-2" d="M306.41,180.62c3.5-5.56,10.76-9.81,15.95-13.14,7-4.51,13.9-9.25,21.72-12.46a96.8,96.8,0,0,1,17.51-5.21,72.6,72.6,0,0,1,27.32,2.08c16.34,4.46,24.54,18,23.38,33.46-.52,7-4.26,14.7-8.52,20.4-.86,1.15-1.79,2.54-2.79,3.91-3.29,1.21-5.52-.48-7.15-3.21,1.78-16.89-10.87-33.57-29.16-37-21.23-4-38.18,7.79-56,15.68a1.84,1.84,0,0,1-2.44-1.62A6.82,6.82,0,0,1,306.41,180.62Z" transform="translate(-19.69 -149.34)"/><path class="cls-2" d="M262.19,376.48c-.26-.52-.85-.43-1.34-.15-.59,0-1.31.64-1.28,1.2a6.32,6.32,0,0,0,.21,1,3,3,0,0,0,.35,1.86l.07,0c.43.61,1.63.26,2-.48A3.8,3.8,0,0,0,262.19,376.48Z" transform="translate(-19.69 -149.34)"/><path class="cls-2" d="M275.85,375.92a7.93,7.93,0,0,0-.69,1,1.05,1.05,0,0,0,.37,1.53s0,0,0,0a.91.91,0,0,1,.17.17,2.75,2.75,0,0,0,.33,1h0c.36.51,1.49.15,1.77-.45a21.78,21.78,0,0,0,.64-2.53C279.1,374.92,276.77,374.94,275.85,375.92Z" transform="translate(-19.69 -149.34)"/><path class="cls-2" d="M404,267l-.33-.07a2,2,0,0,0,.43-1.16c1.31-34.24-18.65-81.08-63.68-73-18.76,3.37-33.85,13.85-44.21,28.6-5.06,7.15-7.82,15.09-9.45,23.47a108.11,108.11,0,0,0-1.43,14.36c-.27,5,1,10.37.25,15.39,0,0,0,0,0,0-1.26.63-1.65,3.4.34,2.77a281,281,0,0,1,57.84-11.95c19.95-2.09,39.17.2,58.62,4.69C404.11,270.55,405.94,267.49,404,267Z" transform="translate(-19.69 -149.34)"/><path class="cls-4" d="M344.86,261.16c-19.27,1.92-39.72,4.55-56.44,12.16,1.07-4.84.45-10.23.76-15.08.6-9.86,2.23-19.61,6.44-28.73,7.4-16,24.07-27.65,41.89-31.64A46,46,0,0,1,386,216.55c10,14.32,12.48,32.87,13.71,49.49C381.53,261.91,363.76,259.27,344.86,261.16Z" transform="translate(-19.69 -149.34)"/><path class="cls-2" d="M396.08,285.31c-8.16-.3-16.61,3.5-24.69,4.59-12.92,1.73-26,2.94-39,3.66a180,180,0,0,1-21.67-.47c-3.54-.24-15.09.3-18.93-2.61a5.8,5.8,0,0,0,.56-1c.15-.52-.62-.42-.72,0a2,2,0,0,1-.3.56,2.87,2.87,0,0,1-.6-.85c-.28-.62-1.12-.12-1.12.42a1.32,1.32,0,0,0-.87.54c-.14.19-.27.38-.4.58-.36.5-.36,1.52.59,1.28-6.51,1.62,11.52,29.35,14.78,32.75,9.37,9.77,24.92,15.41,38.67,16.43,15.23,1.11,29.72-9.2,40.12-18.3s15.9-23.1,16.38-36.28C399,284.81,397.44,284.65,396.08,285.31Z" transform="translate(-19.69 -149.34)"/><path class="cls-4" d="M335.5,335.37c-12.22-2.72-23.23-8.16-31.33-17.22-4.34-4.85-7.37-11-10-16.8-1.11-2.45-1.35-6-2.29-8.76,6.47,4.55,23.34,4,29.23,4.29,13.43.58,27.21-1.22,40.53-2.59,11.11-1.15,21.53-3.94,32.38-5.91C393,314.46,364.85,341.92,335.5,335.37Z" transform="translate(-19.69 -149.34)"/><path class="cls-2" d="M267.65,302.65c-.41-.73-1.23-1.09-2.35-.39-7.22,4.52-18.69,3-26.94,2.34a217.18,217.18,0,0,1-31.53-5.12c-18.11-4.18-33-10.84-45.45-24.05-.06-.07-.14-.05-.2-.1-.72-.63-2.48.51-2.41,1.52.52,8.14-1.82,16.06-1.71,24.21a50.13,50.13,0,0,0,4.85,21.07c5.94,12.09,20.58,17.66,33.55,20.47,15.49,3.36,32.68-3.33,45.66-10.75,10.52-6,24.77-15.4,28.2-27.05C269.8,303.18,268.83,302.55,267.65,302.65Z" transform="translate(-19.69 -149.34)"/><path class="cls-4" d="M251.67,319.43a80.07,80.07,0,0,1-17.17,11.33c-14.66,6.8-28,10.12-44.16,5.79-13.88-3.72-23.86-11.82-27.61-25-3.1-10.88.08-21.37-.82-32,9.6,14.52,28.41,20.42,45.44,24.39s39.21,10.37,56.61,4.83C261.49,314.06,256.32,315.57,251.67,319.43Z" transform="translate(-19.69 -149.34)"/><path class="cls-2" d="M283.64,271.53c-1.67-3.43-.34-8.76-.32-12.45,0-4.71,0-9.4-.25-14.1a57.48,57.48,0,0,0-5.51-22.69c-6.67-13.75-21.4-18.14-36.57-16.85-33.48,2.87-66.33,30.07-77.55,59.12-.58-.15-1.3.85-.73,1.19l.21.09c-.06.16-.14.32-.19.48-.13.36,0,1,.49,1.05l.59.1a1.21,1.21,0,0,0,1.33-.76c4.58,1.15,10-.9,14.66-1.41,10.18-1.1,20.47-2.49,30.75-2.47,11,0,22,1.86,33,2.77a124,124,0,0,1,19.6,3c5.56,1.37,10.68,5.61,16.23,7,.11.26.17-1.17.3-.92C280.8,277.05,284.69,273.68,283.64,271.53Z" transform="translate(-19.69 -149.34)"/><path class="cls-4" d="M221.36,259.78a116.57,116.57,0,0,0-26.27.72c-5,.66-9.93,1.24-14.88,1.94-3.88.53-10.42,3.14-14.87,2.59a6.63,6.63,0,0,0,2.33-3.25c.94-1.61,1.91-3.22,2.91-4.81,2.39-3.82,5-7.49,7.75-11.07a99,99,0,0,1,18-17.45c13.47-10.4,30.68-18,48.31-18.78,17.86-.79,28.59,10.41,32.43,25.72,2,8,1.7,16.64,1.67,24.84,0,3.25-.57,6.59-.3,9.82C260,262.94,241.2,261.65,221.36,259.78Z" transform="translate(-19.69 -149.34)"/><path class="cls-5" d="M341.54,207.3c27.07,4.93,32.73,32.13,32.75,54.26A234.27,234.27,0,0,1,399.73,266C398.5,249.42,396,230.87,386,216.55a46,46,0,0,0-48.51-18.68c-15.2,3.4-29.53,12.41-38,24.9C309.78,211.45,324.67,204.22,341.54,207.3Z" transform="translate(-19.69 -149.34)"/><path class="cls-5" d="M368.7,293.32a55.78,55.78,0,0,1-33.33,32.31,47.8,47.8,0,0,1-17.53,3.24,67.22,67.22,0,0,0,17.66,6.5c29.35,6.55,57.54-20.91,58.55-47C385.52,289.93,377.24,292,368.7,293.32Z" transform="translate(-19.69 -149.34)"/><path class="cls-4" d="M162.73,311.57A33,33,0,0,0,174.3,328.8c11.55,3.12,25.55-.79,36.75-8.19a54.08,54.08,0,0,0,13.38-12.71c-6-1.28-11.77-2.74-17.08-4-17-4-35.84-9.87-45.44-24.39C162.81,290.2,159.63,300.69,162.73,311.57Z" transform="translate(-19.69 -149.34)"/><path class="cls-5" d="M227.62,308.55A56.66,56.66,0,0,1,205,327c-8.28,3.75-16.92,5.87-24.91,5.58a49.59,49.59,0,0,0,10.21,3.95c16.13,4.33,29.5,1,44.16-5.79a80.07,80.07,0,0,0,17.17-11.33c4.65-3.86,9.82-5.37,12.29-10.68C252.9,312.26,240,311,227.62,308.55Z" transform="translate(-19.69 -149.34)"/><path class="cls-4" d="M180.21,262.44c4.95-.7,9.93-1.28,14.88-1.94a116.57,116.57,0,0,1,26.27-.72c6.55.61,13,1.19,19.3,1.9,1.67-13.72,1.49-31.09-9.66-40a22,22,0,0,0-15.4-4.76,96.58,96.58,0,0,0-19.25,11.51,99,99,0,0,0-18,17.45c-2.76,3.58-5.36,7.25-7.75,11.07-1,1.59-2,3.2-2.91,4.81a6.63,6.63,0,0,1-2.33,3.25C169.79,265.58,176.33,263,180.21,262.44Z" transform="translate(-19.69 -149.34)"/><path class="cls-5" d="M277.09,235.39c-3.84-15.31-14.57-26.51-32.43-25.72a77.07,77.07,0,0,0-22.71,4.7,28.61,28.61,0,0,1,6,1.52c17.43,6.55,18.19,30.47,16.23,46.2,11.66,1.46,23,3.62,34.31,8-.27-3.23.3-6.57.3-9.82C278.79,252,279.12,243.42,277.09,235.39Z" transform="translate(-19.69 -149.34)"/><path class="cls-9" d="M220.3,222.09c-13.38,4.25-27,15.24-33.88,26.76-1.07,1.79,1,3.05,2.57,1.86,5-3.75,8.65-9.16,13.08-13.48a73.3,73.3,0,0,1,18.51-12.82C221.62,223.88,222,221.55,220.3,222.09Z" transform="translate(-19.69 -149.34)"/><path class="cls-9" d="M308.77,220c-8.71,10.36-13.66,26.47-12.71,39.64.15,2.05,2.63,2.05,3.26.25,1.95-5.66,1.87-12.07,3.05-17.94a64.9,64.9,0,0,1,8-20.14C310.94,220.84,309.86,218.73,308.77,220Z" transform="translate(-19.69 -149.34)"/><path class="cls-2" d="M250.47,328.36c-7.58,6.2-14.3,11.39-23.18,16-9.6,5-20.48,6.2-31.28,6.54a81.68,81.68,0,0,1-28.71-4.08c-7.54-2.52-18.35-7.54-20.59-15.35-.26-.89-1.58,0-1.4.7,4.12,16.95,31.41,21.92,46.71,22.15,24.84.35,40.33-8.12,59.13-25C251.8,328.77,251.28,327.69,250.47,328.36Z" transform="translate(-19.69 -149.34)"/><path class="cls-2" d="M292.84,330.05c7.58,6.21,14.3,11.39,23.18,16,9.6,5,20.48,6.19,31.28,6.52A81.77,81.77,0,0,0,376,348.53c7.55-2.52,18.35-7.54,20.59-15.36.26-.88,1.58,0,1.4.71-4.13,16.94-31.41,21.91-46.72,22.14-24.83.36-40.31-8.11-59.12-25C291.52,330.47,292,329.38,292.84,330.05Z" transform="translate(-19.69 -149.34)"/><path class="cls-2" d="M270.51,421.8a17.52,17.52,0,0,0-6.89,1.73c-.57.22-1.15.43-1.73.68a1.6,1.6,0,0,0-.58.52c-.64.39-1.23.8-1.74,1.18-9.24,7.19-15.09,17.63-18.63,28.19-5.66,16.89-2.82,38.71,19.44,41.45,23.05,2.83,38.31-16.32,39.32-35.65C300.6,442.39,290.16,419.58,270.51,421.8Z" transform="translate(-19.69 -149.34)"/><path class="cls-7" d="M262.29,426.59a27.29,27.29,0,0,1,12.44-1.06,3.4,3.4,0,0,1,.29.26.56.56,0,0,0,.87-.05,19.83,19.83,0,0,1,7.16,3.26,1.24,1.24,0,0,0-.17.32c-1,2.55-1.68,4.08-4.63,5a19.28,19.28,0,0,1-6.34.61c-3.89-.12-12.65-2.27-11-7.19C261.34,427.37,261.8,427,262.29,426.59Z" transform="translate(-19.69 -149.34)"/><path class="cls-13" d="M266.61,491c-9,.77-15.25-2.41-19.09-7.57,6.24-15.95,31.32-16.42,40.76-3.29C283.39,486.12,276.09,490.19,266.61,491Z" transform="translate(-19.69 -149.34)"/><path class="cls-14" d="M290.54,477c-3.62-7.7-16.51-9.55-24.43-9.23-8.9.35-17.2,6-19.79,13.83-3-5.1-4.12-11.66-3.61-18.24.66-8.15,4-16.17,8-23.32a54.8,54.8,0,0,1,7.39-9.65c.54,3.43,8.14,6.87,11.14,7.26,4.81.59,15.7-.6,16.28-6.53,6.17,6.07,9.2,15.94,9.79,25.42A34.48,34.48,0,0,1,290.54,477Z" transform="translate(-19.69 -149.34)"/><path class="cls-13" d="M260,490.8a18.13,18.13,0,0,0,7-5.81c3.94-5.59,2.84-10.83-4.7-12.19a1.06,1.06,0,0,1-.92-1c-6.08,1.63-11.36,5.46-13.79,11.66A18.66,18.66,0,0,0,260,490.8Z" transform="translate(-19.69 -149.34)"/><path class="cls-15" d="M267.19,470.89c5.72,2.91,6.59,9.35,2.57,15.08a24.62,24.62,0,0,1-4.79,5.09c.55,0,1.07,0,1.64-.05,9.48-.82,16.78-4.89,21.67-10.86C283.66,473.71,275.27,470.57,267.19,470.89Z" transform="translate(-19.69 -149.34)"/><path class="cls-14" d="M267.23,462.34c4.37-3.35,6.49-10.87,1.37-14.79-3.39-2.59-7.53-3.07-11.47-4.53a10.05,10.05,0,0,1-5.62-4.25c-.32.49-.59.93-.77,1.27-4,7.15-7.37,15.17-8,23.32a38.13,38.13,0,0,0,.21,7.34C251.28,467.92,261.49,466.7,267.23,462.34Z" transform="translate(-19.69 -149.34)"/><path class="cls-16" d="M285.55,431.12c-.58,5.93-11.47,7.12-16.28,6.53-3-.39-10.6-3.83-11.14-7.26-1.43,1.51-2.77,3.09-3.9,4.54,1,6.1,9.7,5,16.09,9.84,4.75,3.64,6.54,10.75,2.95,15.74-5.55,7.68-20.06,8.64-30,12.64a26.23,26.23,0,0,0,3.1,8.45c2.59-7.8,10.89-13.48,19.79-13.83,7.92-.32,20.81,1.53,24.43,9.23a34.48,34.48,0,0,0,4.8-20.46C294.75,447.06,291.72,437.19,285.55,431.12Z" transform="translate(-19.69 -149.34)"/><path class="cls-2" d="M236,449.13a55.81,55.81,0,0,0-2.41,10.18c-.17,1,1.25.83,1.41,0a80.67,80.67,0,0,1,2.45-10.18C237.76,448.09,236.25,448.33,236,449.13Z" transform="translate(-19.69 -149.34)"/><path class="cls-2" d="M309.91,443.8c-.07-1.29-1.82-.49-1.84.47a49.25,49.25,0,0,0,.94,10.55c.25,1.5,2.62.05,2.39-1.21A85.72,85.72,0,0,1,309.91,443.8Z" transform="translate(-19.69 -149.34)"/><path class="cls-8" d="M259.94,474.78c-3.14.47-5.32,3.32-6.17,6-.79,2.46-.1,6.18,3,6.86a1.33,1.33,0,0,0,.77-.07c1.75,1.23,4.05,1.31,6.21-.65,2.36-2.16,3.9-5.3,3.42-8.39C266.64,475.22,262.92,474.32,259.94,474.78Z" transform="translate(-19.69 -149.34)"/><path class="cls-17" d="M414.54,224.73,411.1,228h2l.4-.37,2-1.92,1-1-1.65-.33Zm-6.29-13.83h4.9l-.92-1.33h-5.39l1.41,1.33ZM420.15,230l-2,1.92-.4.37h0v1.88l3.45-3.23.35-.33-.35-1.55Zm9.26,2.22-1.42.86v5.08l1.42-1.32h0Zm17.82-.3L445.18,230l-1-.94-.35,1.55.35.33,3.45,3.23v-1.88h0Zm3.16-7.54-1.65.33,1.05,1,2,1.92.4.37h2l-3.44-3.23Zm-14.47,12.46h0l1.42,1.32v-5.08l-1.42-.86ZM413.07,217h-4.82l-1.42,1.34h5.32Zm37.72-13.83,3.45-3.23h-2l-.4.37-2,1.92-.94.88,1.65.33Zm-36,.27,1.65-.33-.94-.88-2-1.92-.4-.37h-2l3.44,3.23ZM457.08,217h-4.82l.92,1.33h5.32Zm1.41-7.41H453.1l-.92,1.33h4.9ZM444.18,197l-.33.31.35,1.55,1-.92,2.05-1.92.4-.37h0v-1.88Zm-26.08-1,2,1.92,1,.92.35-1.55-.33-.31-3.45-3.23v1.88h0Zm9.89-6.24v5l1.42.86v-4.5h0L428,189.75Zm7.92,1.32h0v4.5l1.42-.86v-5h0Z" transform="translate(-19.69 -149.34)"/><path class="cls-18" d="M450.06,210l-.12-.44c-.06-.18-.11-.36-.17-.54l-5.19,1.34c.11.32.2.65.28,1Zm-5.16,6.36a11.07,11.07,0,0,1-1.75,4,11.91,11.91,0,0,1-1.64,1.9,12.76,12.76,0,0,1-2,1.53,13,13,0,0,1-4.23,1.65,13.59,13.59,0,0,1-5.19,0,13,13,0,0,1-4.23-1.65,12.76,12.76,0,0,1-2-1.53l-.34-.34-5.67,1.46.32.52,0,0,.14.24.11.17.22.36-.31.28-.15.15-.18.16-.05.05-1.39,1.3L415.1,228l1.3,1.22,1.3,1.22,1.45-1.36,1.38-1.29h0l.37-.35.31-.29.37.21.19.1.19.1.09.05,1.7.91a18.2,18.2,0,0,0,4.24,1.65l1.88.48h.05l.27.07.21,0,.42.11v4.65h3.68v-4.65l.41-.11.21,0,.27-.07h.05l1.88-.48a18.2,18.2,0,0,0,4.24-1.65l1.7-.91.09-.05.19-.1.19-.1.37-.21.46.43,1.61,1.51,1.45,1.36,2.6-2.44-1.44-1.35-1.38-1.3-.06-.05-.17-.16-.46-.43.21-.36.11-.17.14-.24,0,0,1-1.58a16.15,16.15,0,0,0,1.76-4l.5-1.77.05-.14,0-.15.06-.2.11-.39h5v-2.08l-10.76,2.78Zm-24.75-2.43a11.61,11.61,0,0,1,.1-1.44l-10.59,2.73v.44h5l.11.39.06.2,0,.15.05.14,0,.12,5.32-1.37A12.42,12.42,0,0,1,420.15,213.94Zm3,7.63c-.14-.15-.28-.31-.41-.47l-5.48,1.42.3.49Zm-2.75-10.06a11.41,11.41,0,0,1,1.75-4,12.29,12.29,0,0,1,1.64-1.89,12.85,12.85,0,0,1,6.25-3.18,13.59,13.59,0,0,1,5.19,0,12.85,12.85,0,0,1,6.25,3.18c.2.19.4.4.59.6l5.6-1.44-.5-.81-.09-.15-.07-.11-.11-.18-.21-.35.74-.69,1.33-1.25,1.44-1.35-1.3-1.22-1.3-1.22-1.45,1.36-1.37,1.28h0l-.23.21-.15.15-.31.28-.37-.2-.19-.1-.18-.1-.1,0-1.7-.91a17.94,17.94,0,0,0-4.24-1.65l-1.88-.48-.17,0-.15,0-.21-.05-.41-.11V192.4h-3.68v4.65l-.42.11-.21.05-.15,0-.17,0-1.88.48a17.77,17.77,0,0,0-4.24,1.65l-1.7.91-.1,0-.18.1-.19.1-.37.2-.31-.28-.39-.37-1.37-1.28-1.45-1.36-1.3,1.22-1.3,1.22,1.44,1.35,1.33,1.25.06.05.23.21.15.15.31.28-.22.35-.11.18-.07.11-.09.16-1,1.58a16.15,16.15,0,0,0-1.76,4l-.5,1.77,0,0-.07.24-.06.2-.11.39h-5v2.4l10.7-2.75C420.38,211.75,420.4,211.63,420.43,211.51ZM448,205.34l-5.49,1.42c.22.25.42.52.62.79a13.57,13.57,0,0,1,.93,1.6l5.23-1.35a17.58,17.58,0,0,0-1.13-2.2Zm-32.74,12.58.11.4c.06.19.12.39.19.58l5.19-1.34c-.11-.32-.21-.65-.29-1Zm29.8-2.57q0,.3-.09.6l10.68-2.76v-.56Z" transform="translate(-19.69 -149.34)"/><path class="cls-19" d="M451.13,211.69l-.05-.2-.07-.24,0-.05-.51-1.77a16.74,16.74,0,0,0-1.81-4.09l-1-1.59-.09-.16-.07-.1-.11-.18.44-.41,1.33-1.24,1.64-1.54.2-.19-.2-.19-1.5-1.41-1.5-1.4-.19-.18h0l-.2.19-1.65,1.54-1.37,1.28h0l-.23.22-.15.14-.19-.1-.18-.09-.1-.06-1.69-.91a18.85,18.85,0,0,0-4.38-1.7l-1.88-.48-.17,0-.15,0-.21,0v-4.78h-4.81v4.78l-.21,0-.15,0-.16,0-1.89.48a18.67,18.67,0,0,0-4.38,1.7l-1.69.91-.1.06-.18.09-.19.1-.39-.37-1.37-1.28-1.65-1.54-.2-.19-.2.19-1.5,1.4-1.5,1.41-.2.19.2.19,1.64,1.54,1.33,1.24.06,0,.23.22.15.14-.11.18-.07.11-.09.15-1,1.59a16.74,16.74,0,0,0-1.81,4.09l-.51,1.77,0,.05-.07.24-.05.2h-5.1v4.51h5.1l.05.19.05.15,0,.15.51,1.76a16.64,16.64,0,0,0,1.81,4.1l1,1.59,0,0,.14.23.11.18-.15.14-.18.17-.05.05-1.39,1.29-1.64,1.54-.2.19.2.19,1.5,1.4,1.5,1.41.2.19.2-.19,1.65-1.54,1.38-1.29v0l.37-.34.19.1.19.1.09.05,1.69.91a18.51,18.51,0,0,0,4.38,1.7l1.89.48h0l.27.07.21.05V236h4.81v-4.78l.21-.05.27-.07h.05l1.88-.48a18.51,18.51,0,0,0,4.38-1.7l1.69-.91.09-.05.19-.1.19-.1.15.14,1.61,1.51,1.65,1.54.2.19L451,228l-.2-.19-1.64-1.54-1.38-1.29-.06-.05-.17-.17-.16-.14.11-.18.15-.23v0l1-1.59a16.64,16.64,0,0,0,1.81-4.1l.51-1.76,0-.15.05-.15.05-.19h5.1v-4.51Zm-1.19-2.12.12.44-5.2,1.34c-.08-.33-.17-.66-.28-1l5.19-1.34C449.83,209.21,449.88,209.39,449.94,209.57Zm-29,6.7a10.53,10.53,0,0,1,0-4.65,10.68,10.68,0,0,1,1.68-3.78,11.7,11.7,0,0,1,3.49-3.27,12.14,12.14,0,0,1,4-1.57,12.88,12.88,0,0,1,4.95,0,12.14,12.14,0,0,1,4,1.57,11.7,11.7,0,0,1,3.49,3.27,10.57,10.57,0,0,1,0,12.2,11.28,11.28,0,0,1-1.56,1.81,11.7,11.7,0,0,1-1.93,1.47,12.59,12.59,0,0,1-4,1.57,12.88,12.88,0,0,1-4.95,0,12.59,12.59,0,0,1-4-1.57,11.7,11.7,0,0,1-1.93-1.47,11.28,11.28,0,0,1-1.56-1.81A10.63,10.63,0,0,1,421,216.27Zm27.2-10.67a17.58,17.58,0,0,1,1.13,2.2l-5.23,1.35a13.57,13.57,0,0,0-.93-1.6c-.2-.27-.4-.54-.62-.79l5.49-1.42Zm-38.52,6.62h5l.11-.39.06-.2.07-.24,0,0,.5-1.77a16.15,16.15,0,0,1,1.76-4l1-1.58.09-.16.07-.11.11-.18.22-.35-.31-.28-.15-.15-.23-.21-.06-.05-1.33-1.25-1.44-1.35,1.3-1.22,1.3-1.22,1.45,1.36,1.37,1.28.39.37.31.28.37-.2.19-.1.18-.1.1,0,1.7-.91a17.77,17.77,0,0,1,4.24-1.65l1.88-.48.17,0,.15,0,.21-.05.42-.11V192.4h3.68v4.65l.41.11.21.05.15,0,.17,0,1.88.48a17.94,17.94,0,0,1,4.24,1.65l1.7.91.1,0,.18.1.19.1.37.2.31-.28.15-.15.23-.21h0l1.37-1.28,1.45-1.36,1.3,1.22,1.3,1.22-1.44,1.35-1.33,1.25-.74.69.21.35.11.18.07.11.09.15.5.81-5.6,1.44c-.19-.2-.39-.41-.59-.6a12.85,12.85,0,0,0-6.25-3.18,13.59,13.59,0,0,0-5.19,0,12.85,12.85,0,0,0-6.25,3.18,12.29,12.29,0,0,0-1.64,1.89,11.41,11.41,0,0,0-1.75,4c0,.12-.05.24-.07.36l-10.7,2.75Zm5.23,4.33-.05-.14,0-.15-.06-.2-.11-.39h-5v-.44l10.59-2.73a11.61,11.61,0,0,0-.1,1.44,12.42,12.42,0,0,0,.09,1.36l-5.32,1.37Zm.5,1.77-.11-.4,5.2-1.34c.08.33.18.66.29,1l-5.19,1.34C415.51,218.71,415.45,218.51,415.39,218.32Zm1.9,4.2,5.48-1.42c.13.16.27.32.41.47L417.59,223Zm38.38-6.85h-5l-.11.39-.06.2,0,.15-.05.14-.5,1.77a16.15,16.15,0,0,1-1.76,4l-1,1.58,0,0-.14.24-.11.17-.21.36.46.43.17.16.06.05,1.38,1.3,1.44,1.35-2.6,2.44L446.18,229l-1.61-1.51-.46-.43-.37.21-.19.1-.19.1-.09.05-1.7.91a18.2,18.2,0,0,1-4.24,1.65l-1.88.48h-.05l-.27.07-.21,0-.41.11v4.65h-3.68v-4.65l-.42-.11-.21,0-.27-.07h-.05l-1.88-.48a18.2,18.2,0,0,1-4.24-1.65l-1.7-.91-.09-.05-.19-.1-.19-.1-.37-.21-.31.29-.37.35h0L419.15,229l-1.45,1.36-1.3-1.22L415.1,228l1.44-1.35,1.39-1.3.05-.05.18-.16.15-.15.31-.28-.22-.36-.11-.17-.14-.24,0,0-.32-.52,5.67-1.46.34.34a12.76,12.76,0,0,0,2,1.53,13,13,0,0,0,4.23,1.65,13.59,13.59,0,0,0,5.19,0,13,13,0,0,0,4.23-1.65,12.76,12.76,0,0,0,2-1.53,11.91,11.91,0,0,0,1.64-1.9,11.07,11.07,0,0,0,1.75-4h0l10.76-2.78Zm0-2.48L445,216q.06-.3.09-.6l10.59-2.72Z" transform="translate(-19.69 -149.34)"/><path d="M442.67,207.84a11.7,11.7,0,0,0-3.49-3.27,12.14,12.14,0,0,0-4-1.57,12.88,12.88,0,0,0-4.95,0,12.14,12.14,0,0,0-4,1.57,11.7,11.7,0,0,0-3.49,3.27,10.6,10.6,0,0,0-1.94,6.1,10.81,10.81,0,0,0,.26,2.33,10.63,10.63,0,0,0,1.68,3.77,11.28,11.28,0,0,0,1.56,1.81,11.7,11.7,0,0,0,1.93,1.47,12.59,12.59,0,0,0,4,1.57,12.88,12.88,0,0,0,4.95,0,12.59,12.59,0,0,0,4-1.57,11.7,11.7,0,0,0,1.93-1.47,11.28,11.28,0,0,0,1.56-1.81,10.6,10.6,0,0,0,1.94-6.1,10.6,10.6,0,0,0-1.94-6.1Zm.16,8.12a9.37,9.37,0,0,1-1.46,3.29,10.15,10.15,0,0,1-1.36,1.57,11.11,11.11,0,0,1-1.68,1.28,10.83,10.83,0,0,1-3.51,1.36,11.16,11.16,0,0,1-4.31,0A10.83,10.83,0,0,1,427,222.1a11.11,11.11,0,0,1-1.68-1.28,10.15,10.15,0,0,1-1.36-1.57,9.25,9.25,0,0,1-1.46-7.32,9.37,9.37,0,0,1,1.46-3.29,9.7,9.7,0,0,1,1.36-1.57,10.49,10.49,0,0,1,1.68-1.28,10.83,10.83,0,0,1,3.51-1.36,10.66,10.66,0,0,1,4.31,0,10.83,10.83,0,0,1,3.51,1.36,10.49,10.49,0,0,1,1.68,1.28,10.15,10.15,0,0,1,1.36,1.57,9.37,9.37,0,0,1,1.46,3.29,9.34,9.34,0,0,1,0,4Zm16.66,3.29V208.64h-5.86a19.54,19.54,0,0,0-2.14-4.83l4.15-3.88-4-3.75-4-3.75-4.15,3.88a22.57,22.57,0,0,0-5.15-2v-5.49H427v5.49a22.57,22.57,0,0,0-5.15,2l-4.15-3.88-4,3.75-4,3.75,4.15,3.88a19.92,19.92,0,0,0-2.14,4.83h-5.86v10.61h5.86a19.92,19.92,0,0,0,2.14,4.83L409.69,228l4,3.75,4,3.75,4.15-3.89a22.14,22.14,0,0,0,5.15,2v5.49h11.33v-5.49a22.14,22.14,0,0,0,5.15-2l4.15,3.89,8-7.5-4.15-3.88a19.54,19.54,0,0,0,2.14-4.83Zm-6.39-9.68h5.39l-1.41,1.33h-4.9Zm-1.27-9.27.4-.37h2l-3.45,3.23-.29.27-1.65-.33.94-.88ZM444.18,197l3.45-3.23v1.88h0l-.4.37-2.05,1.92-1,.92-.35-1.55Zm-6.85-7.22h0v5l-1.42.86v-4.5h0Zm-9.34,0h0l1.42,1.32h0v4.5l-1.42-.86Zm-10.29,4,3.45,3.23.33.31-.35,1.55-1-.92-2-1.92-.4-.37h0Zm-6.6,6.19h2l.4.37,2,1.92.94.88-1.65.33-.29-.27Zm1.13,9.64.92,1.33h-4.9l-1.41-1.33Zm-.08,8.75h-5.32l1.42-1.34h4.82Zm1.35,9.27-.4.37h-2l3.44-3.23.4-.37,1.65.33-1,1Zm7.65,3.33-3.45,3.23v-1.88h0l.4-.37,2-1.92,1-.94.35,1.55Zm6.84,7.22v-5.08l1.42-.86v4.62h0Zm9.35,0-1.42-1.32h0V232.2l1.42.86Zm10.29-4-3.45-3.23-.35-.33.35-1.55,1,.94,2.05,1.92.4.37h0Zm6.6-6.19h-2l-.4-.37-2-1.92-1.05-1,1.65-.33.4.37Zm-3.1-11.76-.05.19-.05.15,0,.15-.51,1.76a16.64,16.64,0,0,1-1.81,4.1l-1,1.59v0l-.15.23-.11.18.16.14.17.17.06.05,1.38,1.29,1.64,1.54.2.19-3.4,3.19-.2-.19-1.65-1.54-1.61-1.51-.15-.14-.19.1-.19.1-.09.05-1.69.91a18.51,18.51,0,0,1-4.38,1.7l-1.88.48h-.05l-.27.07-.21.05V236h-4.81v-4.78l-.21-.05-.27-.07h0l-1.89-.48a18.51,18.51,0,0,1-4.38-1.7l-1.69-.91-.09-.05-.19-.1-.19-.1-.37.34v0l-1.38,1.29L417.9,231l-.2.19-.2-.19-1.5-1.41-1.5-1.4-.2-.19.2-.19,1.64-1.54,1.39-1.29.05-.05.18-.17.15-.14-.11-.18-.14-.23,0,0-1-1.59a16.64,16.64,0,0,1-1.81-4.1l-.51-1.76,0-.15-.05-.15-.05-.19h-5.1v-4.51h5.1l.05-.2.07-.24,0-.05.51-1.77a16.74,16.74,0,0,1,1.81-4.09l1-1.59.09-.15.07-.11.11-.18-.15-.14-.23-.22-.06,0-1.33-1.24-1.64-1.54-.2-.19.2-.19,1.5-1.41,1.5-1.4.2-.19.2.19,1.65,1.54,1.37,1.28.39.37.19-.1.18-.09.1-.06,1.69-.91a18.67,18.67,0,0,1,4.38-1.7l1.89-.48.16,0,.15,0,.21,0v-4.78h4.81v4.78l.21,0,.15,0,.17,0,1.88.48a18.85,18.85,0,0,1,4.38,1.7l1.69.91.1.06.18.09.19.1.15-.14.23-.22h0l1.37-1.28,1.65-1.54.2-.19h0l.19.18,1.5,1.4,1.5,1.41.2.19-.2.19-1.64,1.54-1.33,1.24-.44.41.11.18.07.1.09.16,1,1.59a16.74,16.74,0,0,1,1.81,4.09l.51,1.77,0,.05.07.24.05.2h5.1v4.51Zm1.13.79h4.82l1.42,1.34h-5.32Z" transform="translate(-19.69 -149.34)"/><path class="cls-17" d="M467.34,220.3l-2.4,2.33h1.39l.28-.27L468,221l.73-.71-1.15-.24Zm-4.4-10h3.43l-.64-1H462l1,1Zm8.32,13.81-1.43,1.39-.28.27h0v1.36l2.41-2.33.24-.24-.24-1.12Zm6.47,1.61-1,.62V230l1-1h0Zm12.45-.22-1.43-1.39-.7-.68-.25,1.12.25.24,2.41,2.33v-1.36h0Zm2.21-5.46-1.15.24.73.71,1.43,1.39.28.27h1.39l-2.4-2.33Zm-10.11,9h0l1,1v-3.67l-1-.62Zm-16-14.34h-3.37l-1,1h3.71Zm26.36-10,2.4-2.33h-1.39l-.28.27L492,204l-.66.63,1.15.24Zm-25.13.2,1.16-.24L468,204l-1.43-1.39-.28-.27h-1.4l2.41,2.33Zm29.52,9.81H493.7l.64,1h3.71Zm1-5.37h-3.77l-.64,1h3.42Zm-10-9.11-.23.22.24,1.12.69-.66,1.43-1.39.28-.27h0v-1.36Zm-18.22-.71,1.43,1.39.68.66.25-1.12-.23-.22-2.41-2.34v1.36h0Zm6.91-4.52v3.59l1,.62V196h0l-1-1Zm5.53,1h0v3.25l1-.62V195h0Z" transform="translate(-19.69 -149.34)"/><path class="cls-18" d="M492.16,209.65l-.09-.32c0-.13-.07-.26-.12-.39l-3.62,1c.07.24.14.47.2.71Zm-3.6,4.61a8.58,8.58,0,0,1-3.79,5.34,9,9,0,0,1-2.95,1.19,8.76,8.76,0,0,1-3.63,0,8.93,8.93,0,0,1-2.95-1.19,8.52,8.52,0,0,1-1.41-1.11,1.88,1.88,0,0,1-.24-.25l-4,1.06.23.38v0l.1.17.08.13.15.25-.22.21-.1.11-.13.12,0,0-1,.94-1,1,.91.88.91.88,1-1,1-.93h0l.26-.25L472,222l.26.14.13.08.13.07.07,0,1.18.66a12.65,12.65,0,0,0,3,1.19l1.32.34h0l.19,0,.15,0,.29.08v3.36h2.57v-3.36l.29-.08.15,0,.18,0h0l1.31-.34a12.55,12.55,0,0,0,3-1.19l1.18-.66.07,0,.13-.07.13-.08L488,222l.32.31,1.13,1.09,1,1,1.82-1.76-1-1-1-.94,0,0-.12-.12-.32-.32L490,220l.08-.13.1-.17v0l.68-1.15a11.73,11.73,0,0,0,1.23-2.87l.36-1.28,0-.1,0-.11,0-.14.08-.29h3.48v-1.5l-7.52,2Zm-17.3-1.76a9.26,9.26,0,0,1,.07-1.05l-7.4,2v.31h3.47l.08.29,0,.14,0,.11,0,.1,0,.09,3.71-1A7.89,7.89,0,0,1,471.26,212.5Zm2.11,5.51-.28-.33-3.83,1,.21.35Zm-1.92-7.27a8.49,8.49,0,0,1,1.23-2.87,9.38,9.38,0,0,1,1.15-1.37,8.46,8.46,0,0,1,1.41-1.1,8.74,8.74,0,0,1,2.95-1.2,9.24,9.24,0,0,1,3.63,0,8.83,8.83,0,0,1,2.95,1.2,8.46,8.46,0,0,1,1.41,1.1c.15.14.28.29.42.44l3.91-1-.35-.59-.07-.11,0-.08L490,205l-.15-.26.52-.5.93-.9,1-1-.91-.88-.91-.89-1,1-1,.93h0l-.16.16-.1.1L488,203l-.26-.15-.13-.07-.13-.07-.07,0-1.18-.66a12.6,12.6,0,0,0-3-1.2l-1.32-.34-.12,0-.1,0-.15,0-.29-.07v-3.37h-2.57v3.37l-.29.07-.15,0-.11,0-.11,0-1.32.34a12.26,12.26,0,0,0-3,1.2l-1.18.66-.08,0-.12.07-.13.07L472,203l-.22-.21-.27-.27-1-.93-1-1-.91.89-.91.88,1,1,.93.9,0,0,.16.16.1.1.22.21L470,205l-.08.12,0,.08-.06.11-.68,1.15a11.89,11.89,0,0,0-1.23,2.87l-.36,1.28v0l-.05.18,0,.14-.08.28h-3.47V213l7.47-2C471.42,210.91,471.43,210.82,471.45,210.74Zm19.28-4.47-3.83,1c.15.18.29.37.43.57A8.81,8.81,0,0,1,488,209l3.65-1a11.2,11.2,0,0,0-.79-1.59Zm-22.87,9.1.08.29c0,.14.08.28.13.42l3.62-1c-.08-.24-.14-.47-.2-.72Zm20.82-1.85c0,.14,0,.28-.07.43l7.47-2v-.41Z" transform="translate(-19.69 -149.34)"/><path class="cls-19" d="M492.91,210.87l0-.14-.05-.18v0l-.36-1.27a11.62,11.62,0,0,0-1.27-3l-.68-1.15-.06-.11-.05-.08-.08-.13.31-.29.93-.9,1.15-1.12.14-.13-.14-.14-1.05-1-1-1-.13-.13h0l-.14.14-1.15,1.11-1,.93h0l-.16.15-.1.11-.13-.08-.13-.06-.07-.05-1.18-.66a13.24,13.24,0,0,0-3.06-1.23l-1.32-.34-.11,0-.11,0-.14,0v-3.45h-3.37V200l-.14,0-.11,0-.11,0-1.32.34a13.7,13.7,0,0,0-3.06,1.23l-1.18.66-.07.05-.13.06-.13.08-.27-.27-1-.93-1.15-1.11-.14-.14-.14.14-1.05,1-1.05,1-.14.14.14.13,1.15,1.12.93.9,0,0,.16.16.1.1-.07.13-.05.08-.07.11-.68,1.15a12,12,0,0,0-1.26,3l-.36,1.27v0l-.05.18,0,.14h-3.56v3.26h3.56l0,.14,0,.11,0,.1.36,1.28a12.28,12.28,0,0,0,1.26,3l.68,1.14,0,0,.1.17.07.13-.1.1-.13.12,0,0-1,.94-1.15,1.11-.14.14.14.13,1.05,1,1.05,1,.14.13.14-.13,1.15-1.12,1-.93h0l.26-.25.13.07.14.07.06,0,1.18.66a13.07,13.07,0,0,0,3.06,1.23l1.32.35h0l.19.05.14,0v3.46h3.37V225l.14,0,.19-.05h0l1.32-.35a13.24,13.24,0,0,0,3.06-1.23l1.18-.66.06,0,.14-.07.13-.07.1.1,1.13,1.09,1.15,1.12.14.13,2.38-2.3-.14-.14-1.15-1.11-1-.94,0,0-.13-.12-.11-.1.08-.13.1-.17v0l.68-1.14a11.93,11.93,0,0,0,1.27-3l.36-1.28,0-.1,0-.11,0-.14h3.56v-3.26Zm-.84-1.54.09.32-3.63,1c-.06-.24-.13-.47-.2-.71l3.62-1C492,209.07,492,209.2,492.07,209.33Zm-20.23,4.85a7.89,7.89,0,0,1,2.27-7.4,7.72,7.72,0,0,1,1.34-1.06,8.54,8.54,0,0,1,2.82-1.14,8.4,8.4,0,0,1,1.73-.18,8.49,8.49,0,0,1,1.74.18,8.41,8.41,0,0,1,2.81,1.14,7.79,7.79,0,0,1,1.35,1.06,8.05,8.05,0,0,1,1.1,1.3,7.88,7.88,0,0,1,0,8.83,7.72,7.72,0,0,1-1.1,1.31,8.31,8.31,0,0,1-1.35,1.06,8.41,8.41,0,0,1-2.81,1.14,9.25,9.25,0,0,1-1.74.17,9.14,9.14,0,0,1-1.73-.17,8.54,8.54,0,0,1-2.82-1.14,8.23,8.23,0,0,1-1.34-1.06,8.13,8.13,0,0,1-1.1-1.31A8,8,0,0,1,471.84,214.18Zm19-7.72a11.2,11.2,0,0,1,.79,1.59L488,209a8.81,8.81,0,0,0-.65-1.16c-.14-.2-.28-.39-.43-.57l3.83-1Zm-26.91,4.79h3.47l.08-.28,0-.14.05-.18v0l.36-1.28a11.89,11.89,0,0,1,1.23-2.87l.68-1.15.06-.11,0-.08L470,205l.15-.26-.22-.21-.1-.1-.16-.16,0,0-.93-.9-1-1,.91-.88.91-.89,1,1,1,.93.27.27.22.21.26-.15.13-.07.12-.07.08,0,1.18-.66a12.26,12.26,0,0,1,3-1.2l1.32-.34.11,0,.11,0,.15,0,.29-.07v-3.37h2.57v3.37l.29.07.15,0,.1,0,.12,0,1.32.34a12.6,12.6,0,0,1,3,1.2l1.18.66.07,0,.13.07.13.07.26.15.22-.21.1-.1.16-.16h0l1-.93,1-1,.91.89.91.88-1,1-.93.9-.52.5.15.26.08.12,0,.08.07.11.35.59-3.91,1c-.14-.15-.27-.3-.42-.44a8.46,8.46,0,0,0-1.41-1.1,8.83,8.83,0,0,0-2.95-1.2,9.24,9.24,0,0,0-3.63,0,8.74,8.74,0,0,0-2.95,1.2,8.46,8.46,0,0,0-1.41,1.1,9.38,9.38,0,0,0-1.15,1.37,8.49,8.49,0,0,0-1.23,2.87c0,.08,0,.17-.05.25l-7.47,2Zm3.65,3.13,0-.1,0-.11,0-.14-.08-.29h-3.47v-.31l7.4-2a9.26,9.26,0,0,0-.07,1.05,7.89,7.89,0,0,0,.06,1l-3.71,1Zm.36,1.28-.08-.29,3.63-1c.06.25.12.48.2.72l-3.62,1C468,215.94,468,215.8,467.94,215.66Zm1.32,3,3.83-1,.28.33-3.9,1Zm26.82-5H492.6l-.08.29,0,.14,0,.11,0,.1-.36,1.28a11.73,11.73,0,0,1-1.23,2.87l-.68,1.15v0l-.1.17L490,220l-.15.25.32.32.12.12,0,0,1,.94,1,1-1.82,1.76-1-1-1.13-1.09L488,222l-.26.14-.13.08-.13.07-.07,0-1.18.66a12.55,12.55,0,0,1-3,1.19l-1.31.34h0l-.18,0-.15,0-.29.08v3.36h-2.57v-3.36l-.29-.08-.15,0-.19,0h0l-1.32-.34a12.65,12.65,0,0,1-3-1.19l-1.18-.66-.07,0-.13-.07-.13-.08L472,222l-.22.21-.26.25h0l-1,.93-1,1-.91-.88-.91-.88,1-1,1-.94,0,0,.13-.12.1-.11.22-.21L470,220l-.08-.13-.1-.17v0l-.23-.38,4-1.06a1.88,1.88,0,0,0,.24.25,8.52,8.52,0,0,0,1.41,1.11,8.93,8.93,0,0,0,2.95,1.19,8.76,8.76,0,0,0,3.63,0,9,9,0,0,0,2.95-1.19,8.51,8.51,0,0,0,3.79-5.34h0l7.52-2Zm0-1.79-7.47,2c0-.15.05-.29.07-.43l7.4-2Z" transform="translate(-19.69 -149.34)"/><path d="M487,208.08a8.05,8.05,0,0,0-1.1-1.3,7.79,7.79,0,0,0-1.35-1.06,8.41,8.41,0,0,0-2.81-1.14,8.49,8.49,0,0,0-1.74-.18,8.4,8.4,0,0,0-1.73.18,8.54,8.54,0,0,0-2.82,1.14,7.72,7.72,0,0,0-1.34,1.06,8.05,8.05,0,0,0-1.1,1.3,7.88,7.88,0,0,0,0,8.83,8.13,8.13,0,0,0,1.1,1.31,8.23,8.23,0,0,0,1.34,1.06,8.54,8.54,0,0,0,2.82,1.14,9.14,9.14,0,0,0,1.73.17,9.25,9.25,0,0,0,1.74-.17,8.41,8.41,0,0,0,2.81-1.14,8.31,8.31,0,0,0,1.35-1.06,7.72,7.72,0,0,0,1.1-1.31,7.9,7.9,0,0,0,0-8.83Zm.1,5.88a6.69,6.69,0,0,1-1,2.37,7.1,7.1,0,0,1-2.12,2.06,7.22,7.22,0,0,1-2.45,1,7.51,7.51,0,0,1-1.51.16,7.41,7.41,0,0,1-1.5-.16,7.14,7.14,0,0,1-2.45-1,6.57,6.57,0,0,1-1.18-.92,7.46,7.46,0,0,1-.95-1.14,6.87,6.87,0,0,1-1-2.37,7.18,7.18,0,0,1,0-2.92,6.92,6.92,0,0,1,1-2.38,8,8,0,0,1,.95-1.14,7.61,7.61,0,0,1,1.18-.92,7.14,7.14,0,0,1,2.45-1,7.41,7.41,0,0,1,1.5-.15,7.51,7.51,0,0,1,1.51.15,7.22,7.22,0,0,1,2.45,1,7.53,7.53,0,0,1,1.17.92,6.84,6.84,0,0,1,.95,1.14,6.74,6.74,0,0,1,1,2.38,6.74,6.74,0,0,1,0,2.92Zm11.65,2.37v-7.67h-4.1a14.23,14.23,0,0,0-1.49-3.49l2.89-2.81-2.79-2.72-2.8-2.71-2.9,2.81a16,16,0,0,0-3.6-1.45v-4h-7.91v4a15.77,15.77,0,0,0-3.6,1.45l-2.9-2.81-2.8,2.71-2.8,2.72,2.9,2.81a14.23,14.23,0,0,0-1.49,3.49h-4.1v7.67h4.1a14.47,14.47,0,0,0,1.49,3.5l-2.9,2.81,2.8,2.71,2.8,2.71,2.9-2.81a14.91,14.91,0,0,0,3.6,1.45v4H484v-4a15.08,15.08,0,0,0,3.6-1.45l2.9,2.81,5.59-5.42-2.89-2.81a14.47,14.47,0,0,0,1.49-3.5Zm-4.47-7h3.77l-1,1h-3.42Zm-.88-6.7.28-.27h1.39l-2.4,2.33-.21.2-1.15-.24L492,204Zm-5.35-2.41,2.41-2.34v1.36h0l-.28.27-1.43,1.39-.69.66-.24-1.12ZM483.27,195h0v3.59l-1,.62V196h0Zm-6.53,0h0l1,1h0v3.25l-1-.62Zm-7.19,2.89,2.41,2.34.23.22-.25,1.12-.68-.66-1.43-1.39-.28-.27h0Zm-4.62,4.48h1.4l.28.27L468,204l.66.63-1.16.24-.2-.2Zm.8,7,.64,1h-3.43l-1-1Zm-.06,6.33H462l1-1h3.37Zm.94,6.71-.28.27h-1.39l2.4-2.33.28-.27,1.15.24L468,221Zm5.35,2.41-2.41,2.33v-1.36h0l.28-.27,1.43-1.39.7-.68.24,1.12Zm4.78,5.22v-3.67l1-.62V229h0Zm6.53,0-1-1h0v-3.33l1,.62Zm7.19-2.89-2.41-2.33-.25-.24.25-1.12.7.68,1.43,1.39.28.27h0Zm4.61-4.48h-1.39l-.28-.27L492,221l-.73-.71,1.15-.24.28.27Zm-2.16-8.5,0,.14,0,.11,0,.1-.36,1.28a11.93,11.93,0,0,1-1.27,3l-.68,1.14v0l-.1.17-.08.13.11.1.13.12,0,0,1,.94,1.15,1.11.14.14-2.38,2.3-.14-.13-1.15-1.12L488,222.6l-.1-.1-.13.07-.14.07-.06,0-1.18.66a13.24,13.24,0,0,1-3.06,1.23l-1.32.35h0l-.19.05-.14,0v3.46h-3.37V225l-.14,0-.19-.05h0l-1.32-.35a13.07,13.07,0,0,1-3.06-1.23l-1.18-.66-.06,0-.14-.07-.13-.07-.26.25h0l-1,.93-1.15,1.12-.14.13-.14-.13-1.05-1-1.05-1-.14-.13.14-.14,1.15-1.11,1-.94,0,0,.13-.12.1-.1-.07-.13-.1-.17,0,0-.68-1.14a12.28,12.28,0,0,1-1.26-3l-.36-1.28,0-.1,0-.11,0-.14h-3.56v-3.26h3.56l0-.14.05-.18v0l.36-1.27a12,12,0,0,1,1.26-3l.68-1.15.07-.11.05-.08.07-.13-.1-.1-.16-.16,0,0-.93-.9-1.15-1.12-.14-.13.14-.14,1.05-1,1.05-1,.14-.14.14.14,1.15,1.11,1,.93.27.27.13-.08.13-.06.07-.05,1.18-.66a13.7,13.7,0,0,1,3.06-1.23l1.32-.34.11,0,.11,0,.14,0v-3.45h3.37V200l.14,0,.11,0,.11,0,1.32.34a13.24,13.24,0,0,1,3.06,1.23l1.18.66.07.05.13.06.13.08.1-.11.16-.15h0l1-.93,1.15-1.11.14-.14h0l.13.13,1,1,1.05,1,.14.14-.14.13-1.15,1.12-.93.9-.31.29.08.13.05.08.06.11.68,1.15a11.62,11.62,0,0,1,1.27,3l.36,1.27v0l.05.18,0,.14h3.56v3.26Zm.79.57h3.36l1,1h-3.71Z" transform="translate(-19.69 -149.34)"/><path class="cls-17" d="M443,269l-3.89,3.89h2.26l.45-.45,2.31-2.31,1.18-1.18-1.86-.4Zm-7.11-16.68h5.54l-1-1.6h-6.09l1.59,1.6Zm13.44,23L447,277.68l-.45.45h0v2.26l3.89-3.89.4-.4-.39-1.86Zm10.46,2.68-1.59,1v6.11l1.6-1.59h0Zm20.13-.37-2.31-2.31-1.13-1.13-.4,1.86.4.4,3.89,3.89v-2.26h0Zm3.57-9.09-1.86.4,1.18,1.18,2.31,2.31.45.45h2.26L483.92,269Zm-16.34,15h0l1.61,1.59v-6.11l-1.6-1Zm-25.81-23.9h-5.45l-1.6,1.61h6ZM483.92,243l3.89-3.89h-2.26l-.45.45-2.31,2.31L481.73,243l1.86.39Zm-40.61.33,1.86-.39-1.06-1.07-2.31-2.31-.45-.45h-2.26L443,243ZM491,259.7h-5.44l1,1.6h6Zm1.59-8.94h-6.09l-1,1.6H491Zm-16.16-15.2-.37.38.39,1.86,1.11-1.11,2.31-2.31.45-.45h0v-2.27ZM447,234.38l2.31,2.31,1.11,1.11.4-1.86-.38-.38-3.89-3.89v2.27h0Zm11.18-7.53v6l1.59,1v-5.42h0l-1.61-1.6Zm8.93,1.6h0v5.42l1.6-1v-6h0Z" transform="translate(-19.69 -149.34)"/><path class="cls-18" d="M483.1,251.29l-.14-.53c-.06-.22-.12-.44-.19-.65l-5.86,1.61c.12.39.23.79.32,1.19ZM477.28,259a14.19,14.19,0,0,1-3.84,7.06,14.52,14.52,0,0,1-2.28,1.85,14.15,14.15,0,0,1-4.78,2,14.46,14.46,0,0,1-5.86,0,14.33,14.33,0,0,1-7.06-3.84c-.13-.13-.26-.27-.38-.41l-6.41,1.76.36.64,0,0,.17.28.12.22.24.42-.34.35-.18.17-.2.2-.06.06-1.56,1.56-1.63,1.63,1.47,1.47,1.47,1.47,1.63-1.63,1.56-1.56,0,0,.42-.41.34-.35.43.24.21.13.21.12.11.06,1.91,1.1a20,20,0,0,0,4.79,2l2.13.57.05,0,.3.08.24.06.47.13V282h4.16V276.4l.47-.13.24-.06.3-.08,0,0,2.13-.57a20,20,0,0,0,4.79-2l1.92-1.1.1-.06.21-.12.22-.13.42-.24.52.52,1.82,1.82,1.63,1.63,2.94-2.94-1.63-1.63-1.56-1.56-.06-.06-.2-.2-.52-.52.24-.42.13-.22.16-.28,0,0,1.1-1.92a20,20,0,0,0,2-4.79l.57-2.13.05-.17.05-.18.06-.24.13-.47h5.61v-2.5L477.28,259Zm-28-2.93a14.52,14.52,0,0,1,.11-1.74l-12,3.29v.53h5.61l.13.47.06.24.05.18.05.17,0,.14,6-1.65A14.86,14.86,0,0,1,449.32,256Zm3.41,9.19-.45-.55-6.19,1.7.34.59Zm-3.1-12.12a14.08,14.08,0,0,1,2-4.77,13.93,13.93,0,0,1,4.14-4.14,14.08,14.08,0,0,1,4.77-2,14,14,0,0,1,5.86,0,14.21,14.21,0,0,1,4.78,2,15.11,15.11,0,0,1,2.28,1.85c.23.23.45.48.67.73l6.32-1.74-.56-1-.11-.19-.07-.13-.13-.21-.24-.43.84-.83,1.5-1.51,1.63-1.63-1.47-1.47-1.47-1.47-1.63,1.63-1.55,1.55h0l-.26.26-.17.18-.35.34-.42-.24-.22-.12-.2-.12-.12-.07-1.91-1.1a19.62,19.62,0,0,0-4.79-2l-2.13-.58-.18,0-.17,0-.24-.07-.47-.13v-5.61h-4.16v5.61l-.47.13-.24.07-.17,0-.18,0-2.13.58a19.62,19.62,0,0,0-4.79,2l-1.91,1.1-.12.07-.2.12-.21.12-.43.24-.34-.34-.45-.45-1.55-1.55-1.63-1.63-1.47,1.47-1.47,1.47,1.63,1.63,1.5,1.51.06,0,.26.26.18.18.34.34-.24.43-.12.21-.08.13-.11.19-1.1,1.91a20,20,0,0,0-2,4.79l-.57,2.13,0,.06-.08.29-.06.24-.13.47h-5.61v2.9l12.08-3.32C449.58,253.38,449.6,253.24,449.63,253.1Zm31.16-7.44-6.19,1.7c.24.31.47.63.69,1a14.31,14.31,0,0,1,1,1.92l5.91-1.62A19.72,19.72,0,0,0,481,246Zm-37,15.17.12.47.21.71L450,260.4c-.12-.39-.23-.79-.32-1.19Zm33.66-3.1c0,.24-.07.48-.11.71l12.06-3.31v-.69Z" transform="translate(-19.69 -149.34)"/><path class="cls-19" d="M484.31,253.31l-.06-.23-.08-.29,0-.07-.57-2.13a20.91,20.91,0,0,0-2.06-4.94l-1.1-1.91-.1-.19-.08-.13-.12-.21.49-.49,1.5-1.5,1.86-1.86.23-.23-.23-.23-1.7-1.69-1.69-1.7-.22-.21h0l-.22.22-1.86,1.86-1.55,1.55h0l-.26.26-.18.17-.21-.12-.2-.11-.12-.07-1.91-1.1a20.47,20.47,0,0,0-4.94-2.05l-2.13-.58-.18-.05-.17,0-.24-.07v-5.76h-5.44v5.76l-.23.07-.17,0-.19.05-2.13.58a20.47,20.47,0,0,0-4.94,2.05l-1.91,1.1-.12.07-.2.11-.21.12-.45-.44-1.54-1.55-1.86-1.86-.23-.22-.23.22-1.69,1.7-1.7,1.69-.22.23.22.23,1.86,1.86,1.5,1.5.06.06.26.26.17.17-.12.21-.07.13-.11.19-1.1,1.91a20.47,20.47,0,0,0-2.05,4.94l-.58,2.13v.07l-.08.29-.07.23h-5.76v5.44h5.76l.07.24,0,.18,0,.17.58,2.13a20.47,20.47,0,0,0,2.05,4.94l1.1,1.91,0,0,.16.28.12.22-.17.17-.2.2-.06.06-1.56,1.56-1.86,1.86-.22.22.22.23,1.7,1.69,1.69,1.7.23.23.23-.23,1.86-1.86,1.56-1.56h0l.42-.42.21.12.21.12.11.06,1.91,1.11a21.31,21.31,0,0,0,4.94,2.05l2.13.57h.06l.3.09.23.06v5.76h5.44v-5.76l.24-.06.3-.09h.05l2.13-.57a20.91,20.91,0,0,0,4.94-2.06l1.91-1.1.11-.05.21-.13.21-.12.18.17,1.82,1.82,1.86,1.86.22.23,3.85-3.85-.23-.22-1.86-1.86-1.56-1.56-.06-.06-.2-.2-.17-.17.12-.22.16-.28,0,0,1.1-1.91a20.74,20.74,0,0,0,2.06-4.94l.57-2.13.05-.17.05-.18.06-.24h5.76v-5.44ZM483,250.76l.14.53-5.87,1.62c-.09-.4-.2-.8-.32-1.19l5.86-1.61C482.84,250.32,482.9,250.54,483,250.76Zm-32.71,8.07a13.66,13.66,0,0,1,0-5.6,13.59,13.59,0,0,1,1.9-4.55,13.6,13.6,0,0,1,4-4,13.59,13.59,0,0,1,4.55-1.9,13.66,13.66,0,0,1,5.6,0,13.64,13.64,0,0,1,4.56,1.9A13.82,13.82,0,0,1,473,246.5a12.92,12.92,0,0,1,1.76,2.18,13.3,13.3,0,0,1,1.9,4.55,13.66,13.66,0,0,1,0,5.6,13.35,13.35,0,0,1-1.9,4.56,13.22,13.22,0,0,1-3.94,3.94,13.24,13.24,0,0,1-4.56,1.9,13.66,13.66,0,0,1-5.6,0,13.11,13.11,0,0,1-4.55-1.9,12.92,12.92,0,0,1-2.18-1.76,13.29,13.29,0,0,1-1.77-2.18A13.64,13.64,0,0,1,450.25,258.83ZM481,246a19.72,19.72,0,0,1,1.28,2.66l-5.91,1.62a14.31,14.31,0,0,0-1-1.92c-.22-.34-.45-.66-.69-1l6.19-1.7Zm-43.5,8h5.61l.13-.47.06-.24.08-.29,0-.06.57-2.13a20,20,0,0,1,2-4.79l1.1-1.91.11-.19.08-.13.12-.21.24-.43-.34-.34-.18-.18-.26-.26-.06,0-1.5-1.51-1.63-1.63,1.47-1.47,1.47-1.47,1.63,1.63,1.55,1.55.45.45.34.34.43-.24.21-.12.2-.12.12-.07,1.91-1.1a19.62,19.62,0,0,1,4.79-2l2.13-.58.18,0,.17,0,.24-.07.47-.13v-5.61h4.16v5.61l.47.13.24.07.17,0,.18,0,2.13.58a19.62,19.62,0,0,1,4.79,2l1.91,1.1.12.07.2.12.22.12.42.24.35-.34.17-.18.26-.26h0l1.55-1.55,1.63-1.63,1.47,1.47,1.47,1.47-1.63,1.63-1.5,1.51-.84.83.24.43.13.21.07.13.11.19.56,1-6.32,1.74c-.22-.25-.44-.5-.67-.73a15.11,15.11,0,0,0-2.28-1.85,14.21,14.21,0,0,0-4.78-2,14,14,0,0,0-5.86,0,14.08,14.08,0,0,0-4.77,2,13.93,13.93,0,0,0-4.14,4.14,14.08,14.08,0,0,0-2,4.77c0,.14-.05.28-.08.43l-12.08,3.32Zm5.9,5.22-.05-.17-.05-.18-.06-.24-.13-.47h-5.61v-.53l12-3.29a14.52,14.52,0,0,0-.11,1.74,14.86,14.86,0,0,0,.1,1.63l-6,1.65Zm.57,2.13-.12-.47,5.87-1.62c.09.4.2.8.32,1.19L444.15,262Zm2.15,5.07,6.19-1.7.45.55-6.3,1.74Zm43.34-8.26h-5.61l-.13.47-.06.24-.05.18-.05.17L483,261.3a20,20,0,0,1-2,4.79l-1.1,1.92,0,0-.16.28-.13.22-.24.42.52.52.2.2.06.06,1.56,1.56,1.63,1.63-2.94,2.94-1.63-1.63-1.82-1.82-.52-.52-.42.24-.22.13-.21.12-.1.06-1.92,1.1a20,20,0,0,1-4.79,2l-2.13.57,0,0-.3.08-.24.06-.47.13V282h-4.16V276.4l-.47-.13-.24-.06-.3-.08-.05,0-2.13-.57a20,20,0,0,1-4.79-2l-1.91-1.1-.11-.06-.21-.12-.21-.13-.43-.24-.34.35-.42.41,0,0-1.56,1.56-1.63,1.63-1.47-1.47-1.47-1.47,1.63-1.63,1.56-1.56.06-.06.2-.2.18-.17.34-.35-.24-.42-.12-.22-.17-.28,0,0-.36-.64,6.41-1.76c.12.14.25.28.38.41a14.33,14.33,0,0,0,7.06,3.84,14.46,14.46,0,0,0,5.86,0,14.15,14.15,0,0,0,4.78-2,14.52,14.52,0,0,0,2.28-1.85,14.19,14.19,0,0,0,3.84-7.06h0l12.15-3.34Zm0-3-12.06,3.31c0-.23.08-.47.11-.71l11.95-3.29Z" transform="translate(-19.69 -149.34)"/><path d="M474.75,248.68A12.92,12.92,0,0,0,473,246.5a13.82,13.82,0,0,0-2.18-1.77,13.64,13.64,0,0,0-4.56-1.9,13.66,13.66,0,0,0-5.6,0,13.59,13.59,0,0,0-4.55,1.9,13.6,13.6,0,0,0-4,4,13.59,13.59,0,0,0-1.9,4.55,13.66,13.66,0,0,0,0,5.6,13.64,13.64,0,0,0,1.9,4.56,13.29,13.29,0,0,0,1.77,2.18,12.92,12.92,0,0,0,2.18,1.76,13.11,13.11,0,0,0,4.55,1.9,13.66,13.66,0,0,0,5.6,0,13.24,13.24,0,0,0,4.56-1.9,13.22,13.22,0,0,0,3.94-3.94,13.35,13.35,0,0,0,1.9-4.56,13.66,13.66,0,0,0,0-5.6A13.3,13.3,0,0,0,474.75,248.68Zm.18,9.79a11.86,11.86,0,0,1-5.08,7.39,11.68,11.68,0,0,1-12.79,0,11.33,11.33,0,0,1-1.9-1.54,11.67,11.67,0,0,1-1.54-1.89,12,12,0,0,1-1.65-4,12,12,0,0,1,0-4.87,11.88,11.88,0,0,1,1.65-4,11.74,11.74,0,0,1,1.54-1.9,11.33,11.33,0,0,1,1.9-1.54,11.88,11.88,0,0,1,4-1.65,12,12,0,0,1,4.87,0,12,12,0,0,1,4,1.65,11.83,11.83,0,0,1,5.08,7.4,12,12,0,0,1,0,4.87Zm18.82,4V249.64h-6.62a24.49,24.49,0,0,0-2.42-5.82l4.69-4.69-4.53-4.52-4.52-4.52-4.68,4.68a24.22,24.22,0,0,0-5.82-2.41v-6.62H457.06v6.62a24.06,24.06,0,0,0-5.82,2.41l-4.69-4.68L442,234.61l-4.52,4.52,4.68,4.69a24.06,24.06,0,0,0-2.41,5.82h-6.63v12.79h6.63a24.22,24.22,0,0,0,2.41,5.82l-4.68,4.68,4.52,4.52,4.52,4.53,4.69-4.69a24.49,24.49,0,0,0,5.82,2.42v6.62h12.79v-6.62a24.66,24.66,0,0,0,5.82-2.42l4.68,4.69,9-9.05-4.69-4.68a24.66,24.66,0,0,0,2.42-5.82Zm-7.22-11.67h6.09l-1.59,1.6h-5.54Zm-1.43-11.18.45-.45h2.26L483.92,243l-.33.33-1.86-.39,1.06-1.07Zm-8.64-4,3.89-3.89v2.27h0l-.45.45-2.31,2.31-1.11,1.11-.39-1.86Zm-7.74-8.71h0v6l-1.6,1v-5.42h0Zm-10.54,0h0l1.61,1.6h0v5.42l-1.59-1Zm-11.63,4.82,3.89,3.89.38.38-.4,1.86-1.11-1.11L447,234.38l-.45-.45h0Zm-7.46,7.46h2.26l.45.45,2.31,2.31,1.06,1.07-1.86.39L443,243Zm1.28,11.63,1,1.6h-5.54l-1.59-1.6Zm-.09,10.55h-6l1.6-1.61h5.45Zm1.52,11.17-.45.45h-2.26L443,269l.45-.45,1.86.4-1.18,1.18Zm8.64,4-3.89,3.89v-2.26h0l.45-.45,2.31-2.31,1.14-1.13.39,1.86Zm7.74,8.7v-6.11l1.59-1v5.56h0Zm10.55,0-1.61-1.59h0v-5.56l1.6,1Zm11.62-4.81-3.89-3.89-.4-.4.4-1.86,1.13,1.13,2.31,2.31.45.45h0Zm7.46-7.46h-2.26l-.45-.45-2.31-2.31L481.61,269l1.86-.4.45.45Zm-3.5-14.18-.06.24-.05.18-.05.17-.57,2.13a20.74,20.74,0,0,1-2.06,4.94l-1.1,1.91,0,0-.16.28-.12.22.17.17.2.2.06.06,1.56,1.56,1.86,1.86.23.22-3.85,3.85-.22-.23-1.86-1.86-1.82-1.82-.18-.17-.21.12-.21.13-.11.05-1.91,1.1a20.91,20.91,0,0,1-4.94,2.06l-2.13.57h-.05l-.3.09-.24.06v5.76h-5.44v-5.76l-.23-.06-.3-.09h-.06l-2.13-.57a21.31,21.31,0,0,1-4.94-2.05L451.16,273l-.11-.06-.21-.12-.21-.12-.42.42h0l-1.56,1.56-1.86,1.86-.23.23-.23-.23-1.69-1.7-1.7-1.69-.22-.23.22-.22,1.86-1.86,1.56-1.56.06-.06.2-.2.17-.17-.12-.22-.16-.28,0,0-1.1-1.91a20.47,20.47,0,0,1-2.05-4.94l-.58-2.13,0-.17,0-.18-.07-.24h-5.76v-5.44h5.76l.07-.23.08-.29v-.07l.58-2.13a20.47,20.47,0,0,1,2.05-4.94l1.1-1.91.11-.19.07-.13.12-.21-.17-.17-.26-.26-.06-.06-1.5-1.5-1.86-1.86-.22-.23.22-.23,1.7-1.69,1.69-1.7.23-.22.23.22,1.86,1.86,1.54,1.55.45.44.21-.12.2-.11.12-.07,1.91-1.1a20.47,20.47,0,0,1,4.94-2.05l2.13-.58.19-.05.17,0,.23-.07v-5.76h5.44v5.76l.24.07.17,0,.18.05,2.13.58a20.47,20.47,0,0,1,4.94,2.05l1.91,1.1.12.07.2.11.21.12.18-.17.26-.26h0l1.55-1.55,1.86-1.86.22-.22h0l.22.21,1.69,1.7,1.7,1.69.23.23-.23.23-1.86,1.86-1.5,1.5-.49.49.12.21.08.13.1.19,1.1,1.91a20.91,20.91,0,0,1,2.06,4.94l.57,2.13,0,.07.08.29.06.23h5.76v5.44Zm1.28,1H491l1.6,1.6h-6Z" transform="translate(-19.69 -149.34)"/><path class="cls-20" d="M456.35,192a.82.82,0,0,1-.19-.22.86.86,0,0,1-.09-.57l.09.05c.16.07.31-.19.14-.27a1.14,1.14,0,0,1-.6-1.5c.1-.24.57-.33.44-.65,0-.1-.18,0-.16.07,0-.11-.39.26-.44.34a1.43,1.43,0,0,0-.22.76,1.33,1.33,0,0,0,.48,1l0,0a.91.91,0,0,0,0,.94c.12.25.5.56.76.37a.14.14,0,0,0,0-.19A1.59,1.59,0,0,0,456.35,192Z" transform="translate(-19.69 -149.34)"/><path class="cls-20" d="M457,187.5a1,1,0,0,1,.21-.53c.16-.17.37-.09.55-.14a.17.17,0,0,0,.06-.27.48.48,0,0,0-.46-.09,1.59,1.59,0,0,1,.45-1.21c.45-.5,1-.07,1.49,0,.08,0,.14-.08.08-.16a1.19,1.19,0,0,0-1.74-.26,1.69,1.69,0,0,0-.54,1.72.35.35,0,0,0-.09.07.89.89,0,0,0-.28.84C456.74,187.65,457,187.67,457,187.5Z" transform="translate(-19.69 -149.34)"/><path class="cls-20" d="M463.49,184a3,3,0,0,0-.7-.85c-.65-.57-1.42-.08-1.7.71,0,.08.08.14.13.08l.37-.39a.7.7,0,0,1,1.1-.06,1.22,1.22,0,0,1,.49,1.25c0,.09.06.16.14.12a.52.52,0,0,0,.27-.6.46.46,0,0,1,.46.15c.17.19.07.44.1.67a.08.08,0,0,0,.12.08c.31-.17.21-.72,0-1A.68.68,0,0,0,463.49,184Z" transform="translate(-19.69 -149.34)"/><path class="cls-20" d="M466.8,190.44a.07.07,0,0,0,0,.1c.74.06.22,1.39,0,1.69s-.86.32-1.32.46a.15.15,0,0,0-.05.24.81.81,0,0,0,.71.22.41.41,0,0,1,0,.09,1.34,1.34,0,0,1-.27.31c-.2.14-.44.19-.63.33a.11.11,0,0,0,0,.15c.48.43,1.29-.35,1.27-1a1.87,1.87,0,0,0,.94-2.44C467.27,190.38,467,190.22,466.8,190.44Z" transform="translate(-19.69 -149.34)"/><path class="cls-20" d="M459.84,194.93a2,2,0,0,1-.69.24.32.32,0,0,1-.29-.2.91.91,0,0,0,.48-.75.08.08,0,0,0-.12-.07c-.4.28-.64.61-1.16.61s-1-.72-1-1.33a.07.07,0,0,0-.14,0,1.53,1.53,0,0,0,.87,1.67,1.12,1.12,0,0,0,.75,0,.78.78,0,0,0,.38.4.84.84,0,0,0,1-.44C460,195,459.92,194.9,459.84,194.93Z" transform="translate(-19.69 -149.34)"/><path class="cls-20" d="M468.64,187.57a1.05,1.05,0,0,0-.83-1.69,2.56,2.56,0,0,0-.26-2.62c-.78-.84-2.45-1.52-3.46-.82a1.33,1.33,0,0,0-.52-.55,1.41,1.41,0,0,0-1,0,.31.31,0,0,0-.12.05c-.76-1.45-2.7-1.34-3.88-.73a3.79,3.79,0,0,0-2,3.41,2.4,2.4,0,0,0-1.68,1.36,3.06,3.06,0,0,0,.12,2.72c-2.17,1.2-1.13,6.92,1.48,6.12a1.76,1.76,0,0,0,.86,1.05,4.85,4.85,0,0,0,2.32,1,3.21,3.21,0,0,0,2.56-1.14,1.91,1.91,0,0,0,3,.63,2,2,0,0,0,2.33-.39,2,2,0,0,0,.54-1.29,2.1,2.1,0,0,0,.87-1.62,2,2,0,0,0-.24-1.15,3.19,3.19,0,0,0,1.34-2.38A1.94,1.94,0,0,0,468.64,187.57Zm-.28,4.07a.52.52,0,0,0-.34.13s-.07.15,0,.18l.08,0a.15.15,0,0,0,.18.14c.57.52.29,1.53-.18,2.15a1.37,1.37,0,0,0-.4-.78.12.12,0,0,0-.2.14,2.3,2.3,0,0,1,0,1.71,1.54,1.54,0,0,1-2.17.51.19.19,0,0,0-.27,0c-.85.95-2,.52-2.68-.35a3.87,3.87,0,0,0,.65-1.22.18.18,0,0,0-.33-.16c-.66,1-1.23,2-2.4,2.28a2.77,2.77,0,0,1-1.93-.39c-.49-.25-1.6-.82-1.56-1.54a.18.18,0,0,0-.22-.18c-2.36.87-3.16-4.47-1.25-5.35a.24.24,0,0,0,.09-.38,2.42,2.42,0,0,1-.28-2.49,2.3,2.3,0,0,1,1.47-1.25,1.55,1.55,0,0,0,.08.23c0,.12.21.06.21-.06a3.71,3.71,0,0,1,1.63-3.38,2.93,2.93,0,0,1,2.16-.48,3.13,3.13,0,0,1,1.6,1.07.12.12,0,0,0,.22,0,2.38,2.38,0,0,1,.41-.06.84.84,0,0,1,.62.19c.27.24.19.58.33.87a.1.1,0,0,0,.15,0,.49.49,0,0,0,.16-.62,3.45,3.45,0,0,1,2.63.52,2,2,0,0,1,.28,3c-.2.19.1.53.3.33.64-.67,1.24.3.93,1h0a2.35,2.35,0,0,0-.59,0,.08.08,0,0,0,0,.15c.9.32,2,.65,2,1.92A2.77,2.77,0,0,1,468.36,191.64Z" transform="translate(-19.69 -149.34)"/><path class="cls-20" d="M493.14,240.94a1,1,0,0,1-.19-.21.9.9,0,0,1-.09-.58l.09,0c.16.08.31-.18.14-.27a1.14,1.14,0,0,1-.6-1.5c.1-.23.57-.33.44-.65,0-.1-.18,0-.16.07,0-.11-.39.26-.44.34a1.47,1.47,0,0,0-.22.77,1.31,1.31,0,0,0,.48,1l0,0a.91.91,0,0,0,0,.94c.12.25.5.56.76.37a.13.13,0,0,0,0-.18A1.66,1.66,0,0,0,493.14,240.94Z" transform="translate(-19.69 -149.34)"/><path class="cls-20" d="M493.76,236.49A1,1,0,0,1,494,236c.16-.17.37-.09.55-.14a.16.16,0,0,0,.06-.26.46.46,0,0,0-.46-.1,1.61,1.61,0,0,1,.45-1.21c.45-.5,1-.07,1.49,0a.09.09,0,0,0,.08-.15,1.19,1.19,0,0,0-1.74-.27,1.69,1.69,0,0,0-.54,1.72.35.35,0,0,0-.09.07.9.9,0,0,0-.28.85C493.53,236.63,493.74,236.65,493.76,236.49Z" transform="translate(-19.69 -149.34)"/><path class="cls-20" d="M500.28,233a3.17,3.17,0,0,0-.7-.85c-.65-.57-1.42-.07-1.7.71a.08.08,0,0,0,.13.09c.13-.13.24-.27.37-.4a.7.7,0,0,1,1.1-.06,1.23,1.23,0,0,1,.49,1.25c0,.09.06.16.14.12a.5.5,0,0,0,.27-.59.43.43,0,0,1,.46.14c.17.19.07.44.1.67a.08.08,0,0,0,.12.08c.31-.16.21-.72,0-.95A.69.69,0,0,0,500.28,233Z" transform="translate(-19.69 -149.34)"/><path class="cls-20" d="M503.59,239.42a.06.06,0,0,0,0,.1c.74.07.22,1.39,0,1.69s-.85.33-1.32.46a.15.15,0,0,0,0,.24.85.85,0,0,0,.71.23.22.22,0,0,1-.05.08,1.16,1.16,0,0,1-.27.31c-.2.15-.44.19-.63.33a.12.12,0,0,0,0,.16c.48.42,1.29-.36,1.27-1a1.86,1.86,0,0,0,1-1.09,1.82,1.82,0,0,0-.05-1.34C504.06,239.36,503.79,239.21,503.59,239.42Z" transform="translate(-19.69 -149.34)"/><path class="cls-20" d="M496.63,243.91a2,2,0,0,1-.69.24.32.32,0,0,1-.29-.2.89.89,0,0,0,.48-.74.08.08,0,0,0-.12-.08c-.4.29-.64.61-1.16.61s-1-.72-1-1.32c0-.09-.12-.12-.14,0a1.53,1.53,0,0,0,.87,1.67,1.12,1.12,0,0,0,.75,0,.78.78,0,0,0,.38.4.84.84,0,0,0,1-.43C496.77,244,496.71,243.88,496.63,243.91Z" transform="translate(-19.69 -149.34)"/><path class="cls-20" d="M505.43,236.55a1.05,1.05,0,0,0-.83-1.69,2.56,2.56,0,0,0-.26-2.62c-.78-.83-2.45-1.52-3.46-.82a1.39,1.39,0,0,0-.52-.55,1.41,1.41,0,0,0-1,0l-.12,0c-.76-1.44-2.7-1.34-3.88-.73a3.8,3.8,0,0,0-2,3.41,2.42,2.42,0,0,0-1.68,1.37,3,3,0,0,0,.12,2.71c-2.17,1.2-1.13,6.92,1.48,6.13a1.81,1.81,0,0,0,.86,1,4.88,4.88,0,0,0,2.32,1,3.2,3.2,0,0,0,2.56-1.14,1.91,1.91,0,0,0,3,.63,2,2,0,0,0,2.88-1.68,2.1,2.1,0,0,0,.86-1.62,2,2,0,0,0-.24-1.15,3.19,3.19,0,0,0,1.34-2.38A2,2,0,0,0,505.43,236.55Zm-.28,4.07a.58.58,0,0,0-.34.13c-.05,0-.07.15,0,.18l.08,0a.15.15,0,0,0,.18.13c.57.53.29,1.54-.18,2.16a1.31,1.31,0,0,0-.4-.78.12.12,0,0,0-.2.13,2.3,2.3,0,0,1,0,1.71,1.54,1.54,0,0,1-2.17.51.2.2,0,0,0-.27,0c-.85,1-2,.52-2.68-.35a3.77,3.77,0,0,0,.65-1.22.18.18,0,0,0-.33-.15c-.66,1-1.23,2-2.4,2.28a2.83,2.83,0,0,1-1.93-.4c-.49-.25-1.6-.82-1.56-1.53,0-.13-.12-.23-.22-.19-2.36.88-3.16-4.47-1.25-5.34a.25.25,0,0,0,.09-.39,2.42,2.42,0,0,1-.28-2.49,2.28,2.28,0,0,1,1.47-1.24c0,.07.05.15.08.23s.21,0,.21-.07a3.71,3.71,0,0,1,1.63-3.38,2.93,2.93,0,0,1,2.16-.48,3.14,3.14,0,0,1,1.6,1.08.14.14,0,0,0,.23,0,1.21,1.21,0,0,1,.4-.06.84.84,0,0,1,.62.19c.27.23.19.57.33.86a.1.1,0,0,0,.15,0,.49.49,0,0,0,.16-.62,3.45,3.45,0,0,1,2.63.52,2,2,0,0,1,.29,3c-.21.2.09.54.29.33.64-.67,1.24.3.93,1h0a2,2,0,0,0-.59,0,.07.07,0,0,0,0,.14c.9.32,2,.65,2,1.92A2.75,2.75,0,0,1,505.15,240.62Z" transform="translate(-19.69 -149.34)"/><path class="cls-20" d="M409.76,253.8a1.23,1.23,0,0,1-.25-.26.85.85,0,0,1-.12-.67l.11,0c.22.09.42-.21.2-.32-.71-.33-1.21-1-.82-1.75.14-.28.77-.4.6-.77-.06-.12-.24,0-.21.09,0-.13-.54.3-.6.39a1.56,1.56,0,0,0-.29.9,1.51,1.51,0,0,0,.64,1.17s0,0,0,0a1,1,0,0,0,0,1.11c.17.29.67.66,1,.43a.13.13,0,0,0,0-.21A1.67,1.67,0,0,0,409.76,253.8Z" transform="translate(-19.69 -149.34)"/><path class="cls-20" d="M410.6,248.56a1,1,0,0,1,.28-.62c.21-.2.49-.11.74-.17a.19.19,0,0,0,.08-.31.73.73,0,0,0-.63-.11,1.73,1.73,0,0,1,.61-1.42c.61-.59,1.33-.08,2,0,.12,0,.19-.09.11-.18a1.74,1.74,0,0,0-2.34-.31c-.55.49-1.08,1.31-.73,2l-.12.08a1,1,0,0,0-.37,1A.19.19,0,0,0,410.6,248.56Z" transform="translate(-19.69 -149.34)"/><path class="cls-20" d="M419.35,244.47a3.8,3.8,0,0,0-.93-1,1.5,1.5,0,0,0-2.29.83c-.05.11.11.17.18.11s.32-.32.49-.46a1,1,0,0,1,1.48-.08,1.37,1.37,0,0,1,.66,1.47.13.13,0,0,0,.19.14.57.57,0,0,0,.36-.7.68.68,0,0,1,.62.17c.22.23.1.52.13.78a.12.12,0,0,0,.17.1c.41-.19.27-.85,0-1.11A1,1,0,0,0,419.35,244.47Z" transform="translate(-19.69 -149.34)"/><path class="cls-20" d="M423.81,252c-.05,0,0,.11.05.12,1,.07.3,1.63,0,2s-1.15.38-1.77.54a.17.17,0,0,0-.08.28,1.22,1.22,0,0,0,1,.27l-.06.1a1.58,1.58,0,0,1-.37.36c-.26.17-.59.22-.84.39a.11.11,0,0,0,0,.18c.64.5,1.73-.42,1.7-1.13a2.35,2.35,0,0,0,1.34-1.28,1.93,1.93,0,0,0-.07-1.58C424.44,251.94,424.08,251.76,423.81,252Z" transform="translate(-19.69 -149.34)"/><path class="cls-20" d="M414.45,257.28a2.78,2.78,0,0,1-.93.28.46.46,0,0,1-.39-.23,1.12,1.12,0,0,0,.66-.88.12.12,0,0,0-.17-.09c-.54.34-.86.72-1.57.72a1.53,1.53,0,0,1-1.36-1.55c0-.11-.17-.14-.19,0a1.75,1.75,0,0,0,1.17,2,1.77,1.77,0,0,0,1,0,1.05,1.05,0,0,0,.52.46,1.2,1.2,0,0,0,1.4-.51A.12.12,0,0,0,414.45,257.28Z" transform="translate(-19.69 -149.34)"/><path class="cls-20" d="M426.28,248.64c.8-.89-.09-2-1.12-2a2.67,2.67,0,0,0-.35-3.07c-1-1-3.29-1.79-4.65-1a1.72,1.72,0,0,0-.69-.64,2.11,2.11,0,0,0-1.36-.05l-.17.06c-1-1.7-3.63-1.57-5.22-.85-1.4.63-2.94,2.38-2.69,4a3.1,3.1,0,0,0-2.1,4.79c-2.92,1.41-1.51,8.12,2,7.19.12.57.64.91,1.16,1.23a6.83,6.83,0,0,0,3.12,1.23,4.66,4.66,0,0,0,3.44-1.33,2.75,2.75,0,0,0,4.08.73,3,3,0,0,0,3.13-.46,2.17,2.17,0,0,0,.74-1.51,2.4,2.4,0,0,0,1.16-1.9,2.08,2.08,0,0,0-.32-1.35,3.63,3.63,0,0,0,1.79-2.79A2.34,2.34,0,0,0,426.28,248.64Zm-.38,4.78a.71.71,0,0,0-.45.15.13.13,0,0,0,0,.22l.1.05a.2.2,0,0,0,.24.15c.77.62.4,1.81-.23,2.53a1.49,1.49,0,0,0-.54-.91c-.12-.1-.33,0-.28.16a2.33,2.33,0,0,1,0,2,2.24,2.24,0,0,1-2.91.6.32.32,0,0,0-.37.05c-1.13,1.12-2.63.61-3.59-.41a4.44,4.44,0,0,0,.86-1.43c.1-.27-.29-.39-.44-.18-.88,1.2-1.65,2.31-3.22,2.67a4.21,4.21,0,0,1-2.6-.47c-.65-.29-2.15-1-2.1-1.79a.23.23,0,0,0-.3-.22c-3.16,1-4.24-5.25-1.67-6.28a.27.27,0,0,0,.12-.45,2.54,2.54,0,0,1-.38-2.92,3,3,0,0,1,2-1.47,2.15,2.15,0,0,0,.1.27.15.15,0,0,0,.28-.07,4.2,4.2,0,0,1,2.2-4,4.41,4.41,0,0,1,2.91-.56,4.19,4.19,0,0,1,2.14,1.26.2.2,0,0,0,.31-.05,2.86,2.86,0,0,1,.54-.07,1.27,1.27,0,0,1,.83.22c.37.28.25.68.45,1a.15.15,0,0,0,.19,0,.53.53,0,0,0,.22-.73,5.18,5.18,0,0,1,3.54.61,2.19,2.19,0,0,1,.38,3.56c-.27.23.13.62.4.38.86-.78,1.66.36,1.24,1.15h0a3.07,3.07,0,0,0-.8,0,.09.09,0,0,0,0,.17c1.21.38,2.65.76,2.65,2.26C427.66,252.12,426.75,252.79,425.9,253.42Z" transform="translate(-19.69 -149.34)"/></g></g></svg>