<svg xmlns="http://www.w3.org/2000/svg" viewBox="0 0 527 695"><defs><style>.cls-1{isolation:isolate;}.cls-2{fill:#231f20;}.cls-3{fill:#7fbb47;}.cls-4{fill:#80a22f;}.cls-14,.cls-16,.cls-4,.cls-5,.cls-8{opacity:0.4;}.cls-14,.cls-4{mix-blend-mode:multiply;}.cls-10,.cls-17,.cls-5,.cls-8{fill:#fff;}.cls-5{mix-blend-mode:screen;}.cls-6{fill:#fef5ab;}.cls-7{fill:#b2cd3c;}.cls-17,.cls-8{mix-blend-mode:overlay;}.cls-9{fill:#35622a;opacity:0.3;}.cls-11{fill:#50423d;}.cls-12{fill:#332723;}.cls-13{fill:#ce4e4b;}.cls-14{fill:#b84342;}.cls-15,.cls-16{fill:#d2a09a;}.cls-16{mix-blend-mode:color-burn;}.cls-17{opacity:0.5;}</style></defs><g class="cls-1"><g id="Calque_1" data-name="Calque 1"><path class="cls-2" d="M527.43,303.75a.93.93,0,0,0-.24.21c-.19-1-.38-2-.6-2.93-1.3-5.35-4.39-9.78-9.68-10.74-2.14-.4-4.32.45-6.29,1.21-2.76,1.06-5.66,4.42-8.4,5.74,1.3-4.39,2-9,3.39-13.42,2.14-7,4.92-12.26,10-17.27,2.47-2.46,5.23-5,6.95-8.15,7.23-13.2-1.46-26.25-14.82-28-11.72-1.55-23.81,9.24-21.84,22.34a74.78,74.78,0,0,0,4,14.1c2.61,7.34,2.3,14.77,1.14,22.37-.94,6.22-2.37,17.22-6.84,22.26a16.91,16.91,0,0,0-2.84-1.1c-8.8-2.47-18.61,4.83-21.05,13.74-3.51,12.84-.71,26.53,4.6,38.35,2.66,5.94,7.65,13.9,13.81,18C464.05,407,438,424,412.65,437.05a140.08,140.08,0,0,1-46.3,14.7c-10.33,1.31-23.35,2.85-32.46-3.51a.79.79,0,0,0-.4-.69,12.28,12.28,0,0,0-1.29-.61c-.31-.27-.62-.51-.92-.79a.39.39,0,0,0-.41-.08c6.52,5.84,13.93,10.45,22.31,11.65a1.53,1.53,0,0,1,.89-.34c2.38-.16,3.65-.22,5.73.88,1.46.79,1.45,2.9-.36,3a35,35,0,0,1-17.06-3.69c.22.24.45.45.66.68,1.17,1.33-.34,2.6-1.61,2.26a1.65,1.65,0,0,1-2.2.51,55.05,55.05,0,0,1-4.74-3.39c.23.34.47.7.68,1.05a38,38,0,0,1,3.66,4.08c.6.78.49,1.38.08,1.76,2.94,2.87,6,5.58,9.24,8.18,1.74,1.41,0,3.12-1.68,2.47-4.8-1.9-12.91-4.84-18.89-9.22a14.84,14.84,0,0,0,1.41,1.82c14.61,15.63,37.76,14.81,56.85,11.65,24.48-4.08,47.05-17.67,67-32.74,19-14.3,39.14-32.88,46.77-57.12a1.71,1.71,0,0,0,0-1.21,38.48,38.48,0,0,0,5.86.68c8.21.62,14.45-2.08,21.61-6,5.25-2.91,9.09-8.27,12.06-13.52,4.25-7.56,2.2-12.36,3.34-20.46.14-1-.42-1.42-1.06-1.38a117.32,117.32,0,0,0,5.84-12.4C552.71,321,545,296.47,527.43,303.75Z" transform="translate(-22 -107)"/><path class="cls-3" d="M528.08,320h0c5,2.46,4.22,10.37,3.11,15.46a9.9,9.9,0,0,0-5.49,3.3,14,14,0,0,0-2.6-3.91C526.17,331,527.61,325.65,528.08,320Z" transform="translate(-22 -107)"/><path class="cls-3" d="M494.42,286.38a45.34,45.34,0,0,0-1.13-21.53c-2-6.48-4.56-11.79-3.65-19,1-7.89,8.74-11,15.07-11.49,12.42-.88,21.79,13,13.69,24.49C513.69,265.59,508,269,504.82,277c-3,7.55-4.1,15.58-6.47,23.31-1.42,4.65-3.28,10.43-1.08,15.08a.82.82,0,0,0,1.13.47c-.24-4.62-.2-9.62,2.05-13.08.42-1.33.86-2.59,1.23-3.71,1.71.48,2.81-.39,4.5-1.78,7.12-5.84,14.54-3.16,17.16,5.62,3.06,10.24,1,21.27-2.54,30.93a1.43,1.43,0,0,0,.17,1.6,1.07,1.07,0,0,0,.07,1,21,21,0,0,1,3.27,9.45,11.63,11.63,0,0,1-.27,3.94,15.39,15.39,0,0,0-1.59-2.52c-3.48-4.42-9.08-5.61-14.17-4.44-.76-6.52,5.25-6.09,7.3-10.55,1.38-3,.79-8.51.44-11.63-1-8.64-5-14.61-13.51-11-.71.31-.81,1.94.17,1.61,7.76-2.52,10.13,3.55,10.79,10.46.29,3.08.46,8.64-.81,9.82-3.18,2.93-8.51,7.43-7.23,12.19-.33.15-.68.26-1,.42-5.73-10.33-8.73-25.74-18.71-31.87C491.52,306.41,493.07,293.72,494.42,286.38Z" transform="translate(-22 -107)"/><path class="cls-3" d="M539.51,355.08c.53,8.53-3.8,15.6-9.41,21.35-5.39,5.54-16.24,10-25.07,8.83A19.58,19.58,0,0,1,494.79,383a2.07,2.07,0,0,0-.18,2.07,6.64,6.64,0,0,0,3.11,2.62,2.21,2.21,0,0,0-1.44,1.3c-13.56,35.85-48.91,60.39-80.46,76.27-16.48,8.28-33.8,11.07-51.87,11.32-9,.14-17.6-1.48-25.56-6a29.9,29.9,0,0,1-8.21-7.26c-2.73-3.44-7-16.45,1.86-13.28a1,1,0,0,0,.61,0c7.26,6.77,18.51,6.18,27.72,5.78,16.47-.72,32.35-5.77,47.44-12.59,28.09-12.68,57.84-32.51,73.89-61a12.09,12.09,0,0,0,7.1.85.89.89,0,0,0,.17-.08c-3.47-.89-7.76-4.86-9.4-6.73a39.43,39.43,0,0,1-4.13-5.88c-7.78-9.43-12.21-24-13.25-34.4-1.33-13.37,7.89-26.47,20.18-21.45l0,0a17.59,17.59,0,0,1,3.19,1.64c8.27,5.35,10.67,21,16.1,29.88a14.45,14.45,0,0,0-2.6,2.7c-.81,1.14-.55,2.16.12,2.61a12.29,12.29,0,0,1,12.71-5.79,10.51,10.51,0,0,1,7.59,5.43c.32.32.67.62,1,1,3.91,4.86,1,12.13-2,16.42-4.26,6.05-10.79,8.35-17.5,6-8.21-2.9-6.85-11.07-4.82-17.6,1.56-5-4-8.45-6.18-11.76a27.8,27.8,0,0,0-14.39-10.88c-.24-.06-.51-.1-.77-.15-.22.15-.34.54-.06.69,7.36,4,10.58,10.29,16.15,16.15,4.34,4.56,0,10.07-.06,14.8,0,2.84,1.29,5.34,2.63,7.65,5.93,10.06,18.77,6,25.33-.3a23.13,23.13,0,0,0,6.68-12.59c4.31,4.29,10-2.45,14.47-10.08a.57.57,0,0,0,.48.34C539.53,350.56,539.38,353.08,539.51,355.08Z" transform="translate(-22 -107)"/><path class="cls-3" d="M544.49,334.29c-2.48,6.84-9.49,26.32-18.22,22.31a.83.83,0,0,0-.49-.05,16.65,16.65,0,0,0-.39-3.15c2.35-2.77,2.52-7.12,1.52-11.11,1-2.24,2.41-3.6,5-3.87a2,2,0,0,0,1.74-1.62c1.45-5.89,2.49-16.81-4.43-19.19a1,1,0,0,0-.95.22,63.73,63.73,0,0,0-.76-12.29C542.42,302.8,549.25,321.16,544.49,334.29Z" transform="translate(-22 -107)"/><path class="cls-3" d="M528.08,320h0c5,2.46,4.22,10.37,3.11,15.46a9.9,9.9,0,0,0-5.49,3.3,14,14,0,0,0-2.6-3.91C526.17,331,527.61,325.65,528.08,320Z" transform="translate(-22 -107)"/><path class="cls-3" d="M511.64,294.44c2,3.64,10.06,9.51,11,11.72a25.48,25.48,0,0,1,1.91,12,39.45,39.45,0,0,0-1.25-15.31C521.4,296.39,516.8,293.25,511.64,294.44Z" transform="translate(-22 -107)"/><path class="cls-3" d="M497.91,301.74l0,0c-2.8-10.35-3.94-23.62.36-33.73,2.43-5.74,6.58-10.46,8.92-16.23,2.69-6.67,1.2-12.06-1.85-17.36-.2,0-.4,0-.61,0-6.33.46-14.07,3.6-15.07,11.49-.91,7.18,1.68,12.49,3.65,19a45.34,45.34,0,0,1,1.13,21.53c-1.06,5.74-2.26,14.7-5.5,21.18,2.61,4.05,5.87,8,8,7C495.51,310.51,496.69,305.81,497.91,301.74Z" transform="translate(-22 -107)"/><path class="cls-4" d="M509.22,234.73c3.62,7.23,4.09,14.11-1,22.69-4.08,7-8.11,13-8.79,21.5A67.11,67.11,0,0,0,500,294.2c1.4-5.8,2.57-11.63,4.82-17.21,3.21-8,8.87-11.4,13.58-18.11A15.37,15.37,0,0,0,509.22,234.73Z" transform="translate(-22 -107)"/><path class="cls-4" d="M524.31,345.84a21,21,0,0,0-3.27-9.45,1.07,1.07,0,0,1-.07-1,1.16,1.16,0,0,1-.28-.86,2.09,2.09,0,0,1-1.33-2.1c1-7.46,4.34-16.87,1.08-24.16-1.89-4.22-6.1-6.37-9.21-9.37a16.49,16.49,0,0,1-2.72-3.22,17.75,17.75,0,0,0-2.24,1.49A9.37,9.37,0,0,1,505,299.5c-1.07,2.72-1.36,6.54-2,10,8.11-3.18,12.06,2.7,13,11.16.35,3.12.94,8.64-.44,11.63-2.05,4.46-8.06,4-7.3,10.55,5.09-1.17,10.69,0,14.17,4.44a15.39,15.39,0,0,1,1.59,2.52A11.63,11.63,0,0,0,524.31,345.84Z" transform="translate(-22 -107)"/><path class="cls-4" d="M507.9,350.22a9.46,9.46,0,0,1,7.17,2.93c3.54,3.86,5.27,8.34,4.75,13,2.4-4.31,4-10.16.65-14.3-.29-.35-.64-.65-1-1a10.51,10.51,0,0,0-7.59-5.43,12.66,12.66,0,0,0-10.06,2.66A7.54,7.54,0,0,0,507.9,350.22Z" transform="translate(-22 -107)"/><path class="cls-4" d="M478.33,319c7.78,1.93,13.6,11.14,17.34,18,1.75,3.22,3,7.12,5,9.87.32-.31.64-.61,1-.89-5.43-8.91-7.83-24.53-16.1-29.88a17.59,17.59,0,0,0-3.19-1.64l0,0c-7.8-3.17-14.35.93-17.76,7.76C468.54,319.28,473,317.68,478.33,319Z" transform="translate(-22 -107)"/><path class="cls-3" d="M515.55,370.37c4.36-8.81-2.6-16.47-10.35-16.53a9.33,9.33,0,0,1-5.13-1c-2.82-1.11-4.08-7.27-5.25-9.7-3.23-6.73-7.92-15.4-14.47-19.1-7-4-12.8-1.1-17.72,3.87a26.47,26.47,0,0,0-.44,7.93c1,10.37,5.47,25,13.25,34.4a39.43,39.43,0,0,0,4.13,5.88c1.64,1.87,5.93,5.84,9.4,6.73a.89.89,0,0,1-.17.08,12.09,12.09,0,0,1-7.1-.85c-16.05,28.53-45.8,48.36-73.89,61-15.09,6.82-31,11.87-47.44,12.59-9.21.4-20.46,1-27.72-5.78a1,1,0,0,1-.61,0c-5.67-2-6,2.55-4.73,7,8.93,7.49,27.87,8.08,36.15,8,22.82-.24,44.06-7.52,64-19.1,18.55-10.77,36.06-24.31,50-41.36a97.86,97.86,0,0,0,14.29-22.93,20.12,20.12,0,0,1,3.56-6,13.69,13.69,0,0,1-1.83-2.39c-1.34-2.31-2.67-4.81-2.63-7.65.06-4.73,4.4-10.24.06-14.8-5.57-5.86-8.79-12.17-16.15-16.15-.28-.15-.16-.54.06-.69.26,0,.53.09.77.15A27.8,27.8,0,0,1,490,344.94c2.21,3.31,7.74,6.73,6.18,11.76-1.87,6-3.16,13.45,3.12,16.84l.13-.05a1,1,0,0,1,1.06.59c.17.07.32.15.51.22a14.22,14.22,0,0,0,14.34-2.57A1.93,1.93,0,0,1,515.55,370.37Z" transform="translate(-22 -107)"/><path class="cls-4" d="M540.47,350.57a.57.57,0,0,1-.48-.34c-4.5,7.63-10.16,14.37-14.47,10.08a23.13,23.13,0,0,1-6.68,12.59c-5.21,5-14.39,8.58-20.91,4.78-3.45,1.71-4.92,8.88-6.3,11.85a60.45,60.45,0,0,1-6.95,10.8,182.15,182.15,0,0,1-24.2,26.09,185.19,185.19,0,0,1-53.22,33.23c-19.56,7.93-40.21,11.27-61.05,7.87-4.84-.78-11.18-2.13-16.47-4.87.15.23.3.45.44.64a29.9,29.9,0,0,0,8.21,7.26c8,4.55,16.57,6.17,25.56,6,18.07-.25,35.39-3,51.87-11.32,31.55-15.88,66.9-40.42,80.46-76.27a2.21,2.21,0,0,1,1.44-1.3,6.64,6.64,0,0,1-3.11-2.62,2.07,2.07,0,0,1,.18-2.07A19.58,19.58,0,0,0,505,385.26c8.83,1.16,19.68-3.29,25.07-8.83,5.61-5.75,9.94-12.82,9.41-21.35C539.38,353.08,539.53,350.56,540.47,350.57Z" transform="translate(-22 -107)"/><path class="cls-3" d="M527.57,356.53c8.55-12,11.95-24.82,6.67-39-1.54-4.14-3.06-8.27-2.73-12.21a15.94,15.94,0,0,0-4,.18,63.73,63.73,0,0,1,.76,12.29,1,1,0,0,1,.95-.22c6.92,2.38,5.88,13.3,4.43,19.19a2,2,0,0,1-1.74,1.62c-2.55.27-3.92,1.63-5,3.87,1,4,.83,8.34-1.52,11.11a16.65,16.65,0,0,1,.39,3.15.83.83,0,0,1,.49.05,5.5,5.5,0,0,0,1.12.34A1.22,1.22,0,0,1,527.57,356.53Z" transform="translate(-22 -107)"/><path class="cls-4" d="M535,306.05c-.82,7.3,5.84,15.61,5.79,23a49.62,49.62,0,0,1-8.35,26.74c5.76-4.13,10.16-16.35,12-21.47C548.35,323.63,544.57,309.53,535,306.05Z" transform="translate(-22 -107)"/><path class="cls-5" d="M511.18,354.16a8.37,8.37,0,0,0-5.55-.25c-2.05-1-4.61.71-6.07,2.47a13,13,0,0,0-2.67,10.49c.93,4.3,5.4,5.27,8.92,4.66,3.95-.7,7.33-4.39,8.61-8.29C515.63,359.59,514.74,355.68,511.18,354.16Z" transform="translate(-22 -107)"/><path class="cls-5" d="M506.92,240.38c-1.8-1.64-4.31-1.77-6.66-1.09a.47.47,0,0,0-.57-.21,8.15,8.15,0,0,0-6.44,6.92,7.35,7.35,0,0,0,2.29,7.68,6.27,6.27,0,0,0,1.72,1C504.16,258.13,513.88,246.76,506.92,240.38Z" transform="translate(-22 -107)"/><path class="cls-5" d="M469.74,405.34c-5.12,5.73-10.09,11.22-16,16-8.51,6.87-18.41,11.38-27.69,16.94a144.43,144.43,0,0,1-26.1,11.91c-8,2.82-18.27,8.2-26.81,7.34-.26,0-.54.55-.22.64,6.4,2.07,15.05-1.71,21.34-3.38a127,127,0,0,0,29.33-12c16.78-9.44,36.12-19,47.5-35.9C471.82,405.79,470.8,404.15,469.74,405.34Z" transform="translate(-22 -107)"/><path class="cls-2" d="M393.51,573.38c-4.35-10.93-11.72-20.49-16.42-31.39-5.14-11.93-9-24.42-13.37-36.66-13.18-36.72-23.87-84.6-64.36-96.55-18.54-5.49-39-.44-56.57,6.22-1.16.43-2.32.93-3.48,1.41-.49.18-1,.38-1.45.58l-1.93.79q-2.64,1.13-5.22,2.42c-11.81,5.7-23,13.23-32,23-16.58,16.16-26.12,37.08-34,59.35-16,44.95-57.38,92.4-28.2,141.49,12.08,20.33,33,35,54.27,41.61a210.47,210.47,0,0,0,76.13,8.63c25.55-2,52-11.8,74-25.56.31.19.75.19,1.33-.25,2.52-1.82,5-3.62,7.48-5.45,15.3-10.3,31.35-23.25,40.91-38.87C399.93,609,400,589.61,393.51,573.38Z" transform="translate(-22 -107)"/><path class="cls-6" d="M245.19,688.76c-24.64-1.37-50.55-5.23-72.29-17.88-12.36-8.84-23.17-19.16-30.86-33.6-12.25-23-5.46-46.16-1.11-70.1,3.86-9.66,9-18.74,13.52-28.06,6.37-13,12.3-26.62,18.07-40,11.58-26.83,23.62-51.87,48.26-67.3,21.25-13.3,48.4-22.31,73.07-17.59,24.91,4.77,40,28.56,49.76,51.42,10.09,23.75,18.45,48.48,27.75,72.61a226,226,0,0,0,13,27c6.69,17,10.53,33.39,1.71,52.42-4,8.69-9.94,16.25-16.43,23l-3.13,2.65c-11,9.29-22.25,17.87-34.59,25C306.15,683.34,274.36,690.38,245.19,688.76Z" transform="translate(-22 -107)"/><path class="cls-3" d="M384.39,565.24a226,226,0,0,1-13-27c-9.3-24.13-17.66-48.86-27.75-72.61-9.72-22.86-24.85-46.65-49.76-51.42-24.67-4.72-51.82,4.29-73.07,17.59-24.64,15.43-36.68,40.47-48.26,67.3-5.77,13.39-11.7,27-18.07,40-4.54,9.32-9.66,18.4-13.52,28.06-4.35,23.94-11.14,47.09,1.11,70.1,7.69,14.44,18.5,24.76,30.86,33.6.74.43,1.52.77,2.28,1.19-3.7-8.21-6.1-17.49-7.5-22.65-6.33-23.33-6.51-46.23-2-70.14,7.8-41.1,27.55-80.51,65.59-96.82,30.58-13.11,74.13-16.82,96.49,14.59C359,540.9,365.6,614.29,339.5,663.68a264.59,264.59,0,0,0,27-20.34l3.13-2.65c6.49-6.78,12.41-14.34,16.43-23C394.92,598.63,391.08,582.24,384.39,565.24Z" transform="translate(-22 -107)"/><path class="cls-2" d="M350.27,709c5.3,14,14.85,24.75,22.45,37.29,5.72,9.44,9,19.19,12.29,29.78,1.79,5.83,3.81,10.91,7.36,15.75,5.68,7.73,19.14,14.07,27.4,7.32,7.66-6.26,10.71-17.07,9-27.12-1.39-8.31-4.84-16.18-13.08-18.34-5.27-1.39-9,1.46-11.58,5.57a14.49,14.49,0,0,0-2-2.76,49.87,49.87,0,0,1-6-10.11c-1.25-2.68-2.78-5.36-4.11-8.09,15-3.1,35.92,14,43.22,27.09-.25,6.63,4.13,14.14,9.08,17.17a22.14,22.14,0,0,0,6.5,2.54c4.51,1.41,9.23,1.14,13.4-2.6,5.39-4.82,8.82-12.35,7.9-19.92,3.31,7.19,7.21,14.75,14.63,15.48,11.81,1.19,19.91-10.86,21.31-22.21,1.24-10-3.46-19.44-12.11-23.52-3.58-1.69-9.74-2.18-13.34-.35a12.55,12.55,0,0,0-3.46,2.44c-19-7.66-38.62-13.62-57.58-21.68-4.3-1.82-26.54-9.83-29.66-16.62.52-.64,1.05-1.26,1.56-1.92,4.77-6,9.87-11.69,14.35-17.93a349.65,349.65,0,0,0,26.39-42.55c15.19-29.29,24.5-60.28,31.06-93,2.34-11.64,4.81-25.87-.94-36.91-4.29-8.25-11.36-14-20.73-12-13.19,2.84-25.82,13.42-35.77,22.66-6.4,5.93-11.5,13.2-17.27,19.78-3.6,4.09-8,8.59-9.13,14.28-1.35,6.75,3.43,10.23,5.79,15.86,3.29,7.82,7.85,15.78,9.27,24.31a86,86,0,0,1-.59,28.49c-8.35,21.73-18.12,43.12-25.56,65.16-3.09-5.84-12.15-6.14-16.72-1.86C345.92,687.8,346.65,699.4,350.27,709Z" transform="translate(-22 -107)"/><path class="cls-3" d="M351.37,698c-.09-5,.49-10.94,5-13.87,3.67-2.42,9.46-4.36,12.65.16a1.55,1.55,0,0,0,.63.51c-1.36,4.15-2.67,8.31-3.83,12.53a1.69,1.69,0,0,0,0,.23c1.16-2.72,2.8-5.3,4-7.93,4.36-9.23,8.34-18.58,12.32-28q8.24-19.51,17-38.76c1.22-3.37,2.42-6.75,3.56-10.16,9.73-28.94,18.57-59.13,33.44-85.67.24-.43-.43-1.35-.82-.91-8.52,9.81-13.28,23.89-18.7,35.8-6.11,13.41-10.71,27.35-15.54,41.3a61.61,61.61,0,0,0-3-20.7c-4.47-12.69-13.06-26-10.1-38.89a91.74,91.74,0,0,1,21.84-26.51c8.6-7.2,19.45-16.51,30-19.93,38.79-12.55,19,52.56,14.74,70.63a276.19,276.19,0,0,1-29.94,74.5c-6.69,11.66-13.86,23.34-22,33.94-1.33,1.73-2.68,3.55-4.05,5.37-1.48,2.2-2.93,4.42-4.45,6.59-3.79,5.43-7.41,11.33-11.8,16.34a28.54,28.54,0,0,0,8.53-7.12c7.27,14.4,73.6,36.23,86.45,39.87-.43,1.33-1.09,3.61-1.2,3.63-.57.08-.5.66-.27,1.15a34.81,34.81,0,0,1,3.63-2.59,3.48,3.48,0,0,1,.62-.54c.27-.19.59-.28.86-.45a6.66,6.66,0,0,1,3.57-2.5c4.81-1.32,11.27-1.07,15.08,2.81,5.89,6,6.79,16.93,2.56,24.38-5.1,8.93-16.93,17.33-24.13,5.14-3.08-5.22-5-11.31-8.88-15.94a1.34,1.34,0,0,0-.63-.41c-.27-.49-.6-.93-.9-1.41a.79.79,0,0,1-.19-.18c-4.34-5.7-9.63-8.59-16.17-9.15a14.69,14.69,0,0,1,3.17,1.36,11.68,11.68,0,0,1,2.81,2.31,19.79,19.79,0,0,1,9.83,10.82c2.57,7.13,2.42,16.5-3.6,21.88-5.46,4.89-10.82,4.66-16.35,2.32a13.63,13.63,0,0,1-2.36-1.53,16.7,16.7,0,0,1-2.57-3.1,16.43,16.43,0,0,1-2.2-3.88,22.33,22.33,0,0,1-2.25-6.36,16.11,16.11,0,0,1-.07-4.9s0,0,0,0a.82.82,0,0,0-1.22.45,10.5,10.5,0,0,0-1,2.9c-3.49-8.8-11.57-14.19-18.79-19.41-7-5-17.05-12-25.72-8.18h0a27.59,27.59,0,0,1-1.88-5.9c-.28,1-.54,1.94-.78,2.93,1,4.43,3.33,8.49,5.14,12.64a90.76,90.76,0,0,0,9.4,16,35.41,35.41,0,0,0-2.37,6.76,1.48,1.48,0,0,0,.31,1.1,13.66,13.66,0,0,1,4.36-7c.59-.78,1.22-1.52,1.86-2.21a10.87,10.87,0,0,1,1.39-1.33c2.78-2.45,5.83-3.59,8.52-2a9.11,9.11,0,0,1,5.44,4.26c4.05,6.77,5.22,17.41,1.38,24.66-6.12,11.57-16.89,13.71-26.87,5-7.71-6.76-9.32-17.62-12.49-27.11-4.81-14.38-13.92-25.67-21.84-38.08C357.48,717.62,351.56,708,351.37,698Z" transform="translate(-22 -107)"/><path class="cls-2" d="M176.63,680.51c-4.57-4.28-13.62-4-16.72,1.86-7.43-22-17.21-43.43-25.55-65.16a86.24,86.24,0,0,1-.6-28.49c1.42-8.53,6-16.49,9.27-24.31a32.17,32.17,0,0,0,2.35-16,.88.88,0,0,0,.38-1c-.3-.68,2.08-2.59,1.78-3.25,4.5-3.71-5.71-7.18-9-10.47a92,92,0,0,0-16.15-19.2c-10-9.24-22.58-19.82-35.78-22.66-9.37-2-16.43,3.75-20.73,12-5.74,11-3.27,25.27-.94,36.91,6.57,32.69,15.88,63.68,31.07,93a347.19,347.19,0,0,0,26.39,42.55c4.48,6.24,9.57,12,14.34,17.93.52.66,1.05,1.28,1.57,1.92-3.12,6.79-25.37,14.8-29.67,16.62-19,8.06-38.54,14-57.57,21.68A12.46,12.46,0,0,0,47.64,732c-3.59-1.83-9.75-1.34-13.33.35C25.66,736.4,21,745.8,22.2,755.84c1.4,11.35,9.5,23.4,21.31,22.21,7.41-.73,11.31-8.29,14.63-15.48-.92,7.57,2.51,15.1,7.9,19.92,4.17,3.74,8.89,4,13.39,2.6a21.92,21.92,0,0,0,6.5-2.54c4.95-3,9.33-10.54,9.09-17.17,7.29-13,28.24-30.19,43.22-27.09h0c-1.36,2.73-2.89,5.41-4.13,8.09a50.81,50.81,0,0,1-6,10.11,15,15,0,0,0-2,2.76c-2.55-4.11-6.31-7-11.57-5.57-8.25,2.16-11.7,10-13.09,18.34-1.66,10.05,1.39,20.86,9,27.12,8.25,6.75,21.71.41,27.39-7.32,3.56-4.84,5.58-9.92,7.37-15.75,3.26-10.59,6.57-20.34,12.29-29.78,7.59-12.54,17.15-23.25,22.44-37.29C183.69,699.4,184.43,687.8,176.63,680.51Z" transform="translate(-22 -107)"/><path class="cls-3" d="M167.79,725.58c-7.93,12.41-17,23.7-21.84,38.08-3.17,9.49-4.79,20.35-12.49,27.11-10,8.73-20.75,6.59-26.87-5-3.84-7.25-2.67-17.89,1.38-24.66a9.05,9.05,0,0,1,5.44-4.26c2.69-1.58,5.74-.44,8.52,2a11.57,11.57,0,0,1,1.39,1.33c.64.69,1.26,1.43,1.86,2.21a13.66,13.66,0,0,1,4.36,7,1.48,1.48,0,0,0,.31-1.1,36.11,36.11,0,0,0-2.37-6.76,92,92,0,0,0,9.4-16c1.81-4.15,4.17-8.21,5.13-12.64-.24-1-.49-2-.78-2.93a27,27,0,0,1-1.87,5.9h0c-8.68-3.8-18.77,3.15-25.72,8.18-7.22,5.22-15.31,10.61-18.79,19.41a10.84,10.84,0,0,0-1-2.9.83.83,0,0,0-1.23-.45v0a16.77,16.77,0,0,1-.07,4.9,22,22,0,0,1-2.26,6.36,16.06,16.06,0,0,1-2.19,3.88,16.77,16.77,0,0,1-2.58,3.1,13.47,13.47,0,0,1-2.35,1.53c-5.54,2.34-10.9,2.57-16.36-2.32-6-5.38-6.16-14.75-3.6-21.88a19.84,19.84,0,0,1,9.84-10.82,11.82,11.82,0,0,1,2.8-2.31,14.91,14.91,0,0,1,3.17-1.36c-6.53.56-11.83,3.45-16.16,9.15a.79.79,0,0,1-.19.18c-.3.48-.63.92-.9,1.41a1.29,1.29,0,0,0-.63.41c-3.91,4.63-5.8,10.72-8.88,15.94-7.2,12.19-19,3.79-24.13-5.14-4.24-7.45-3.34-18.36,2.55-24.38,3.82-3.88,10.27-4.13,15.08-2.81a6.59,6.59,0,0,1,3.57,2.5c.28.17.6.26.86.45a3.93,3.93,0,0,1,.63.54,35.9,35.9,0,0,1,3.63,2.59c.23-.49.3-1.07-.27-1.15-.12,0-.77-2.3-1.21-3.63,12.85-3.64,79.19-25.47,86.46-39.87a28.5,28.5,0,0,0,8.52,7.12c-4.38-5-8-10.91-11.8-16.34-1.51-2.17-3-4.39-4.45-6.59-1.36-1.82-2.71-3.64-4-5.37-8.13-10.6-15.3-22.28-22-33.94a276.84,276.84,0,0,1-29.94-74.5c-4.26-18.07-24-83.18,14.75-70.63,10.56,3.42,21.42,12.73,30,19.93a91.41,91.41,0,0,1,21.84,26.51c3,12.91-5.62,26.2-10.09,38.89a61.11,61.11,0,0,0-3,20.7c-4.83-14-9.44-27.89-15.54-41.3-5.43-11.91-10.18-26-18.71-35.8-.39-.44-1.06.48-.81.91,14.86,26.54,23.7,56.73,33.44,85.67q1.71,5.12,3.56,10.16c5.83,12.83,11.55,25.75,17,38.76,4,9.41,8,18.76,12.32,28,1.25,2.63,2.88,5.21,4,7.93,0-.09,0-.15,0-.23-1.16-4.22-2.46-8.38-3.82-12.53a1.55,1.55,0,0,0,.63-.51c3.19-4.52,9-2.58,12.65-.16,4.48,2.93,5.06,8.89,5,13.87C178.79,708,172.86,717.62,167.79,725.58Z" transform="translate(-22 -107)"/><path class="cls-4" d="M116.35,515.38c2.34,5.42,7.28,15.67,3.73,21.68-3.65,6.16-12.63.73-21.23-5.79,6.2,9.22,10.3,20.68,14.84,30.65,6.1,13.41,10.71,27.35,15.54,41.3a61.11,61.11,0,0,1,3-20.7c4.47-12.69,13.06-26,10.09-38.89a91.41,91.41,0,0,0-21.84-26.51c-1.75-1.47-3.61-3-5.52-4.59C115.45,513.48,115.93,514.43,116.35,515.38Z" transform="translate(-22 -107)"/><path class="cls-4" d="M174,684.11c-3.68-2.42-9.46-4.36-12.65.16a1.55,1.55,0,0,1-.63.51c1.36,4.15,2.66,8.31,3.82,12.53,0,.08,0,.14,0,.23-1.17-2.72-2.8-5.3-4-7.93-4.36-9.23-8.34-18.58-12.32-28-5.48-13-11.2-25.93-17-38.76q-1.84-5.05-3.56-10.16c-9.61-28.57-18.37-58.34-32.9-84.63a132.22,132.22,0,0,0-10.67-8c7.15,19.38,15.24,38.37,22.12,57.86,7.29,20.62,12.93,41.78,21.57,61.88,4.49,10.45,9.3,20.74,14.67,30.71,4.47,8.31,10.17,16.32,13.73,25.12,4.87,12,2.8,22.27-.67,34.48-2.66,9.4-20.9,70.78-37.94,55.41-6.12-5.53-9.4-19.39-5.64-28.06a9.25,9.25,0,0,0-3.91,3.68c-4,6.77-5.22,17.41-1.38,24.66,6.12,11.57,16.89,13.71,26.87,5,7.7-6.76,9.32-17.62,12.49-27.11,4.8-14.38,13.91-25.67,21.84-38.08,5.07-8,11-17.6,11.19-27.6C179.07,693,178.49,687,174,684.11Z" transform="translate(-22 -107)"/><path class="cls-4" d="M136.92,735.14c3.06-3.94,5-11.87-2.16-11.31-5.15.4-10.09,2.78-14.58,5.39-10.68,6.19-17,15.41-25.41,24.46-5.66,6.05-12.5,12.61-20.91,8.76-3.1-1.42-4.57-4.85-5.6-8-.43-1.33.93-5.46,1.3-7.19a18.78,18.78,0,0,0-6.32,8.51c-2.56,7.13-2.42,16.5,3.6,21.88,5.46,4.89,10.82,4.66,16.36,2.32a13.47,13.47,0,0,0,2.35-1.53,16.77,16.77,0,0,0,2.58-3.1,16.06,16.06,0,0,0,2.19-3.88,22,22,0,0,0,2.26-6.36,16.77,16.77,0,0,0,.07-4.9v0a.83.83,0,0,1,1.23.45,10.84,10.84,0,0,1,1,2.9c3.48-8.8,11.57-14.19,18.79-19.41C119.93,739.51,128.84,733.39,136.92,735.14Z" transform="translate(-22 -107)"/><path class="cls-4" d="M33,746a18.78,18.78,0,0,1-1.86-7.56c-.15.14-.32.24-.47.38-5.89,6-6.79,16.93-2.55,24.38,5.09,8.93,16.93,17.33,24.13,5.14,3.08-5.22,5-11.31,8.88-15.94a1.29,1.29,0,0,1,.63-.41c.27-.49.6-.93.9-1.41a.79.79,0,0,0,.19-.18c.47-.62,1-1.2,1.47-1.76C53.14,753.23,39.59,759.62,33,746Z" transform="translate(-22 -107)"/><path class="cls-3" d="M351.37,698c-.09-5,.49-10.94,5-13.87,3.67-2.42,9.46-4.36,12.65.16a1.55,1.55,0,0,0,.63.51c-1.36,4.15-2.67,8.31-3.83,12.53a1.69,1.69,0,0,0,0,.23c1.16-2.72,2.8-5.3,4-7.93,4.36-9.23,8.34-18.58,12.32-28q8.24-19.51,17-38.76c1.22-3.37,2.42-6.75,3.56-10.16,9.73-28.94,18.57-59.13,33.44-85.67.24-.43-.43-1.35-.82-.91-8.52,9.81-13.28,23.89-18.7,35.8-6.11,13.41-10.71,27.35-15.54,41.3a61.61,61.61,0,0,0-3-20.7c-4.47-12.69-13.06-26-10.1-38.89a91.74,91.74,0,0,1,21.84-26.51c8.6-7.2,19.45-16.51,30-19.93,38.79-12.55,19,52.56,14.74,70.63a276.19,276.19,0,0,1-29.94,74.5c-6.69,11.66-13.86,23.34-22,33.94-1.33,1.73-2.68,3.55-4.05,5.37-1.48,2.2-2.93,4.42-4.45,6.59-3.79,5.43-7.41,11.33-11.8,16.34a28.54,28.54,0,0,0,8.53-7.12c7.27,14.4,73.6,36.23,86.45,39.87-.43,1.33-1.09,3.61-1.2,3.63-.57.08-.5.66-.27,1.15a34.81,34.81,0,0,1,3.63-2.59,3.48,3.48,0,0,1,.62-.54c.27-.19.59-.28.86-.45a6.66,6.66,0,0,1,3.57-2.5c4.81-1.32,11.27-1.07,15.08,2.81,5.89,6,6.79,16.93,2.56,24.38-5.1,8.93-16.93,17.33-24.13,5.14-3.08-5.22-5-11.31-8.88-15.94a1.34,1.34,0,0,0-.63-.41c-.27-.49-.6-.93-.9-1.41a.79.79,0,0,1-.19-.18c-4.34-5.7-9.63-8.59-16.17-9.15a14.69,14.69,0,0,1,3.17,1.36,11.68,11.68,0,0,1,2.81,2.31,19.79,19.79,0,0,1,9.83,10.82c2.57,7.13,2.42,16.5-3.6,21.88-5.46,4.89-10.82,4.66-16.35,2.32a13.63,13.63,0,0,1-2.36-1.53,16.7,16.7,0,0,1-2.57-3.1,16.43,16.43,0,0,1-2.2-3.88,22.33,22.33,0,0,1-2.25-6.36,16.11,16.11,0,0,1-.07-4.9s0,0,0,0a.82.82,0,0,0-1.22.45,10.5,10.5,0,0,0-1,2.9c-3.49-8.8-11.57-14.19-18.79-19.41-7-5-17.05-12-25.72-8.18h0a27.59,27.59,0,0,1-1.88-5.9c-.28,1-.54,1.94-.78,2.93,1,4.43,3.33,8.49,5.14,12.64a90.76,90.76,0,0,0,9.4,16,35.41,35.41,0,0,0-2.37,6.76,1.48,1.48,0,0,0,.31,1.1,13.66,13.66,0,0,1,4.36-7c.59-.78,1.22-1.52,1.86-2.21a10.87,10.87,0,0,1,1.39-1.33c2.78-2.45,5.83-3.59,8.52-2a9.11,9.11,0,0,1,5.44,4.26c4.05,6.77,5.22,17.41,1.38,24.66-6.12,11.57-16.89,13.71-26.87,5-7.71-6.76-9.32-17.62-12.49-27.11-4.81-14.38-13.92-25.67-21.84-38.08C357.48,717.62,351.56,708,351.37,698Z" transform="translate(-22 -107)"/><path class="cls-3" d="M351.37,698c-.09-5,.49-10.94,5-13.87,3.67-2.42,9.46-4.36,12.65.16a1.55,1.55,0,0,0,.63.51c-1.36,4.15-2.67,8.31-3.83,12.53a1.69,1.69,0,0,0,0,.23c1.16-2.72,2.8-5.3,4-7.93,4.36-9.23,8.34-18.58,12.32-28q8.24-19.51,17-38.76c1.22-3.37,2.42-6.75,3.56-10.16,9.73-28.94,18.57-59.13,33.44-85.67.24-.43-.43-1.35-.82-.91-8.52,9.81-13.28,23.89-18.7,35.8-6.11,13.41-10.71,27.35-15.54,41.3a61.61,61.61,0,0,0-3-20.7c-4.47-12.69-13.06-26-10.1-38.89a91.74,91.74,0,0,1,21.84-26.51c8.6-7.2,19.45-16.51,30-19.93,38.79-12.55,19,52.56,14.74,70.63a276.19,276.19,0,0,1-29.94,74.5c-6.69,11.66-13.86,23.34-22,33.94-1.33,1.73-2.68,3.55-4.05,5.37-1.48,2.2-2.93,4.42-4.45,6.59-3.79,5.43-7.41,11.33-11.8,16.34a28.54,28.54,0,0,0,8.53-7.12c7.27,14.4,73.6,36.23,86.45,39.87-.43,1.33-1.09,3.61-1.2,3.63-.57.08-.5.66-.27,1.15a34.81,34.81,0,0,1,3.63-2.59,3.48,3.48,0,0,1,.62-.54c.27-.19.59-.28.86-.45a6.66,6.66,0,0,1,3.57-2.5c4.81-1.32,11.27-1.07,15.08,2.81,5.89,6,6.79,16.93,2.56,24.38-5.1,8.93-16.93,17.33-24.13,5.14-3.08-5.22-5-11.31-8.88-15.94a1.34,1.34,0,0,0-.63-.41c-.27-.49-.6-.93-.9-1.41a.79.79,0,0,1-.19-.18c-4.34-5.7-9.63-8.59-16.17-9.15a14.69,14.69,0,0,1,3.17,1.36,11.68,11.68,0,0,1,2.81,2.31,19.79,19.79,0,0,1,9.83,10.82c2.57,7.13,2.42,16.5-3.6,21.88-5.46,4.89-10.82,4.66-16.35,2.32a13.63,13.63,0,0,1-2.36-1.53,16.7,16.7,0,0,1-2.57-3.1,16.43,16.43,0,0,1-2.2-3.88,22.33,22.33,0,0,1-2.25-6.36,16.11,16.11,0,0,1-.07-4.9s0,0,0,0a.82.82,0,0,0-1.22.45,10.5,10.5,0,0,0-1,2.9c-3.49-8.8-11.57-14.19-18.79-19.41-7-5-17.05-12-25.72-8.18h0a27.59,27.59,0,0,1-1.88-5.9c-.28,1-.54,1.94-.78,2.93,1,4.43,3.33,8.49,5.14,12.64a90.76,90.76,0,0,0,9.4,16,35.41,35.41,0,0,0-2.37,6.76,1.48,1.48,0,0,0,.31,1.1,13.66,13.66,0,0,1,4.36-7c.59-.78,1.22-1.52,1.86-2.21a10.87,10.87,0,0,1,1.39-1.33c2.78-2.45,5.83-3.59,8.52-2a9.11,9.11,0,0,1,5.44,4.26c4.05,6.77,5.22,17.41,1.38,24.66-6.12,11.57-16.89,13.71-26.87,5-7.71-6.76-9.32-17.62-12.49-27.11-4.81-14.38-13.92-25.67-21.84-38.08C357.48,717.62,351.56,708,351.37,698Z" transform="translate(-22 -107)"/><path class="cls-3" d="M407.57,519.2c-.87,1.79-1.77,3.57-2.57,5.4-2.9,6.67-8.7,17.52-6.72,25.2,3.24,12.56,19.63-9.27,22.2-12.63C427,528.61,434,520.33,443,514.62c1.25-.79,2.63,1.25,2.31,2.45-6.59,25-18.84,47.45-27,71.78-3.89,11.59-8.41,22.84-12.58,34.31-4.1,11.28-18.79,48.86-9,61.31.64-1,1.29-1.89,1.92-2.84,1.37-1.82,2.72-3.64,4.05-5.37,8.13-10.6,15.3-22.28,22-33.94a276.19,276.19,0,0,0,29.94-74.5c4.26-18.07,24.05-83.18-14.74-70.63-10.57,3.42-21.42,12.73-30,19.93C409,517.79,408.33,518.51,407.57,519.2Z" transform="translate(-22 -107)"/><path class="cls-3" d="M416.94,756.87c-2.69-1.58-5.74-.44-8.52,2a10.87,10.87,0,0,0-1.39,1.33c-.64.69-1.27,1.43-1.86,2.21a13.66,13.66,0,0,0-4.36,7,1.48,1.48,0,0,1-.31-1.1,35.41,35.41,0,0,1,2.37-6.76,90.76,90.76,0,0,1-9.4-16c-1.21-2.75-2.6-5.51-3.72-8.33-.65.43-1.3.9-2,1.43-1.51,8.18,8.68,29.7,10.78,33.52,2.73,5,6.08,7.55,11,10,2.05,1,8.16,3.93,13.43,4.9.25-.42.52-.84.76-1.31,3.84-7.25,2.67-17.89-1.38-24.66A9.11,9.11,0,0,0,416.94,756.87Z" transform="translate(-22 -107)"/><path class="cls-4" d="M446,760.83c-15-9-34.4-31.88-51.93-25.76,7.91-1.29,16.5,4.56,22.64,9,7.22,5.22,15.3,10.61,18.79,19.41a10.5,10.5,0,0,1,1-2.9.82.82,0,0,1,1.22-.45s0,0,0,0a16.11,16.11,0,0,0,.07,4.9,22.33,22.33,0,0,0,2.25,6.36,16.43,16.43,0,0,0,2.2,3.88,16.7,16.7,0,0,0,2.57,3.1,13.63,13.63,0,0,0,2.36,1.53c5.53,2.34,10.89,2.57,16.35-2.32,5.07-4.52,5.95-11.87,4.58-18.33C465.21,768.93,454.38,765.9,446,760.83Z" transform="translate(-22 -107)"/><path class="cls-4" d="M502.65,743.26a22.79,22.79,0,0,1-6.12,9.22c-7.85,7.16-17.39,7.77-25.38,2.73,2.63,4.13,4.42,8.9,6.91,13.13,7.2,12.19,19,3.79,24.13-5.14A22.22,22.22,0,0,0,502.65,743.26Z" transform="translate(-22 -107)"/><path class="cls-4" d="M385.36,664c3.78-8.36,7.7-16.77,11.58-25.22.15-.5.32-1,.47-1.5,4.5-14.14,10.24-27.71,15.2-41.65,8.87-25,20.72-49.15,28.16-74.68-11.54,9.18-18.16,22.89-29.45,32.37-4,3.37-12.32,6.33-15.11-.58-3-7.43.5-16.54,3.23-23.48.45-1.16,1-2.28,1.44-3.42A91.69,91.69,0,0,0,388,543.63c-3,12.91,5.63,26.2,10.1,38.89a61.61,61.61,0,0,1,3,20.7c4.83-14,9.43-27.89,15.54-41.3,5.42-11.91,10.18-26,18.7-35.8.39-.44,1.06.48.82.91-14.87,26.54-23.71,56.73-33.44,85.67-1.14,3.41-2.34,6.79-3.56,10.16q-8.76,19.25-17,38.76c-2.91,6.87-5.86,13.68-8.91,20.47v.9a1.49,1.49,0,0,1-1,1.29c-.81,1.77-1.58,3.56-2.42,5.33-.69,1.45-1.48,2.9-2.26,4.37.33,4.44,1.75,10.12,3.8,16.33C370.73,694.47,379.55,676.81,385.36,664Z" transform="translate(-22 -107)"/><path class="cls-4" d="M396.88,775.49a155.44,155.44,0,0,1-6.63-14.28C381.3,747.92,374.7,731,369.52,716.4c-2.79-7.86-6.5-17.42-5.62-26.06a11.79,11.79,0,0,1,2.38-6.63,7.35,7.35,0,0,1,1.07-1.05c-3.28-2.28-7.89-.61-11,1.45-4.48,2.93-5.06,8.89-5,13.87.19,10,6.11,19.64,11.19,27.6,7.92,12.41,17,23.7,21.84,38.08,3.17,9.49,4.78,20.35,12.49,27.11,8.42,7.36,17.39,7,23.66-.26C411.09,788.17,399.75,780.7,396.88,775.49Z" transform="translate(-22 -107)"/><path class="cls-2" d="M240.71,737.1c-11.29-5.61-18.41-17.35-26.8-26.74a1.85,1.85,0,0,0,.2-1.16c-4.56-22.26-10-43.86-12.44-66.6a418.15,418.15,0,0,1-1.54-65.16c1.08-22.73,4-45.33,5.19-68.06.3-5.69,2.88-23.41-1.72-31.13a.18.18,0,0,0,0-.21,12.74,12.74,0,0,0-1.08-1.71c3.27,15.07,1.29,30.37-.83,45.68-.26,1.91-3.76,2.17-3.44-.1.73-5.29,1.44-10.6,1.93-15.9a1,1,0,0,1-.6-1c.14-2.83.35-5.75.51-8.7a111.18,111.18,0,0,0-1.25-17.66c-.12-.44-.3-.84-.43-1.28a125.53,125.53,0,0,0-7.15,17.76c-2.27,8.11-3.75,16.37-3.1,25,.15,2-3.37,2.9-3.52.93-.09-1.22-.07-2.43-.08-3.64a1.35,1.35,0,0,1-.32-1,71.08,71.08,0,0,1,.69-7.91c.17-1.52.43-3,.7-4.54l0-.08a82.54,82.54,0,0,1,2-8.72c1.4-4.81,2.62-10.14,4.84-14.61.8-1.6,1.66-3.18,2.51-4.74-4.09,3.67-7.69,12-9,15.51-8.71,22.54-9.93,47.2-11.13,71.24-1.31,26.17-1.6,52.52.3,78.66,1.59,22,4.24,45.45,10.7,66.72,0,.05,0,.11,0,.16,3,7.8-5.5,15.75-10.15,20.56-4.32,4.47-12.29,13-18.43,12.71-11.32-.5-17.46,11.12-11.55,20.93,4.5,7.48,17.1,10.73,22.14,2,1.69-2.91,2.27-6.1,3-9.27,3-3.48,6.72-6.28,11.19-3.38,2.92,1.9,3.87,5.75,6.07,8.36-2.14,2.48-3.9,5.68-2.37,9.27,4.34,10.15,14.81,14.8,24.29,9.79,7.3-3.84,6.91-12.6,4.92-20.67,1.54-3.69,2.71-7.11,6.6-9.31,4.86-2.77,9.1.26,13.14,2.88a1.36,1.36,0,0,0,0,1c5.3,9.38,23.59,14.58,23.68-1.44C258.51,739,249.07,741.25,240.71,737.1Z" transform="translate(-22 -107)"/><path class="cls-7" d="M190.13,757.21c-1.76-4.9-5.73-9.63-10.63-10a9.29,9.29,0,0,0-7,2.76c0-.08.07-.18.11-.27,2.27-4.81,11.93-19.4,17.49-13.31,0,0,0,0,.06,0C190.83,742.75,192.85,751.59,190.13,757.21Z" transform="translate(-22 -107)"/><path class="cls-7" d="M221.53,746.07a18.51,18.51,0,0,0-7.76,8.07c-.86-2.77-1.78-5.32-2.48-7.38-.43-1.24-4.39-15.31-2-14.16,3,1.45,5.72,3.79,8.74,5.34a51,51,0,0,1,10.85,7.19A12,12,0,0,0,221.53,746.07Z" transform="translate(-22 -107)"/><path class="cls-3" d="M237.71,751.6a1.18,1.18,0,0,0-.09-1.05c-.23-.34-.51-.61-.75-.92-4.12-9.4-14.06-12.56-21.87-18-3.68-2.54-10.92-5-10.67,3.07.19,6,2.71,11.48,4.66,17a95.82,95.82,0,0,1,3.81,14.72q-5.53,15.42-15.55,10a17.46,17.46,0,0,1-5.72-4.64c-5-5.37,1.85-14,2.56-19.72.76-6.13-.56-12.82-1.33-18.89-.18-1.37-1.57-1.07-2.3-.23-3.82-2.91-9.88,2.7-12.5,5.66a71.78,71.78,0,0,0-8.38,11.8,19.08,19.08,0,0,0-1.9,5.61C165.47,766.21,157,768.37,150,761.7c-7.43-7,.66-17.31,9.54-17.05a12,12,0,0,0,6.26-2.41c4.35-4.28,8.7-8.68,12.93-13.09,3.33-3.48,8-8.72,9.45-14.16l0,.08c.6,1.67,3.26.11,3-1.35-3.42-19-7.88-37.63-10.13-56.93-2.31-19.8-2.92-39.74-2.9-59.68,0-20.28.72-40.66,2.17-60.87A220.18,220.18,0,0,1,184.85,505a144.08,144.08,0,0,1,4.79-16.49c.78-2.25,4.64-12.22,9.1-12.9,0,0,0,.06.08.07,5.54,2.12,4.4,14.91,4.38,19.9,0,11-.84,22-1.7,33-1.67,21.12-4,42.13-4.56,63.33a464.28,464.28,0,0,0,2.63,61.95c1.87,17.52,4.54,36.22,10.13,53a.88.88,0,0,0-.38,1.24l1.56,2.25c.07.19.12.37.19.55a1.08,1.08,0,0,0,.69.72C219.38,722.62,227.3,733,238.57,740c6.55,4.09,18.26,2.39,16.47,14.44C253.44,765.21,242.06,755.25,237.71,751.6Z" transform="translate(-22 -107)"/><path class="cls-4" d="M191.15,713.72c.26,1.46-2.4,3-3,1.35l0-.08c-1.41,5.44-6.12,10.68-9.45,14.16-2.28,2.39-4.65,4.71-7,7.08,8.35-2.38,19-12.12,22.06-18.4,5.85-12.05-.43-28-2.54-40.47a622.61,622.61,0,0,1-8.27-76.12c-1.08-24.41-1-49.11-.23-73.54.18-5.81.52-11.64,1.08-17.41a217.44,217.44,0,0,0-3.5,25.95c-1.45,20.21-2.14,40.59-2.17,60.87,0,19.94.59,39.88,2.9,59.68C183.27,676.09,187.73,694.68,191.15,713.72Z" transform="translate(-22 -107)"/><path class="cls-4" d="M151.36,754.06a14.87,14.87,0,0,1-1.23-5.49c-3.5,3.59-4.62,8.94-.18,13.13,6.58,6.2,14.27,4.67,17.11-3.72C161.54,761.28,154.57,761.38,151.36,754.06Z" transform="translate(-22 -107)"/><path class="cls-4" d="M199.85,768.83c-5,.44-8.11-1.22-9.92-4-.47,2.57-.24,5,1.6,7a17.46,17.46,0,0,0,5.72,4.64q10,5.47,15.55-10c-.6-3.28-1.39-6.48-2.28-9.66C209.3,763,206.25,768.26,199.85,768.83Z" transform="translate(-22 -107)"/><path class="cls-4" d="M249.73,744.18c.31,3.62-.49,7-3.22,9.5a11,11,0,0,1-3.56,2.09c5,3.54,11,6.29,12.09-1.29C256,748.35,253.36,745.79,249.73,744.18Z" transform="translate(-22 -107)"/><path class="cls-5" d="M116.57,642.36c-11.39-22.18-21.71-44-30.45-67.58-3.87-10.41-6.24-21.59-8.3-32.55-1.84-9.78-.59-21.62-4.23-30.79-.4-1-1.46,0-1.37.79.59,5.07-.43,10,0,15.06.46,5.87.58,11.53,1.43,17.36a187.79,187.79,0,0,0,8.93,36c7.94,22.05,16.22,46.43,31.13,64.3C115.07,646.65,117.45,644.1,116.57,642.36Z" transform="translate(-22 -107)"/><path class="cls-5" d="M450,544l-2.28,5.84q-.8,2.22-1.6,4.44c-2,10.79-4.39,21.78-8.19,32-8.75,23.56-19.07,45.38-30.45,67.57-.89,1.74,1.49,4.29,2.88,2.62,14.91-17.88,23.2-42.26,31.14-64.31a186.75,186.75,0,0,0,8.92-36c.63-4.26.86-8.45,1.12-12.68A11.66,11.66,0,0,0,450,544Z" transform="translate(-22 -107)"/><path class="cls-5" d="M51.38,745.39a3.81,3.81,0,0,0-.38-1.75,3.55,3.55,0,0,0-.11-.68c-.73-1.8-3-3.51-5.17-4.48a6.41,6.41,0,0,0-3.74-.79,5.21,5.21,0,0,0-4.35,2c-1,1.42-.24,3.45,1.54,4.92a13.38,13.38,0,0,0,6.6,4.24C49.24,749.63,51.3,747.93,51.38,745.39Z" transform="translate(-22 -107)"/><path class="cls-5" d="M123.64,763.49a5.55,5.55,0,0,0-.68-.69c-.11-.21-.2-.46-.31-.65a5.84,5.84,0,0,0-.47-.64,1.58,1.58,0,0,0-1.37-.65,2.51,2.51,0,0,0-2.52-1c-2.09.44-3,2.66-3.46,4.64a15.77,15.77,0,0,0,5,15c3.58,3.26,8.21-.07,8-4.76A20.87,20.87,0,0,0,123.64,763.49Z" transform="translate(-22 -107)"/><path class="cls-5" d="M84.26,754.71a3.62,3.62,0,0,0-.65-2.57,2.27,2.27,0,0,0-.22-.32,5.34,5.34,0,0,0-1-2.11,4.3,4.3,0,0,0-2.93-1.61c-.12-.06-.21-.15-.32-.19-2.52-1.2-4.72.13-5.62,2.47a3.09,3.09,0,0,0-.09.53,4.44,4.44,0,0,0-.42,4.56,6.79,6.79,0,0,0,5.21,3.45,4.75,4.75,0,0,0,4.09-.56,4.55,4.55,0,0,0,1.52-2,3.57,3.57,0,0,0,.43-1.57A.56.56,0,0,0,84.26,754.71Z" transform="translate(-22 -107)"/><path class="cls-5" d="M201.63,755.79a6.65,6.65,0,0,0-4.73,1.88,5.86,5.86,0,0,0-3.41,5.77c.28,3.52,3.47,4.94,6.42,4.36s5.93-2.93,6.2-6.33C206.35,758.34,204.6,756,201.63,755.79Z" transform="translate(-22 -107)"/><path class="cls-5" d="M161.44,748.39a4.56,4.56,0,0,0-3.08-1.48,3.56,3.56,0,0,0-4.18,1.05c-1.4,1.82-.51,4.09,1.16,5.28s4.12,1.58,5.73.1A3.43,3.43,0,0,0,161.44,748.39Z" transform="translate(-22 -107)"/><path class="cls-5" d="M247.37,746.94a4.61,4.61,0,0,0-3.08-1.48,3.53,3.53,0,0,0-4.17,1c-1.41,1.83-.51,4.1,1.15,5.28s4.12,1.57,5.74.09A3.42,3.42,0,0,0,247.37,746.94Z" transform="translate(-22 -107)"/><path class="cls-8" d="M199.86,497.37c-2.25,7.18-3.15,15-4.34,22.28-.79,4.86-1.67,9.68-2.55,14.53,0,.4-.08.81-.13,1.23-1.82,15.24-3.18,30.34-3.61,45.72-.83,29.68.3,61.34,7.69,90.13.49,1.9,2.75,0,2.55-1.47a542.34,542.34,0,0,1-5.24-97.25c.52-15.23,2.46-30.27,4.1-45.4.75-6.88.53-13.77,1.71-20.61.55-3.19,1.37-6.06-.06-9Z" transform="translate(-22 -107)"/><path class="cls-5" d="M494.07,740.88a3.18,3.18,0,0,0-1.44-.93,2.42,2.42,0,0,0-.52-.41c-1.72-.72-4.42-.24-6.63.77a6.78,6.78,0,0,0-3.16,2.27,5.88,5.88,0,0,0-1.72,4.7c.22,1.77,2.12,2.62,4.35,2.3a12.78,12.78,0,0,0,7.47-2C495.39,745.49,495.7,742.73,494.07,740.88Z" transform="translate(-22 -107)"/><path class="cls-5" d="M419,763a6.58,6.58,0,0,0-.68-.71c-.11-.2-.21-.44-.32-.65a4.7,4.7,0,0,0-.46-.64,1.65,1.65,0,0,0-1.37-.65,2.6,2.6,0,0,0-2.53-1c-2.09.44-3,2.66-3.45,4.64a15.72,15.72,0,0,0,4.95,15c3.58,3.26,8.2-.06,8-4.76A20.83,20.83,0,0,0,419,763Z" transform="translate(-22 -107)"/><path class="cls-5" d="M463.74,755.67a3.63,3.63,0,0,0-.65-2.56c-.06-.11-.16-.21-.23-.33a5.42,5.42,0,0,0-1-2.1,4.31,4.31,0,0,0-2.95-1.62,2.7,2.7,0,0,0-.31-.2c-2.52-1.18-4.71.15-5.62,2.48a4.89,4.89,0,0,0-.09.53,4.45,4.45,0,0,0-.42,4.56,6.71,6.71,0,0,0,5.21,3.45,4.36,4.36,0,0,0,5.62-2.56,3.64,3.64,0,0,0,.42-1.58Z" transform="translate(-22 -107)"/><path class="cls-9" d="M378.62,571.41c-.43-3.69-1.93-8.51-5.88-9.15a2.9,2.9,0,0,0-2.23.59,1.88,1.88,0,0,0-1.66,1.15c-1.75,3.73-1.57,8.57-.38,12.44,1,3.39,4,6.73,7.55,5C379.32,579.89,379,574.47,378.62,571.41Z" transform="translate(-22 -107)"/><path class="cls-9" d="M384,591.69a.87.87,0,0,0-.77-.53c-.41-1-2-.08-2.07,1.06a10.91,10.91,0,0,0,0,1.41,10.37,10.37,0,0,0-.08,1.14c0,1,.57,1.36,1.2,1.27.68.55,1.57-.29,1.89-.89C385,593.77,384.73,593,384,591.69Z" transform="translate(-22 -107)"/><path class="cls-9" d="M376.91,602.75a2.82,2.82,0,0,0-2.91-.48c-1.29-.58-2.41.52-2.8,2a5.63,5.63,0,0,0-.62,3.2c-.21,2.12.46,4.21,2.29,4.85a2.54,2.54,0,0,0,3-.5,6.23,6.23,0,0,0,1.64-2.39,1.09,1.09,0,0,0,.55-.68C378.48,606.72,378.53,604.24,376.91,602.75Z" transform="translate(-22 -107)"/><path class="cls-9" d="M370.43,625.6l-.12,0a.81.81,0,0,0-.53.18c-.53,0-1.14.79-.93,1.32s.09,1,.6,1.37a.88.88,0,0,0,1.21-.35,2.46,2.46,0,0,0,.53-1.61A.81.81,0,0,0,370.43,625.6Z" transform="translate(-22 -107)"/><path class="cls-9" d="M360.62,630.64c-1.95,0-2.89,2.7-1.83,4.18a2.09,2.09,0,0,0,.48,1c1.27,1.48,3.11-.4,3.38-1.86S362.35,630.68,360.62,630.64Z" transform="translate(-22 -107)"/><path class="cls-9" d="M148.12,588.7c3.53,1.71,6.5-1.64,7.54-5,1.2-3.89,1.38-8.71-.38-12.44a1.87,1.87,0,0,0-1.64-1.16,2.91,2.91,0,0,0-2.24-.58c-4,.64-5.46,5.46-5.88,9.15C145.16,581.71,144.81,587.11,148.12,588.7Z" transform="translate(-22 -107)"/><path class="cls-9" d="M140.11,598.92a.91.91,0,0,1,.77-.53c.4-1,2-.09,2.07,1.06a9.26,9.26,0,0,1,0,1.41A8.51,8.51,0,0,1,143,602c0,1-.57,1.35-1.2,1.27-.68.54-1.57-.29-1.89-.89C139.14,601,139.41,600.23,140.11,598.92Z" transform="translate(-22 -107)"/><path class="cls-9" d="M147.23,610a2.82,2.82,0,0,1,2.9-.47c1.3-.59,2.42.5,2.81,2a5.72,5.72,0,0,1,.63,3.2c.2,2.12-.47,4.21-2.31,4.85a2.54,2.54,0,0,1-3-.5,6.42,6.42,0,0,1-1.64-2.39,1.17,1.17,0,0,1-.55-.68C145.66,614,145.6,611.48,147.23,610Z" transform="translate(-22 -107)"/><path class="cls-9" d="M153.7,632.84a.61.61,0,0,0,.13,0,.72.72,0,0,1,.53.18c.52,0,1.13.79.92,1.32s-.08,1-.59,1.37-1,0-1.21-.36a2.46,2.46,0,0,1-.53-1.61A.8.8,0,0,1,153.7,632.84Z" transform="translate(-22 -107)"/><path class="cls-9" d="M163.52,637.88c1.95,0,2.88,2.7,1.82,4.18a2.11,2.11,0,0,1-.47,1c-1.27,1.47-3.11-.4-3.39-1.87S161.79,637.92,163.52,637.88Z" transform="translate(-22 -107)"/><path class="cls-4" d="M189,481.69c9.39-9,20.09-15.12,32.74-16.8,13.63-1.81,27.4.08,41-1.56,27-3.27,56.17-15.52,78.66,7.4a103,103,0,0,1,9,10.67c-2.07-5.28-4.17-10.55-6.39-15.76-9.71-22.86-24.85-46.65-49.75-51.42-24.67-4.72-51.82,4.29-73.07,17.59-24.64,15.43-36.68,40.47-48.26,67.3-.75,1.76-1.55,3.52-2.31,5.27A124.6,124.6,0,0,1,189,481.69Z" transform="translate(-22 -107)"/><path class="cls-2" d="M456.92,230.21c-25.27-40.92-73.13-58.14-117-59.89A371,371,0,0,0,261.8,176,230.62,230.62,0,0,0,227,184.86c-6.13,1.48-12.23,3.18-18.28,5.14-22.23,7.2-41.91,19.06-60.32,34C113.4,252.34,84.58,295.58,89.6,344.38c5.28,51.41,45.85,81.3,88.94,95.09a279.42,279.42,0,0,0,78.07,13.28c26.7.64,50.66-5.87,76.11-13.49,23.69-7.07,44.58-19.7,64.38-35.1,19.2-14.92,37.65-32.73,51.5-53.43C471.59,316.35,479.6,266.93,456.92,230.21Z" transform="translate(-22 -107)"/><path class="cls-3" d="M379,411.49c-23.34,15.92-49.87,24.57-76.66,31.35-28,7.08-58.29,5.17-86.45.17-33.58-5.95-68.42-17.09-94.23-41.78C92.1,373,86,326.59,101.83,289c14.18-33.68,42-59.89,71.2-78.59a164.62,164.62,0,0,1,21.76-11.6c-.56.44-1.12.85-1.67,1.34-2.13,1.88-.45,5.55,2,3.39,9.81-8.64,24.19-11.6,36.13-15.59,15.13-5.05,31.17-7.63,46.87-9.59,27.63-3.46,56.68-4.76,84.25-.19,48.68,8.11,101,43.51,103.05,100.86C467.47,337.71,421.47,382.49,379,411.49Z" transform="translate(-22 -107)"/><path class="cls-4" d="M465.42,279c-2-57.35-54.37-92.75-103-100.86-27.57-4.57-56.62-3.27-84.25.19-15.7,2-31.74,4.54-46.87,9.59-11.94,4-26.32,6.95-36.13,15.59-2.45,2.16-4.13-1.51-2-3.39.55-.49,1.11-.9,1.67-1.34A164.62,164.62,0,0,0,173,210.42c-29.2,18.7-57,44.91-71.2,78.59C86,326.59,92.1,373,121.61,401.23c25.81,24.69,60.65,35.83,94.23,41.78,28.16,5,58.44,6.91,86.45-.17,26.79-6.78,53.32-15.43,76.66-31.35C421.47,382.49,467.47,337.71,465.42,279Zm-48.21,49.19a143.16,143.16,0,0,1-35.79,59,154.85,154.85,0,0,1-34.59,25.83c-22.49,17.76-55.22,23.29-81.6,24.59-40.28,2-79.82-1-113.43-27.28-28.88-22.61-46.45-55.45-44.64-94.14,1-22,6-48.72,23.4-60,4.78-3.83,9.58-8.49,15.86-6.68,8.21,2.35,10.67,14.53,15.46,20.6,13.17,16.68,44.18,23.06,62.67,14.06,15.29-7.44,25.73-24.13,41.76-30,17-6.24,25.34,9.82,38.84,17.56,23.1,13.27,49.78,7,73.47-.19,10.56-3.21,26.88-8.29,35.64,1.93C425.94,287.12,422,312.4,417.21,328.23Z" transform="translate(-22 -107)"/><path class="cls-2" d="M390,254.61A138.17,138.17,0,0,1,366.76,263a65.79,65.79,0,0,0,15.1-16.34c12-18,17.66-42.61,17.28-64.39-.41-22.74-5.94-49-22.12-65-8.36-8.31-20.26-11.07-31.83-9.92-17.2-2-35.4,6.15-46.53,20.07-.93,1.14.19,2.19,1.22,1.23,7.93-7.4,16.19-12.35,25-15-.38.24-.79.43-1.16.64-1.82,1.1-3.54,2.33-5.24,3.59a42.23,42.23,0,0,0-10.22,6.84c-8.65,7.69-14.33,18-18.71,28.9a86.81,86.81,0,0,0-4.76,16.57c.75-10.38,0-20.64-3.16-29.9-2.48-7.31-5.26-12.28-9.9-16.52,2.47.68,4.93,1.41,7.36,2.31.74.29,1.61-1,.84-1.47a55.59,55.59,0,0,0-27.47-9.38l-.61,0c-27.41-1.6-56,15.72-72.75,38.15-12.74,17.06-19.91,39.53-21,61.17-.69,13,2.08,28.61,9.22,40.37a54.1,54.1,0,0,1-16.35-20.26c-.31-.67-1.24.18-1,.76,5.36,14.52,16,27.08,29.77,32.48.14.08.27.19.41.29,16.62,10.05,38.09,4.93,54-4.56,18.95-11.3,31.9-28.71,40.22-49.82a164.16,164.16,0,0,0,9.11-31.8c-.91,15.9,2,32.06,7.35,47a76.18,76.18,0,0,0,7.09,14.66c1.23,2.2,2.52,4.35,3.93,6.41a1.62,1.62,0,0,0,1.25.73,57.9,57.9,0,0,0,19,15.13,99.48,99.48,0,0,1-20.44-5.11c-.47-.18-1.08.72-.54.95a110.77,110.77,0,0,0,35.49,8.92,37,37,0,0,0,12.85.1,85.55,85.55,0,0,0,41.42-13.46C392.16,256.45,391.82,253.76,390,254.61Z" transform="translate(-22 -107)"/><path class="cls-10" d="M269,218c-7.71,19.14-22.15,34-39.34,43.39-16.15,8.88-37.38,12.25-52-1.33-14-13-16.41-35.72-14.31-54.06a104.82,104.82,0,0,1,23.18-54.16,81,81,0,0,1,71.28-29.17,36.73,36.73,0,0,1,5.36,2.1c9.17,4.55,12.71,16.45,14.87,26.08C282.82,172.13,277,198.44,269,218Z" transform="translate(-22 -107)"/><path class="cls-10" d="M301.27,238.53c-15.35-33.38-16.11-74.82,7.05-104.74C323,114.9,350.9,105,370.92,120.41c18.15,14,23,44.87,22.77,66.93-.23,22.93-7.5,47.93-22.14,65.07-16.94,19.87-44.27,14.6-61.21-2.2A60,60,0,0,1,301.27,238.53Z" transform="translate(-22 -107)"/><path class="cls-11" d="M258.43,202.48c-6.17,27.59-26.57,46.05-45.56,41.21S183.48,212.57,189.66,185s26.58-46.05,45.56-41.21S264.6,174.88,258.43,202.48Z" transform="translate(-22 -107)"/><path class="cls-12" d="M242.93,200.39c-3.55,15.84-15.26,26.44-26.17,23.67s-16.86-17.87-13.32-33.72,15.26-26.43,26.15-23.66S246.47,184.54,242.93,200.39Z" transform="translate(-22 -107)"/><path class="cls-10" d="M225.88,178c-2.3,10.26-9.89,17.13-17,15.33s-10.93-11.57-8.64-21.85,9.9-17.14,17-15.35S228.17,167.72,225.88,178Z" transform="translate(-22 -107)"/><path class="cls-10" d="M216,210.48c-.8,3.58-3.44,6-5.9,5.33s-3.8-4-3-7.59,3.44-6,5.89-5.35S216.77,206.9,216,210.48Z" transform="translate(-22 -107)"/><path class="cls-11" d="M379.25,190.4c-.37,28.36-16.5,51.12-36,50.84s-35-23.54-34.67-51.9,16.51-51.14,36-50.84S379.62,162,379.25,190.4Z" transform="translate(-22 -107)"/><path class="cls-12" d="M363.68,192c-.21,16.27-9.46,29.35-20.68,29.17s-20.11-13.5-19.9-29.79,9.48-29.35,20.69-29.18S363.9,175.68,363.68,192Z" transform="translate(-22 -107)"/><path class="cls-10" d="M342.48,174.1c-.14,10.55-6.15,19-13.41,18.91S316,184.25,316.16,173.7s6.15-19,13.41-18.93S342.62,163.53,342.48,174.1Z" transform="translate(-22 -107)"/><path class="cls-10" d="M339.45,208.1c0,3.67-2.14,6.61-4.66,6.59s-4.54-3.06-4.49-6.73,2.13-6.62,4.66-6.58S339.5,204.42,339.45,208.1Z" transform="translate(-22 -107)"/><path class="cls-2" d="M394.49,316.66c2.39-2.89,5.1-6,8.38-7.84,1.16-.63,2.33-1.19,3.52-1.75a2.59,2.59,0,0,0,.18-.51c1.52-.61,3.11-1.35,4.7-2.16.31-.21.64-.38.94-.61a1,1,0,0,1,.64-.22c.32-.18.64-.33,1-.5,5.46-5.26,10.06-10.84,9.41-18.49a2.68,2.68,0,0,0-.26,1.31c1.21,14.6-23,20.26-32.89,22.2-12.21,2.42-24.88,2.19-37.24,1.82A320.73,320.73,0,0,1,310,306c-14.32-2.37-28.19-5.88-42.71-6.81-27.66-1.78-54.33,8.62-81.39,12.95-14.66,2.35-29.5,2.61-43.84-1.72-6.57-2-12.37-5.22-16.56-11s-3-27.06,9.36-22.87c.42.13.87-.61.42-.86-5.22-2.93-13.19,4.61-14.13,10.17-2.26,13.5,5,22.27,16.07,27.59.84.4,1.69.77,2.54,1.12,3.45,6.26,7.31,12.35,10.83,18.61,4.62,8.2,7.91,16.93,11.84,25.53,7,15.45,17,28.29,29.1,39.5,22.41,20.75,52,34.51,81.94,33.78,28.6-.69,54.08-18.58,73.26-39.9,10.31-11.45,18.88-24.58,26.7-38,4-6.87,7.58-14,11.05-21.14a58.55,58.55,0,0,1,4.46-7.68A48.71,48.71,0,0,1,394.49,316.66Z" transform="translate(-22 -107)"/><path class="cls-10" d="M246.3,304.82c18.94-1.78,37,.9,55.71,3.94,9.37,1.52,18.81,2.58,28.28,3.32-.78,1-1.47,2.08-2.38,3.26-5,6.51-13.37,10.33-20.61,13.07-12.21,4.62-25.57,5.38-38.4,5.63a257.54,257.54,0,0,1-44.3-2.56c-8.9-1.36-26.47-5-31.2-15.4C211.48,312.26,229.55,306.38,246.3,304.82Z" transform="translate(-22 -107)"/><path class="cls-13" d="M353,378.45c-19.34,26-46.37,47.08-78.32,49-30.22,1.82-60.08-14.26-82.44-34.74-2-1.83-3.85-3.76-5.63-5.73,2.05-2.09,3.38-5.13,5.63-7.1,6.34-5.56,14.84-8.73,22.56-11.23,16.71-5.43,33.27-3.72,49.55,1.95a12.94,12.94,0,0,0-4,6.85c-.18,1,.89.95,1.26.24,3.61-6.77,13.14-9.76,19.68-12A93.31,93.31,0,0,1,313,360.1c15.16.19,32.15,1.77,42.23,15.21C354.44,376.35,353.73,377.43,353,378.45Z" transform="translate(-22 -107)"/><path class="cls-14" d="M253,371a1.49,1.49,0,0,1,.69,2.6,37.79,37.79,0,0,0-15.38,21.64c17.75-12,34.51-22.35,56.3-23.82a76.91,76.91,0,0,1,32.26,5c6.75,2.5,12.7,7,18.63,11.36q3.89-4.51,7.45-9.3c.77-1,1.48-2.1,2.23-3.14-10.08-13.44-27.07-15-42.23-15.21a93.31,93.31,0,0,0-31.7,5.59c-6.54,2.28-16.07,5.27-19.68,12-.37.71-1.44.76-1.26-.24a12.94,12.94,0,0,1,4-6.85c-16.28-5.67-32.84-7.38-49.55-1.95-7.72,2.5-16.22,5.67-22.56,11.23-2.25,2-3.58,5-5.63,7.1,1,1.13,2.07,2.23,3.14,3.32C203.64,371.38,231.91,367.36,253,371Z" transform="translate(-22 -107)"/><path class="cls-15" d="M357.64,371.86C346.05,356.72,326,355,308.69,355.54c-11.55.35-23.38,3.76-34,8.5a44.49,44.49,0,0,0-7.93,4.51c-15.47-7.73-32-8.65-48.54-4.63a78.16,78.16,0,0,0-22.59,9.62,43.87,43.87,0,0,0-7,5.67c-1.76,1.7-2.3,4.1-3.63,6.13-17.78-20.62-25.69-47.64-42-69.53,15.45,5.4,31.92,4,48.41.65.75,7.49,11.49,13,17,15.21,15.22,6.23,33,6.71,49,6.95,14.78.2,29.73-.41,44.15-4.1a67.4,67.4,0,0,0,18.53-8,50.62,50.62,0,0,0,7.67-6.14c1.86-1.71,3.83-5.9,5.9-7.26a2.73,2.73,0,0,0,.68-.75q12.6.84,25.22,1c13.29.19,26.8-.62,39.64-4.36-9.17,7.85-15.51,16.63-21.19,28.28A256.63,256.63,0,0,1,357.64,371.86Z" transform="translate(-22 -107)"/><path class="cls-16" d="M359.69,313.38c-3.43-.06-6.87-.17-10.31-.29a51.41,51.41,0,0,1-19.49,27.81c-18.47,13-46.69,9.66-67.38,7.7-15-1.41-31.17-4.17-46.14-1.52-9.43,1.66-18.44,5-27.78,7.09-8.88,1.94-17,2.1-23.84-.73,5.85,11.24,12,22.27,20.3,31.9,1.33-2,1.87-4.43,3.63-6.13a43.87,43.87,0,0,1,7-5.67,78.16,78.16,0,0,1,22.59-9.62c16.54-4,33.07-3.1,48.54,4.63a44.49,44.49,0,0,1,7.93-4.51c10.6-4.74,22.43-8.15,34-8.5,17.26-.51,37.36,1.18,48.95,16.32a256.63,256.63,0,0,0,20.5-34.56c5.68-11.65,12-20.43,21.19-28.28C386.49,312.76,373,313.57,359.69,313.38Z" transform="translate(-22 -107)"/><path class="cls-2" d="M266,279.27c0-.87-.48-1.14-1.06-1a1.79,1.79,0,0,0-1.63,1.81,5.11,5.11,0,0,0,.25,1.53,1.35,1.35,0,0,0,.19.36l0,.08a.46.46,0,0,0,.13.26c.48.8,1.69-.13,1.66-.95a2.07,2.07,0,0,0,.18-.37A6.84,6.84,0,0,0,266,279.27Z" transform="translate(-22 -107)"/><path class="cls-2" d="M283.36,277.37a1.22,1.22,0,0,0-.42.06c-.63-.72-1.94.51-1.76,1.52a2.84,2.84,0,0,0,.08.3,1.57,1.57,0,0,0-.05.3,5.11,5.11,0,0,0,.1.95l0,0a1,1,0,0,0,.37.56.76.76,0,0,0,1,.2,1.92,1.92,0,0,0,1.5-1.57,5.17,5.17,0,0,0,.12-1C284.36,277.71,283.92,277.36,283.36,277.37Z" transform="translate(-22 -107)"/><path class="cls-17" d="M294.66,382.58c-14.66-5.73-34.89,5.5-37.45,22a1.15,1.15,0,0,0,.58,1.35c-.74,6.79,5.07,11.56,10.48,13.43,8.24,2.86,17.62-3,24.08-7.8C301.1,405,308.05,387.81,294.66,382.58Z" transform="translate(-22 -107)"/></g></g></svg>