<svg xmlns="http://www.w3.org/2000/svg" xmlns:xlink="http://www.w3.org/1999/xlink" viewBox="0 0 432.13 416.42"><defs><style>.cls-1{isolation:isolate;}.cls-2{fill:#231f20;}.cls-3{fill:#b2d235;}.cls-4{fill:#7cc142;}.cls-5{fill:#7fa22c;}.cls-14,.cls-5,.cls-6,.cls-7{opacity:0.4;}.cls-14,.cls-5{mix-blend-mode:multiply;}.cls-10,.cls-15,.cls-6,.cls-7{fill:#fff;}.cls-6{mix-blend-mode:screen;}.cls-15,.cls-7{mix-blend-mode:overlay;}.cls-8{fill:#fff7a9;}.cls-9{fill:#336119;opacity:0.3;}.cls-11{fill:#4f413c;}.cls-12{fill:#322723;}.cls-13{fill:#ce4c4a;}.cls-14{fill:#b74341;}.cls-15{opacity:0.5;}.cls-16{fill-rule:evenodd;fill:url(#linear-gradient);}</style><linearGradient id="linear-gradient" x1="297.17" y1="347.83" x2="432.13" y2="347.83" gradientUnits="userSpaceOnUse"><stop offset="0" stop-color="#df9500"/><stop offset="0.5" stop-color="#ffcb43"/><stop offset="1" stop-color="#d35e00"/></linearGradient></defs><g class="cls-1"><g id="Calque_1" data-name="Calque 1"><path class="cls-2" d="M15.72,327.38c6.11-4.68,14-5.23,21.16-7.18a1,1,0,0,0,.51.46c12.38,4,24.69,7.3,36.68,12.59a219.13,219.13,0,0,1,32.75,18.29c11,7.3,21.29,15.58,32.21,22.94,2.72,1.84,10.75,8.5,15.93,8.18,0,0,0,.08.09.08a6.63,6.63,0,0,0,1.17-.1c-8.43-2.6-15.43-8.21-22.39-13.9-.88-.71,0-2.75,1.06-1.9,2.41,2,4.83,3.92,7.31,5.76a.54.54,0,0,1,.7,0c1.35.9,2.74,1.88,4.16,2.83a56,56,0,0,0,9.12,4.5c.25.06.51.08.76.13a73.23,73.23,0,0,0-6.69-9.23,39,39,0,0,0-11.46-9.08c-1-.51-.44-2.74.58-2.24.64.3,1.23.67,1.83,1a.71.71,0,0,1,.57.1,42.3,42.3,0,0,1,3.73,2.71c.7.55,1.36,1.14,2,1.73l0,0a43.23,43.23,0,0,1,3.74,3.68,51.28,51.28,0,0,1,5.81,7c.56.93,1.08,1.87,1.61,2.81-.61-3.37-3.69-7.85-5-9.63-8.6-11.52-20.46-19.47-32-27.2a337.52,337.52,0,0,0-39.08-23c-11.36-5.56-23.77-11-36.22-13.61,0,0,0-.05-.09-.06-4.73-.61-6.18-7.71-7.19-11.74-.94-3.73-2.8-10.71-.85-14.07,3.59-6.21-.36-13.08-7-12.65-5,.34-10.36,6.45-7.55,11.84a19.41,19.41,0,0,0,3.7,4.42c.85,2.69,1.14,5.62-1.63,7.28-1.8,1.08-4,.48-5.93.94-.6-1.93-1.67-3.85-3.89-4.05A10.94,10.94,0,0,0,4,297.82c-.25,5.23,4.21,7.59,8.79,8.84,1.38,2,2.73,3.62,2.67,6.45-.06,3.54-2.81,5-5.31,6.53a.72.72,0,0,0-.52-.28c-6.22.23-14.2,9-6.28,13.73C9.51,336.81,11.19,330.86,15.72,327.38Z" transform="translate(0 -149)"/><path class="cls-3" d="M20.68,293.07c2.95.46,6.46-.38,8.11-3a6.51,6.51,0,0,0,.7-4.73,1.1,1.1,0,0,0,.09.14c1.72,2.7,6.09,12.4,1.44,13.73,0,0,0,0,0,0C27.64,297.72,22.66,296.25,20.68,293.07Z" transform="translate(0 -149)"/><path class="cls-3" d="M16.93,314a12.13,12.13,0,0,0-1.71-6.73c1.63.33,3.17.57,4.39.77.74.13,8.88,2,7.62,3-1.61,1.27-3.57,2.1-5.23,3.34a30.79,30.79,0,0,1-6.77,4A8.66,8.66,0,0,0,16.93,314Z" transform="translate(0 -149)"/><path class="cls-4" d="M9.41,321.44a.58.58,0,0,0,.54.24,3.73,3.73,0,0,0,.68-.15c5.88.46,10.38-4.19,15.37-7,2.34-1.31,5.7-4.66,1.62-6.89-3-1.66-6.48-1.85-9.82-2.39a50.36,50.36,0,0,1-8.42-2.19q-6-7.63-.34-11.66a10.1,10.1,0,0,1,4-1.84c4.14-1.24,6.41,5.15,9,7.23,2.8,2.23,6.51,3.46,9.74,4.81.73.3,1-.57.79-1.23,2.57-1.28,1.59-6.34.89-8.68a44.63,44.63,0,0,0-3.38-8.17,10.63,10.63,0,0,0-2.22-2.72c-4.38-4.22-2.95-9.61,2.44-11.61,5.67-2.11,8.38,5.45,5.63,10.37a8.38,8.38,0,0,0-.65,4.22c.83,3.7,1.72,7.43,2.67,11.11.73,2.88,1.94,7.08,4.22,9.47l0,0c-1-.15-1,1.8-.21,2.08,10.44,3.68,21,6.65,31.2,11.05a266.31,266.31,0,0,1,30.44,15.93c10,6,19.93,12.36,29.52,19.11a118.82,118.82,0,0,1,14.13,11.75,79.66,79.66,0,0,1,6.76,7.54c.88,1.1,4.68,6.19,3.7,8.9,0,0,0,0-.06,0-2.68,2.49-7,.65-9.47-.83-5.44-3.27-12.35-9.51-17.54-13.23-10-7.14-19.71-14.63-30.05-21.18a244.15,244.15,0,0,0-31.48-16.75c-9.24-4.09-19.29-8.09-29.27-9.9,0-.31-.19-.62-.5-.58l-1.58.22-.33-.06a.61.61,0,0,0-.56.18c-7.66,1.07-15.15,2.46-22,6.71-4,2.48-6.59,9.55-12,5C-2,326.27,6.31,322.8,9.41,321.44Z" transform="translate(0 -149)"/><path class="cls-5" d="M41.94,306.43c-.81-.28-.8-2.23.21-2.08l0,0C39.91,302,38.7,297.78,38,294.9c-.51-2-1-4-1.45-6-1.29,5.39.39,14.23,2.61,17.8,4.24,6.82,14,8,20.81,10.47A322.21,322.21,0,0,1,100.1,334.9c12.42,6.57,24.65,13.86,36.52,21.49,2.82,1.82,5.61,3.72,8.31,5.74a117.93,117.93,0,0,0-11.83-9.61c-9.59-6.75-19.48-13.14-29.52-19.11a266.31,266.31,0,0,0-30.44-15.93C62.91,313.08,52.38,310.11,41.94,306.43Z" transform="translate(0 -149)"/><path class="cls-5" d="M33.69,272.24a7.59,7.59,0,0,1,3.08.92c-.75-3-3.06-5.23-6.45-4-5,1.86-6.54,6.64-3.21,10.69C27.1,275.82,29.11,271.89,33.69,272.24Z" transform="translate(0 -149)"/><path class="cls-5" d="M12.05,295.11c1.27-3,3-4.2,4.9-4.39A3.92,3.92,0,0,0,13,289.57a10.1,10.1,0,0,0-4,1.84q-5.67,4,.34,11.66a52.85,52.85,0,0,0,5.46,1.55C12.14,302.12,10.44,298.87,12.05,295.11Z" transform="translate(0 -149)"/><path class="cls-5" d="M9.53,330.35a6.2,6.2,0,0,1-3.75-4.59,7.15,7.15,0,0,1,0-2.61c-3.23,1.74-6.36,4.3-2.94,7.16C5.63,332.63,7.67,331.93,9.53,330.35Z" transform="translate(0 -149)"/><path class="cls-6" d="M18,299.94a4.62,4.62,0,0,0,.47-3.2,3.58,3.58,0,0,0-1.85-3.62c-1.83-.87-3.48.5-4.06,2.33s-.3,4.19,1.31,5.34A2.69,2.69,0,0,0,18,299.94Z" transform="translate(0 -149)"/><path class="cls-6" d="M8.87,328.23a2.84,2.84,0,0,0,1.64-1.29,2.49,2.49,0,0,0,.71-2.66,2,2,0,0,0-3-.91,3.15,3.15,0,0,0-1.74,3.2A1.88,1.88,0,0,0,8.87,328.23Z" transform="translate(0 -149)"/><path class="cls-7" d="M146.59,374.94c-2.9-3.37-6.49-6.16-9.76-9-2.18-1.86-4.31-3.78-6.45-5.7l-.57-.43c-7-5.51-14.1-10.71-21.59-15.47-14.47-9.2-30.5-17.88-46.95-22.2-1.09-.28-.8,1.57,0,1.87A282.59,282.59,0,0,1,111,349.68c7.39,4.78,14.27,10.28,21.29,15.65,3.19,2.44,6.66,4.35,9.71,7,1.42,1.24,2.59,2.55,4.47,2.61Z" transform="translate(0 -149)"/><path class="cls-2" d="M373.58,247.52c2.23,3.71.25,11.53-.72,15.72-1.07,4.51-2.56,12.45-7.84,13.24,0,0,0,0-.09.07-13.84,3.18-27.61,9.46-40.18,15.88a376.08,376.08,0,0,0-43.22,26.38c-12.77,8.86-25.87,17.94-35.27,31-1.48,2.05-4.93,7.26-5.45,11.05,2.49-4.85,4.76-9.32,8.84-13.51a89.75,89.75,0,0,1,15.49-13.11c1-.67,2.93.89,1.7,1.68a81.52,81.52,0,0,0-18.18,16c-2.72,3.27-4.41,7.15-6.24,11,.46-.05.91-.11,1.38-.19,5.93-2.34,12.19-8.71,15.5-12.22.7-.75,1.68.12,1.83,1,2.08-2,4-4,5.74-5.65,1.1-1,2.16,1.22,1.25,2.09-6.13,5.8-14.5,15.4-23.5,17.27a2.17,2.17,0,0,0,.37,0s.08,0,.11-.09c5.78.25,14.63-7.33,17.64-9.44,12.06-8.41,23.45-17.86,35.54-26.2a244.61,244.61,0,0,1,36.24-21.05c13.29-6.13,27-10.08,40.71-14.76a1.08,1.08,0,0,0,.57-.51c8,2,16.83,2.49,23.74,7.6,5.11,3.79,7.08,10.41,13.94,6.14,8.75-5.47-.3-15.07-7.24-15.19a.74.74,0,0,0-.58.31c-2.81-1.62-5.91-3.24-6-7.18-.11-3.17,1.36-5,2.86-7.25,5.1-1.49,10-4.2,9.67-10a12.18,12.18,0,0,0-13.61-11.77c-2.48.26-3.64,2.43-4.28,4.61-2.18-.49-4.6.22-6.63-.95-3.11-1.79-2.84-5.06-1.95-8.09a20.94,20.94,0,0,0,4.06-5c3.05-6.07-3-12.78-8.62-13.05C373.74,232.92,369.45,240.66,373.58,247.52Z" transform="translate(0 -149)"/><path class="cls-3" d="M382,269.62h0c-5.21-1.41-.5-12.32,1.37-15.36,0-.06.07-.1.1-.15a7.33,7.33,0,0,0,.86,5.26c1.89,2.9,5.82,3.77,9.1,3.2C391.25,266.15,385.73,267.89,382,269.62Z" transform="translate(0 -149)"/><path class="cls-3" d="M399.93,290.68a34.33,34.33,0,0,1-7.63-4.3c-1.86-1.35-4.07-2.25-5.88-3.63-1.43-1.08,7.62-3.37,8.45-3.53,1.36-.25,3.07-.55,4.88-.94a13.52,13.52,0,0,0-1.79,7.53A9.41,9.41,0,0,0,399.93,290.68Z" transform="translate(0 -149)"/><path class="cls-4" d="M413.94,303.78c-6,5.18-9.05-2.66-13.51-5.35-7.68-4.62-16.05-6-24.62-7.07a.7.7,0,0,0-.63-.19l-.36.07L373,291c-.35,0-.53.31-.54.66-11.12,2.21-22.26,6.86-32.51,11.61a270.47,270.47,0,0,0-34.83,19.29C293.73,330.1,283,338.64,272,346.8c-5.73,4.25-12,10-18,13.8-2.72,1.69-8.89,5.13-11.92,2.4H242c-1.14-3,3-8.77,4-10,2.32-3,2.05-4.46,4.71-7.12,4.86-4.86,12.75-10.77,18.26-14.8,10.59-7.72,21.53-15,32.62-21.9a297.38,297.38,0,0,1,33.71-18.35c11.33-5.11,23-8.62,34.63-12.93.89-.34.84-2.5-.28-2.31h0c2.5-2.71,3.77-7.42,4.54-10.64,1-4.13,1.93-8.32,2.8-12.46a9.27,9.27,0,0,0-.81-4.69c-3.15-5.44-.24-13.93,6.12-11.69,6.05,2.14,7.73,8.12,2.92,12.92a11.85,11.85,0,0,0-2.43,3.07,49,49,0,0,0-3.64,9.19c-.74,2.62-1.76,8.29,1.13,9.67-.21.74.09,1.71.92,1.35,3.58-1.57,7.69-3,10.78-5.55,2.89-2.36,5.32-9.54,9.95-8.25a11.27,11.27,0,0,1,4.49,2q6.39,4.38-.18,13a55.16,55.16,0,0,1-9.36,2.61c-3.72.66-7.56.94-10.92,2.85-4.51,2.57-.71,6.25,1.93,7.67,5.61,3,10.71,8.13,17.26,7.5.25.05.5.13.75.16a.68.68,0,0,0,.62-.3C410,295.46,419.26,299.16,413.94,303.78Z" transform="translate(0 -149)"/><path class="cls-5" d="M280.33,327.36c15.82-9.75,31.5-19.77,47.9-28.4a185.13,185.13,0,0,1,23.57-10.67c7.09-2.51,17.22-4.44,20.75-12.42,2.69-6.09,6.64-17.05,4.45-24.36a4.77,4.77,0,0,1-.05,1c-.87,4.14-1.8,8.33-2.8,12.46-.77,3.22-2,7.93-4.54,10.64h0c1.12-.19,1.17,2,.28,2.31-11.59,4.31-23.3,7.82-34.63,12.93a297.38,297.38,0,0,0-33.71,18.35c-11.09,6.87-22,14.18-32.62,21.9a134,134,0,0,0-14,11.88C263.11,337.21,272,332.47,280.33,327.36Z" transform="translate(0 -149)"/><path class="cls-5" d="M381.79,272a6.43,6.43,0,0,0,1,.68,20,20,0,0,0,2.47-1.1,39.51,39.51,0,0,0,7.7-5.51c2.84-2.52,6.18-4.9,10.07-3.85a10.18,10.18,0,0,1,6.39,4.79,6.23,6.23,0,0,0-3-6.56,11.27,11.27,0,0,0-4.49-2c-4.63-1.29-7.06,5.89-9.95,8.25S385.22,270.56,381.79,272Z" transform="translate(0 -149)"/><path class="cls-5" d="M408.5,302.19a13.23,13.23,0,0,1,.45,3.15c1.45.41,3.07.09,5-1.56,5.32-4.62-4-8.32-7.46-9.79a.68.68,0,0,1-.62.3c-.25,0-.5-.11-.75-.16-6.55.63-11.65-4.48-17.26-7.5a10.92,10.92,0,0,1-1.74-1.18C391.85,293.47,405.61,291.65,408.5,302.19Z" transform="translate(0 -149)"/><path class="cls-6" d="M377.19,243.79a4.75,4.75,0,0,0,2.63,2.31,3.54,3.54,0,0,0,4.32.17c1.83-1.37,1.52-3.83.21-5.46s-3.62-2.7-5.57-1.71A3.37,3.37,0,0,0,377.19,243.79Z" transform="translate(0 -149)"/><path class="cls-6" d="M398.4,266.7a3.48,3.48,0,0,0,.24,2.41,2.55,2.55,0,0,0,2,2.23c1.47.26,2.41-1.06,2.51-2.5s-.54-3.08-1.91-3.58A2,2,0,0,0,398.4,266.7Z" transform="translate(0 -149)"/><path class="cls-6" d="M404.76,301a2,2,0,0,0,.43,1.33,1.44,1.44,0,0,0,1.4,1,1.39,1.39,0,0,0,1.11-1.76,2,2,0,0,0-1.52-1.77A1.22,1.22,0,0,0,404.76,301Z" transform="translate(0 -149)"/><path class="cls-7" d="M295.28,324.27C286.05,330.39,277,336.46,268,343c-3.56,2.62-7.1,5.28-10.51,8.12-2.09,1.73-4.84,3.27-5.21,6.28,0,0,0,0,0,.07,4.82-3.05,9.19-7.08,13.89-10.27,3.75-2.55,7.47-5.12,11.16-7.75,7-5.26,14.6-11.08,21.91-15.94,8.54-5.66,16.72-10.16,25.5-15.4s18.14-9.29,27.35-13.7c.86-.4-.21-1.33-.82-1.12C331.13,299.86,313,312.5,295.28,324.27Z" transform="translate(0 -149)"/><path class="cls-2" d="M283.25,427.58c-2.63-6.6-7.09-12.37-9.94-18.95-3.12-7.18-5.43-14.72-8.09-22.09-8-22.14-14.45-51-39-58.23-11.22-3.3-23.59-.26-34.25,3.76-.71.26-1.4.56-2.11.84l-.88.35c-.38.17-.77.31-1.16.48-1.07.46-2.12.94-3.17,1.46a63,63,0,0,0-19.35,13.9c-10,9.74-15.82,22.35-20.6,35.79C135.07,412,110,440.6,127.65,470.2c7.32,12.26,19.95,21.13,32.86,25.09a128,128,0,0,0,46.09,5.19c15.47-1.21,31.49-7.1,44.83-15.41.18.13.45.12.8-.13l4.53-3.29c9.26-6.22,19-14,24.76-23.45C287.14,449.05,287.17,437.35,283.25,427.58Z" transform="translate(0 -149)"/><path class="cls-8" d="M193.45,497.14c-14.92-.82-30.6-3.16-43.76-10.79-7.49-5.33-14-11.55-18.69-20.25-7.41-13.88-3.3-27.84-.67-42.28,2.34-5.81,5.44-11.3,8.19-16.91,3.85-7.87,7.44-16.06,10.94-24.12,7-16.19,14.3-31.29,29.21-40.59,12.87-8,29.31-13.46,44.24-10.6,15.09,2.87,24.25,17.21,30.13,31,6.11,14.32,11.17,29.23,16.8,43.79a137.13,137.13,0,0,0,7.89,16.26c4,10.26,6.37,20.15,1,31.61a51.77,51.77,0,0,1-9.95,13.89l-1.9,1.6A146.65,146.65,0,0,1,246,484.85,97,97,0,0,1,193.45,497.14Z" transform="translate(0 -149)"/><path class="cls-4" d="M277.73,422.65a137.13,137.13,0,0,1-7.89-16.26c-5.63-14.56-10.69-29.47-16.8-43.79-5.88-13.79-15-28.13-30.13-31-14.93-2.86-31.37,2.59-44.24,10.6-14.91,9.3-22.2,24.4-29.21,40.59-3.5,8.06-7.09,16.25-10.94,24.12-2.75,5.61-5.85,11.1-8.19,16.91-2.63,14.44-6.74,28.4.67,42.28,4.66,8.7,11.2,14.92,18.69,20.25.44.27.92.48,1.38.72a90.88,90.88,0,0,1-4.54-13.66c-3.83-14.06-3.95-27.87-1.21-42.29C150,406.35,162,382.57,185,372.74c18.52-7.91,44.89-10.14,58.42,8.8,18.9,26.44,22.91,70.69,7.1,100.48a160.51,160.51,0,0,0,16.37-12.27l1.9-1.6a51.77,51.77,0,0,0,9.95-13.89C284.1,442.8,281.78,432.91,277.73,422.65Z" transform="translate(0 -149)"/><path class="cls-2" d="M257.07,509.34c3.21,8.46,9,14.92,13.59,22.48,3.47,5.7,5.47,11.58,7.45,18a30.33,30.33,0,0,0,4.46,9.5c3.44,4.65,11.58,8.48,16.58,4.4,4.63-3.76,6.49-10.29,5.47-16.34-.84-5-2.92-9.76-7.92-11.07-3.18-.84-5.46.89-7,3.36A9.23,9.23,0,0,0,288.5,538a29.73,29.73,0,0,1-3.61-6.09c-.76-1.62-1.68-3.23-2.49-4.88,9.07-1.87,21.75,8.48,26.17,16.34a12.75,12.75,0,0,0,5.5,10.35,13.72,13.72,0,0,0,3.94,1.53,7.9,7.9,0,0,0,8.1-1.56,14.17,14.17,0,0,0,4.79-12c2,4.33,4.37,8.9,8.86,9.34,7.15.71,12.06-6.56,12.9-13.4.75-6.05-2.09-11.72-7.33-14.19-2.17-1-5.9-1.3-8.08-.19a7.39,7.39,0,0,0-2.09,1.46c-11.52-4.61-23.38-8.21-34.86-13.07-2.61-1.1-16.08-5.93-18-10,.32-.38.64-.76,1-1.15,2.89-3.61,6-7.05,8.69-10.82A211.54,211.54,0,0,0,308,464c9.19-17.66,14.83-36.36,18.81-56.07,1.41-7,2.91-15.59-.57-22.25-2.61-5-6.88-8.45-12.55-7.24-8,1.71-15.64,8.09-21.66,13.66-3.88,3.58-7,8-10.46,11.94-2.18,2.46-4.82,5.17-5.52,8.6-.82,4.08,2.07,6.18,3.5,9.56,2,4.72,4.75,9.52,5.61,14.66a51.88,51.88,0,0,1-.35,17.18c-5.06,13.1-11,26-15.48,39.3-1.87-3.53-7.35-3.71-10.12-1.13C254.44,496.56,254.88,503.54,257.07,509.34Z" transform="translate(0 -149)"/><path class="cls-4" d="M257.74,502.7c-.05-3,.3-6.6,3-8.37,2.22-1.46,5.73-2.64,7.66.1a.85.85,0,0,0,.38.31c-.83,2.5-1.62,5-2.32,7.55,0,0,0,.09,0,.13.71-1.62,1.7-3.18,2.45-4.77,2.64-5.57,5-11.21,7.46-16.88,3.32-7.85,6.78-15.63,10.32-23.37.73-2,1.46-4.07,2.15-6.12,5.9-17.46,11.25-35.66,20.25-51.66.14-.26-.26-.81-.5-.55-5.16,5.91-8,14.4-11.33,21.58-3.69,8.08-6.48,16.5-9.4,24.91A36.68,36.68,0,0,0,286,433.08c-2.7-7.66-7.9-15.66-6.11-23.46a55.33,55.33,0,0,1,13.23-16c5.2-4.34,11.77-10,18.16-12,23.49-7.56,11.51,31.7,8.93,42.59a166,166,0,0,1-18.13,44.92,182.17,182.17,0,0,1-13.31,20.47c-.81,1-1.62,2.13-2.45,3.24-.89,1.32-1.78,2.66-2.69,4a111.29,111.29,0,0,1-7.15,9.85,17.43,17.43,0,0,0,5.17-4.28c4.39,8.67,44.56,21.84,52.34,24-.27.81-.66,2.17-.73,2.19-.35,0-.31.4-.17.69a23.39,23.39,0,0,1,2.2-1.55,2.43,2.43,0,0,1,.38-.34c.16-.11.36-.16.52-.26a4,4,0,0,1,2.16-1.51c2.91-.79,6.82-.65,9.13,1.69,3.57,3.63,4.12,10.21,1.55,14.7-3.08,5.39-10.25,10.45-14.61,3.11-1.86-3.16-3-6.83-5.37-9.62a.89.89,0,0,0-.38-.25c-.17-.29-.37-.56-.55-.84a1.36,1.36,0,0,1-.12-.12,13.09,13.09,0,0,0-9.78-5.5,9,9,0,0,1,1.92.8,7.21,7.21,0,0,1,1.69,1.4,12,12,0,0,1,6,6.52c1.55,4.31,1.47,10-2.18,13.2-3.31,2.95-6.55,2.81-9.9,1.39a7.41,7.41,0,0,1-1.43-.92,10.14,10.14,0,0,1-1.56-1.86,9.72,9.72,0,0,1-1.33-2.36,13.39,13.39,0,0,1-1.36-3.82,10.14,10.14,0,0,1-.05-3h0a.49.49,0,0,0-.74.25,6.92,6.92,0,0,0-.58,1.75c-2.1-5.3-7-8.54-11.38-11.69-4.2-3-10.31-7.23-15.56-4.94h0a16.69,16.69,0,0,1-1.14-3.55c-.17.57-.33,1.16-.47,1.76.58,2.67,2,5.12,3.11,7.62a55.36,55.36,0,0,0,5.69,9.65,20.73,20.73,0,0,0-1.44,4.08.88.88,0,0,0,.2.66,8.12,8.12,0,0,1,2.63-4.23,15,15,0,0,1,1.12-1.34,7,7,0,0,1,.84-.8c1.69-1.47,3.54-2.17,5.17-1.21a5.45,5.45,0,0,1,3.29,2.57c2.45,4.08,3.16,10.5.83,14.86-3.7,7-10.22,8.27-16.26,3-4.67-4.07-5.65-10.61-7.57-16.34-2.9-8.67-8.42-15.47-13.22-23C261.44,514.54,257.85,508.73,257.74,502.7Z" transform="translate(0 -149)"/><path class="cls-2" d="M151.94,492.16c-2.76-2.58-8.25-2.4-10.11,1.13-4.51-13.29-10.43-26.2-15.48-39.3a51.61,51.61,0,0,1-.36-17.18c.86-5.14,3.62-9.94,5.62-14.66a19.39,19.39,0,0,0,1.42-9.66.53.53,0,0,0,.22-.58c-.18-.42,1.26-1.56,1.08-2,2.73-2.23-3.46-4.33-5.42-6.31a55.8,55.8,0,0,0-9.78-11.58c-6-5.57-13.67-11.95-21.66-13.66-5.68-1.21-10,2.27-12.55,7.24-3.48,6.66-2,15.23-.57,22.25,4,19.71,9.61,38.41,18.8,56.07a211.62,211.62,0,0,0,16,25.65c2.72,3.77,5.8,7.21,8.69,10.82.31.39.63.77.94,1.15-1.88,4.09-15.35,8.92-18,10-11.47,4.86-23.33,8.46-34.85,13.07a7.45,7.45,0,0,0-2.1-1.46c-2.18-1.11-5.9-.82-8.07.19-5.24,2.47-8.09,8.14-7.34,14.19.85,6.84,5.76,14.11,12.9,13.4,4.5-.44,6.85-5,8.86-9.34a14.22,14.22,0,0,0,4.78,12,7.94,7.94,0,0,0,8.12,1.56A13.65,13.65,0,0,0,97,553.69a12.75,12.75,0,0,0,5.5-10.35c4.42-7.86,17.1-18.21,26.17-16.34h0c-.82,1.65-1.74,3.26-2.5,4.88A29.73,29.73,0,0,1,122.6,538a9.75,9.75,0,0,0-1.19,1.67c-1.55-2.47-3.83-4.2-7-3.36-5,1.31-7.08,6.06-7.92,11.07-1,6,.83,12.58,5.47,16.34,5,4.08,13.15.25,16.59-4.4a30.33,30.33,0,0,0,4.46-9.5c2-6.39,4-12.27,7.44-18,4.6-7.56,10.38-14,13.59-22.48C156.22,503.54,156.67,496.56,151.94,492.16Z" transform="translate(0 -149)"/><path class="cls-4" d="M146.59,519.34c-4.8,7.49-10.32,14.29-13.22,23-1.92,5.73-2.9,12.27-7.57,16.34-6,5.27-12.56,4-16.26-3-2.32-4.36-1.62-10.78.83-14.86a5.47,5.47,0,0,1,3.3-2.57c1.63-1,3.47-.26,5.16,1.21a6.3,6.3,0,0,1,.84.8,16.88,16.88,0,0,1,1.12,1.34,8.07,8.07,0,0,1,2.64,4.23.87.87,0,0,0,.19-.66,20.73,20.73,0,0,0-1.44-4.08,54.74,54.74,0,0,0,5.69-9.65c1.1-2.5,2.53-4.95,3.11-7.62-.14-.6-.29-1.19-.47-1.76a17.25,17.25,0,0,1-1.13,3.55h0c-5.24-2.29-11.36,1.91-15.56,4.94-4.38,3.15-9.27,6.39-11.38,11.69a6.92,6.92,0,0,0-.58-1.75.49.49,0,0,0-.74-.25h0a9.8,9.8,0,0,1,0,3A12.81,12.81,0,0,1,99.69,547a10,10,0,0,1-1.32,2.36,9.82,9.82,0,0,1-1.57,1.86,7.28,7.28,0,0,1-1.42.92c-3.35,1.42-6.6,1.56-9.9-1.39-3.65-3.24-3.74-8.89-2.19-13.2a12,12,0,0,1,6-6.52,7.26,7.26,0,0,1,1.7-1.4,8.82,8.82,0,0,1,1.92-.8,13.11,13.11,0,0,0-9.79,5.5,1.36,1.36,0,0,1-.12.12c-.18.28-.38.55-.54.84a.79.79,0,0,0-.38.25c-2.36,2.79-3.52,6.46-5.38,9.62-4.36,7.34-11.52,2.28-14.6-3.11-2.57-4.49-2-11.07,1.54-14.7,2.31-2.34,6.22-2.48,9.13-1.69a4,4,0,0,1,2.16,1.51c.17.1.36.15.52.26a2.43,2.43,0,0,1,.38.34,23.39,23.39,0,0,1,2.2,1.55c.14-.29.18-.64-.16-.69a20.94,20.94,0,0,1-.73-2.19c7.78-2.19,47.94-15.36,52.34-24a17.52,17.52,0,0,0,5.16,4.28,111.18,111.18,0,0,1-7.14-9.85c-.92-1.31-1.8-2.65-2.7-4-.82-1.11-1.64-2.19-2.45-3.24A185.09,185.09,0,0,1,109,469.13a166.34,166.34,0,0,1-18.12-44.92c-2.58-10.89-14.56-50.15,8.93-42.59,6.39,2.05,13,7.68,18.17,12a55.46,55.46,0,0,1,13.22,16c1.8,7.8-3.41,15.8-6.11,23.46a37.18,37.18,0,0,0-1.84,12.48c-2.92-8.41-5.7-16.83-9.4-24.91-3.29-7.18-6.17-15.67-11.33-21.58-.23-.26-.64.29-.49.55,9,16,14.35,34.2,20.24,51.66.7,2.05,1.42,4.08,2.16,6.12q5.31,11.61,10.32,23.37c2.4,5.67,4.81,11.31,7.45,16.88.75,1.59,1.74,3.15,2.45,4.77v-.13c-.71-2.54-1.5-5.05-2.33-7.55a.92.92,0,0,0,.39-.31c1.92-2.74,5.43-1.56,7.66-.1,2.71,1.77,3.06,5.37,3,8.37C153.25,508.73,149.67,514.54,146.59,519.34Z" transform="translate(0 -149)"/><path class="cls-5" d="M115.45,392.6c1.42,3.27,4.4,9.45,2.25,13.07s-7.64.43-12.85-3.49c3.75,5.56,6.24,12.46,9,18.47,3.7,8.08,6.48,16.5,9.4,24.91a37.18,37.18,0,0,1,1.84-12.48c2.7-7.66,7.91-15.66,6.11-23.46a55.46,55.46,0,0,0-13.22-16l-3.34-2.77C114.9,391.45,115.19,392,115.45,392.6Z" transform="translate(0 -149)"/><path class="cls-5" d="M150.36,494.33c-2.23-1.46-5.74-2.64-7.66.1a.92.92,0,0,1-.39.31c.83,2.5,1.62,5,2.33,7.55v.13c-.71-1.62-1.7-3.18-2.45-4.77-2.64-5.57-5.05-11.21-7.45-16.88q-5-11.77-10.32-23.37c-.74-2-1.46-4.07-2.16-6.12-5.81-17.23-11.12-35.18-19.91-51-2.48-1.94-4.77-3.81-6.46-4.83,4.33,11.68,9.22,23.13,13.39,34.88,4.42,12.44,7.83,25.2,13,37.31,2.72,6.31,5.64,12.52,8.89,18.52,2.71,5,6.15,9.85,8.31,15.16,2.95,7.25,1.7,13.42-.4,20.78-1.62,5.68-12.66,42.69-23,33.41-3.71-3.32-5.69-11.69-3.42-16.92a5.77,5.77,0,0,0-2.37,2.23c-2.45,4.08-3.15,10.5-.83,14.86,3.7,7,10.22,8.27,16.26,3,4.67-4.07,5.65-10.61,7.57-16.34,2.9-8.67,8.42-15.47,13.22-23,3.08-4.8,6.66-10.61,6.78-16.64C153.42,499.7,153.07,496.1,150.36,494.33Z" transform="translate(0 -149)"/><path class="cls-5" d="M127.9,525.11c1.85-2.38,3-7.17-1.31-6.82a21.55,21.55,0,0,0-8.83,3.25c-6.46,3.73-10.27,9.28-15.38,14.74-3.43,3.65-7.56,7.61-12.66,5.29-1.88-.86-2.77-2.93-3.39-4.83-.26-.81.56-3.3.79-4.36a11.37,11.37,0,0,0-3.83,5.14c-1.55,4.31-1.46,10,2.19,13.2,3.3,2.95,6.55,2.81,9.9,1.39a7.28,7.28,0,0,0,1.42-.92,9.82,9.82,0,0,0,1.57-1.86A10,10,0,0,0,99.69,547a12.81,12.81,0,0,0,1.36-3.82,9.8,9.8,0,0,0,0-3h0a.49.49,0,0,1,.74.25,6.92,6.92,0,0,1,.58,1.75c2.11-5.3,7-8.54,11.38-11.69C117.61,527.74,123,524.05,127.9,525.11Z" transform="translate(0 -149)"/><path class="cls-5" d="M65,531.65a11.31,11.31,0,0,1-1.13-4.56l-.28.23C60,531,59.49,537.53,62.06,542c3.08,5.39,10.24,10.45,14.6,3.11,1.86-3.16,3-6.83,5.38-9.62a.79.79,0,0,1,.38-.25c.16-.29.36-.56.54-.84a1.36,1.36,0,0,0,.12-.12c.29-.37.59-.72.89-1.06C77.18,536,69,539.87,65,531.65Z" transform="translate(0 -149)"/><path class="cls-4" d="M257.74,502.7c-.05-3,.3-6.6,3-8.37,2.22-1.46,5.73-2.64,7.66.1a.85.85,0,0,0,.38.31c-.83,2.5-1.62,5-2.32,7.55,0,0,0,.09,0,.13.71-1.62,1.7-3.18,2.45-4.77,2.64-5.57,5-11.21,7.46-16.88,3.32-7.85,6.78-15.63,10.32-23.37.73-2,1.46-4.07,2.15-6.12,5.9-17.46,11.25-35.66,20.25-51.66.14-.26-.26-.81-.5-.55-5.16,5.91-8,14.4-11.33,21.58-3.69,8.08-6.48,16.5-9.4,24.91A36.68,36.68,0,0,0,286,433.08c-2.7-7.66-7.9-15.66-6.11-23.46a55.33,55.33,0,0,1,13.23-16c5.2-4.34,11.77-10,18.16-12,23.49-7.56,11.51,31.7,8.93,42.59a166,166,0,0,1-18.13,44.92,182.17,182.17,0,0,1-13.31,20.47c-.81,1-1.62,2.13-2.45,3.24-.89,1.32-1.78,2.66-2.69,4a111.29,111.29,0,0,1-7.15,9.85,17.43,17.43,0,0,0,5.17-4.28c4.39,8.67,44.56,21.84,52.34,24-.27.81-.66,2.17-.73,2.19-.35,0-.31.4-.17.69a23.39,23.39,0,0,1,2.2-1.55,2.43,2.43,0,0,1,.38-.34c.16-.11.36-.16.52-.26a4,4,0,0,1,2.16-1.51c2.91-.79,6.82-.65,9.13,1.69,3.57,3.63,4.12,10.21,1.55,14.7-3.08,5.39-10.25,10.45-14.61,3.11-1.86-3.16-3-6.83-5.37-9.62a.89.89,0,0,0-.38-.25c-.17-.29-.37-.56-.55-.84a1.36,1.36,0,0,1-.12-.12,13.09,13.09,0,0,0-9.78-5.5,9,9,0,0,1,1.92.8,7.21,7.21,0,0,1,1.69,1.4,12,12,0,0,1,6,6.52c1.55,4.31,1.47,10-2.18,13.2-3.31,2.95-6.55,2.81-9.9,1.39a7.41,7.41,0,0,1-1.43-.92,10.14,10.14,0,0,1-1.56-1.86,9.72,9.72,0,0,1-1.33-2.36,13.39,13.39,0,0,1-1.36-3.82,10.14,10.14,0,0,1-.05-3h0a.49.49,0,0,0-.74.25,6.92,6.92,0,0,0-.58,1.75c-2.1-5.3-7-8.54-11.38-11.69-4.2-3-10.31-7.23-15.56-4.94h0a16.69,16.69,0,0,1-1.14-3.55c-.17.57-.33,1.16-.47,1.76.58,2.67,2,5.12,3.11,7.62a55.36,55.36,0,0,0,5.69,9.65,20.73,20.73,0,0,0-1.44,4.08.88.88,0,0,0,.2.66,8.12,8.12,0,0,1,2.63-4.23,15,15,0,0,1,1.12-1.34,7,7,0,0,1,.84-.8c1.69-1.47,3.54-2.17,5.17-1.21a5.45,5.45,0,0,1,3.29,2.57c2.45,4.08,3.16,10.5.83,14.86-3.7,7-10.22,8.27-16.26,3-4.67-4.07-5.65-10.61-7.57-16.34-2.9-8.67-8.42-15.47-13.22-23C261.44,514.54,257.85,508.73,257.74,502.7Z" transform="translate(0 -149)"/><path class="cls-4" d="M257.74,502.7c-.05-3,.3-6.6,3-8.37,2.22-1.46,5.73-2.64,7.66.1a.85.85,0,0,0,.38.31c-.83,2.5-1.62,5-2.32,7.55,0,0,0,.09,0,.13.71-1.62,1.7-3.18,2.45-4.77,2.64-5.57,5-11.21,7.46-16.88,3.32-7.85,6.78-15.63,10.32-23.37.73-2,1.46-4.07,2.15-6.12,5.9-17.46,11.25-35.66,20.25-51.66.14-.26-.26-.81-.5-.55-5.16,5.91-8,14.4-11.33,21.58-3.69,8.08-6.48,16.5-9.4,24.91A36.68,36.68,0,0,0,286,433.08c-2.7-7.66-7.9-15.66-6.11-23.46a55.33,55.33,0,0,1,13.23-16c5.2-4.34,11.77-10,18.16-12,23.49-7.56,11.51,31.7,8.93,42.59a166,166,0,0,1-18.13,44.92,182.17,182.17,0,0,1-13.31,20.47c-.81,1-1.62,2.13-2.45,3.24-.89,1.32-1.78,2.66-2.69,4a111.29,111.29,0,0,1-7.15,9.85,17.43,17.43,0,0,0,5.17-4.28c4.39,8.67,44.56,21.84,52.34,24-.27.81-.66,2.17-.73,2.19-.35,0-.31.4-.17.69a23.39,23.39,0,0,1,2.2-1.55,2.43,2.43,0,0,1,.38-.34c.16-.11.36-.16.52-.26a4,4,0,0,1,2.16-1.51c2.91-.79,6.82-.65,9.13,1.69,3.57,3.63,4.12,10.21,1.55,14.7-3.08,5.39-10.25,10.45-14.61,3.11-1.86-3.16-3-6.83-5.37-9.62a.89.89,0,0,0-.38-.25c-.17-.29-.37-.56-.55-.84a1.36,1.36,0,0,1-.12-.12,13.09,13.09,0,0,0-9.78-5.5,9,9,0,0,1,1.92.8,7.21,7.21,0,0,1,1.69,1.4,12,12,0,0,1,6,6.52c1.55,4.31,1.47,10-2.18,13.2-3.31,2.95-6.55,2.81-9.9,1.39a7.41,7.41,0,0,1-1.43-.92,10.14,10.14,0,0,1-1.56-1.86,9.72,9.72,0,0,1-1.33-2.36,13.39,13.39,0,0,1-1.36-3.82,10.14,10.14,0,0,1-.05-3h0a.49.49,0,0,0-.74.25,6.92,6.92,0,0,0-.58,1.75c-2.1-5.3-7-8.54-11.38-11.69-4.2-3-10.31-7.23-15.56-4.94h0a16.69,16.69,0,0,1-1.14-3.55c-.17.57-.33,1.16-.47,1.76.58,2.67,2,5.12,3.11,7.62a55.36,55.36,0,0,0,5.69,9.65,20.73,20.73,0,0,0-1.44,4.08.88.88,0,0,0,.2.66,8.12,8.12,0,0,1,2.63-4.23,15,15,0,0,1,1.12-1.34,7,7,0,0,1,.84-.8c1.69-1.47,3.54-2.17,5.17-1.21a5.45,5.45,0,0,1,3.29,2.57c2.45,4.08,3.16,10.5.83,14.86-3.7,7-10.22,8.27-16.26,3-4.67-4.07-5.65-10.61-7.57-16.34-2.9-8.67-8.42-15.47-13.22-23C261.44,514.54,257.85,508.73,257.74,502.7Z" transform="translate(0 -149)"/><path class="cls-4" d="M291.76,394.89c-.52,1.09-1.06,2.16-1.56,3.27-1.75,4-5.26,10.56-4.06,15.18,2,7.57,11.88-5.58,13.44-7.62,4-5.15,8.19-10.14,13.61-13.58.75-.48,1.59.75,1.4,1.46-4,15.06-11.41,28.62-16.34,43.3-2.34,7-5.08,13.76-7.61,20.68s-11.38,29.47-5.46,37l1.16-1.71c.83-1.11,1.64-2.19,2.45-3.24a182.17,182.17,0,0,0,13.31-20.47,166,166,0,0,0,18.13-44.92c2.58-10.89,14.56-50.15-8.93-42.59-6.39,2.05-13,7.68-18.16,12C292.65,394.05,292.23,394.48,291.76,394.89Z" transform="translate(0 -149)"/><path class="cls-4" d="M297.44,538.21c-1.63-1-3.48-.26-5.17,1.21a7,7,0,0,0-.84.8,15,15,0,0,0-1.12,1.34,8.12,8.12,0,0,0-2.63,4.23.88.88,0,0,1-.2-.66,20.73,20.73,0,0,1,1.44-4.08,55.36,55.36,0,0,1-5.69-9.65c-.73-1.66-1.58-3.32-2.25-5-.4.27-.8.55-1.19.87-.91,4.93,5.26,17.91,6.52,20.21a13.84,13.84,0,0,0,6.66,6,35.5,35.5,0,0,0,8.14,2.95c.15-.25.31-.51.45-.79,2.33-4.36,1.62-10.78-.83-14.86A5.45,5.45,0,0,0,297.44,538.21Z" transform="translate(0 -149)"/><path class="cls-5" d="M315,540.6c-9.06-5.45-20.82-19.23-31.43-15.54,4.78-.78,10,2.76,13.69,5.44,4.38,3.15,9.28,6.39,11.38,11.69a6.92,6.92,0,0,1,.58-1.75.49.49,0,0,1,.74-.25h0a10.14,10.14,0,0,0,.05,3,13.39,13.39,0,0,0,1.36,3.82,9.72,9.72,0,0,0,1.33,2.36,10.14,10.14,0,0,0,1.56,1.86,7.41,7.41,0,0,0,1.43.92c3.35,1.42,6.59,1.56,9.9-1.39,3.06-2.73,3.6-7.16,2.76-11.07C326.66,545.48,320.1,543.64,315,540.6Z" transform="translate(0 -149)"/><path class="cls-5" d="M349.34,530a14,14,0,0,1-3.72,5.56c-4.75,4.32-10.52,4.69-15.36,1.65,1.6,2.49,2.67,5.36,4.18,7.92,4.36,7.34,11.53,2.28,14.61-3.11A13.36,13.36,0,0,0,349.34,530Z" transform="translate(0 -149)"/><path class="cls-5" d="M278.32,482.18c2.29-5,4.66-10.11,7-15.21.09-.31.19-.63.28-.9,2.73-8.53,6.2-16.71,9.2-25.12,5.38-15.06,12.55-29.64,17.06-45-7,5.54-11,13.81-17.83,19.53-2.42,2-7.46,3.82-9.16-.35-1.81-4.47.31-10,2-14.15.28-.71.58-1.38.87-2.07a56.21,56.21,0,0,0-7.8,10.75c-1.79,7.8,3.41,15.8,6.11,23.46a36.68,36.68,0,0,1,1.84,12.48c2.92-8.41,5.71-16.83,9.4-24.91,3.29-7.18,6.17-15.67,11.33-21.58.24-.26.64.29.5.55-9,16-14.35,34.2-20.25,51.66-.69,2.05-1.42,4.08-2.15,6.12-3.54,7.74-7,15.52-10.32,23.37-1.76,4.14-3.55,8.25-5.4,12.34v.55a.89.89,0,0,1-.6.78c-.49,1.06-.95,2.14-1.46,3.21-.41.88-.9,1.75-1.37,2.63a44,44,0,0,0,2.3,9.85C269.47,500.58,274.8,489.93,278.32,482.18Z" transform="translate(0 -149)"/><path class="cls-5" d="M285.29,549.43c-.66-1.2-2.38-4.62-4-8.61-5.42-8-9.42-18.22-12.55-27-1.69-4.74-3.94-10.51-3.41-15.71a7,7,0,0,1,1.45-4,3.49,3.49,0,0,1,.65-.64c-2-1.38-4.79-.36-6.67.87-2.71,1.77-3.06,5.37-3,8.37.11,6,3.7,11.84,6.77,16.64,4.8,7.49,10.32,14.29,13.22,23,1.92,5.73,2.9,12.27,7.57,16.34,5.1,4.44,10.52,4.21,14.33-.16C293.9,557.08,287,552.58,285.29,549.43Z" transform="translate(0 -149)"/><path class="cls-6" d="M115.58,469.17a370.08,370.08,0,0,1-18.43-40.76,119.5,119.5,0,0,1-5-19.63c-1.12-5.89-.36-13-2.56-18.56-.24-.6-.88,0-.83.48.36,3.05-.26,6,0,9.08.28,3.54.35,7,.87,10.46A113.05,113.05,0,0,0,95,432c4.81,13.29,9.83,28,18.85,38.77C114.68,471.75,116.12,470.21,115.58,469.17Z" transform="translate(0 -149)"/><path class="cls-6" d="M317.43,409.87c-.45,1.18-.92,2.35-1.37,3.53l-1,2.67a117.77,117.77,0,0,1-5,19.32,372,372,0,0,1-18.43,40.76c-.54,1,.9,2.58,1.74,1.57,9-10.78,14.05-25.48,18.86-38.77a113.59,113.59,0,0,0,5.39-21.73c.38-2.57.53-5.09.68-7.65A8.91,8.91,0,0,0,317.43,409.87Z" transform="translate(0 -149)"/><path class="cls-6" d="M76.12,531.29a2.29,2.29,0,0,0-.24-1.06,1.94,1.94,0,0,0-.06-.4,6,6,0,0,0-3.13-2.71,3.86,3.86,0,0,0-2.27-.48,3.12,3.12,0,0,0-2.63,1.21c-.62.85-.15,2.09.93,3a8,8,0,0,0,4,2.56C74.82,533.84,76.06,532.82,76.12,531.29Z" transform="translate(0 -149)"/><path class="cls-6" d="M119.86,542.2a2.72,2.72,0,0,0-.41-.42c-.06-.13-.12-.27-.19-.39A2.66,2.66,0,0,0,119,541a1,1,0,0,0-.83-.4,1.54,1.54,0,0,0-1.53-.63c-1.26.27-1.81,1.61-2.09,2.8a9.46,9.46,0,0,0,3,9.05c2.17,2,5,0,4.87-2.87A12.53,12.53,0,0,0,119.86,542.2Z" transform="translate(0 -149)"/><path class="cls-6" d="M96,536.9a2.16,2.16,0,0,0-.39-1.54c0-.08-.1-.13-.13-.19a3.44,3.44,0,0,0-.6-1.28,2.61,2.61,0,0,0-1.78-1,2.12,2.12,0,0,0-.2-.12,2.39,2.39,0,0,0-3.39,1.5,1,1,0,0,0-.06.31,2.68,2.68,0,0,0-.26,2.75,4.11,4.11,0,0,0,3.16,2.08,2.64,2.64,0,0,0,3.4-1.55,2,2,0,0,0,.25-.95Z" transform="translate(0 -149)"/><path class="cls-6" d="M142.75,533.09a2.74,2.74,0,0,0-1.87-.89,2.16,2.16,0,0,0-2.53.63,2.23,2.23,0,0,0,.7,3.19,2.8,2.8,0,0,0,3.48.05A2.07,2.07,0,0,0,142.75,533.09Z" transform="translate(0 -149)"/><path class="cls-6" d="M344.14,528.57a2,2,0,0,0-.88-.57,1.5,1.5,0,0,0-.31-.24,5.54,5.54,0,0,0-4,.46A4,4,0,0,0,337,529.6a3.48,3.48,0,0,0-1,2.82c.14,1.07,1.28,1.58,2.63,1.39a7.8,7.8,0,0,0,4.53-1.21C344.93,531.35,345.13,529.68,344.14,528.57Z" transform="translate(0 -149)"/><path class="cls-6" d="M298.67,541.91a2.71,2.71,0,0,0-.41-.42c-.06-.13-.12-.28-.19-.4a4.44,4.44,0,0,0-.27-.38,1,1,0,0,0-.83-.39,1.57,1.57,0,0,0-1.54-.63c-1.26.27-1.8,1.6-2.09,2.8a9.5,9.5,0,0,0,3,9c2.17,2,5,0,4.87-2.88A12.51,12.51,0,0,0,298.67,541.91Z" transform="translate(0 -149)"/><path class="cls-6" d="M325.77,537.48a2.16,2.16,0,0,0-.39-1.54,2.43,2.43,0,0,0-.14-.2,3.17,3.17,0,0,0-.6-1.27,2.57,2.57,0,0,0-1.78-1l-.18-.12a2.41,2.41,0,0,0-3.41,1.5,2.61,2.61,0,0,0-.06.32A2.69,2.69,0,0,0,319,538a4.12,4.12,0,0,0,3.15,2.07,2.91,2.91,0,0,0,2.48-.33,2.83,2.83,0,0,0,.92-1.22,2.1,2.1,0,0,0,.27-1Z" transform="translate(0 -149)"/><path class="cls-9" d="M274.24,426.38c-.26-2.22-1.17-5.13-3.56-5.51a1.72,1.72,0,0,0-1.35.35,1.12,1.12,0,0,0-1,.69,10.89,10.89,0,0,0-.24,7.51c.64,2,2.43,4.05,4.57,3S274.45,428.23,274.24,426.38Z" transform="translate(0 -149)"/><path class="cls-9" d="M277.51,438.6a.5.5,0,0,0-.46-.31c-.25-.63-1.23-.05-1.26.63a6.07,6.07,0,0,0,0,.86c0,.22-.06.44-.06.68,0,.63.35.82.74.77.41.33.95-.17,1.14-.53A1.82,1.82,0,0,0,277.51,438.6Z" transform="translate(0 -149)"/><path class="cls-9" d="M273.2,445.28a1.72,1.72,0,0,0-1.76-.29c-.78-.35-1.46.3-1.7,1.23a3.37,3.37,0,0,0-.37,1.92c-.12,1.29.28,2.55,1.39,2.93a1.54,1.54,0,0,0,1.83-.3,3.82,3.82,0,0,0,1-1.45.66.66,0,0,0,.34-.4C274.15,447.67,274.19,446.18,273.2,445.28Z" transform="translate(0 -149)"/><path class="cls-9" d="M269.29,459.05h-.09a.48.48,0,0,0-.32.09c-.31,0-.68.48-.55.81s.05.57.36.81a.52.52,0,0,0,.72-.2,1.53,1.53,0,0,0,.33-1A.49.49,0,0,0,269.29,459.05Z" transform="translate(0 -149)"/><path class="cls-9" d="M263.34,462.1c-1.18,0-1.75,1.61-1.1,2.52a1.14,1.14,0,0,0,.28.6c.77.89,1.88-.23,2.05-1.12S264.39,462.11,263.34,462.1Z" transform="translate(0 -149)"/><path class="cls-9" d="M134.68,436.81c2.14,1,3.94-1,4.57-3a10.81,10.81,0,0,0-.23-7.5,1.13,1.13,0,0,0-1-.7,1.74,1.74,0,0,0-1.35-.36c-2.39.39-3.3,3.3-3.56,5.53C132.89,432.59,132.68,435.85,134.68,436.81Z" transform="translate(0 -149)"/><path class="cls-9" d="M129.83,443a.55.55,0,0,1,.47-.32c.24-.63,1.23,0,1.25.64a7.91,7.91,0,0,1,0,.85c0,.23.05.44.05.69,0,.62-.34.81-.73.76-.42.33-.95-.17-1.14-.53A1.81,1.81,0,0,1,129.83,443Z" transform="translate(0 -149)"/><path class="cls-9" d="M134.14,449.64a1.74,1.74,0,0,1,1.76-.29c.79-.35,1.46.31,1.7,1.22a3.55,3.55,0,0,1,.38,1.94c.12,1.28-.28,2.53-1.39,2.93a1.57,1.57,0,0,1-1.84-.31,3.79,3.79,0,0,1-1-1.44.72.72,0,0,1-.34-.41C133.19,452,133.16,450.53,134.14,449.64Z" transform="translate(0 -149)"/><path class="cls-9" d="M138.06,463.41h.08a.5.5,0,0,1,.32.11c.32,0,.69.47.56.79s-.05.59-.36.83a.54.54,0,0,1-.73-.21,1.44,1.44,0,0,1-.32-1A.49.49,0,0,1,138.06,463.41Z" transform="translate(0 -149)"/><path class="cls-9" d="M144,466.46c1.18,0,1.74,1.62,1.1,2.52a1.24,1.24,0,0,1-.29.6c-.77.89-1.88-.23-2-1.12S143,466.48,144,466.46Z" transform="translate(0 -149)"/><path class="cls-5" d="M159.17,370.73c5.69-5.42,12.17-9.11,19.83-10.13,8.25-1.09,16.59,0,24.82-.94,16.37-2,34-9.36,47.63,4.45a64.1,64.1,0,0,1,5.46,6.44c-1.25-3.19-2.53-6.36-3.87-9.5-5.88-13.79-15-28.13-30.13-31-14.93-2.85-31.37,2.59-44.23,10.61-14.92,9.3-22.21,24.4-29.22,40.59l-1.4,3.17A75.3,75.3,0,0,1,159.17,370.73Z" transform="translate(0 -149)"/><path class="cls-2" d="M298.32,206.28C278.7,186.1,248.86,182.7,223.2,187.7a225.79,225.79,0,0,0-44.65,14,143.54,143.54,0,0,0-19.16,9.91c-3.38,1.71-6.71,3.52-10,5.48-12,7.2-22,16.76-30.88,27.91C101.67,266.16,90.18,295.09,99,322.6c9.28,29,36.44,40.71,63.12,42.76a165.28,165.28,0,0,0,46.9-3c15.57-3.28,28.69-10.32,42.53-18.21,12.89-7.34,23.48-17.5,33.11-29.11,9.34-11.26,17.89-24.08,23.42-37.94C317.26,254.05,315.92,224.39,298.32,206.28Z" transform="translate(0 -149)"/><path class="cls-4" d="M275,321.72c-11.62,12.4-26,21-40.69,28.63-15.4,7.94-33.2,11-50.14,11.95-20.21,1.17-41.77-.5-59.74-11.24-20.54-12.27-29.69-38.24-25-62.13,4.15-21.4,17.12-40.36,31.8-55.17a99.84,99.84,0,0,1,11.22-9.68c-.27.33-.55.64-.8,1-1,1.38.4,3.27,1.56,1.69,4.65-6.34,12.64-10,19.08-14,8.17-5,17.17-8.68,26-12,15.61-5.78,32.31-10.53,48.86-11.65,29.23-2,63.89,11.29,72,44.15C317.45,267,296.18,299.14,275,321.72Z" transform="translate(0 -149)"/><path class="cls-5" d="M309.16,233.33c-8.11-32.86-42.77-46.15-72-44.15-16.55,1.12-33.25,5.87-48.86,11.65-8.87,3.29-17.87,7-26,12-6.44,3.93-14.43,7.62-19.08,14-1.16,1.58-2.58-.31-1.56-1.69.25-.35.53-.66.8-1a99.84,99.84,0,0,0-11.22,9.68c-14.68,14.81-27.65,33.77-31.8,55.17-4.64,23.89,4.51,49.86,25,62.13,18,10.74,39.53,12.41,59.74,11.24,16.94-1,34.74-4,50.14-11.95,14.72-7.59,29.07-16.23,40.69-28.63C296.18,299.14,317.45,267,309.16,233.33Zm-22,35a87.21,87.21,0,0,1-13.62,39,95.34,95.34,0,0,1-16.94,19.66c-10.91,13.35-29.23,21-44.38,25.41-23.12,6.68-46.44,10.37-69.11-.23-19.5-9.1-33.67-25.67-37.3-48.28-2.06-12.82-2.43-29,6.31-37.9,2.31-2.87,4.54-6.22,8.4-6,5,.24,7.94,6.94,11.46,9.79,9.66,7.83,28.42,7.27,38.07-.47,8-6.4,12-17.47,20.59-23.06,9.13-5.94,15.89,2.2,24.66,4.83,15,4.49,29.74-2.78,42.61-10.18,5.75-3.3,14.6-8.48,20.93-3.77C287.23,243.42,288,258.56,287.14,268.36Z" transform="translate(0 -149)"/><path class="cls-2" d="M262.45,229.55a84.14,84.14,0,0,1-12.48,8,40.17,40.17,0,0,0,6.78-11.52c4.78-12,5.1-27,2.24-39.57-3-13.08-9.37-27.48-20.71-34.56-5.85-3.66-13.09-3.62-19.67-1.37-10.21,1.22-19.79,8.4-24.56,18-.4.78.37,1.24.85.54A38.62,38.62,0,0,1,207.6,157c-.2.19-.41.35-.6.53-.92.89-1.77,1.82-2.6,2.79a26.31,26.31,0,0,0-5.11,5.35c-4.08,5.64-6.13,12.39-7.36,19.27a52,52,0,0,0-.76,10.23,44.18,44.18,0,0,0-5.45-16.85c-2.32-3.89-4.53-6.38-7.74-8.19,1.51.05,3,.15,4.55.33.47.06.82-.78.32-1a32.72,32.72,0,0,0-17.08-1.65l-.36.06c-16.1,2.83-30.58,16.75-37.59,32-5.34,11.61-6.77,25.58-4.82,38.24,1.18,7.62,4.67,16.25,10.23,22.06a30.91,30.91,0,0,1-11.94-9.46c-.25-.35-.7.27-.5.58C125.65,259,133.37,264.8,142,266c.09,0,.18.08.27.1,10.86,3.53,22.7-2.37,30.76-10,9.63-9.13,15-21,17.31-34.29a98,98,0,0,0,1.43-19.63,69.55,69.55,0,0,0,10,26.15,43.06,43.06,0,0,0,5.89,7.5,41.57,41.57,0,0,0,3,3.17,1,1,0,0,0,.82.25,33.35,33.35,0,0,0,12.88,6.14,58.47,58.47,0,0,1-12.47-.16c-.3,0-.55.57-.21.63a65.53,65.53,0,0,0,21.68.29,22.31,22.31,0,0,0,7.46-1.71A52.45,52.45,0,0,0,263.24,231C263.92,230.32,263.4,228.81,262.45,229.55Z" transform="translate(0 -149)"/><path class="cls-10" d="M187.83,225a53.44,53.44,0,0,1-17.58,30.47c-8.29,7.34-20.2,12.2-30.33,6.36-9.68-5.59-13.85-18.39-14.84-29.29a63.19,63.19,0,0,1,6.9-34.46,49.75,49.75,0,0,1,37.82-26.64,21.88,21.88,0,0,1,3.37.48c5.87,1.37,9.36,7.76,11.78,13C190.27,196.58,190.05,212.6,187.83,225Z" transform="translate(0 -149)"/><path class="cls-10" d="M209,232.43c-13-17.19-18.41-41-8.59-61.5,6.2-12.92,21.22-22.47,34.7-16.31,12.22,5.59,18.78,22.77,21.32,35.55,2.64,13.29,1.44,28.73-5,40.64-7.42,13.81-23.92,14.51-35.78,7.12A34.79,34.79,0,0,1,209,232.43Z" transform="translate(0 -149)"/><path class="cls-11" d="M179.79,217.46c-.24,16.8-9.85,30.26-21.45,30.06s-20.82-14-20.57-30.75,9.85-30.26,21.45-30.07S180,200.67,179.79,217.46Z" transform="translate(0 -149)"/><path class="cls-12" d="M170.54,218.38c-.14,9.64-5.65,17.37-12.32,17.26s-11.94-8-11.81-17.66,5.66-17.36,12.32-17.26S170.68,208.74,170.54,218.38Z" transform="translate(0 -149)"/><path class="cls-10" d="M157.94,207.77c-.09,6.26-3.66,11.26-8,11.2s-7.75-5.19-7.66-11.45,3.67-11.26,8-11.19S158,201.53,157.94,207.77Z" transform="translate(0 -149)"/><path class="cls-10" d="M156.12,227.9c0,2.18-1.27,3.92-2.77,3.9s-2.7-1.81-2.67-4,1.27-3.92,2.78-3.89S156.15,225.73,156.12,227.9Z" transform="translate(0 -149)"/><path class="cls-2" d="M284.67,292.6a31.57,31.57,0,0,0-11.43-16.1c-4.35-3.12-10.39-6.19-15.95-6.91a74.94,74.94,0,0,0,12-18.87,17.19,17.19,0,0,0-.07-6.51,1.05,1.05,0,0,0-.17.37c-1.64,7.11-6.56,13.71-10.69,19.41a138.55,138.55,0,0,1-15.66,17.47,189.13,189.13,0,0,1-35.4,27.31A128.47,128.47,0,0,1,167,324.19a47.28,47.28,0,0,1-19.57.18,26.43,26.43,0,0,1-8.33-3.32,8.2,8.2,0,0,1-4.19-7.73,14.23,14.23,0,0,1-.05-6.53c-2,3.79-3.29,8.75-.82,12.4,3.88,5.71,10.23,7.43,16.46,8.61,8,1.51,16.38-.64,24.13-2.46a116.06,116.06,0,0,0,24.16-9c2.42-1.18,4.8-2.46,7.15-3.77,13.74,3.44,21.58,19,33.78,26,12.48,7.23,27.58,1.71,36.7-9C284.65,319.92,288.32,305.28,284.67,292.6Z" transform="translate(0 -149)"/><path class="cls-13" d="M269.41,332.9c-6,4.71-13.08,7.44-20.54,6.62-6.64-.73-12.66-5.17-17.67-9.52-7.41-6.44-14-16.71-23.83-18.3a179.3,179.3,0,0,0,28.26-20.49c1.47.19,3,.14,4.46.47a28.54,28.54,0,0,1,6.43,2.19c3.19,1.55,9,4.49,8.78,8.9,0,.6.69.43.76,0,.54-4.09-3-6.78-5.83-8.77a24.77,24.77,0,0,0-12.63-4.48c1.67-1.5,3.33-3,5-4.56,4-3.82,8.33-8.05,12.4-12.62,4.91.26,10.47,2.91,14.66,5.39,6.28,3.71,11.1,10.51,13.19,17.73C286.82,309.35,279.85,324.69,269.41,332.9Z" transform="translate(0 -149)"/><path class="cls-14" d="M227.44,305.12c11.73-8.95,22-.9,31.18,7.41,3.17-5.2-1.46-12.28-3.6-17.09a19.85,19.85,0,0,1-1.14-13.18,18.92,18.92,0,0,1,5.37-9.21,19.65,19.65,0,0,0-4.3-.76c-4.07,4.57-8.38,8.8-12.4,12.62-1.62,1.54-3.28,3.06-5,4.56A24.77,24.77,0,0,1,250.23,294c2.87,2,6.37,4.68,5.83,8.77-.07.48-.78.65-.76,0,.18-4.41-5.59-7.35-8.78-8.9a28.54,28.54,0,0,0-6.43-2.19c-1.51-.33-3-.28-4.46-.47a179.3,179.3,0,0,1-28.26,20.49c6.11,1,10.95,5.31,15.53,10C221.58,315.41,222.69,308.74,227.44,305.12Z" transform="translate(0 -149)"/><path class="cls-15" d="M247.1,311.28a9.35,9.35,0,0,0-6-.79c-2-.18-3.56.91-4.7,2.71a5.46,5.46,0,0,0-.86,1.66,3.49,3.49,0,0,1-.15.34c-1.31,3.46.06,7.28,1.74,10.27,3.48,6.17,13.06,11.95,17.93,4.1C258.84,323.49,252.13,313.9,247.1,311.28Z" transform="translate(0 -149)"/><path class="cls-15" d="M265.75,283.92a5,5,0,0,0-3.19-.42,2.68,2.68,0,0,0-2.51,1.44,3,3,0,0,0-.46.88,1.08,1.08,0,0,1-.08.19c-.69,1.84,0,3.88.93,5.48,1.85,3.28,7,6.37,9.56,2.17C272,290.43,268.43,285.31,265.75,283.92Z" transform="translate(0 -149)"/><path class="cls-2" d="M193,265.61c-.39-.67-1.13-.08-1.25.49a4.39,4.39,0,0,0,0,1.91.61.61,0,0,0,.24.37c0,.33.2.6.55.53l.26,0a.9.9,0,0,0,.6-.7A3.67,3.67,0,0,0,193,265.61Z" transform="translate(0 -149)"/><path class="cls-2" d="M199.62,262.93c-.65-.68-1.42.55-1.29,1.19s.24,1.73,1,2.07,1.25-.66,1.08-1.29A2.47,2.47,0,0,0,199.62,262.93Z" transform="translate(0 -149)"/><path class="cls-2" d="M244.43,187.79c-7.49,0-14.35,4.17-19.54,9.66a23.86,23.86,0,0,0-6,12.42c-1.11-15,5.23-29.76,19.27-35.72.23-.1.25-.59-.06-.47-17.62,6.35-25.29,27.92-19.68,46.1.42,1.37,2.1-.16,1.94-1.18-2.61-16.48,10.16-26.8,24-29.45C244.91,189,245.25,187.79,244.43,187.79Z" transform="translate(0 -149)"/><path class="cls-16" d="M322,318.22c.56-.51,1.27-1,1.15-2.06a6.41,6.41,0,0,1,.12-1.68,78.08,78.08,0,0,1,2.22-11.81c.8-2.57,1.78-5.06,2.68-7.59,0-.11.11-.22.16-.34.54-1.14,1.11-2.27,1.59-3.45a15.58,15.58,0,0,1,2.89-4.65,35.71,35.71,0,0,1,6.74-6c2.58-1.68,5.08-3.56,8-4.46a41.83,41.83,0,0,1,8.9-2.2c4.41-.39,8.69-.21,12.78,1.92.34.18.8.3,1,.61.38.68,1,.79,1.53,1a39.34,39.34,0,0,1,8.46,4.86,51.07,51.07,0,0,1,7.34,7.22A41.7,41.7,0,0,1,395,301.1c1.35,3.2,2.49,6.52,3.78,9.76a156.3,156.3,0,0,1,5,16.47,83.74,83.74,0,0,1,2.42,15.48q.47,6,.75,11.93a50.73,50.73,0,0,1-.41,8.17,59.08,59.08,0,0,1-1.25,8.19c-.33,1.33-.12,1.83,1.18,2.71.24-1,.54-2,.68-3,.25-1.66.31-3.37.61-5a33.38,33.38,0,0,0,.41-5.82c0-2.08,0-4.17,0-6.25-.1-4-.17-8-.41-12a78.07,78.07,0,0,0-2.8-15.92c-1.74-6.42-3.77-12.73-5.74-19.07-.56-1.79-1.33-3.49-2-5.24a2.22,2.22,0,0,1,0-.52,2.76,2.76,0,0,1,1.64,2c1.29,3.7,2.59,7.41,3.81,11.14a138,138,0,0,1,5.32,20.57,56,56,0,0,1,.82,6.43c.25,5.2.36,10.4.47,15.6a54.55,54.55,0,0,1-.09,6.77c-.37,3.56-1,7.09-1.52,10.63a5,5,0,0,0,0,.65,14.48,14.48,0,0,0,2.16.11,1.18,1.18,0,0,0,1.19-1c.29-2,.65-3.92.76-5.9s0-4.07-.07-6.11c-.1-3.37-.2-6.75-.37-10.13-.06-1.34-.3-2.66-.46-4a28.74,28.74,0,0,1-.36-5.08,2.3,2.3,0,0,1,.31.81c.4,2.38.8,4.77,1.19,7.15a11.5,11.5,0,0,1,.15,1.16c.19,4.64.42,9.27.55,13.91,0,1.5-.16,3-.24,4.53,0,.28,0,.55,0,.83a14.14,14.14,0,0,0,1.1-4.34c0-1.38,0-2.78-.12-4.16-.48-5.65-1-11.31-1.51-17a67.13,67.13,0,0,0-.85-7c-.77-3.92-1.67-7.81-2.64-11.68s-2.12-7.87-3.21-11.79a47.57,47.57,0,0,0-3.55-9c-1.32-2.59-2.61-5.19-3.94-7.78a24.39,24.39,0,0,0-1.73-3c-2-2.81-4.2-5.5-6.19-8.36-2.82-4.06-6.45-7-10.19-9.76a31.43,31.43,0,0,0-9.59-4.52,40.05,40.05,0,0,0-9.42-1.3c-2.85-.16-5.74-.44-8.56.28-2.52.65-5,1.51-7.47,2.41a24.12,24.12,0,0,0-11.87,9.74c-1.29,1.94-2.41,4-3.66,6a23,23,0,0,0-2.49,5.39c-1,3.21-2.12,6.39-3.16,9.61-.37,1.18-.63,2.4-1,3.61a82.76,82.76,0,0,0-1.74,10C321.27,318.33,321.79,318.46,322,318.22ZM330.15,286c.65-1,1.24-2.09,1.91-3.09a25.92,25.92,0,0,1,10.77-9.38,62,62,0,0,1,6.3-2.35,21.42,21.42,0,0,1,7.34-1.14c1.76.06,3.51.21,5.27.23a35.35,35.35,0,0,1,15.06,3.9,15.59,15.59,0,0,1,3.46,2.26c1.94,1.67,4,3.15,5.9,4.92,3.36,3.17,6,7.08,8.81,10.9a31,31,0,0,1,2.1,2.87,63.83,63.83,0,0,1,3.66,7.19c1.17,2.82,2.57,5.52,3.86,8.27.28.61.52,1.25.77,1.87a.84.84,0,0,0,.06-.63c-.62-2-1.14-4-1.91-5.85a129.45,129.45,0,0,0-10.59-19.89,25.27,25.27,0,0,0-4-4.68,51.34,51.34,0,0,0-8.47-6.62,13.86,13.86,0,0,0-3-1.55c-3.15-1-6.32-2-9.51-2.83a35.6,35.6,0,0,0-10.57-1.16,61.38,61.38,0,0,0-9.43,1.26,19.62,19.62,0,0,0-7.82,3.53,39,39,0,0,0-7.79,7.61c-1.12,1.46-2,3.11-3.06,4.68l.3.33A4.36,4.36,0,0,0,330.15,286ZM349,328.89c-.38.28-.83.42-1.21.69-1.25.92-2.47,1.9-3.73,2.8a28.8,28.8,0,0,0-6.75,7.51,3.08,3.08,0,0,0-.57,2.65,2.68,2.68,0,0,0,3.11-1c2-2.24,4-4.41,6.12-6.46,1-.95,1.84-2.24,3.34-2.26.13,0,.26-.18.37-.29.37-.37.72-.78,1.11-1.12,1.32-1.15,2-3,3.38-4.06a1.2,1.2,0,0,0,.29-1,1.12,1.12,0,0,0-.93-.51,3.81,3.81,0,0,0-2.61,1.41A10.82,10.82,0,0,1,349,328.89Zm-8.62-3.37a5.36,5.36,0,0,0,.79-.79l-.12-.25c-1.19.29-2.44.09-3.58.92a9.76,9.76,0,0,1-2.24.88,3,3,0,0,0-1,.55c-1.27,1.18-2.55,2.35-3.74,3.63a49.7,49.7,0,0,0-7.09,9.5,4.69,4.69,0,0,0-.52,1.41c-.23,1.33.47,2,1.58,1.49a3.6,3.6,0,0,0,2.32-2.14,5.29,5.29,0,0,1,.62-1.08A46.94,46.94,0,0,1,340.35,325.52Zm16.35,86.76a1.52,1.52,0,0,0,1.67-.95c-1-.25-1.86-.44-2.73-.72-2.2-.72-4.37-1.53-6.57-2.21a18.28,18.28,0,0,1-4.21-2c-3.07-1.91-6.16-3.77-9.32-5.69.08.39.13.64.22,1.06l-1-.56,0,.11,1.1,1.3-.16.21-1.74-.86a33.37,33.37,0,0,0,5.61,5.11,2.84,2.84,0,0,0,.52.27l7.08,3.31a23.74,23.74,0,0,0,5.56,2c.39.07.79.1,1.18.16a12.15,12.15,0,0,1-3-2,5,5,0,0,1,1.51.45A11.94,11.94,0,0,0,356.7,412.28Zm6.1-3.43c-.91-.2-1.77-.45-2.63-.56a18.59,18.59,0,0,1-7.21-2.4c-3.68-2.24-7.23-4.74-10.84-7.12-.06,0-.14,0-.21,0l-.43.7c-.51-.94-1.38-.19-2-.69-.42.43-.7,0-1-.24-.47-.37-.92-.78-1.37-1.17l-.17.22c.55.58,1.11,1.15,1.66,1.72l-.13.2-1.32-.27a10.16,10.16,0,0,0,2.85,2.56c1.7,1.07,3.44,2.07,5.11,3.19a15.73,15.73,0,0,0,4.66,2.1A40.79,40.79,0,0,1,355,408.7a21.44,21.44,0,0,0,6.38,1.38C362.1,410.16,362.54,409.76,362.8,408.85Zm-44.52-68.52a12,12,0,0,0-.53,2,2.45,2.45,0,0,0,.39,2,3.91,3.91,0,0,0,3.55-2.75,15.22,15.22,0,0,1,1.35-2.71,46.87,46.87,0,0,1,9.48-11.52c.28-.25.56-.52.84-.79-.05-.09-.1-.18-.14-.27a6.38,6.38,0,0,1-1.62.79,4.17,4.17,0,0,0-2.77,1.53c-.42.51-1.35.45-2,.7a4.61,4.61,0,0,0-1.41.73c-.72.64-1.36,1.39-2,2.09A24.7,24.7,0,0,0,318.28,340.33Zm46.46,67c.4,0,.88.1,1-.66a2.23,2.23,0,0,0-.49-.24A29.87,29.87,0,0,1,356,402c-1.93-1.23-3.93-2.29-5.89-3.44-.61-.36-1.2-.76-1.79-1.15-.44-.29-.87-.6-1.3-.89l-.1.17c.11.28.23.55.4,1-.65-.17-1.16-.26-1.65-.44a13.13,13.13,0,0,1-1.3-.65c.43.87,1.3,1.1,1.87,2.13a8.56,8.56,0,0,1-1.56-.79c-.54-.45-.78.47-1.25.21a72,72,0,0,0,10.85,7,6.41,6.41,0,0,0,2.6.92,12.86,12.86,0,0,1,3.21.7A14.66,14.66,0,0,0,364.74,407.29ZM352,415.11a2.17,2.17,0,0,0,0-.25,17.17,17.17,0,0,1-7.44-2.49c2.35.29,4.51,1.65,7,1.62-1.27-.48-2.43-.89-3.57-1.35-1.58-.64-3.18-1.24-4.71-2a36.31,36.31,0,0,1-5.29-3.06c-1.87-1.4-3.53-3.16-5.3-4.75a9.46,9.46,0,0,0-1-.72l-.78-.95-.17.22.95.73c0,.15,0,.3,0,.47l-1.15-.57c-.15.47-.27.86-.42,1.32l-2.66-2.05a1.44,1.44,0,0,0,.41.91c1.08,1.17,2.2,2.29,3.24,3.49a20.09,20.09,0,0,0,5.87,4.69c1.41.74,2.85,1.46,4.21,2.31a16.05,16.05,0,0,0,5.93,2.26s.09-.1.13-.15l-.59-.58c.93.24,1.77.71,2.65.88A14.09,14.09,0,0,0,352,415.11Zm-19.4-75.7a2.59,2.59,0,0,0-.34.52,2.56,2.56,0,0,0,0,2.34c.39.4,1.32.24,2-.49a28,28,0,0,0,2.26-2.92,28.06,28.06,0,0,1,8.34-8.59c.82-.52,1.62-1.11,2.41-1.69s1.76-1.36,2.64-2a1.07,1.07,0,0,0,.56-1.27,8.24,8.24,0,0,0-1-.26c-2-.25-3.75.74-5.31,2A75.2,75.2,0,0,0,332.64,339.41Zm-4.42,70.87a8.64,8.64,0,0,1-1.46-1.44c-1-1.26-2-2.52-2.88-3.87a8.67,8.67,0,0,0-3.2-2.82l.42,1.13a1.91,1.91,0,0,1-.81-.61l-.83-.89a5.31,5.31,0,0,0,.94,2.82c1.77,3,4.22,5.21,6.49,7.63a2.09,2.09,0,0,0,.28.24c1.36,1,2.73,2,4.09,3.1s2.64,2.2,4.33,2.45c.56.09,1.13.06,1.69.18s1.15.43,1.75.54a1,1,0,0,0,1.32-.49l-1.81-1A97,97,0,0,1,328.22,410.28Zm-8.67-28.73c.24.07.71,0,.78-.19a18.06,18.06,0,0,0,1-2.87c.21-.9.15-1.89.38-2.78.46-1.75.17-3.76,1.41-5.19-1.23-1.46-1.86-1.92-3-1.86a12.7,12.7,0,0,0-1.85.5,1.32,1.32,0,0,0-1,1.18,24.88,24.88,0,0,0-.59,7.45A4.25,4.25,0,0,0,319.55,381.55Zm43.14-53a3.63,3.63,0,0,0-3.91,1.07c-1.11,1.06-2.26,2.06-3.42,3-.82.7-1.73,1.28-2.53,2-2.55,2.27-5.07,4.58-7.59,6.89a1.72,1.72,0,0,0-.69,1.76c1.79.57,2.4.4,3.63-.92,1-1,1.93-2.11,3-3a74.22,74.22,0,0,1,9.27-7.13,15.65,15.65,0,0,0,2.61-2.3C363.64,329.28,363.49,328.79,362.69,328.52ZM366,404.05c1.07.32,2.12.7,3.2.93.7.16,1.14-.3,1.27-1.11a8.76,8.76,0,0,0,0-1l-.65-.07a20,20,0,0,1-7.39-2.07c-1-.52-2-1-3-1.49a36.86,36.86,0,0,1-6.8-4c-.3-.22-.63-.38-.94-.57l-.13.21,1.3,1.53c-.74-.08-1.35-.58-1.92-.55a2.11,2.11,0,0,1-1.52-.67c-.26-.2-.51-.43-.76-.65l-.14.19,1.93,2-.1.19-1.52-.57-.09.28,1.73.92c1.89,1,3.8,2,5.69,3,1.71.94,3.39,2,5.1,2.91a25.84,25.84,0,0,0,4.37,1.55l.08-.24-1.13-.93.09-.24C365.12,403.75,365.57,403.91,366,404.05ZM337.54,382.4a13.07,13.07,0,0,1-.45-3.84c.06-.86,0-1.74,0-2.6s.21-1.61.29-2.42.1-1.35.15-2l-.57-.16a2.84,2.84,0,0,0-3.21,1.29,8.11,8.11,0,0,0-.35,1.47,20.31,20.31,0,0,0-.79,6.26,4.86,4.86,0,0,0,.92,3.09,2.57,2.57,0,0,0,2.57,1.28C337.59,384.49,337.92,384,337.54,382.4Zm-8.69,26.69c1,.83,2,1.49,3.08,2.22.87.62,1.72,1.3,2.62,1.85,1.86,1.1,3.77,2.07,5.61,3.21a6.82,6.82,0,0,0,5,.76.75.75,0,0,0,.7-.74c-1.38-.59-2.76-1.09-4.07-1.77-1.9-1-3.76-2.1-5.63-3.15a19.17,19.17,0,0,1-5.31-4.23c-.77-.91-1.58-1.77-2.38-2.64-.26-.28-.56-.53-.84-.8l-.18.19c.11.16.23.31.33.48s.21.37.31.55l-.14.2-3.91-2c.89,1.17,1.71,2.32,2.6,3.41A17.69,17.69,0,0,0,328.85,409.09Zm-6.35-28.85c.14,2.19,1.8,3.55,3.81,3.05a18.15,18.15,0,0,0,.57-2.41c.16-1.76.16-3.54.31-5.3a15,15,0,0,1,.53-2.75c.28-1-.22-2.26-1.15-2.39-1.89-.27-2.95.47-3.32,2.66a27.62,27.62,0,0,1-.51,2.91A12.07,12.07,0,0,0,322.5,380.24ZM379,338.37a27,27,0,0,0-7.22,3.45c-1.28.91-2.43,2.07-3.64,3.12-.36.31-.78.55-1.12.89-.76.77-1.5,1.57-2.22,2.39a1.31,1.31,0,0,0-.27.71c0,.32,0,.84.14.93a1,1,0,0,0,.92,0c1.83-1.4,3.62-2.86,5.44-4.29,1-.8,2.08-1.58,3.13-2.35a1.87,1.87,0,0,1,.54-.15c-1,1.56-2.78,2.2-3.42,4.1a8,8,0,0,0,1.12-.88c1-.83,1.92-1.72,2.95-2.44,1.34-.91,2.74-1.7,4.13-2.5a6.11,6.11,0,0,0,2-2A2.11,2.11,0,0,0,379,338.37Zm-36.55,36.15a11.53,11.53,0,0,0-.51-2.24c-.19-.67-.69-.74-1.22-.68-.7.09-1.47-.08-2,.72a.67.67,0,0,0-.07.24,13,13,0,0,0-.39,2.28c0,2.45-.31,4.91.35,7.34a3.06,3.06,0,0,0,2.77,2.59c.92.09,1.28-.27,1.32-1.3s0-1.82,0-2.73h0C342.7,378.66,342.64,376.59,342.48,374.52ZM365.37,334c-.57.35-1.18.62-1.74,1-3.8,2.45-6.8,6-9.65,9.63a1,1,0,0,0-.12.67c0,.11.33.23.47.19a7.4,7.4,0,0,0,3.46-1.54c1.33-1.29,2.67-2.58,4.06-3.78a30,30,0,0,1,5.84-4.5,4.84,4.84,0,0,0,1.46-1,9.25,9.25,0,0,0,1-1.65c-.14-.66-.41-.9-.87-.87a3.94,3.94,0,0,0-2.47.83A12.93,12.93,0,0,1,365.37,334Zm-63.08,33.9c.07-1,.12-1.68.16-2.4a12.41,12.41,0,0,1,1.2-5.36,7.73,7.73,0,0,1,4.72-3.75c-.55-2.34-2.77-3.34-4.5-2.14a9.83,9.83,0,0,0-3.38,4.15,14.84,14.84,0,0,0-1,4.86,6.11,6.11,0,0,0,1.51,3.83C301.23,367.42,301.73,367.55,302.29,367.88Zm72.85,28.65c.49.09.93-.06.79-.8a15.47,15.47,0,0,1-2.51-.44c-1.35-.46-2.66-1.06-4-1.63-1.5-.64-3-1.31-4.48-2-.1-.05-.24,0-.62.07l1.83,1.18c-1.37-.19-2.45-.37-3.53-.47a2.83,2.83,0,0,1-1.61-.3l1.66,2.16-.12.14-1.75-1-.14.35c1,.48,1.92.95,2.87,1.45,2.35,1.24,4.72,2.44,7,3.77a5.46,5.46,0,0,0,3.34.38,1,1,0,0,0,.91-.81l-1.26-.71c.68-.58,1.69.82,2.07-.64-1-.17-1.92-.25-2.84-.5a4.48,4.48,0,0,1-2.56-1.38,11.78,11.78,0,0,1,1.2.33C372.67,396,373.9,396.3,375.14,396.53Zm-73.07-42.38c1.47-1.63,3.21-2.29,5.23-1.29.08,0,.21,0,.46-.09a7.77,7.77,0,0,0-.81-2.14,4.3,4.3,0,0,0-2-1.56,7,7,0,0,0-4.75,1,5.89,5.89,0,0,0-2.55,3.68,12.92,12.92,0,0,0-.08,6.15,7.66,7.66,0,0,0,.59,1.47l.3-.08c.13-.5.25-1,.39-1.48a9.28,9.28,0,0,1,.7-2.18A23.45,23.45,0,0,1,302.07,354.15Zm27-15.39a5.11,5.11,0,0,0-1,2.73c0,.55.09,1,.84,1.2,4.65-6.55,9.6-12.86,16.12-17.74-1.11-.47-1.93-.55-2.72.07-1.44,1.14-2.91,2.22-4.3,3.43A49.5,49.5,0,0,0,329.06,338.76ZM309.3,360.83a10.11,10.11,0,0,0,1.18-1,5.5,5.5,0,0,0-.22-.51c-.91-1.62-1.56-1.81-3-.9a5.8,5.8,0,0,0-1,.66,6.45,6.45,0,0,0-2,3.06,30.79,30.79,0,0,0-.66,5.66,6.36,6.36,0,0,0,1.23,4.45,1.77,1.77,0,0,0,2,.86c0-2.36-.06-4.69,0-7C306.87,363.89,307.5,362,309.3,360.83Zm6.51,11.09c.1-1.06.45-2.09.65-3.15a3,3,0,0,0-1-2.84,1.62,1.62,0,0,0-2.74.85,11.62,11.62,0,0,0-.64,2.34,40.56,40.56,0,0,0-.22,5,13.56,13.56,0,0,0,.58,3.15,1.61,1.61,0,0,0,.74.9,2.89,2.89,0,0,0,2.3.37c0-.34,0-.6,0-.85C315.57,375.79,315.62,373.85,315.81,371.92Zm-2.95-35.36c1.46.2,1.59.11,2.19-1.14a4.41,4.41,0,0,0,.38-3.24c-.44-1.51-.88-3-1.46-4.48a4.77,4.77,0,0,0-2-2.39,2,2,0,0,0-3,1.19c-.22.62-.33,1.31-.48,1.91A16.93,16.93,0,0,1,312.86,336.56Zm2.44-8.45c.48,1.59,1,3.15,1.58,4.9.29,0,.67.06,1.05.05a1.91,1.91,0,0,0,1.9-1.69,5,5,0,0,0,0-2.68c-.25-.81-.41-1.67-.7-2.46a10.11,10.11,0,0,0-2.61-4.34,1.61,1.61,0,0,0-2.46.22,6.62,6.62,0,0,0-.83,1.53,1.26,1.26,0,0,0,.3,1.49A7.23,7.23,0,0,1,315.3,328.11Zm55.16,6.49a5.61,5.61,0,0,1-2,1.81,11.3,11.3,0,0,0-1.71,1c-1.82,1.51-3.59,3.07-5.37,4.61-1.27,1.1-2.52,2.21-3.8,3.29-.27.23-.72.36-.54.83a1.14,1.14,0,0,0,.74.64,3.13,3.13,0,0,0,2.87-.88c.76-.72,1.48-1.5,2.26-2.19a76.11,76.11,0,0,1,9.07-7,3.16,3.16,0,0,0,1.54-2.35C372.33,333.73,371,333.78,370.46,334.6ZM332,372.2a1.62,1.62,0,0,0-3,.37,12.17,12.17,0,0,0-.88,4.52c-.06,2.11-.2,4.22-.32,6.4,1.24.77,2.5,1.4,4,.28-.07-.82-.13-1.68-.2-2.53a19,19,0,0,1,.65-6.94A2.17,2.17,0,0,0,332,372.2Zm13.95,11.61a11.8,11.8,0,0,0,2.06,0c1-.07,1.5-.77,1.42-1.94-.1-1.33-.19-2.67-.28-4h.07c0-.52,0-1,0-1.56a9.18,9.18,0,0,0-.58-3.4,1.16,1.16,0,0,0-1.28-.78,1,1,0,0,0-1.06.94c-.09.41-.21.82-.29,1.23-.36,1.76-.71,3.53-1.07,5.29a1.93,1.93,0,0,1-.19.47,2.94,2.94,0,0,0,.32,3.29A1.5,1.5,0,0,0,345.9,383.81Zm-37.49-9a2.18,2.18,0,0,0,2.38,1.65c-.5-6.65.17-9.33,2-12.38-.14-.29-.28-.64-.46-1-.84-1.5-2-1.66-3.14-.49a3.66,3.66,0,0,0-1,2,32,32,0,0,0-.15,8.79A7.1,7.1,0,0,0,308.41,374.8Zm54-42.63a8.65,8.65,0,0,1-1.21,1c-2.18,1.59-4.38,3.14-6.52,4.79-1.92,1.48-3,3.72-4.13,5.95a3,3,0,0,0-.11.7c.67.12,1.22.6,1.8,0a26.11,26.11,0,0,0,2.16-2.3,37.79,37.79,0,0,1,5.07-5.61,14.08,14.08,0,0,1,5.24-3.34,6.8,6.8,0,0,0,1.5-.93c-.18-.49-.31-.83-.43-1.14A3.25,3.25,0,0,0,362.43,332.17Zm11.81,82.55a35.47,35.47,0,0,0,4-.4,10.6,10.6,0,0,0,6.6-3.69,19.19,19.19,0,0,0-2.81.64,11.41,11.41,0,0,1-5.74.68c-2.57-.3-5.15-.53-8-.82.5.48,1.19.66.78,1.45-1,.26-2-.37-3-.76.87,1.38,2.36.74,3.46,1.81l-1.26.24c-.23,0-.57-.06-.66.08-.57.8-1.16.29-1.74.11-.28-.09-.55-.21-.82-.32l-.1.27a4.14,4.14,0,0,0,2.22.84C369.52,414.85,371.89,414.81,374.24,414.72Zm-20.91-31.59a5.52,5.52,0,0,0,.91-1.89,29,29,0,0,0,.51-4,18.74,18.74,0,0,0-.07-3.09c-.13-1.21-.61-1.62-1.68-1.53-.79.07-1.57.25-2.46.4a14.1,14.1,0,0,0-.32,2c0,1.29.14,2.6,0,3.89a6.61,6.61,0,0,0,1.33,4.15A1,1,0,0,0,353.33,383.13ZM369.27,379a12.31,12.31,0,0,0,.78-6.61c-.07-.6-.32-.94-.91-.89a6.29,6.29,0,0,1-1.37,0,1.26,1.26,0,0,0-1.45,1.13c-.29,1.21-.63,2.41-.82,3.64-.3,1.9-.09,3.91-1,5.61.73,1,1.31,1,2.13.55A7,7,0,0,0,369.27,379ZM304.11,332.8a2.63,2.63,0,0,1,2.45,1.11,20.09,20.09,0,0,1,3.82,6.72c.09.26.19.51.3.82a2.25,2.25,0,0,0,1.05-1.72,14.66,14.66,0,0,0,0-2.57,15.39,15.39,0,0,0-3.07-6.72,2.49,2.49,0,0,0-3.87-.31c-.32.31-.63.63-.92,1a2.11,2.11,0,0,0-.59,1.75C303.58,332.83,303.85,332.83,304.11,332.8Zm93.9-2.27c-1.33,1.72-2.68,3.42-4,5.14-1.83,2.37-3.72,4.65-6.27,6.06,1,1.13,1.54,1.29,2.69.68a8.86,8.86,0,0,0,1.27-.86,33.67,33.67,0,0,0,4.9-4.66,25.06,25.06,0,0,0,1.72-2.42c.39-.58.72-1.22,1.14-1.77a3.14,3.14,0,0,0,.36-2.93A1.85,1.85,0,0,0,398,330.53Zm-23.56,5.39a5.06,5.06,0,0,0-.8.68c-.51.45-1,.94-1.52,1.36-2.94,2.31-5.92,4.56-8.84,6.91a12.4,12.4,0,0,0-1.91,2.21,1.1,1.1,0,0,0-.12.93,1.2,1.2,0,0,0,1,.46,3.18,3.18,0,0,0,1.42-.76,53.66,53.66,0,0,1,4.44-4.23c.44-.33.76-.87,1.19-1.2a22,22,0,0,1,4.5-3,15.84,15.84,0,0,0,1.86-1c.72-.44,1.42-.94,2.27-1.5C375.93,335.28,375.8,335.24,374.45,335.92Zm-16.54-8.8a2.79,2.79,0,0,0-2.68.77c-1.16,1.3-2.28,2.66-3.4,4A39.72,39.72,0,0,1,346.2,337q-2.18,1.78-4.27,3.69a3.21,3.21,0,0,0-.58,1c0,1.14.4,1.41,1,1a2.36,2.36,0,0,0,.48-.35c1.15-1.14,2.28-2.29,3.44-3.41a68,68,0,0,1,8.49-7.47,34.89,34.89,0,0,0,2.78-2.27,3,3,0,0,0,.7-.84C358.56,327.88,358.36,327.19,357.91,327.12Zm12.76,52a1.33,1.33,0,0,0,.62,1.86,3.55,3.55,0,0,0,2.5-2.49A.91.91,0,0,1,374,378a12.5,12.5,0,0,0,2-3.28,7.75,7.75,0,0,0,.58-4.52,1,1,0,0,0-.8-1c-.86-.24-1.51.14-2.08,1.09-1,1.72-1.16,3.83-2,5.65C371.3,377,371.07,378.08,370.67,379.08Zm-47.73-49.89a4.9,4.9,0,0,0,1.44-2.73,1.25,1.25,0,0,0,0-.51,13.71,13.71,0,0,0-2.73-5.77,1.94,1.94,0,0,0-1.07-.64,2.93,2.93,0,0,0-3,1.42,14.82,14.82,0,0,1,3.57,9.1A6,6,0,0,0,322.94,329.19Zm17.93,26.17c-.18.57-.28.92-.38,1.26a33.9,33.9,0,0,0,2.46-3.19c1.25-1.86,2.49-3.72,3.64-5.65a4.56,4.56,0,0,0,.87-2.7,3.87,3.87,0,0,0-.77-.13,3.3,3.3,0,0,0-2.49,1.44,38,38,0,0,0-2.8,4.25c-1.56,3-3,6-4.46,9.06-.14.28-.23.59-.35.88a.49.49,0,0,0,.44-.23c.77-1.17,1.55-2.34,2.3-3.54A3.35,3.35,0,0,1,340.87,355.36Zm16.8,38c0,.58-.06,1.08-.09,1.66l3,1.44a2.17,2.17,0,0,1-.07.24l-2.62-.53c.08.38.72.61,0,1,2.19,1,4.27,2,6.36,2.9a18.15,18.15,0,0,0,5.36,1.27,2.93,2.93,0,0,0,2.11-.4Zm-34.74,16.6c-1.53-1.73-2.75-3.81-4.12-5.72a12.14,12.14,0,0,0-.81-.94,1.34,1.34,0,0,1-.11.14c.06.24.11.48.16.72l-.17.07-2-3.12c-.13.24-.15.38-.1.48.81,1.77,1.62,3.53,2.45,5.28a4.6,4.6,0,0,0,.48.73c1.44,1.86,2.86,3.72,4.31,5.56a12.45,12.45,0,0,0,5.93,3.92,15.94,15.94,0,0,0,2.11.44c-1.26-1.13-2.38-2.29-3.64-3.21A29,29,0,0,1,322.93,409.94ZM375,379.55c1.62.16,2.8-1,3.73-2.14a17.68,17.68,0,0,0,3.34-5.85,5.58,5.58,0,0,0,.29-1.62c0-2-.46-2.38-2.13-1.62l-.21.1a3.49,3.49,0,0,0-2,3.48,5,5,0,0,1-.07,1,13.41,13.41,0,0,1-2.66,5.78,7,7,0,0,0-.41.69C375,379.5,375,379.54,375,379.55Zm-70.2.38a7.28,7.28,0,0,0-1.37-3l.59,2.5-.17.07c-.55-1.51-1.11-3-1.77-4.82-.08.72-.12,1.13-.16,1.53l-.11,0c-.21-.86-.42-1.72-.64-2.59-.36.58-.38.59-.3,1.13.16,1.06.32,2.13.54,3.18,1.06,5.17,3.64,9.37,6.6,13.33a3.29,3.29,0,0,0,1.48,1.16c-.51-1.16-1.23-2.16-1.64-3.3C306.76,386.12,305.73,383,304.81,379.93Zm95.81-43.2c.58-1.18,1.45-2.28,1.24-3.81-.05-.36.09-.83-.38-.94s-.58.2-.79.56a28.13,28.13,0,0,1-2.13,3.52c-1.09,1.44-2.31,2.74-3.51,4.07a10.63,10.63,0,0,1-1.38,1.13c-1.1.85-2.29,1.59-2.53,3.29.72.93,1.22,1.06,2,.43A22.91,22.91,0,0,0,396,342.6C397.66,340.78,399.47,339.07,400.62,336.73ZM358,383.63a5.08,5.08,0,0,0,1.4-2.92,16.87,16.87,0,0,0-.61-6.29c-.68-2.18-1.13-2.31-3.11-1,.66,2.43.22,4.85,0,7.24a3.63,3.63,0,0,0,.62,2.74C356.82,384.14,357.47,384.28,358,383.63ZM298.92,344.2a4.29,4.29,0,0,1,1.22-.66c2.49-.38,5-.56,6.84,1.95a7.06,7.06,0,0,0,1.28,1.07,2.78,2.78,0,0,0,.45-2.24,4.19,4.19,0,0,0-1.1-1.91,6,6,0,0,0-7-2.22,4.45,4.45,0,0,0-1.14.82c-1.05.88-1.32,2.27-1.77,3.64C298.19,344.78,298.53,344.41,298.92,344.2Zm-1.41,7.48c.9-1.75,2-3.13,4-3.31a7.58,7.58,0,0,0,.76-.26c1.67-.44,3.32-.72,4.73.82a2,2,0,0,0,.5.27,4.08,4.08,0,0,0-2-3.81,4.8,4.8,0,0,0-1.76-.86,6.47,6.47,0,0,0-5.45,1.29,1.57,1.57,0,0,0-.66,1.13c-.1.85-.33,1.69-.41,2.54s0,1.6,0,2.4l.21.15A2.15,2.15,0,0,1,297.51,351.68Zm91.89-26a7.23,7.23,0,0,0-1.18-.08c-.77,1.13-1.35,2.09-2,2.95s-1.6,1.73-2.35,2.65c-1.28,1.56-2.6,3-4.46,3.61.11,1.47.51,1.86,1.63,1.7a1.56,1.56,0,0,0,.55-.15,13.16,13.16,0,0,0,3.7-2.51,37.9,37.9,0,0,0,4.19-6.13,4.71,4.71,0,0,0,.43-1.06A.68.68,0,0,0,389.4,325.66Zm-.83,79.9-.09-.13c-1,.32-2,.58-2.91,1A16,16,0,0,1,378,408a21.17,21.17,0,0,0-5,.53l1.89.8c-1.58.65-3-.13-4.54-.08a6.91,6.91,0,0,0,5.77.77c-.07.26-.12.45-.19.73a9.62,9.62,0,0,0,4.43-.23c1.08-.42,2.22-.59,3.33-.91a3.4,3.4,0,0,0,1.38-.57C386.29,407.93,387.42,406.72,388.57,405.56Zm-77.91-21.11a34.32,34.32,0,0,0,5,9.5,4.77,4.77,0,0,0,4.33,2c-.65-.82-1.29-1.72-2-2.52a20.5,20.5,0,0,1-5.28-10.54,3.63,3.63,0,0,0-1.13-2.05c.21,1.08.4,2,.58,3l-.14,0-1.45-2.95c-.07.41-.13.74-.22,1.31-.3-.59-.48-1-.65-1.3a3.73,3.73,0,0,0,.21,1.62C310.15,383.19,310.45,383.8,310.66,384.45Zm26.91-36.55c-1.51,2.8-3.23,5.46-4.51,8.42a3.91,3.91,0,0,0,0,2.95,6.5,6.5,0,0,0,.71-.79c.57-.92,1.13-1.84,1.67-2.79,1.54-2.73,3-5.51,5.23-7.66a10.38,10.38,0,0,0,1.33-1.94,1.46,1.46,0,0,0,.09-1.53,4,4,0,0,0-2.75,1A9.84,9.84,0,0,0,337.57,347.9ZM309,342c0-.17.1-.24.09-.32a4.46,4.46,0,0,0-.07-.51,11.88,11.88,0,0,0-2.7-5.76,2.69,2.69,0,0,0-4.24-.51c-.34.28-.65.61-1,.85a3.64,3.64,0,0,0-1.5,3.7C303.27,337.54,306.36,338.67,309,342Zm52.27,41.1c1.35,0,1.93-.55,2.17-2.05a8.07,8.07,0,0,0,.17-1.54c0-1.94-.15-3.88-.19-5.82,0-1.48-.78-2-2.09-1.39-.21.11-.42.2-.62.33-.76.5-.82.79-.63,1.77.56,2.79,1.06,5.59-.05,8.58C360.49,383.07,360.87,383.14,361.24,383.14Zm-38-64.59c-.47.48-.43,1.15.13,2.06a14.56,14.56,0,0,1,2.25,6.95l.62.12A2.08,2.08,0,0,0,328.5,325a8.6,8.6,0,0,1-.08-.9,12.12,12.12,0,0,0-2.5-5.87C325.2,317.32,324.3,317.48,323.25,318.55Zm13.38,25.72c-1.05-.09-2.67,1.67-3.05,2.79a26.68,26.68,0,0,1-1,2.49,37.52,37.52,0,0,0-2.4,8.38c.59.53.9.29,1.15-.29.68-1.49,1.33-3,2.08-4.46,1.28-2.49,2.64-4.94,3.94-7.42C337.89,344.8,337.59,344.35,336.63,344.27Zm53.82-16.13c-.86,1.42-1.69,2.88-2.62,4.25a12.39,12.39,0,0,1-4.39,4.25,2.3,2.3,0,0,0-.49.32,1.06,1.06,0,0,0-.16,1.28,1.4,1.4,0,0,0,1.94.48,22.46,22.46,0,0,0,2.53-2.15c.77-.77,1.41-1.71,2.15-2.51,1.36-1.46,2-3.44,3-5.16a5.75,5.75,0,0,0,.37-1.56A1.89,1.89,0,0,0,390.45,328.14Zm-9.8,13.8a24.22,24.22,0,0,1-3,1.92,18.64,18.64,0,0,0-5,3.76,10,10,0,0,1-1.33,1c-1.25,1-2.49,1.94-3.75,2.92.37.54.67.66,1.06.31,1-.94,2.08-1.89,3.14-2.8.66-.57,1.36-1.09,2.06-1.6.1-.08.3,0,.56,0a14.36,14.36,0,0,0-2.32,3.25c.76,0,1.1-.61,1.51-1a33,33,0,0,1,10-6.9c.55-.25,1.06-.6,1.64-.93-.79-.83-.88-.87-1.61-.74a10.84,10.84,0,0,1-1.58.26A2.32,2.32,0,0,0,380.65,341.94Zm-17.17-21.67a1.56,1.56,0,0,0,1.66-1.27,13.56,13.56,0,0,0,.75-4,6.43,6.43,0,0,0-.24-1.52c-.09-.29-.35-.69-.57-.72a4.27,4.27,0,0,0-3.62.64,1.14,1.14,0,0,0-.32.85,12.29,12.29,0,0,1-.44,5.39A15.86,15.86,0,0,0,363.48,320.27Zm18.29,94.27c-5.86,1.74-11.64,1.54-17.45,1.23l1,1c-1.14.13-1.87-.72-2.64-.72-1,0-1.6-.92-2.8-.81a10.11,10.11,0,0,0,1.1.82,11.9,11.9,0,0,0,4.26,1.41c1.25.14,2.5.3,3.76.37a29.46,29.46,0,0,0,5.14.12,30,30,0,0,0,5.34-1.38A4.21,4.21,0,0,0,381.77,414.54ZM378.71,349a11.69,11.69,0,0,1,5.15-2.32,15.28,15.28,0,0,0,3.66-1.39,5.43,5.43,0,0,0,1.07-.9,2.52,2.52,0,0,0-2-1.12,8.75,8.75,0,0,0-5.14,1.87c-2.41,1.71-4.67,3.71-7,5.63a18,18,0,0,0-1.47,1.54l.16.3a6,6,0,0,0,1.24-.48C375.84,351.16,377.26,350.08,378.71,349Zm-50.39-31.93a8.13,8.13,0,0,0-1,1,37.15,37.15,0,0,1,1.56,3.52c.39,1.19.58,2.47.88,3.84a17.38,17.38,0,0,0,2-.17c1.1-.22,1.41-.69,1.34-2a7.08,7.08,0,0,0-.24-1.53,15.19,15.19,0,0,0-1.87-4A1.93,1.93,0,0,0,328.32,317.11Zm48.47,5.76c-1.64,1.63-3.3,3.22-5,4.79-.59.55-1.25,1-1.84,1.54-.18.16-.39.56-.33.71a1,1,0,0,0,.64.56,2.48,2.48,0,0,0,1.23-.2,17.34,17.34,0,0,0,5-3l4.35-4a3.66,3.66,0,0,0,.3-.52,7.22,7.22,0,0,1-1.66.23,7.9,7.9,0,0,1-1.64-.5C377.43,322.28,377.13,322.53,376.79,322.87Zm25.92,11.84c-.59,1.21-1.16,2.43-1.76,3.63-.94,1.89-2.51,3.12-3.77,4.69a6.2,6.2,0,0,1-2.37,2,1.61,1.61,0,0,0-1,1.71,6.33,6.33,0,0,0,2.11-.21,9.47,9.47,0,0,0,4.27-3.35c1.17-1.81,2.29-3.65,3.3-5.6.73-1.41.12-2.47-.16-3.72A2.78,2.78,0,0,0,402.71,334.71Zm-69.39-18.63c-1.48.44-1.61.57-.79,2a11.62,11.62,0,0,1,1.79,6.27,15.08,15.08,0,0,0,1.81.11,2.1,2.1,0,0,0,1.75-2.7,13.82,13.82,0,0,0-1.93-4.5A2.08,2.08,0,0,0,333.32,316.08Zm61.12,48.31c-1.82.05-3,1.34-3.15,3.32a10.91,10.91,0,0,1-.55,2.47c-.56,1.63-1.19,3.22-1.82,4.91a4,4,0,0,0,.51.1,4.09,4.09,0,0,0,3.45-2.39,10.88,10.88,0,0,0,1.43-4.31A11.77,11.77,0,0,0,394.44,364.39Zm-44.43-50a1,1,0,0,0-.79-.38,7.36,7.36,0,0,0-1.8.35,1.38,1.38,0,0,0-.79,1.74,14.89,14.89,0,0,1,1,4.65,4.46,4.46,0,0,0,3.93.24,10.9,10.9,0,0,0-.29-4.49A7.41,7.41,0,0,0,350,314.39Zm-24.46,80.93a25.49,25.49,0,0,0,2.76,2.24,1.76,1.76,0,0,0,1.12.13.85.85,0,0,0,.65-.4,1,1,0,0,0-.18-.78,36.58,36.58,0,0,1-4.17-6.48,1.61,1.61,0,0,0-.53-.55c-.45.43-.6-.33-1.11-.35l1.45,2.82c-.68-.1-1-.6-1.29-1-.14-.18-.35-.48-.46-.45-.83.23-1.2-.49-1.56-1a4.66,4.66,0,0,0-2.4-2.06,29.69,29.69,0,0,0,3.5,5.32C324.06,393.59,324.75,394.53,325.55,395.32Zm69.26-65.75c-.95,1.4-1.9,2.82-2.94,4.13a8.73,8.73,0,0,1-2.31,2.27,11.58,11.58,0,0,0-2.12,1.82,4.69,4.69,0,0,0-1.24,2.67,3.28,3.28,0,0,0,3.23-1.27,39,39,0,0,0,4.24-4.88c.8-1.25,1.65-2.46,2.4-3.75a9.25,9.25,0,0,0,.57-1.89A2,2,0,0,0,394.81,329.57Zm-20.54.75c-.92.5-.92.5-.74,1.78a4.54,4.54,0,0,0,4.15-1.2c1.88-1.69,3.71-3.45,5.53-5.21a4.85,4.85,0,0,0,1.26-2.12,1.16,1.16,0,0,0-.39-.08,7.71,7.71,0,0,0-4.14,2.28A26.73,26.73,0,0,1,374.27,330.32Zm-53.65,2.18c-.71,1.77-1.77,2.93-3.6,2.62a33.74,33.74,0,0,0-3.17,10.93,2,2,0,0,0,1.62-1.07,32.86,32.86,0,0,0,1.59-3.71,26.56,26.56,0,0,1,5.18-9.26c.15-.18.29-.4.56-.78a15.94,15.94,0,0,0-1.5.63A1.56,1.56,0,0,0,320.62,332.5Zm28,87.52-.07.11,2.25,1.81a2.44,2.44,0,0,1-.1.24l-1.66-.64c-.21-.08-.54-.29-.63-.2-.65.62-1.23.15-1.8-.11s-.73-.13-1,.4l1.28.54c2.75,1.12,5.66,1.41,8.49,2.06a35.88,35.88,0,0,0,8.9.51,14.38,14.38,0,0,0,2.21-.43,83.92,83.92,0,0,1-9.29-1.21A79,79,0,0,1,348.58,420Zm21.21-106.74c-1,0-2-.25-2.84.45,0,.59.09,1.11.07,1.62a13.22,13.22,0,0,1-.19,1.54c-.06.34-.19.66-.23,1a3,3,0,0,0,1.4,2.82,2,2,0,0,0,2.71-1.45,12.1,12.1,0,0,0-.37-5.25C370.25,313.72,370,313.3,369.79,313.28Zm-45,83.28c-.4-.54-.65-.91-.93-1.25A37.55,37.55,0,0,1,321.2,392c-1.18-1.85-2.2-3.84-3.27-5.78-.24-.42-.37-.95-1.08-.84.29.62.59,1.16.8,1.75s.76.94.45,1.87l-1.53-2.28c-.07.07-.16.19-.17.17-1-.75-1.3-2.2-2.38-3.32.19.66.31,1,.42,1.44a17.78,17.78,0,0,0,4.27,7.27c1.07,1.17,2.24,2.22,3.4,3.26A4.73,4.73,0,0,0,324.82,396.56Zm-12.24-5.11a33,33,0,0,1-4.19-10.73,3.09,3.09,0,0,0-.37-.78l-.22.08-.09,1.23-.16.07-.7-1.4-.75.48c1.22,3.4,2,7,3.86,10.09a8,8,0,0,0,4.22,3.73C313.58,393.17,313.09,392.3,312.58,391.45Zm27.47-75.95c-1.33-1.3-2.39-1-3.35.78a14.66,14.66,0,0,1,2.42,6.64l2.61-.23a12.16,12.16,0,0,0-.4-5.25A5.18,5.18,0,0,0,340.05,315.5Zm46.07,52.68c0-.29-.23-.8-.41-.84a3.49,3.49,0,0,0-1.67,0c-.54.18-.62.83-.53,1.43a7.65,7.65,0,0,1-.91,4.85c-.55,1.07-1.15,2.11-1.74,3.17.44,1.23.78,1.46,1.9.58a7.82,7.82,0,0,0,1.52-1.71c1-1.41,1.16-3.19,1.63-4.82A9.89,9.89,0,0,0,386.12,368.18ZM421.7,345.5c-.59.22-.63.75-.67,1.34a2.66,2.66,0,0,0,.38,1.71,6.1,6.1,0,0,1,.55,1.28,17.05,17.05,0,0,1,1,5.76,2.37,2.37,0,0,0,1.92-1.85,13.16,13.16,0,0,0,.33-3.06,7.63,7.63,0,0,0-1.93-4.85A1.28,1.28,0,0,0,421.7,345.5Zm-71.43,79.14a20.55,20.55,0,0,1-5.61-2.16,18.24,18.24,0,0,0-2.12-.92c.19.92,1.19.79,1.28,1.77l-1.78-.81c.24.45.35.64.47.86l-.47.16a.35.35,0,0,0,0,.13,11.47,11.47,0,0,0,6.83,2.55c.92,0,1.83.18,2.74.19,2.11,0,4.23,0,6.34,0,0-.07,0-.14,0-.21-.62-.09-1.25-.14-1.86-.27C354.16,425.53,352.2,425.14,350.27,424.64Zm26.64-32.33a5.52,5.52,0,0,1-4.07-1.19,10.49,10.49,0,0,0-.88-.6,8.34,8.34,0,0,0-3-1.24c.39.71,1.4.58,1.73,1.67a3.49,3.49,0,0,1-.75-.19c-.77-.37-1.52-.8-2.3-1.15-.2-.09-.47,0-1,0l1,1.07c-.76-.28-1.28-.44-1.76-.66a11.52,11.52,0,0,0-1.24-.67,3.31,3.31,0,0,0-1.12.06l-.09.27c1,.46,1.93,1,2.92,1.38,1.27.57,2.56,1.09,3.85,1.62s2.29,1,3.45,1.37a3.37,3.37,0,0,0,3.43-.45C377.09,393.2,377,392.8,376.91,392.31Zm-.37-59.26c.15.72.54.74.93.74a4.74,4.74,0,0,0,3.81-1.42c1.61-1.78,3.2-3.6,4.78-5.41a4.27,4.27,0,0,0,.55-.83c.24-.41.43-.87,0-1.29s-.84-.32-1.22.08c-.52.56-1,1.18-1.55,1.71C381.54,328.93,379.33,331.38,376.54,333.05Zm-8.19-10.65c-.32,0-.74-.08-1,.11a10.43,10.43,0,0,0-3.13,3.91,5.68,5.68,0,0,0-.25,1.09l1.69.62a3.09,3.09,0,0,0,.52-.38,17.54,17.54,0,0,1,4-3.12,29.07,29.07,0,0,0,3-2.3l-2.06-1.13-.11.19c.07.17.13.33.22.53A4.28,4.28,0,0,1,368.35,322.4Zm33.42,39.84a1.84,1.84,0,0,0-.53-1c-.3-.24-.92-.49-1.08-.33a3,3,0,0,0-1.11,2.41,15.73,15.73,0,0,1-1,8c1.33,0,1.92-1.08,2.58-1.93C402.27,367.31,402.42,364.84,401.77,362.24Zm-71.48-15.76c-.27,1.09-.54,2.17-.79,3.26-.41,1.85-.84,3.7-1.2,5.56a4.4,4.4,0,0,0,.09,1.65c0,.24.34.43.71.84.25-1,.45-1.67.6-2.37a33.4,33.4,0,0,1,2.06-6.47c.67-1.59,1.24-3.24,1.92-5A2.92,2.92,0,0,0,330.29,346.48ZM324,368.28c.55-.87,1-1.66,1.53-2.47a2,2,0,0,0,.2-.6c.42-1.52.9-3,1.24-4.58a8.14,8.14,0,0,0,0-2.15c0-.17-.21-.47-.31-.46a6.43,6.43,0,0,0-1.76.3c-.23.08-.37.58-.47.92-.2.65-.34,1.32-.51,2a22.34,22.34,0,0,0-.83,6.35Zm94.85-8.78a13.07,13.07,0,0,0-.87-6.44c-.56-1.22-1.71-1.36-2.43-.25a15.12,15.12,0,0,0-.73,1.45c1.5,2.12,1.51,4.67,1.69,7.15C418,361.2,418.76,360.65,418.83,359.5Zm-64.7,59.1.82,1-1.35-.31c0,.16-.05.31-.08.5l-1.81-.44-.06.3a1.28,1.28,0,0,0,.11.2,1.11,1.11,0,0,0,.3.17,32.32,32.32,0,0,0,7.53,2.09c1.75.14,3.5.3,5.25.43q2.28.16,4.56.27a5.62,5.62,0,0,0,1.13-.17v-.33c-5.6-.25-11-1.22-16-4.28Zm-30-63.5c.53-.17.65-.62.75-1.17.46-2.37.93-4.73,1.45-7.08.22-1,.57-2,.87-3a2.09,2.09,0,0,0-2.33.84,6.19,6.19,0,0,0-.41,1.3,19.22,19.22,0,0,0-1.43,8.17C323.09,355.1,323.38,355.34,324.14,355.1Zm80.43-12.17c-.63,1-1.19,1.68-1.61,2.49a14.4,14.4,0,0,1-2.41,3.28,12,12,0,0,0-1.35,1.58,5.05,5.05,0,0,0-.75,1.57c-.2.85.44,1.41,1.17,1.1a2.37,2.37,0,0,0,.5-.32,22.74,22.74,0,0,0,4.26-4.49,2.36,2.36,0,0,0,.46-1.68C404.73,345.35,404.66,344.23,404.57,342.93Zm-29.12-29.39a2.43,2.43,0,0,0-2.32-.17c-.16.08-.38.19-.44.35a12.41,12.41,0,0,0-.73,2.56c-.12,1.24,0,2.49,0,3.81l1.45.82a7.2,7.2,0,0,0,1.15-1.44,25.73,25.73,0,0,0,1.22-3.35,5.62,5.62,0,0,0,.15-1.79A1.1,1.1,0,0,0,375.45,313.54Zm-33.05,1.85a1.12,1.12,0,0,0-.2,1.17,14.53,14.53,0,0,1,.6,2.61c.14,1,.15,2.05.23,3.3.8-.09,1.52-.14,2.22-.26.9-.15,1.18-.5,1.15-1.56a7.68,7.68,0,0,0-1.7-5.18A1.51,1.51,0,0,0,342.4,315.39ZM375.22,406c-.39,0-.79-.1-1.27-.16a2.14,2.14,0,0,0,1.8,1,20.89,20.89,0,0,0,7.37-.71,8.66,8.66,0,0,0,3.77-2c-2,0-3.91.16-5.84.06s-3.79-.46-5.68-.71l-.06.28c.9.73,2.16.52,3.16,1.3a5.74,5.74,0,0,0-1.62.59A2.16,2.16,0,0,1,375.22,406Zm38-77.1a2,2,0,0,0,2.57,2,12,12,0,0,1,1.72-8c-.57-.55-1.08-1.14-1.78-.7a5.23,5.23,0,0,0-1.4,1.3A7.33,7.33,0,0,0,413.18,328.86Zm10.37,6.56c.77-2.27,1.44-4.65,4.21-4.79a2.39,2.39,0,0,0-.05-.5,9.76,9.76,0,0,0-.42-.93c-1.14-2.27-2.27-2.41-3.78-.48A5.07,5.07,0,0,0,423.55,335.42Zm-44.19,53.71-.54-.06a7.53,7.53,0,0,1-4.14-1.24c-1-.72-2.15-1.29-3.23-1.94-.25-.14-.49-.3-.63.15l1,1.2-1.27-.19.41.59-.09.31-2.26-.78-.09.25c.36.21.7.44,1.06.63,1.31.69,2.69,1.24,3.93,2.06,1.54,1,3.15.91,4.78.76C379.14,390.79,379.41,390.26,379.36,389.13Zm-9.42,30.14c-2.19-.22-4.37-.58-6.56-.85-.91-.11-1.7-1.1-2.75-.33-.27.19-.76-.36-1.3,0-.3.22-1-.24-1.5-.37a3.28,3.28,0,0,0-.63,0,2.13,2.13,0,0,0,1,.76c1,.32,2,.62,3,.89a31.33,31.33,0,0,0,11.09,1.22,7.62,7.62,0,0,0,2.67-.71c0-.13,0-.26,0-.39C373.28,419.42,371.6,419.43,369.94,419.27Zm59-72.22c1-1.9,1.1-2.34.85-4.14a23.86,23.86,0,0,0-.55-2.92,6.84,6.84,0,0,0-.72-1.61,1.15,1.15,0,0,0-.52-.48,2.3,2.3,0,0,0-2.2.77,3.13,3.13,0,0,0,.38,2.61,8.06,8.06,0,0,1,2.32,4.23C428.62,346,428.78,346.49,428.94,347.05ZM328.4,344.38a6.55,6.55,0,0,0-.92,1.9c-.62,2.85-1.16,5.73-1.71,8.6a1.77,1.77,0,0,0,.43,1.65,2.88,2.88,0,0,0,1.24-2.1c.41-1.89.86-3.76,1.3-5.64.4-1.66.82-3.31,1.24-5A1.15,1.15,0,0,0,328.4,344.38ZM357.22,314c-.65.27-.77.8-.67,1.55a23,23,0,0,1,.2,3.22c0,1.13.13,1.37,1.13,1.3.34,0,.67-.13,1-.18a.79.79,0,0,0,.72-.7c.19-1.05.39-2.1.54-2.9-.07-.8-.13-1.31-.17-1.82-.06-.74-.5-1.14-1.07-1.07A6,6,0,0,0,357.22,314Zm69.37,38.2a4.66,4.66,0,0,0,1.25-3.82,12.44,12.44,0,0,0-1.36-4.91,7.8,7.8,0,0,0-1.51-1.73c-.16-.16-.65-.21-.7-.12a13.37,13.37,0,0,0-.84,1.94c-.21.57.22.83.53,1.15a9.45,9.45,0,0,1,2.56,6.31ZM388,347.42l.1.21L386,349.7c1.89-.41,3.26-1.75,4.94-2.81-.27-.42-.43-.94-.69-1a1.71,1.71,0,0,0-1.41.07,15.47,15.47,0,0,1-4.29,2.08c-2.22.9-4,2.59-5.93,4,0,.14.08.28.11.42a5.88,5.88,0,0,0,2.3-.37c2.16-1.37,4.22-2.94,6.33-4.42A2.89,2.89,0,0,1,388,347.42Zm12.57-3.17c-1.33,1.73-2.9,3.22-4.46,4.92a1.79,1.79,0,0,0,2.09,0,16.79,16.79,0,0,0,4.19-4.7c.64-1.06,1.39-2,2.17-3.16-.07-.78-.15-1.7-.25-2.69C403,340.57,401.87,342.53,400.53,344.25Zm19.67-10.46c.27.54.54,1.18,1.37,1-.05-.52-.07-1-.15-1.53a6.43,6.43,0,0,1,1.28-5.17c.18-.22.39-.42.57-.64.5-.63.49-.83,0-1.68-.42-.66-.84-.89-1.33-.48a5.81,5.81,0,0,0-1.66,1.9A7.35,7.35,0,0,0,420.2,333.79Zm-31.45,38.42a15.83,15.83,0,0,1,.88-2.39,6.61,6.61,0,0,0,.54-3.14c0-.46-.05-.87-.5-1s-.74.12-1,.47c-.73,1-1.61,2-1.29,3.53a2.75,2.75,0,0,1-.18,1.14c-.47,1.72-1,3.43-1.52,5.37.38-.18.73-.23.94-.46A8.37,8.37,0,0,0,388.75,372.21Zm33-16.15a15.53,15.53,0,0,0-1.12-6.56c-.12-.32-.46-.78-.65-.76a1.54,1.54,0,0,0-1,.65,11.94,11.94,0,0,0-.74,1.87c1.52,2.05,1.78,4.61,1.89,7.31A2.65,2.65,0,0,0,421.78,356.06ZM390.4,401.25a10.24,10.24,0,0,1,1-.8c.29-.25.56-.54.83-.8l-.12-.4c-.58.18-1.16.33-1.72.56-2.13.85-4.28,1.59-6.58,1.17-.3-.05-.61-.06-.91-.1l-2.47-.32s0,.07,0,.11l2.86.74c-1.57.43-1.57.43-1.88,1.09l-5.53-.4,0,.26c.85.12,1.7.32,2.56.36,3.19.18,6.39.63,9.53-.54a2.38,2.38,0,0,1,.78-.17A2.32,2.32,0,0,0,390.4,401.25Zm-35.06-86.48a1.39,1.39,0,0,0-2.19-1c-.43.32-.81.73-1.25,1.13,1.11,1.7.87,3.65,1,5.49,2,.55,2.91-1.05,2.77-2.77C355.58,316.65,355.48,315.7,355.34,314.77Zm40.35,50.66a26.13,26.13,0,0,1-.36,3.86c-.23,1.26-.68,2.46-1.12,4,1.62-1.38,3.07-2.58,3.38-4.81.25-1.8.72-3.61,0-5.42C396,363.37,395.73,363.83,395.69,365.43Zm21-35.54a2.67,2.67,0,0,0,1.89,2.41,9,9,0,0,1,2-7.47,2,2,0,0,0-1.47-1.55c-.71-.08-1.18.64-1.53,1.35A10.41,10.41,0,0,0,416.73,329.89Zm-64.81,18.45a2.59,2.59,0,0,1-.48.72c-1.75,1.72-2.91,4-4.31,6-.4.57-.74,1.19-1.11,1.79l.23.2,1.36-1.7c.59-.73,1.17-1.47,1.78-2.18.2-.24.55-.63.72-.56.74.27,1-.38,1.39-.77.95-.93,1.88-1.88,2.83-2.81a2.18,2.18,0,0,0,.89-1.78A2.14,2.14,0,0,0,351.92,348.34Zm28.93-33.85a1.8,1.8,0,0,0-2.59,1.35c-.12.72-.16,1.46-.25,2.38a17,17,0,0,0,.31,2.12c.27,1,1.12,1.21,1.78.44a3,3,0,0,0,.63-1.19c.27-1.26.44-2.55.66-3.82A1.09,1.09,0,0,0,380.85,314.49ZM322,366.81a3.24,3.24,0,0,0,.11-.48A23,23,0,0,1,323.2,360a8,8,0,0,0,.32-1.77c0-.26-.07-.7-.22-.78a1,1,0,0,0-.85.06,1.27,1.27,0,0,0-.51.64,25.47,25.47,0,0,0-1.76,7.36c0,.36,0,.74.05,1.15Zm.21-21.68c-.7,1.81-1.46,3.62-2,5.5a14.54,14.54,0,0,0-.31,3.45c0,.75.3,1,1.19,1.06.84-3.51,1.68-7,2.55-10.69C322.86,344.32,322.43,344.57,322.21,345.13Zm35.69,5.46a2.49,2.49,0,0,0,.63-1.93c-.39,0-.76,0-1.14-.07a1.84,1.84,0,0,0-2,.94,18.08,18.08,0,0,1-1.53,1.75c-.95,1.11-1.9,2.24-2.83,3.38a5.3,5.3,0,0,0-.5.91l.17.17,4.61-3.83c-.22,1-1,1.68-1.1,2.73C355.52,353.25,356.76,352,357.9,350.59Zm39.78,37.83c-.77.41-1.33.67-1.85,1a14.2,14.2,0,0,1-4.95,1.92,24.36,24.36,0,0,1-6.81.55,2.16,2.16,0,0,0-.78.15c0,.11,0,.23,0,.34l3.89.52c-1.34.64-2.61.47-3.81.78a3.31,3.31,0,0,0,2.45.38,56.43,56.43,0,0,0,5.53-1.49,15.65,15.65,0,0,0,2.44-1.38c.95-.52,1.91-1,2.88-1.5A1.78,1.78,0,0,0,397.68,388.42Zm-13.4-67.56a21.64,21.64,0,0,1,.72-6.18,8.41,8.41,0,0,0-.93-.28,1.51,1.51,0,0,0-1.56,1c-.32,1.81-.6,3.63-.91,5.52.59.28,1.1.56,1.63.75S384.28,321.6,384.28,320.86Zm27.17,59.7-1.35.11a.88.88,0,0,1-.05-.15l1.39-.9a5.82,5.82,0,0,1-5.29-1.17c-1.42-1.25-3.1-2.3-3.57-4.55,0,3,1.65,4.73,3.49,6.44l-.59.29C406.74,382,410.39,382,411.45,380.56ZM427.4,368a32.28,32.28,0,0,0,1.53-13.56h-.3c-.19,1.67-.33,3.34-.6,5a34.51,34.51,0,0,1-1,4.79,45.17,45.17,0,0,1-1.87,4.43l.15.14,1.22-1.51c.29,1-.67,1.46-.76,2.4,1-.52.78-1.76,1.44-2.43Zm-28.1,17.4a10.8,10.8,0,0,0-1.11.51,23,23,0,0,1-5.23,2.2c-2.22.62-4.43,1.34-6.76.9a1,1,0,0,0-.38,0c0,.08,0,.15,0,.22l2.11.45a1.28,1.28,0,0,1,0,.19l-.86.36a5.65,5.65,0,0,0,.68.17,11.62,11.62,0,0,0,6.64-1.49c1.1-.58,2.22-1.1,3.34-1.65A2.3,2.3,0,0,0,399.3,385.43ZM396.12,391a20.17,20.17,0,0,1-8.37,3.83c0,.09.05.18.07.26l4.15-.64a6,6,0,0,1-4.13,1.46c-.91,0-1.82.2-2.72.31,0,.1,0,.2,0,.3a9.87,9.87,0,0,0,2.87.12,14.58,14.58,0,0,0,2.93-.42c1.73-.45,3-1.82,4.36-3A2.72,2.72,0,0,0,396.12,391ZM333,397a2.78,2.78,0,0,0-.13-2.34c-.77-1.28-1.52-2.58-2.3-3.86-.29-.48-.64-.93-1.06-1.53-.18,1.15.64,1.69.63,2.65l-1.45-1.31-.12.18,1.09,1.66-.24.24L327.81,391l-.23.27c1.24,1.68,2.44,3.4,3.74,5C331.71,396.78,332.24,397.41,333,397Zm72.12-37.54a1.45,1.45,0,0,0-.48-.05,3,3,0,0,0-1.66,2.94c.37,2.29.56,4.57-.66,6.66a3,3,0,0,0-.11.73,2.48,2.48,0,0,0,1.61-1.21,11.6,11.6,0,0,0,.86-3.62A23.48,23.48,0,0,0,405.16,359.47ZM318.1,348c-.39,1.66-.55,3.4-.8,5.1a4.52,4.52,0,0,0-.06,1.16c0,.18.28.32.62.66-.12-.7-.18-1.06-.26-1.54l1.11,1a16.16,16.16,0,0,1,1.17-6.18c.31-.79.68-1.55,1-2.33.15-.37.27-.75.4-1.13l-.28-.2A4.34,4.34,0,0,0,318.1,348Zm92-23.17a13.61,13.61,0,0,1,.23,1.4,2.73,2.73,0,0,0,1.67,2.44c-.06-2.54.33-4.91,2-6.77-.94-1-1.43-1-2.35-.29a24.29,24.29,0,0,0-1.83,1.83C409.89,324,410,324.44,410.08,324.85Zm-20.65,92-1.2.49a6.27,6.27,0,0,1,2.19-.1,2.14,2.14,0,0,0,1.64-.18,8.59,8.59,0,0,0,1.37-.65c1.27-.8,2.5-1.67,3.77-2.44a14.06,14.06,0,0,0,3.61-2.68,8.39,8.39,0,0,0,1.84-2.88,25.79,25.79,0,0,1-13.18,7.93C389.46,416.47,389.45,416.64,389.43,416.82ZM396,319.29a17.31,17.31,0,0,0,.25,3,1.48,1.48,0,0,0,2.21,1.29,17.77,17.77,0,0,1,.4-6.66A2.28,2.28,0,0,0,396,319.29Zm-2.51,77.19c-.7.27-1.16.41-1.6.63a8.05,8.05,0,0,1-4,.76c-.69,0-1.37-.08-2.06-.11l-3.24-.18,0,.27,1.83.47-2.32.4c-.07.29-.12.48-.16.66a8.09,8.09,0,0,0,1.46.24,21.35,21.35,0,0,0,4.08-.12,30.64,30.64,0,0,0,4.15-1.39A3.28,3.28,0,0,0,393.53,396.48Zm-63.11-36.42a.77.77,0,0,0-.06-.24c-1.19-.64-1.83-.54-2.17.46a41.94,41.94,0,0,0-1.64,7,3.61,3.61,0,0,0,.07.78c.63-1.12,1.15-2.07,1.69-3,.26-.47.55-.61.88.2l.67-1.86c-.67-.62,0-1,.16-1.55S330.29,360.64,330.42,360.06Zm86.92-15.18c.43-.92.21-1.41-.79-2.38-.25.36-.51.71-.75,1.09-.72,1.14-1.13,2.55-2.2,3.43a.91.91,0,0,0-.25.67c.07,1,.2,1.92.33,3.08A24.37,24.37,0,0,0,417.34,344.88ZM318.8,356.56l-.24-.26a2.81,2.81,0,0,0-.85.47,6,6,0,0,0-1.44,2c-.48,1.62-.7,3.34-1,5l2,1.6C317,362.08,317.94,359.33,318.8,356.56Zm81.89,22.82c-1.34.54-2.58,1.06-3.83,1.54s-2.51,1-3.8,1.39-2.55.56-3.82.83l0,.27a8.8,8.8,0,0,0,3.75-.54,16.37,16.37,0,0,1,3.62-1.07,19.21,19.21,0,0,1-4.25,2.54,1.92,1.92,0,0,0,1.58-.24c1.42-.59,2.85-1.19,4.27-1.8.43-.18.86-.36,1.27-.58A2.19,2.19,0,0,0,400.69,379.38Zm-6.94-62.53a5.93,5.93,0,0,0-.6,4.92c.27,1.21.73,1.5,2.05,1.33-.1-1.24-.16-2.39-.28-3.54s.61-2.14,1.06-3.15C394.74,315.81,394.44,315.87,393.75,316.85Zm-46.63,34.4c1.26-1.35,2.3-3,3.6-4.66a4.18,4.18,0,0,0-3.3,1.84c-1.2,1.74-2.12,3.68-3.34,5.41a67.9,67.9,0,0,0-3.5,6.2c.07.07.15.12.22.18.09-.14.18-.27.26-.42.66-1.15,1.28-2.35,2-3.46A35.84,35.84,0,0,1,347.12,351.25ZM335,394.34a1.22,1.22,0,0,0,1.49-.24,1.43,1.43,0,0,0,.2-1.15,9.22,9.22,0,0,0-1.88-2.54,16,16,0,0,0-3-1.53c-.28.36.75.77-.3,1.21,1.15,1.44,2.19,2.74,3.24,4A.85.85,0,0,0,335,394.34Zm33.14-65.22a3.18,3.18,0,0,0,1.2-.7c2.1-1.86,4.18-3.75,6.27-5.63a7,7,0,0,0,.42-.61,3.24,3.24,0,0,0-1,.09,4.21,4.21,0,0,0-.87.62,27.84,27.84,0,0,1-4.81,3.45,15.29,15.29,0,0,0-1.79,1.38c-.38.28-.56.68-.27,1.07A1,1,0,0,0,368.17,329.12Zm-2.08-6.55c.24-.27.5-.5,1-.94-.58-.15-1-.44-1.3-.31A12.87,12.87,0,0,0,361,325a1.32,1.32,0,0,0-.34,1.39,1.5,1.5,0,0,0,2.41-.32c.36-.49.75-1,1.15-1.42C364.85,324,365.47,323.26,366.09,322.57Zm55.19,59.06.28.11a18.34,18.34,0,0,0,2.2-10.8,7.68,7.68,0,0,0-.48,1.81c-.4,3.19-1.89,5.81-3.39,8.43-.33.57-.8,1.06-.32,1.95.61-.91,1.18-1.78,1.92-2.9C421.39,380.91,421.34,381.27,421.28,381.63Zm-18.44,21.8c-.74.53-1.4,1.19-2.14,1.71-1.32.94-2.67,1.82-4,2.72-.23.16-.46.29-.36.67h0c1.05-.71,1.66-.87,2.38-.53a10.73,10.73,0,0,0-.91.76,1,1,0,0,0-.14.47c1.06-.65,2.13-1.28,3.18-2a3.34,3.34,0,0,0,.82-.68c1-1.14,1.94-2.31,2.9-3.47.24-.28.47-.58.71-.87l-.17-.25C404.34,402.48,403.57,402.91,402.84,403.43Zm-5.2,5.84a.06.06,0,0,1,0,0l0,0Zm-76.7-52.22a2.26,2.26,0,0,0-1.84,2c-.1.55-.33,1.07-.42,1.62q-.42,2.67-.77,5.37a5.77,5.77,0,0,0,.12,1.23l1.07-.56a21.34,21.34,0,0,1,.24-2.63c.44-2,1-3.9,1.49-5.85C320.93,357.84,321.27,357.48,320.94,357.05ZM424.73,374.7a25.77,25.77,0,0,1-2.86,8.55.93.93,0,0,0-.17.46c0,.61.05,1.22.08,1.77,2.7-3,4.38-8.92,3.11-11.29A2.66,2.66,0,0,0,424.73,374.7ZM391,387.48a26.92,26.92,0,0,0,7.83-3.17,4.46,4.46,0,0,0,.87-.91l-.2-.33c-1.48.63-3,1.19-4.44,1.9a8.17,8.17,0,0,1-4.1,1c-.66,0-1.32,0-2.23,0l2,1.18c-.07.13-.12.21-.23.38C390.7,387.49,390.85,387.51,391,387.48Zm2.45-38.8c-1-1-1.25-1-2.42-.32l-.6.38c-1.67,1.19-3.35,2.37-5,3.57a3,3,0,0,0-.31.4l8.82-3.35a1.47,1.47,0,0,0-.06-.23ZM380.1,420.23a13.71,13.71,0,0,0,2.21.33c.76,0,1.53,0,2.29,0h2.14v.22l-3.85.94a10.92,10.92,0,0,0,7.76-2.05,12.16,12.16,0,0,1,1.77-.88l1.47-.76a31.46,31.46,0,0,1-6.77,1.78C384.79,420.05,382.44,420.1,380.1,420.23ZM405,350a19.36,19.36,0,0,1-4.52,5.09c.51,1.18.64,1.28,1.29,1.09,1.53-.44,2.39-1.82,3.2-3.16C405.44,352.15,405.11,351.05,405,350Zm16.83,17.82c-.15,1.06-.22,2.06-.43,3s-.56,2-.87,2.95c-.4,1.2-.41,1.2-.26,3.24.26-.8.47-1.48.69-2.15l.14,0,.15,1.41a17.69,17.69,0,0,0,1.46-6.22,6.87,6.87,0,0,0-.12-1.42C422.48,368.21,422.31,367.84,421.78,367.82Zm-14.92,37.91,2.27-.45-.62,1c2.14-.77,6.2-6.15,6.6-8.9A23.17,23.17,0,0,1,406.86,405.73ZM412,391.59l1.27-.66c-.43.78-1.07,1.28-1.51,1.95a18.81,18.81,0,0,0-1.16,2.46c.88-.44,4.78-5,5.54-6.4,1.08-2,1.33-2.7,1.26-3.83C416.35,388.29,413.94,389.65,412,391.59ZM426.75,332c-1.28.59-2.17,2.8-1.83,4.36,1-2.33,2.51-2.78,5.24-1.32A5.07,5.07,0,0,0,428,332,1.61,1.61,0,0,0,426.75,332Zm-36.81-13.44a11.1,11.1,0,0,0,0,1.29A2.14,2.14,0,0,0,392,322a8.78,8.78,0,0,1,.63-5.76C390.87,315.94,390,316.69,389.94,318.58Zm-4.56,2.11c.12,1.3.65,1.7,1.8,1.3-.76-2.31-.12-4.54.5-6.95l-1.68.42A16.62,16.62,0,0,0,385.38,320.69Zm-70.29,84.89a15.9,15.9,0,0,0,2.86,5.35c.66.78,1.3,1.58,2,2.35a5.79,5.79,0,0,0,2.39,1.66,38.9,38.9,0,0,1-6.42-9.85ZM349.79,391a1.79,1.79,0,0,0-.07-1.79c-.5-.65-1-1.28-1.51-1.92-.36-.47-.74-.73-1.21-.14l.49,1.25-1-.68-.19.67c-.44-.21-.75-.64-1.27-.54A6,6,0,0,0,349.79,391Zm58.11-2.55c-2.83,2.24-5.45,4.46-8.76,5.21,1.48.13,2.81-.8,4.43-.93l-.74.88.1.18c1-.6,2-1.22,3-1.8C407.15,391.31,407.55,390.05,407.9,388.47Zm19.24-17.25.5-.42c.06.2.11.38.2.73a19.06,19.06,0,0,0,2.32-13C429.62,362.93,429.46,367.4,427.14,371.22Zm-19.27,6.56c2.45,1,3.38.23,4.29-1.69.23-.48.41-1,.61-1.48-2.67,3.28-5.35,2-8.23,0A7.89,7.89,0,0,0,407.87,377.78Zm11.3-36.56a2.66,2.66,0,0,0-.09,2.55c1.18-.83,2.81-4.63,2.95-6.85l-1.32-.34A11.53,11.53,0,0,1,419.17,341.22Zm-79,9.73-.26-.21c-.34.45-.71.88-1,1.36-1.11,1.82-2.21,3.64-3.28,5.48a4.8,4.8,0,0,0-.46,1.32c-.18.85-.14.88.79,1Zm5.08,39.32-2.42-2.39a7.55,7.55,0,0,0-.75-.49c.26.64.4,1,.48,1.19l-1.09.36-1-.4a6,6,0,0,0,5,3.12A1,1,0,0,0,345.26,390.27Zm50.2,14.8,0,.13,3.13-1.08a2.09,2.09,0,0,1,.08.23l-.78.77c2.05-.39,6.33-3.87,7.42-6.19-1.56,1.2-3,2.54-4.68,3.56A55.85,55.85,0,0,1,395.46,405.07Zm-82-65.27a3.05,3.05,0,0,1-.23.85c-.86,1.93-.93,4.07-1.5,6.15.67.26,1,.11,1.23-.41a4.09,4.09,0,0,0,.2-.87,35.52,35.52,0,0,1,1.55-6.65,2.87,2.87,0,0,0,.05-.63A1.68,1.68,0,0,0,313.46,339.8Zm106.12,33.39a13.31,13.31,0,0,0,1.1-7c-.05-.37-.05-.82-.55-.78-.28,1.51-.54,3-.86,4.51s-1.15,2.69-.72,4.36c.27-.85.52-1.63.84-2.65C419.47,372.25,419.51,372.62,419.58,373.19ZM316.21,347.45c-.11.64-.24,1.27-.34,1.9-.23,1.35-.49,2.69-.67,4-.13,1,0,1.11,1,1l1.12-7.77C316.66,346.63,316.31,346.83,316.21,347.45Zm-1.94,16c.49-2.33,1-4.59,1.48-7.05l-1.49.4c-.32,1.37-.63,2.57-.89,3.79a2,2,0,0,0,0,1C313.64,362.18,314,362.77,314.27,363.43Zm109.05-6.5c0,2.37-1.63,3.9-2.35,5.9.34.16.59.28.9.41a26.51,26.51,0,0,0,3.25-7.18ZM399.68,318a10.64,10.64,0,0,0-.29,3.85c0,1.53.58,2.33,2.17,3-.47-2.17-.9-4.17-1.36-6.16C400.15,318.4,399.89,318.24,399.68,318Zm-5.34,32.61c-.72.26-1.45.51-2.17.78a11.46,11.46,0,0,0-3.36,1.73,13.93,13.93,0,0,0,7-1.69C395.48,350.56,395.07,350.33,394.34,350.59Zm5.32,27.08c-2,.74-3.91,1.46-5.85,2.23a6,6,0,0,0-3.16,1.88,80.19,80.19,0,0,0,10.26-3.85C400.52,377.22,400.08,377.51,399.66,377.67Zm17.81-36.49A13.91,13.91,0,0,0,419,339a8.22,8.22,0,0,0,.65-2.85c0-.54-.6-1.09-1-1.84A23.94,23.94,0,0,0,417.47,341.18ZM358.8,323.6a1.86,1.86,0,0,0-.31,2,4.15,4.15,0,0,0,1.35-.6c1-.88,1.83-1.88,2.8-2.9l-2.09-.68C359.93,322.2,359.37,322.91,358.8,323.6Zm67.56,40c1-3.39,1.14-6.93,1.52-10.59l-.92.75c.35,3.82-.61,7.18-1.82,10.54.25-.12.37-.34.55-.47A2.64,2.64,0,0,1,426.36,363.57Zm-26.71,36.3c.63-.43,1.06-.77,1.53-1s.87-.4,1.3-.6c0,.07.06.14.08.2L401,399.81c.05.09.11.17.17.26.58-.69,1.72-.33,2-1.58,0-.08.2-.1.3-.17a19.09,19.09,0,0,0,3.1-3.34C405.22,395.28,400.72,398.4,399.65,399.87Zm15.86-57.8c.28-.55.31-1.07-.35-1.32-2.15,1.37-2.76,3.2-1.76,5.51C414.13,344.82,414.83,343.45,415.51,342.07Zm-74.86,51.15c.33.23.85.13,1.28.18l.24-.43a12.51,12.51,0,0,0-2.61-3.41c.1.93,1,1.13.88,2.06l-1.68-1.24c-.05.26-.1.46-.14.67-.53-.2-.75-.95-1.53-.76C338,391.91,339.45,392.36,340.65,393.22Zm15-68.36a1.07,1.07,0,0,0,.94.11,2.18,2.18,0,0,0,.77-.72c.58-.73,1.14-1.49,1.69-2.24a2.8,2.8,0,0,0,.25-.52h-2.48a5.86,5.86,0,0,0-1.3,2.47C355.43,324.23,355.48,324.75,355.64,324.86ZM410,397.6c-.44.36-.58,1.19-.93,2,2-.93,5.62-5.57,6.69-8.22-.26.27-.42.43-.57.6A46.4,46.4,0,0,1,410,397.6Zm4.65-59c.33.22.62.58.86.53a1.47,1.47,0,0,0,1.13-1.15c.24-.82.44-1.66.65-2.49.11-.44.19-.89.29-1.33l-1-.85C416.1,335.25,415.82,337.06,414.66,338.63Zm14.93-2.21a2.37,2.37,0,0,0-2.34-1.05c-.81.08-1.07.4-1.37,1.66.4-.13.64-.22.89-.29,1.46-.43,2.25-.14,3,1.35a24.2,24.2,0,0,1,1,3l.25.69a5.93,5.93,0,0,0,0-1.62A7,7,0,0,0,429.59,336.42Zm-7.48,52.51c1.72-2.63,3-5.75,3-7.17l-4.2,7ZM333.39,362.6v-2c-1.29-.55-1.61-.35-1.91,1-.18.8-.44,1.57-.69,2.34s-.49,1.38-.73,2.06l.15.09L333,362C333.12,362.16,333.2,362.28,333.39,362.6Zm76.69,39.21a14.93,14.93,0,0,0,4.29-5.89,27.06,27.06,0,0,1-5.64,5.38l.36.68.74-.65Zm-31.6-15c-1-.34-2-.78-3-1.17-.2-.08-.58-.18-.6-.13-.28.7-.63.24-.93.09-.61-.31-1.2-.64-1.8-1,0,.23.06.35.14.4a45.09,45.09,0,0,0,4,2.25,4,4,0,0,0,4.13-.17A12.48,12.48,0,0,1,378.48,386.79ZM376.92,315a13.6,13.6,0,0,1-.46,2.37c-.31,1.06-.72,2.08-1.13,3.22a1.77,1.77,0,0,0,1.95.4c-.83-2.35.11-4.54.43-6.78C377,314,377,314.43,376.92,315Zm36.69,21.56a1.6,1.6,0,0,0-.11.62.87.87,0,0,0,.4.55.59.59,0,0,0,.55-.27,14.41,14.41,0,0,0,1.21-4.82h-1.15C414.2,334,413.91,335.25,413.61,336.54Zm12.5,20-3.34,7.2.74.07C425.47,361.89,425.72,359.26,426.11,356.52Zm-11.53,6.69.25.07a3.8,3.8,0,0,0,.49-1.2,12,12,0,0,0-1.19-6.52Zm-62,26.18.35-1.51-2.36-1.51c-.14.19-.26.33-.37.47l-.91-.67C349.75,388.05,351.06,388.71,352.55,389.39Zm48.68-13.16-.35-.81-8.22,2.94c.19.19.31.42.42.41a4.31,4.31,0,0,0,1.12-.24q2.48-.94,4.94-1.93a2.47,2.47,0,0,1,1.88-.21S401.13,376.31,401.23,376.23Zm13.38-4.18c.09,4.8.19,6.8-3.51,11.29C414.22,381.79,416,375.66,414.61,372.05Zm-6.31,11.48-4.44,2.74.89.81c1.32-1,3-1.4,3.76-3.21Zm12.37-39,.2.15c.25-.23.61-.41.75-.71.67-1.49,1.28-3,2-4.67l-.57-1.49C422.18,340.17,421.43,342.33,420.67,344.5ZM312.4,354.05c.8-2.82,1.11-4.87.87-5.78A4.64,4.64,0,0,0,312.4,354.05ZM388.63,316a10,10,0,0,0-.73,4c0,1,.15,1.16,1.16,1.44a7.22,7.22,0,0,1,.85-6.05C389.2,315.08,389,315.14,388.63,316Zm26.79,34.79c.89-.46,1.88-.73,2.18-2a.78.78,0,0,1,.27-.41c.9-.73.82-1.74.61-3-1.1,1.85-2.1,3.51-3.09,5.18C415.36,350.51,415.4,350.6,415.42,350.74ZM344.7,372.66h-1.43c.54,1.73.16,3.42.69,5C344.42,376,345.12,374.48,344.7,372.66Zm74.12-9c-.64,2.4-1.22,4.61-1.81,6.83l.15.06.8-1.92c.12.62.18.91.29,1.44A15.77,15.77,0,0,0,418.82,363.7Zm-13.7-9.2-3,3.42a2.62,2.62,0,0,0,2.69-.62c.56-.41.28-1.09.33-1.66A8.68,8.68,0,0,0,405.12,354.5Zm-49.93-32.34a15,15,0,0,0-1.64,0,1,1,0,0,0-.67.4c-.38.47-.7,1-1.05,1.51C353.05,324.74,354.41,323.94,355.19,322.16Zm57.53,9.66c-.25,1-.56,2-.74,3.08a1.41,1.41,0,0,0,.74,1.68c.26-1.31.52-2.47.73-3.64A.87.87,0,0,0,412.72,331.82Zm-29.86,50.65a3.79,3.79,0,0,0-3.8.53,4,4,0,0,0,3,.54C382.47,383.52,382.82,383.16,382.86,382.47Zm11.62-57c1.7,1.17,2.08,1.12,2.72-.37L395.66,324C395.08,324.27,394.51,324.52,394.48,325.45ZM359,274.77l9.51,1.41A18,18,0,0,0,359,274.77ZM416,384.07a6.77,6.77,0,0,0,.74-3.54l-2.92,5.18c.35-.36.67-.71,1-1,.14-.14.42-.34.45-.31C415.72,384.89,415.86,384.32,416,384.07Zm-37.78.28a1.38,1.38,0,0,0-.59.16c-.26.08-.51.18-.87.31a4.92,4.92,0,0,0,5.05.18C380.44,384.75,379.33,384.53,378.21,384.35Zm36.21-1.49c1-1.95,2.07-3.8,1.44-6.2-.08.36-.14.74-.25,1.09-.31,1-.61,2-1,3A2.52,2.52,0,0,0,414.42,382.86Zm-8.07,25.89c-.38.2-.42.43-.07.82l2.31-1.59.19.67,2.37-2.41a8.33,8.33,0,0,0-1.92.93C408.28,407.71,407.32,408.23,406.35,408.75Zm-95.24-61c.1-1.32.14-2.64.19-4-.82.17-.66,1-.85,1.61a4.29,4.29,0,0,0,.16,3.3C310.83,348.25,311.09,348,311.11,347.72Zm48,2.87a15.48,15.48,0,0,1-1.06,1.49c-.22.29-.45.57-.68.86l.12.1,3.79-2.83C360.25,349.45,359.63,349.59,359.08,350.59Zm-47.35,7.22a15.94,15.94,0,0,0,.39,2.26,13.24,13.24,0,0,0,.91-2.55,8.7,8.7,0,0,0,.17-.95C311.8,356.44,311.66,356.53,311.73,357.81Zm119.59-12.7c-.11.44-.3.8-.22,1a8.26,8.26,0,0,1,.42,3.31c0,.36.07.71.1,1.07l.25-.06A7.41,7.41,0,0,0,431.32,345.11Zm-32.94-17.5,1.15.69c.34-.59.62-1.11.94-1.67l-1.31-1.22C398.88,326.21,398.65,326.86,398.38,327.61Zm6.34,62s.22,0,.31-.1a13.7,13.7,0,0,0,2.45-2.43c-.26,0-.39-.1-.46-.05l-3.86,2.42C403.73,389.54,404.23,389,404.72,389.6Zm13.12-26a1,1,0,0,0-.6-1.19c0,1.51-1.1,2.66-.56,4.23C417.43,366.13,417.61,365.64,417.84,363.64ZM404.07,395c.69-.71,1.85-.7,2.24-1.91-1.51,1.14-3.35,1.48-4.84,2.67C402.3,395.28,403.31,395.74,404.07,395Zm-93.7-39.3c.23-2.14.43-4,.64-5.9-.56.06-.77.36-.79.92-.05,1.42-.14,2.85-.19,4.27C310,355.1,310.17,355.26,310.37,355.66Zm105.07,30.9c-.67.41-1.3.87-1.94,1.31-1,.67-1,.66-1.82,2.3A17.53,17.53,0,0,0,415.44,386.56Zm-79-22.66c-.45,1.17-.83,2.37-1.31,3.76,1-1.65,1.85-3.1,2.72-4.54C337.11,363.15,336.64,363.35,336.43,363.9Zm74.28-42.77c-.55-.41-.93-1-1.74-.61.11.65.21,1.3.37,2.24Zm-15.63,32.3-2,.88a4.12,4.12,0,0,0,3.89-1.41c-.05-.09-.09-.17-.13-.26Zm-39,33-1.65-1,.61,1-1.13-.15C355.18,387.87,355.54,387.9,356.12,386.4Zm74.34-35.82a6,6,0,0,0,0-3.17A2.44,2.44,0,0,0,430.46,350.58Zm-81.67-27.65c-.4,0-.57.18-.46.78.92,0,1.92.47,2.7-.49l-.09-.29Zm53.33,4.22h-.2c-.18.59-.39,1.17-.52,1.78a.65.65,0,0,0,.71.74.51.51,0,0,0,.45-.71C402.43,328.36,402.27,327.76,402.12,327.15Zm-.94,46.32c-1.3-.05-2.3.81-3.42,1.22A3.8,3.8,0,0,0,401.18,373.47Zm-39.62-19.94,2.31-1.77C362.75,351.16,361.79,351.93,361.56,353.53Zm36.91,56.62-4.22,2.65A7.47,7.47,0,0,0,398.47,410.15Zm14.87-71.3a3.11,3.11,0,0,0-.59,3.12A4.62,4.62,0,0,0,413.34,338.85Zm-29.87,41.93c.34-.56.19-.84-.55-1,.08.19.16.36.26.58-.13.09-.25.23-.39.25-.51.07-1,.1-1.56.14C382.3,381.62,383,381.63,383.47,380.78Zm22.12,2.3c-.42.53-.9,1-1.55,1.7l2.78-1.57C406.25,382.9,406,382.64,405.59,383.08Zm-70-21.63a4.69,4.69,0,0,0-1.5,2.85A4.55,4.55,0,0,0,335.54,361.45Zm55.83-37.39c1,.74,1,.74,1.7-.1C392.25,323.28,392,323.31,391.37,324.06Zm-76.9,26.53a6.47,6.47,0,0,0,.71-3.38A7.57,7.57,0,0,0,314.47,350.59Zm84.46,4.83c-.75-.6-.77-.59-1.58.54A1.28,1.28,0,0,0,398.93,355.42Zm-9.41-32c-1-1-1.32-1-2-.34A3.4,3.4,0,0,0,389.52,323.46ZM403,383.25l2.09-.73C404.27,381.82,404.27,381.82,403,383.25ZM401,390.39l-2.15.31V391A2.34,2.34,0,0,0,401,390.39Zm-15.52-13.26c-.79.05-1,.66-1.33,1.17C385.07,378.33,385.07,378.33,385.43,377.13ZM313.3,400.86l1.26,2.13C314.32,401.65,314.15,401.38,313.3,400.86Zm107.76-40.95c-1,0-1.09,0-.73,1.24C420.59,360.72,420.8,360.35,421.06,359.91Zm-24.38,56c.88.22,1.34-.48,1.92-.91l-.15-.21ZM402,370.81l-1.22,1.5C401.83,372,401.84,372,402,370.81Zm19.17,13.75c-.33.54-.81,1-.7,1.81.31-.56.61-1.12.91-1.68Zm-56-11.83h-.65c.07.47.13.86.2,1.25l.22,0C365,373.55,365.08,373.16,365.16,372.73Zm50.43-8.66-1.06,1.1C415.51,365,415.51,365,415.59,364.07Zm-4.08-32.7c.12-.44.37-.9-.29-1.45ZM396,375.16l1-.23c0-.07,0-.14,0-.22l-1,.21C395.94,375,396,375.08,396,375.16Zm-31,12.71.9.58c0-.07.07-.14.1-.2l-.86-.66Zm63.64-15.46-.39.67.23.17a.76.76,0,0,0,.29-.88Zm-119.5-20.87v1.14h.11v-1.14ZM338,389.68l.15-.13c-.14-.16-.27-.33-.41-.5a.52.52,0,0,0-.11.1Zm57.27,19.11,1.05-.26C395.73,408.42,395.72,408.42,395.25,408.79Zm1.39.82.94-.35C397.14,409.22,397.12,409.24,396.64,409.61Zm1-.34s0,0,0,0h0Zm-2.63,1,.05.14.68-.28-.05-.2Z" transform="translate(0 -149)"/></g></g></svg>