<svg xmlns="http://www.w3.org/2000/svg" viewBox="0 0 554 623"><defs><style>.cls-1{isolation:isolate;}.cls-2{fill:#231f20;}.cls-3{fill:#b2cd3c;}.cls-4{fill:#7fbb47;}.cls-5{fill:#80a22f;}.cls-14,.cls-5,.cls-6,.cls-7{opacity:0.4;}.cls-14,.cls-5{mix-blend-mode:multiply;}.cls-10,.cls-15,.cls-6,.cls-7{fill:#fff;}.cls-6{mix-blend-mode:screen;}.cls-15,.cls-7{mix-blend-mode:overlay;}.cls-8{fill:#fef5ab;}.cls-9{fill:#35622a;opacity:0.3;}.cls-11{fill:#50423d;}.cls-12{fill:#332723;}.cls-13{fill:#ce4e4b;}.cls-14{fill:#b84342;}.cls-15{opacity:0.5;}</style></defs><g class="cls-1"><g id="Calque_1" data-name="Calque 1"><path class="cls-2" d="M51.88,398.88c8.11-7,18.63-7.84,28.1-10.75a1.37,1.37,0,0,0,.69.68c16.44,6,32.78,10.92,48.71,18.85A283.34,283.34,0,0,1,172.89,435c14.54,10.93,28.27,23.31,42.77,34.32,3.63,2.75,14.29,12.72,21.16,12.24,0,.07.07.12.13.12a8.1,8.1,0,0,0,1.56-.15c-11.21-3.89-20.5-12.29-29.75-20.8-1.16-1.06,0-4.11,1.41-2.85,3.2,3,6.41,5.88,9.71,8.62a.66.66,0,0,1,.93,0c1.8,1.35,3.64,2.82,5.52,4.24a72.14,72.14,0,0,0,12.12,6.74c.33.08.67.12,1,.19a108.28,108.28,0,0,0-8.88-13.81c-4.45-5.47-9.3-10.35-15.22-13.59-1.39-.76-.59-4.1.77-3.35.84.45,1.63,1,2.43,1.52a.89.89,0,0,1,.76.16,54.81,54.81,0,0,1,4.94,4.05c.94.83,1.82,1.71,2.71,2.59l0,.06a62.56,62.56,0,0,1,5,5.5c2.61,3.29,5.64,6.66,7.71,10.48.74,1.38,1.44,2.8,2.14,4.2-.81-5-4.9-11.75-6.66-14.41-11.43-17.24-27.18-29.13-42.53-40.69-16.72-12.63-33.95-24.45-51.91-34.36-15.09-8.32-31.58-16.43-48.11-20.36-.05,0-.07-.09-.12-.1C86.22,364.62,84.3,354,83,348c-1.25-5.58-3.73-16-1.14-21.06,4.78-9.28-.47-19.56-9.25-18.92-6.69.5-13.76,9.65-10,17.71a27.81,27.81,0,0,0,4.91,6.61c1.13,4,1.51,8.42-2.16,10.9-2.4,1.61-5.3.72-7.88,1.41-.8-2.89-2.22-5.77-5.17-6.06-8.39-.82-15.56,5.92-16,16.08-.33,7.83,5.59,11.36,11.67,13.23,1.84,2.93,3.63,5.41,3.55,9.64-.08,5.31-3.73,7.54-7,9.78a.94.94,0,0,0-.7-.42c-8.25.34-18.85,13.4-8.33,20.53C43.63,413,45.86,404.07,51.88,398.88Z" transform="translate(-31 -132)"/><path class="cls-3" d="M58.46,347.55c3.93.68,8.58-.57,10.79-4.51a11,11,0,0,0,.92-7.08,2.25,2.25,0,0,0,.12.21c2.28,4,8.09,18.56,1.91,20.55,0,0,0,0,0,0C67.71,354.5,61.1,352.31,58.46,347.55Z" transform="translate(-31 -132)"/><path class="cls-3" d="M53.48,378.82a19.84,19.84,0,0,0-2.27-10.06c2.17.49,4.21.85,5.83,1.16,1,.19,11.81,3,10.12,4.53-2.13,1.89-4.74,3.13-6.94,5a40.26,40.26,0,0,1-9,5.95A13.81,13.81,0,0,0,53.48,378.82Z" transform="translate(-31 -132)"/><path class="cls-4" d="M43.5,390a.75.75,0,0,0,.72.37,5.4,5.4,0,0,0,.9-.23c7.81.68,13.79-6.27,20.41-10.45,3.11-2,7.57-7,2.15-10.31-4-2.48-8.6-2.77-13-3.58a61.26,61.26,0,0,1-11.2-3.28q-8-11.43-.45-17.44a12.91,12.91,0,0,1,5.31-2.76c5.49-1.84,8.51,7.72,12,10.82,3.72,3.34,8.64,5.17,12.93,7.2,1,.45,1.33-.85,1.06-1.84,3.42-1.92,2.11-9.49,1.18-13A71.3,71.3,0,0,0,71,333.27,15.93,15.93,0,0,0,68,329.2c-5.83-6.32-3.93-14.38,3.23-17.37,7.53-3.16,11.13,8.16,7.48,15.51a14,14,0,0,0-.86,6.32c1.1,5.53,2.28,11.11,3.54,16.62,1,4.32,2.59,10.59,5.61,14.16l-.05,0c-1.34-.23-1.36,2.69-.29,3.11,13.87,5.51,27.86,10,41.44,16.54,14,6.77,27.32,15,40.44,23.82,13.33,8.94,26.47,18.5,39.22,28.6a164.84,164.84,0,0,1,18.76,17.57,117.23,117.23,0,0,1,9,11.28c1.17,1.65,6.22,9.27,4.92,13.32,0,0-.05,0-.08,0-3.56,3.74-9.32,1-12.58-1.24-7.24-4.89-16.42-14.22-23.31-19.79C191.25,447,178.32,435.76,164.59,426a315.93,315.93,0,0,0-41.82-25c-12.27-6.12-25.62-12.11-38.88-14.82,0-.46-.25-.93-.66-.85l-2.1.32-.44-.09a.78.78,0,0,0-.74.27c-10.18,1.59-20.13,3.68-29.18,10-5.26,3.7-8.74,14.29-16,7.48C28.38,397.21,39.38,392,43.5,390Z" transform="translate(-31 -132)"/><path class="cls-5" d="M86.7,367.53c-1.07-.42-1-3.34.29-3.11l.05,0c-3-3.57-4.63-9.84-5.61-14.16-.68-3-1.28-6-1.92-9-1.71,8.06.52,21.28,3.46,26.62,5.64,10.21,18.62,12,27.64,15.68A402.64,402.64,0,0,1,164,410.13c16.49,9.82,32.74,20.73,48.51,32.14,3.75,2.72,7.45,5.57,11,8.59a163,163,0,0,0-15.71-14.37c-12.75-10.1-25.89-19.66-39.22-28.6-13.12-8.79-26.49-17.05-40.44-23.82C114.56,377.48,100.57,373,86.7,367.53Z" transform="translate(-31 -132)"/><path class="cls-5" d="M75.75,316.37a9.18,9.18,0,0,1,4.09,1.39c-1-4.52-4.07-7.83-8.57-5.93-6.66,2.79-8.68,9.93-4.26,16C67,321.74,69.67,315.85,75.75,316.37Z" transform="translate(-31 -132)"/><path class="cls-5" d="M47,350.59c1.68-4.42,4-6.27,6.51-6.57-1.5-1.53-3.19-2.4-5.21-1.72A12.91,12.91,0,0,0,43,345.06q-7.53,6,.45,17.44a64.55,64.55,0,0,0,7.27,2.32C47.12,361.08,44.87,356.22,47,350.59Z" transform="translate(-31 -132)"/><path class="cls-5" d="M43.66,403.32a9.12,9.12,0,0,1-5-6.87,12.21,12.21,0,0,1,0-3.91c-4.28,2.6-8.44,6.44-3.9,10.72C38.48,406.73,41.19,405.68,43.66,403.32Z" transform="translate(-31 -132)"/><path class="cls-6" d="M54.89,357.83a7.86,7.86,0,0,0,.62-4.8A5.57,5.57,0,0,0,53,347.62c-2.42-1.3-4.61.75-5.38,3.48s-.4,6.27,1.73,8C51.36,360.68,53.61,360.24,54.89,357.83Z" transform="translate(-31 -132)"/><path class="cls-6" d="M42.78,400.14A3.83,3.83,0,0,0,45,398.21a4,4,0,0,0,.95-4A2.5,2.5,0,0,0,42,392.88a4.87,4.87,0,0,0-2.31,4.78C40,399.52,41.22,400.57,42.78,400.14Z" transform="translate(-31 -132)"/><path class="cls-7" d="M225.7,470c-3.84-5-8.61-9.22-13-13.45-2.89-2.79-5.72-5.66-8.56-8.53-.25-.21-.51-.42-.76-.65a361.44,361.44,0,0,0-28.68-23.14c-19.22-13.76-40.5-26.74-62.35-33.21-1.45-.43-1.07,2.34,0,2.79a363,363,0,0,1,66.08,38.39c9.82,7.16,19,15.38,28.28,23.42,4.24,3.65,8.85,6.51,12.9,10.5,1.89,1.86,3.44,3.82,5.95,3.91A.7.7,0,0,0,225.7,470Z" transform="translate(-31 -132)"/><path class="cls-2" d="M527.2,279.39c3,5.56.34,17.26-1,23.52-1.42,6.75-3.4,18.64-10.41,19.81,0,0-.07.08-.12.1-18.38,4.76-36.67,14.15-53.37,23.76-19.9,11.46-39,25-57.41,39.47-17,13.25-34.36,26.85-46.85,46.33-2,3.06-6.54,10.85-7.24,16.52,3.31-7.25,6.33-13.95,11.75-20.21,6.37-7.35,13-14.1,20.57-19.62,1.37-1,3.9,1.33,2.26,2.51a113.81,113.81,0,0,0-24.14,23.94c-3.61,4.89-5.87,10.71-8.3,16.46.61-.07,1.22-.16,1.83-.28,7.88-3.5,16.2-13,20.6-18.29.92-1.12,2.23.18,2.43,1.51,2.76-3,5.33-6,7.63-8.46,1.45-1.53,2.87,1.83,1.66,3.13-8.15,8.68-19.27,23-31.22,25.83a1.91,1.91,0,0,0,.49,0c.06,0,.11,0,.15-.13,7.67.37,19.42-11,23.42-14.13,16-12.59,31.15-26.72,47.21-39.2,15.36-11.94,31.33-22.75,48.13-31.49,17.66-9.18,35.82-15.08,54.08-22.09a1.5,1.5,0,0,0,.75-.76c10.63,3,22.37,3.73,31.54,11.37,6.79,5.68,9.4,15.57,18.51,9.18,11.63-8.18-.39-22.54-9.6-22.72a1,1,0,0,0-.78.46c-3.73-2.42-7.84-4.84-8-10.74-.14-4.73,1.81-7.53,3.8-10.85,6.77-2.23,13.32-6.27,12.84-15-.62-11.34-8.73-18.71-18.08-17.61-3.29.39-4.83,3.64-5.68,6.89-2.89-.73-6.11.34-8.81-1.42-4.13-2.68-3.77-7.57-2.58-12.1,2-2.31,4-4.46,5.39-7.5,4-9.07-4-19.12-11.46-19.53C527.42,257.55,521.72,269.14,527.2,279.39Z" transform="translate(-31 -132)"/><path class="cls-3" d="M538.44,312.46l-.07,0c-6.92-2.1-.66-18.43,1.82-23,0-.08.09-.15.13-.22a12.11,12.11,0,0,0,1.15,7.87c2.5,4.34,7.72,5.64,12.08,4.79C550.68,307.26,543.35,309.86,538.44,312.46Z" transform="translate(-31 -132)"/><path class="cls-3" d="M562.2,344a45.18,45.18,0,0,1-10.12-6.43c-2.47-2-5.41-3.37-7.81-5.43-1.91-1.62,10.11-5.05,11.22-5.28,1.8-.38,4.07-.82,6.47-1.42a22.31,22.31,0,0,0-2.37,11.28A15.31,15.31,0,0,0,562.2,344Z" transform="translate(-31 -132)"/><path class="cls-4" d="M580.81,363.56c-8,7.75-12-4-17.94-8-10.19-6.91-21.31-9-32.71-10.57a.83.83,0,0,0-.83-.29l-.48.11-2.36-.32c-.46-.06-.7.46-.72,1-14.76,3.3-29.56,10.26-43.17,17.37a349.15,349.15,0,0,0-46.27,28.86c-15.18,11.23-29.44,24-44.06,36.22-7.61,6.35-15.89,15-23.9,20.64-3.61,2.54-11.8,7.68-15.83,3.6,0,0-.06,0-.09,0-1.52-4.49,4-13.11,5.3-15,3.08-4.47,2.73-6.66,6.25-10.65,6.47-7.27,16.95-16.12,24.27-22.14,14.05-11.55,28.58-22.49,43.32-32.76,14.51-10.09,29.3-19.6,44.77-27.46,15.06-7.65,30.6-12.9,46-19.35,1.19-.5,1.12-3.74-.37-3.45h-.06c3.32-4.06,5-11.09,6-15.92,1.33-6.17,2.56-12.43,3.71-18.63a15.55,15.55,0,0,0-1.07-7c-4.18-8.13-.33-20.84,8.12-17.47,8,3.19,10.28,12.13,3.88,19.32a17.73,17.73,0,0,0-3.23,4.59A79.08,79.08,0,0,0,534.56,300c-1,3.92-2.34,12.4,1.49,14.47-.28,1.11.12,2.55,1.22,2,4.76-2.35,10.22-4.51,14.33-8.3,3.83-3.54,7.07-14.28,13.22-12.35a14.28,14.28,0,0,1,5.95,3q8.51,6.54-.23,19.48a68.39,68.39,0,0,1-12.44,3.9c-4.93,1-10,1.4-14.5,4.27-6,3.83-1,9.34,2.56,11.46,7.45,4.52,14.23,12.16,22.93,11.24a9,9,0,0,0,1,.22.82.82,0,0,0,.81-.44C575.52,351.11,587.89,356.66,580.81,363.56Z" transform="translate(-31 -132)"/><path class="cls-5" d="M403.34,398.84c21-14.58,41.85-29.57,63.63-42.48a231.3,231.3,0,0,1,31.31-16c9.41-3.77,22.87-6.66,27.56-18.59,3.58-9.11,8.82-25.5,5.91-36.45a7.27,7.27,0,0,1-.07,1.46c-1.15,6.2-2.38,12.46-3.71,18.63-1,4.83-2.72,11.86-6,15.92H522c1.49-.29,1.56,2.95.37,3.45-15.4,6.45-30.94,11.7-46,19.35-15.47,7.86-30.26,17.37-44.77,27.46-14.74,10.27-29.27,21.21-43.32,32.76a182.28,182.28,0,0,0-18.63,17.78C380.48,413.58,392.33,406.48,403.34,398.84Z" transform="translate(-31 -132)"/><path class="cls-5" d="M538.11,316.06a8.57,8.57,0,0,0,1.27,1,24.59,24.59,0,0,0,3.29-1.64,54,54,0,0,0,10.23-8.25c3.76-3.77,8.21-7.33,13.37-5.76a13.82,13.82,0,0,1,8.49,7.17,9.78,9.78,0,0,0-4-9.81,14.28,14.28,0,0,0-5.95-3c-6.15-1.93-9.39,8.81-13.22,12.35S542.67,313.87,538.11,316.06Z" transform="translate(-31 -132)"/><path class="cls-5" d="M573.59,361.19a21.69,21.69,0,0,1,.59,4.71c1.94.62,4.09.14,6.63-2.34,7.08-6.9-5.29-12.45-9.91-14.64a.82.82,0,0,1-.81.44,9,9,0,0,1-1-.22c-8.7.92-15.48-6.72-22.93-11.24a14,14,0,0,1-2.3-1.76C551.48,348.15,569.76,345.42,573.59,361.19Z" transform="translate(-31 -132)"/><path class="cls-6" d="M532,273.81a6.64,6.64,0,0,0,3.5,3.46,4.29,4.29,0,0,0,5.74.25c2.43-2,2-5.73.28-8.17s-4.81-4-7.4-2.55A5.34,5.34,0,0,0,532,273.81Z" transform="translate(-31 -132)"/><path class="cls-6" d="M560.17,308.09a5.91,5.91,0,0,0,.32,3.61,3.74,3.74,0,0,0,2.64,3.34c2,.38,3.21-1.6,3.34-3.75s-.72-4.61-2.53-5.36S560.71,306.06,560.17,308.09Z" transform="translate(-31 -132)"/><path class="cls-6" d="M568.62,359.39a3.26,3.26,0,0,0,.57,2,2,2,0,0,0,1.86,1.48c1.16-.09,1.65-1.41,1.48-2.64s-.9-2.5-2-2.64S568.7,358.15,568.62,359.39Z" transform="translate(-31 -132)"/><path class="cls-7" d="M423.2,394.23c-12.25,9.15-24.32,18.22-36.2,28-4.73,3.91-9.43,7.89-14,12.14-2.77,2.58-6.42,4.9-6.92,9.4,0,0,0,.06,0,.1,6.39-4.57,12.2-10.59,18.45-15.37q7.45-5.7,14.81-11.59c9.27-7.87,19.4-16.58,29.11-23.84,11.34-8.48,22.21-15.2,33.87-23.05s24.09-13.9,36.33-20.49c1.14-.6-.28-2-1.09-1.68C470.83,357.69,446.75,376.62,423.2,394.23Z" transform="translate(-31 -132)"/><path class="cls-2" d="M407.23,548.78c-3.5-9.88-9.42-18.51-13.21-28.34-4.13-10.76-7.21-22-10.74-33.07-10.6-33.12-19.2-76.32-51.76-87.11-14.91-4.94-31.33-.38-45.5,5.63-.93.39-1.86.83-2.8,1.26-.39.17-.77.36-1.16.52s-1,.47-1.55.72q-2.13,1-4.2,2.18a84.83,84.83,0,0,0-25.72,20.79c-13.33,14.57-21,33.45-27.36,53.55-12.82,40.53-46.14,83.36-22.67,127.64a80.08,80.08,0,0,0,43.64,37.53,152.05,152.05,0,0,0,61.22,7.77C326,656,347.24,647.22,365,634.8c.25.19.59.17,1.07-.21l6-4.92c12.3-9.3,25.22-21,32.89-35.08C412.4,580.91,412.43,563.4,407.23,548.78Z" transform="translate(-31 -132)"/><path class="cls-8" d="M288,652.85c-19.82-1.23-40.64-4.73-58.13-16.14-9.94-8-18.63-17.28-24.81-30.3-9.86-20.76-4.39-41.65-.9-63.25,3.11-8.7,7.23-16.91,10.88-25.3,5.12-11.78,9.88-24,14.53-36.09,9.31-24.21,19-46.82,38.8-60.73,17.09-12,38.92-20.13,58.77-15.86,20,4.31,32.2,25.75,40,46.39,8.12,21.43,14.84,43.73,22.32,65.5a215.42,215.42,0,0,0,10.48,24.34c5.37,15.34,8.46,30.14,1.38,47.29a77.89,77.89,0,0,1-13.22,20.77l-2.52,2.4c-8.84,8.38-17.89,16.13-27.82,22.59A117.3,117.3,0,0,1,288,652.85Z" transform="translate(-31 -132)"/><path class="cls-4" d="M399.9,541.41a215.42,215.42,0,0,1-10.48-24.34c-7.48-21.77-14.2-44.07-22.32-65.5-7.81-20.64-20-42.08-40-46.39-19.85-4.27-41.68,3.88-58.77,15.86-19.81,13.91-29.49,36.52-38.8,60.73-4.65,12.07-9.41,24.31-14.53,36.09-3.65,8.39-7.77,16.6-10.88,25.3-3.49,21.6-9,42.49.9,63.25,6.18,13,14.87,22.33,24.81,30.3.59.4,1.23.71,1.83,1.08-3-7.41-4.9-15.78-6-20.44-5.08-21-5.24-41.7-1.59-63.27,6.26-37.07,22.15-72.63,52.73-87.34,24.6-11.84,59.63-15.17,77.61,13.16,25.1,39.56,30.42,105.76,9.43,150.33a218.53,218.53,0,0,0,21.74-18.36l2.52-2.4a77.89,77.89,0,0,0,13.22-20.77C408.36,571.55,405.27,556.75,399.9,541.41Z" transform="translate(-31 -132)"/><path class="cls-2" d="M372.46,671.1c4.26,12.66,11.94,22.33,18.05,33.63,4.6,8.53,7.26,17.33,9.88,26.89a48.44,48.44,0,0,0,5.93,14.21c4.57,7,15.39,12.68,22,6.59,6.16-5.64,8.62-15.4,7.28-24.45-1.12-7.5-3.89-14.61-10.53-16.56-4.22-1.25-7.25,1.32-9.3,5a15.05,15.05,0,0,0-1.58-2.49,45.91,45.91,0,0,1-4.8-9.11c-1-2.42-2.23-4.83-3.31-7.31,12-2.79,28.89,12.68,34.76,24.45-.2,6,3.32,12.75,7.31,15.49a16.94,16.94,0,0,0,5.23,2.29,9.66,9.66,0,0,0,10.76-2.34,22.61,22.61,0,0,0,6.36-18c2.66,6.48,5.8,13.31,11.77,14,9.5,1.06,16-9.82,17.13-20.06,1-9.05-2.78-17.54-9.74-21.22-2.88-1.51-7.83-2-10.73-.3a10,10,0,0,0-2.77,2.2c-15.31-6.91-31.06-12.3-46.3-19.56-3.47-1.64-21.36-8.87-23.86-15,.42-.57.84-1.13,1.26-1.71,3.83-5.4,7.93-10.55,11.54-16.19A323.65,323.65,0,0,0,440,603.19c12.21-26.42,19.71-54.39,25-83.88,1.87-10.5,3.86-23.33-.76-33.29-3.46-7.43-9.14-12.64-16.67-10.83-10.62,2.56-20.77,12.1-28.77,20.44-5.15,5.35-9.25,11.92-13.89,17.86-2.89,3.68-6.41,7.73-7.33,12.87-1.1,6.09,2.75,9.24,4.64,14.3,2.65,7.05,6.32,14.24,7.46,21.93a86.89,86.89,0,0,1-.47,25.71c-6.72,19.6-14.58,38.9-20.56,58.79-2.48-5.28-9.77-5.55-13.44-1.7C369,652,369.55,662.43,372.46,671.1Z" transform="translate(-31 -132)"/><path class="cls-4" d="M373.34,661.17c-.07-4.5.4-9.87,4-12.52,3-2.18,7.61-3.95,10.17.14a1.24,1.24,0,0,0,.51.47c-1.1,3.74-2.15,7.5-3.08,11.3,0,.06,0,.13,0,.19.94-2.43,2.25-4.76,3.25-7.14,3.51-8.32,6.71-16.76,9.91-25.25q6.62-17.62,13.7-35c1-3,1.95-6.09,2.87-9.17,7.82-26.11,14.93-53.34,26.89-77.28.19-.39-.35-1.21-.66-.82-6.86,8.85-10.68,21.54-15.05,32.29-4.91,12.08-8.61,24.69-12.49,37.26A61.41,61.41,0,0,0,410.91,557c-3.58-11.45-10.5-23.44-8.11-35.1A81.13,81.13,0,0,1,420.36,498c6.91-6.5,15.64-14.92,24.13-18,31.2-11.32,15.29,47.43,11.86,63.72A267.8,267.8,0,0,1,432.27,611a280,280,0,0,1-17.68,30.62q-1.62,2.35-3.25,4.85c-1.19,2-2.37,4-3.59,5.94-3.05,4.9-6,10.21-9.48,14.73a24.06,24.06,0,0,0,6.86-6.4c5.83,13,59.18,32.67,69.52,36-.35,1.2-.88,3.24-1,3.27-.46.08-.41.59-.22,1a28.87,28.87,0,0,1,2.92-2.32,3.37,3.37,0,0,1,.5-.5c.22-.17.48-.25.7-.4a5.36,5.36,0,0,1,2.86-2.26c3.87-1.18,9.06-1,12.13,2.54,4.74,5.42,5.46,15.27,2.06,22-4.1,8.07-13.62,15.64-19.41,4.65-2.47-4.72-4-10.2-7.13-14.39a1.18,1.18,0,0,0-.51-.37c-.22-.44-.49-.83-.73-1.26l-.16-.17c-3.48-5.14-7.73-7.75-13-8.24a11.7,11.7,0,0,1,2.55,1.21,9.89,9.89,0,0,1,2.25,2.08,17.3,17.3,0,0,1,7.91,9.77c2.07,6.44,2,14.89-2.89,19.74-4.39,4.41-8.7,4.2-13.15,2.09a9.74,9.74,0,0,1-1.9-1.39,14,14,0,0,1-2.07-2.79,14.25,14.25,0,0,1-1.76-3.51,21.35,21.35,0,0,1-1.82-5.72,16.86,16.86,0,0,1-.06-4.43h0c-.36-.21-.74-.18-1,.38a11,11,0,0,0-.77,2.62c-2.8-7.92-9.3-12.78-15.12-17.5-5.58-4.53-13.69-10.8-20.67-7.38h0a27.54,27.54,0,0,1-1.5-5.31c-.23.86-.44,1.74-.63,2.63.77,4,2.67,7.67,4.13,11.41a85.85,85.85,0,0,0,7.56,14.43,34.3,34.3,0,0,0-1.91,6.1,1.41,1.41,0,0,0,.26,1,12.45,12.45,0,0,1,3.49-6.33,24.24,24.24,0,0,1,1.5-2,9.8,9.8,0,0,1,1.11-1.19c2.25-2.21,4.7-3.25,6.86-1.82a7.5,7.5,0,0,1,4.38,3.84c3.25,6.11,4.19,15.72,1.1,22.25-4.92,10.43-13.58,12.36-21.6,4.48-6.2-6.09-7.5-15.88-10.05-24.45-3.86-13-11.18-23.14-17.56-34.35C378.26,678.88,373.49,670.19,373.34,661.17Z" transform="translate(-31 -132)"/><path class="cls-2" d="M232.82,645.39c-3.67-3.85-11-3.58-13.44,1.7-6-19.89-13.84-39.19-20.56-58.79a87.57,87.57,0,0,1-.48-25.71c1.15-7.69,4.82-14.88,7.47-21.93a32.28,32.28,0,0,0,1.88-14.45.87.87,0,0,0,.31-.87c-.25-.62,1.66-2.34,1.42-3,3.63-3.34-4.59-6.47-7.2-9.44a81.44,81.44,0,0,0-13-17.32c-8-8.34-18.16-17.88-28.77-20.44-7.54-1.81-13.22,3.4-16.67,10.83-4.62,10-2.63,22.79-.75,33.29,5.27,29.49,12.76,57.46,25,83.88a323.77,323.77,0,0,0,21.23,38.38c3.6,5.64,7.69,10.79,11.53,16.19l1.26,1.71c-2.5,6.13-20.39,13.36-23.86,15-15.24,7.26-31,12.65-46.29,19.56a10.17,10.17,0,0,0-2.78-2.2c-2.9-1.66-7.85-1.21-10.73.3-7,3.68-10.74,12.17-9.74,21.22,1.12,10.24,7.64,21.12,17.13,20.06,6-.67,9.1-7.5,11.77-14a22.63,22.63,0,0,0,6.35,18,9.7,9.7,0,0,0,10.78,2.34,17.26,17.26,0,0,0,5.23-2.29c4-2.74,7.5-9.5,7.3-15.49,5.86-11.77,22.71-27.24,34.76-24.45h0c-1.09,2.48-2.31,4.89-3.32,7.31a45.91,45.91,0,0,1-4.8,9.11,14.42,14.42,0,0,0-1.58,2.49c-2.06-3.7-5.08-6.27-9.31-5-6.63,2-9.41,9.06-10.52,16.56-1.34,9,1.11,18.81,7.27,24.45,6.64,6.09,17.46.37,22-6.59a47.89,47.89,0,0,0,5.92-14.21c2.63-9.56,5.29-18.36,9.89-26.89,6.11-11.3,13.79-21,18.05-33.63C238.51,662.43,239.09,652,232.82,645.39Z" transform="translate(-31 -132)"/><path class="cls-4" d="M225.71,686.06c-6.38,11.21-13.7,21.38-17.56,34.35-2.55,8.57-3.86,18.36-10.05,24.45-8,7.88-16.68,5.95-21.61-4.48-3.08-6.53-2.14-16.14,1.11-22.25a7.5,7.5,0,0,1,4.38-3.84c2.16-1.43,4.61-.39,6.85,1.82A9.13,9.13,0,0,1,190,717.3c.51.62,1,1.29,1.49,2a12.47,12.47,0,0,1,3.51,6.33,1.5,1.5,0,0,0,.25-1,34.3,34.3,0,0,0-1.91-6.1,85.12,85.12,0,0,0,7.56-14.43c1.46-3.74,3.35-7.41,4.13-11.41-.19-.89-.39-1.77-.63-2.63a26.84,26.84,0,0,1-1.5,5.31h0c-7-3.42-15.1,2.85-20.68,7.38-5.81,4.72-12.31,9.58-15.11,17.5a11,11,0,0,0-.77-2.62c-.24-.56-.62-.59-1-.38h0a16,16,0,0,1-.06,4.43,21.32,21.32,0,0,1-1.8,5.72,15,15,0,0,1-1.77,3.51,14,14,0,0,1-2.07,2.79,9.74,9.74,0,0,1-1.9,1.39c-4.45,2.11-8.76,2.32-13.15-2.09-4.84-4.85-5-13.3-2.9-19.74a17.31,17.31,0,0,1,7.92-9.77,9.89,9.89,0,0,1,2.25-2.08,11.49,11.49,0,0,1,2.55-1.21c-5.26.49-9.51,3.1-13,8.24,0,.07-.11.11-.16.17-.23.43-.5.82-.72,1.26a1.1,1.1,0,0,0-.5.37c-3.14,4.19-4.67,9.67-7.15,14.39-5.78,11-15.3,3.42-19.39-4.65-3.41-6.71-2.69-16.56,2-22,3.06-3.51,8.25-3.72,12.13-2.54a5.36,5.36,0,0,1,2.86,2.26c.23.15.48.23.7.4a3.32,3.32,0,0,1,.49.5,29,29,0,0,1,2.93,2.32c.18-.44.24-1-.22-1-.09,0-.62-2.07-1-3.27,10.33-3.29,63.67-23,69.52-36a23.89,23.89,0,0,0,6.85,6.4c-3.52-4.52-6.44-9.83-9.48-14.73-1.22-2-2.4-4-3.59-5.94q-1.64-2.49-3.25-4.85A283.38,283.38,0,0,1,175.77,611a267.39,267.39,0,0,1-24.07-67.21c-3.43-16.29-19.34-75,11.86-63.72,8.49,3.07,17.22,11.49,24.13,18a81.13,81.13,0,0,1,17.56,23.9c2.39,11.66-4.52,23.65-8.11,35.1a61.72,61.72,0,0,0-2.44,18.67c-3.89-12.57-7.58-25.18-12.5-37.26-4.36-10.75-8.18-23.44-15-32.29-.31-.39-.85.43-.66.82,12,23.94,19.07,51.17,26.9,77.28.92,3.08,1.87,6.12,2.86,9.17q7.05,17.37,13.7,35c3.2,8.49,6.4,16.93,9.91,25.25,1,2.38,2.31,4.71,3.25,7.14,0-.06,0-.13,0-.19-.93-3.8-2-7.56-3.08-11.3a1.31,1.31,0,0,0,.51-.47c2.56-4.09,7.21-2.32,10.17-.14,3.61,2.65,4.07,8,4,12.52C234.56,670.19,229.8,678.88,225.71,686.06Z" transform="translate(-31 -132)"/><path class="cls-5" d="M184.34,496.45c1.89,4.89,5.86,14.14,3,19.55s-10.15.64-17.07-5.22c5,8.32,8.29,18.64,11.93,27.64,4.92,12.08,8.61,24.69,12.5,37.26A61.72,61.72,0,0,1,197.14,557c3.59-11.45,10.5-23.44,8.11-35.1A81.13,81.13,0,0,0,187.69,498c-1.41-1.32-2.9-2.73-4.43-4.15C183.61,494.73,184,495.58,184.34,496.45Z" transform="translate(-31 -132)"/><path class="cls-5" d="M230.71,648.65c-3-2.18-7.61-3.95-10.17.14a1.31,1.31,0,0,1-.51.47c1.1,3.74,2.15,7.5,3.08,11.3,0,.06,0,.13,0,.19-.94-2.43-2.25-4.76-3.25-7.14-3.51-8.32-6.71-16.76-9.91-25.25q-6.63-17.62-13.7-35c-1-3-1.94-6.09-2.86-9.17-7.73-25.77-14.77-52.62-26.46-76.35a107,107,0,0,0-8.57-7.22c5.75,17.47,12.25,34.6,17.78,52.18,5.87,18.61,10.4,37.7,17.34,55.82,3.61,9.43,7.48,18.72,11.8,27.71,3.6,7.5,8.18,14.72,11.05,22.67,3.91,10.85,2.24,20.08-.54,31.1-2.15,8.49-16.81,63.86-30.52,50-4.92-5-7.55-17.49-4.53-25.31a8,8,0,0,0-3.15,3.32c-3.25,6.11-4.19,15.72-1.11,22.25,4.93,10.43,13.59,12.36,21.61,4.48,6.19-6.09,7.5-15.88,10.05-24.45,3.86-13,11.18-23.14,17.56-34.35,4.09-7.18,8.85-15.87,9-24.89C234.78,656.67,234.32,651.3,230.71,648.65Z" transform="translate(-31 -132)"/><path class="cls-5" d="M200.88,694.69c2.47-3.56,4-10.72-1.73-10.2-4.15.36-8.12,2.51-11.73,4.86-8.59,5.58-13.64,13.89-20.43,22.06-4.56,5.46-10,11.38-16.82,7.91-2.49-1.28-3.67-4.38-4.5-7.23-.34-1.21.75-4.94,1.05-6.51a17,17,0,0,0-5.09,7.69c-2.06,6.44-1.94,14.89,2.9,19.74,4.39,4.41,8.7,4.2,13.15,2.09a9.74,9.74,0,0,0,1.9-1.39,14,14,0,0,0,2.07-2.79,15,15,0,0,0,1.77-3.51,21.32,21.32,0,0,0,1.8-5.72,16,16,0,0,0,.06-4.43h0c.36-.21.74-.18,1,.38a11,11,0,0,1,.77,2.62c2.8-7.92,9.3-12.78,15.11-17.5C187.22,698.63,194.39,693.11,200.88,694.69Z" transform="translate(-31 -132)"/><path class="cls-5" d="M117.35,704.48a18.68,18.68,0,0,1-1.5-6.82c-.12.12-.26.22-.37.35-4.74,5.42-5.46,15.27-2,22,4.09,8.07,13.61,15.64,19.39,4.65,2.48-4.72,4-10.2,7.15-14.39a1.1,1.1,0,0,1,.5-.37c.22-.44.49-.83.72-1.26.05-.06.11-.1.16-.17.38-.56.78-1.08,1.18-1.58C133.51,711,122.61,716.77,117.35,704.48Z" transform="translate(-31 -132)"/><path class="cls-4" d="M373.34,661.17c-.07-4.5.4-9.87,4-12.52,3-2.18,7.61-3.95,10.17.14a1.24,1.24,0,0,0,.51.47c-1.1,3.74-2.15,7.5-3.08,11.3,0,.06,0,.13,0,.19.94-2.43,2.25-4.76,3.25-7.14,3.51-8.32,6.71-16.76,9.91-25.25q6.62-17.62,13.7-35c1-3,1.95-6.09,2.87-9.17,7.82-26.11,14.93-53.34,26.89-77.28.19-.39-.35-1.21-.66-.82-6.86,8.85-10.68,21.54-15.05,32.29-4.91,12.08-8.61,24.69-12.49,37.26A61.41,61.41,0,0,0,410.91,557c-3.58-11.45-10.5-23.44-8.11-35.1A81.13,81.13,0,0,1,420.36,498c6.91-6.5,15.64-14.92,24.13-18,31.2-11.32,15.29,47.43,11.86,63.72A267.8,267.8,0,0,1,432.27,611a280,280,0,0,1-17.68,30.62q-1.62,2.35-3.25,4.85c-1.19,2-2.37,4-3.59,5.94-3.05,4.9-6,10.21-9.48,14.73a24.06,24.06,0,0,0,6.86-6.4c5.83,13,59.18,32.67,69.52,36-.35,1.2-.88,3.24-1,3.27-.46.08-.41.59-.22,1a28.87,28.87,0,0,1,2.92-2.32,3.37,3.37,0,0,1,.5-.5c.22-.17.48-.25.7-.4a5.36,5.36,0,0,1,2.86-2.26c3.87-1.18,9.06-1,12.13,2.54,4.74,5.42,5.46,15.27,2.06,22-4.1,8.07-13.62,15.64-19.41,4.65-2.47-4.72-4-10.2-7.13-14.39a1.18,1.18,0,0,0-.51-.37c-.22-.44-.49-.83-.73-1.26l-.16-.17c-3.48-5.14-7.73-7.75-13-8.24a11.7,11.7,0,0,1,2.55,1.21,9.89,9.89,0,0,1,2.25,2.08,17.3,17.3,0,0,1,7.91,9.77c2.07,6.44,2,14.89-2.89,19.74-4.39,4.41-8.7,4.2-13.15,2.09a9.74,9.74,0,0,1-1.9-1.39,14,14,0,0,1-2.07-2.79,14.25,14.25,0,0,1-1.76-3.51,21.35,21.35,0,0,1-1.82-5.72,16.86,16.86,0,0,1-.06-4.43h0c-.36-.21-.74-.18-1,.38a11,11,0,0,0-.77,2.62c-2.8-7.92-9.3-12.78-15.12-17.5-5.58-4.53-13.69-10.8-20.67-7.38h0a27.54,27.54,0,0,1-1.5-5.31c-.23.86-.44,1.74-.63,2.63.77,4,2.67,7.67,4.13,11.41a85.85,85.85,0,0,0,7.56,14.43,34.3,34.3,0,0,0-1.91,6.1,1.41,1.41,0,0,0,.26,1,12.45,12.45,0,0,1,3.49-6.33,24.24,24.24,0,0,1,1.5-2,9.8,9.8,0,0,1,1.11-1.19c2.25-2.21,4.7-3.25,6.86-1.82a7.5,7.5,0,0,1,4.38,3.84c3.25,6.11,4.19,15.72,1.1,22.25-4.92,10.43-13.58,12.36-21.6,4.48-6.2-6.09-7.5-15.88-10.05-24.45-3.86-13-11.18-23.14-17.56-34.35C378.26,678.88,373.49,670.19,373.34,661.17Z" transform="translate(-31 -132)"/><path class="cls-4" d="M373.34,661.17c-.07-4.5.4-9.87,4-12.52,3-2.18,7.61-3.95,10.17.14a1.24,1.24,0,0,0,.51.47c-1.1,3.74-2.15,7.5-3.08,11.3,0,.06,0,.13,0,.19.94-2.43,2.25-4.76,3.25-7.14,3.51-8.32,6.71-16.76,9.91-25.25q6.62-17.62,13.7-35c1-3,1.95-6.09,2.87-9.17,7.82-26.11,14.93-53.34,26.89-77.28.19-.39-.35-1.21-.66-.82-6.86,8.85-10.68,21.54-15.05,32.29-4.91,12.08-8.61,24.69-12.49,37.26A61.41,61.41,0,0,0,410.91,557c-3.58-11.45-10.5-23.44-8.11-35.1A81.13,81.13,0,0,1,420.36,498c6.91-6.5,15.64-14.92,24.13-18,31.2-11.32,15.29,47.43,11.86,63.72A267.8,267.8,0,0,1,432.27,611a280,280,0,0,1-17.68,30.62q-1.62,2.35-3.25,4.85c-1.19,2-2.37,4-3.59,5.94-3.05,4.9-6,10.21-9.48,14.73a24.06,24.06,0,0,0,6.86-6.4c5.83,13,59.18,32.67,69.52,36-.35,1.2-.88,3.24-1,3.27-.46.08-.41.59-.22,1a28.87,28.87,0,0,1,2.92-2.32,3.37,3.37,0,0,1,.5-.5c.22-.17.48-.25.7-.4a5.36,5.36,0,0,1,2.86-2.26c3.87-1.18,9.06-1,12.13,2.54,4.74,5.42,5.46,15.27,2.06,22-4.1,8.07-13.62,15.64-19.41,4.65-2.47-4.72-4-10.2-7.13-14.39a1.18,1.18,0,0,0-.51-.37c-.22-.44-.49-.83-.73-1.26l-.16-.17c-3.48-5.14-7.73-7.75-13-8.24a11.7,11.7,0,0,1,2.55,1.21,9.89,9.89,0,0,1,2.25,2.08,17.3,17.3,0,0,1,7.91,9.77c2.07,6.44,2,14.89-2.89,19.74-4.39,4.41-8.7,4.2-13.15,2.09a9.74,9.74,0,0,1-1.9-1.39,14,14,0,0,1-2.07-2.79,14.25,14.25,0,0,1-1.76-3.51,21.35,21.35,0,0,1-1.82-5.72,16.86,16.86,0,0,1-.06-4.43h0c-.36-.21-.74-.18-1,.38a11,11,0,0,0-.77,2.62c-2.8-7.92-9.3-12.78-15.12-17.5-5.58-4.53-13.69-10.8-20.67-7.38h0a27.54,27.54,0,0,1-1.5-5.31c-.23.86-.44,1.74-.63,2.63.77,4,2.67,7.67,4.13,11.41a85.85,85.85,0,0,0,7.56,14.43,34.3,34.3,0,0,0-1.91,6.1,1.41,1.41,0,0,0,.26,1,12.45,12.45,0,0,1,3.49-6.33,24.24,24.24,0,0,1,1.5-2,9.8,9.8,0,0,1,1.11-1.19c2.25-2.21,4.7-3.25,6.86-1.82a7.5,7.5,0,0,1,4.38,3.84c3.25,6.11,4.19,15.72,1.1,22.25-4.92,10.43-13.58,12.36-21.6,4.48-6.2-6.09-7.5-15.88-10.05-24.45-3.86-13-11.18-23.14-17.56-34.35C378.26,678.88,373.49,670.19,373.34,661.17Z" transform="translate(-31 -132)"/><path class="cls-4" d="M418.54,499.88c-.7,1.62-1.42,3.23-2.08,4.89-2.32,6-7,15.8-5.39,22.71,2.61,11.33,15.78-8.36,17.85-11.4,5.26-7.71,10.87-15.17,18.08-20.32,1-.72,2.11,1.12,1.85,2.19-5.29,22.53-15.15,42.81-21.69,64.77C424,573.17,420.4,583.31,417,593.66c-3.29,10.19-15.11,44.09-7.25,55.31l1.55-2.55q1.64-2.49,3.25-4.85A280,280,0,0,0,432.27,611a267.8,267.8,0,0,0,24.08-67.21c3.43-16.29,19.34-75-11.86-63.72-8.49,3.07-17.22,11.49-24.13,18C419.71,498.62,419.16,499.26,418.54,499.88Z" transform="translate(-31 -132)"/><path class="cls-4" d="M426.07,714.29c-2.16-1.43-4.61-.39-6.86,1.82a9.8,9.8,0,0,0-1.11,1.19,24.24,24.24,0,0,0-1.5,2,12.45,12.45,0,0,0-3.49,6.33,1.41,1.41,0,0,1-.26-1,34.3,34.3,0,0,1,1.91-6.1,85.85,85.85,0,0,1-7.56-14.43c-1-2.49-2.1-5-3-7.52a20.08,20.08,0,0,0-1.58,1.3c-1.21,7.37,7,26.79,8.67,30.23a19.3,19.3,0,0,0,8.84,9c1.66.91,6.57,3.55,10.8,4.42.21-.38.42-.76.61-1.18,3.09-6.53,2.15-16.14-1.1-22.25A7.5,7.5,0,0,0,426.07,714.29Z" transform="translate(-31 -132)"/><path class="cls-5" d="M449.45,717.87c-12-8.15-27.65-28.77-41.75-23.25,6.36-1.17,13.27,4.13,18.19,8.13,5.82,4.72,12.32,9.58,15.12,17.5a11,11,0,0,1,.77-2.62c.24-.56.62-.59,1-.38h0a16.86,16.86,0,0,0,.06,4.43,21.35,21.35,0,0,0,1.82,5.72,14.25,14.25,0,0,0,1.76,3.51,14,14,0,0,0,2.07,2.79,9.74,9.74,0,0,0,1.9,1.39c4.45,2.11,8.76,2.32,13.15-2.09,4.07-4.08,4.78-10.7,3.67-16.56C464.89,725.18,456.18,722.42,449.45,717.87Z" transform="translate(-31 -132)"/><path class="cls-5" d="M495,702a20.94,20.94,0,0,1-4.94,8.31c-6.31,6.48-14,7-20.41,2.47,2.13,3.73,3.56,8,5.56,11.85,5.79,11,15.31,3.42,19.41-4.65A22.24,22.24,0,0,0,495,702Z" transform="translate(-31 -132)"/><path class="cls-5" d="M400.68,630.47c3-7.55,6.19-15.13,9.31-22.75.12-.47.26-.94.38-1.36,3.62-12.76,8.23-25,12.21-37.58,7.15-22.52,16.68-44.34,22.66-67.37-9.28,8.28-14.6,20.66-23.68,29.21-3.22,3-9.91,5.71-12.16-.53-2.41-6.69.41-14.91,2.6-21.17.37-1.05.77-2.06,1.16-3.09a83.39,83.39,0,0,0-10.36,16.08c-2.39,11.66,4.53,23.65,8.11,35.1a61.41,61.41,0,0,1,2.44,18.67c3.88-12.57,7.58-25.18,12.49-37.26,4.37-10.75,8.19-23.44,15.05-32.29.31-.39.85.43.66.82-12,23.94-19.07,51.17-26.89,77.28-.92,3.08-1.89,6.12-2.87,9.17q-7.05,17.37-13.7,35c-2.34,6.2-4.71,12.35-7.17,18.47v.82a1.3,1.3,0,0,1-.8,1.15c-.65,1.6-1.26,3.21-1.94,4.81-.55,1.32-1.19,2.62-1.82,3.93a73,73,0,0,0,3.06,14.75C388.92,658,396,642.07,400.68,630.47Z" transform="translate(-31 -132)"/><path class="cls-5" d="M409.94,731.08c-.88-1.8-3.16-6.92-5.33-12.88-7.19-12-12.51-27.26-16.67-40.42-2.24-7.1-5.23-15.73-4.52-23.5a11.32,11.32,0,0,1,1.91-6,4.91,4.91,0,0,1,.87-.95c-2.64-2.06-6.35-.55-8.86,1.3-3.6,2.65-4.07,8-4,12.52.15,9,4.92,17.71,9,24.89,6.38,11.21,13.7,21.38,17.56,34.35,2.55,8.57,3.85,18.36,10.05,24.45,6.77,6.64,14,6.3,19-.24C421.37,742.53,412.25,735.79,409.94,731.08Z" transform="translate(-31 -132)"/><path class="cls-6" d="M184.52,611c-9.16-20-17.45-39.7-24.48-61-3.12-9.4-5-19.48-6.68-29.37-1.48-8.82-.48-19.5-3.4-27.78-.32-.89-1.18,0-1.11.72.48,4.56-.34,9,0,13.59.37,5.29.46,10.4,1.15,15.65a186.43,186.43,0,0,0,7.18,32.5c6.39,19.89,13.05,41.89,25,58C183.32,614.86,185.23,612.56,184.52,611Z" transform="translate(-31 -132)"/><path class="cls-6" d="M452.63,522.28c-.61,1.77-1.23,3.52-1.82,5.29-.44,1.33-.87,2.65-1.3,4-1.64,9.74-3.53,19.66-6.6,28.91-7,21.27-15.32,40.95-24.47,61-.72,1.56,1.19,3.87,2.31,2.36,12-16.13,18.66-38.12,25-58a186.41,186.41,0,0,0,7.17-32.5c.51-3.85.7-7.62.9-11.45A12.59,12.59,0,0,0,452.63,522.28Z" transform="translate(-31 -132)"/><path class="cls-6" d="M132.1,704a3.67,3.67,0,0,0-.31-1.59,2.73,2.73,0,0,0-.09-.61,8.36,8.36,0,0,0-4.15-4,4.8,4.8,0,0,0-3-.72,4,4,0,0,0-3.49,1.81c-.82,1.28-.2,3.13,1.24,4.44a10.65,10.65,0,0,0,5.31,3.83C130.38,707.76,132,706.23,132.1,704Z" transform="translate(-31 -132)"/><path class="cls-6" d="M190.21,720.27a5.76,5.76,0,0,0-.55-.64c-.09-.19-.17-.4-.26-.58a4.21,4.21,0,0,0-.36-.57,1.29,1.29,0,0,0-1.11-.6,2,2,0,0,0-2-.94c-1.68.41-2.41,2.41-2.77,4.2a15.24,15.24,0,0,0,4,13.53c2.88,2.94,6.6-.06,6.47-4.29A20.29,20.29,0,0,0,190.21,720.27Z" transform="translate(-31 -132)"/><path class="cls-6" d="M158.54,712.34A3.52,3.52,0,0,0,158,710c-.05-.11-.13-.2-.18-.29a5.18,5.18,0,0,0-.79-1.91,3.37,3.37,0,0,0-2.37-1.45c-.09-.06-.17-.13-.26-.18-2-1.07-3.78.12-4.5,2.24a2.34,2.34,0,0,0-.09.46,4.46,4.46,0,0,0-.34,4.13,5.45,5.45,0,0,0,4.2,3.1,3.47,3.47,0,0,0,3.29-.49,4.29,4.29,0,0,0,1.23-1.82,3.62,3.62,0,0,0,.34-1.42A.35.35,0,0,0,158.54,712.34Z" transform="translate(-31 -132)"/><path class="cls-6" d="M220.61,706.64a3.54,3.54,0,0,0-2.48-1.34,2.65,2.65,0,0,0-3.36,1,3.59,3.59,0,0,0,.92,4.77,3.42,3.42,0,0,0,4.62.08A3.36,3.36,0,0,0,220.61,706.64Z" transform="translate(-31 -132)"/><path class="cls-6" d="M488.1,699.87a2.65,2.65,0,0,0-1.16-.85,2.1,2.1,0,0,0-.42-.36c-1.38-.65-3.55-.22-5.33.68a5.5,5.5,0,0,0-2.54,2.07,5.6,5.6,0,0,0-1.38,4.23c.19,1.6,1.7,2.36,3.49,2.07a9.39,9.39,0,0,0,6-1.81C489.15,704,489.41,701.54,488.1,699.87Z" transform="translate(-31 -132)"/><path class="cls-6" d="M427.72,719.84a3.77,3.77,0,0,0-.55-.63c-.08-.2-.16-.42-.25-.6a5,5,0,0,0-.37-.57,1.22,1.22,0,0,0-1.1-.59,2,2,0,0,0-2-.94c-1.68.41-2.4,2.4-2.78,4.19a15.3,15.3,0,0,0,4,13.54c2.88,2.93,6.59-.06,6.46-4.3A20.19,20.19,0,0,0,427.72,719.84Z" transform="translate(-31 -132)"/><path class="cls-6" d="M463.7,713.21a3.52,3.52,0,0,0-.52-2.31c-.05-.11-.12-.19-.18-.3a4.88,4.88,0,0,0-.79-1.9,3.35,3.35,0,0,0-2.36-1.45l-.25-.18c-2-1.07-3.8.12-4.53,2.24-.05.14,0,.31-.08.48a4.48,4.48,0,0,0-.34,4.11,5.48,5.48,0,0,0,4.2,3.1,3.49,3.49,0,0,0,3.29-.49,4.31,4.31,0,0,0,1.22-1.82,3.46,3.46,0,0,0,.35-1.42A.35.35,0,0,0,463.7,713.21Z" transform="translate(-31 -132)"/><path class="cls-9" d="M395.26,547c-.35-3.33-1.55-7.68-4.73-8.25a2.15,2.15,0,0,0-1.8.52c-.55-.06-1.1.49-1.33,1-1.4,3.36-1.27,7.72-.3,11.23.84,3.05,3.22,6.07,6.06,4.53C395.82,554.63,395.54,549.75,395.26,547Z" transform="translate(-31 -132)"/><path class="cls-9" d="M399.6,565.28a.69.69,0,0,0-.61-.48c-.33-.94-1.63-.07-1.66,1a9,9,0,0,0,0,1.28c0,.33-.07.67-.07,1,0,1,.45,1.23,1,1.15.55.5,1.26-.25,1.51-.79A3,3,0,0,0,399.6,565.28Z" transform="translate(-31 -132)"/><path class="cls-9" d="M393.88,575.26a2.08,2.08,0,0,0-2.34-.43c-1-.53-1.93.45-2.25,1.83a5.61,5.61,0,0,0-.5,2.89c-.16,1.92.37,3.8,1.85,4.37a1.85,1.85,0,0,0,2.42-.44,5.8,5.8,0,0,0,1.33-2.17,1,1,0,0,0,.44-.61C395.14,578.84,395.19,576.6,393.88,575.26Z" transform="translate(-31 -132)"/><path class="cls-9" d="M388.68,595.87h-.11a.53.53,0,0,0-.42.14,1,1,0,0,0-.75,1.2c.19.55.07.86.49,1.22s.76.05,1-.3a2.48,2.48,0,0,0,.43-1.46C389.27,596.19,389.06,595.93,388.68,595.87Z" transform="translate(-31 -132)"/><path class="cls-9" d="M380.78,600.42c-1.57,0-2.32,2.42-1.46,3.77a1.8,1.8,0,0,0,.38.91c1,1.33,2.49-.35,2.72-1.68S382.18,600.45,380.78,600.42Z" transform="translate(-31 -132)"/><path class="cls-9" d="M209.89,562.59c2.84,1.54,5.23-1.49,6.07-4.54,1-3.49,1.1-7.86-.31-11.22-.23-.55-.77-1.11-1.32-1.05a2.16,2.16,0,0,0-1.8-.52c-3.17.57-4.39,4.92-4.73,8.26C207.51,556.27,207.23,561.15,209.89,562.59Z" transform="translate(-31 -132)"/><path class="cls-9" d="M203.45,571.81a.76.76,0,0,1,.62-.49c.32-.93,1.63-.07,1.66,1,0,.44,0,.85,0,1.27s.07.66.07,1c0,.93-.46,1.21-1,1.13-.55.5-1.26-.25-1.52-.79A3,3,0,0,1,203.45,571.81Z" transform="translate(-31 -132)"/><path class="cls-9" d="M209.18,581.79a2.09,2.09,0,0,1,2.33-.44c1-.53,1.94.46,2.26,1.83a5.86,5.86,0,0,1,.5,2.9c.16,1.91-.37,3.79-1.85,4.38A1.91,1.91,0,0,1,210,590a6,6,0,0,1-1.31-2.16,1,1,0,0,1-.45-.62C207.92,585.37,207.87,583.12,209.18,581.79Z" transform="translate(-31 -132)"/><path class="cls-9" d="M214.38,602.39h.11a.54.54,0,0,1,.42.15,1,1,0,0,1,.74,1.2c-.19.54-.06.87-.47,1.22s-.77,0-1-.31a2.32,2.32,0,0,1-.43-1.45A.71.71,0,0,1,214.38,602.39Z" transform="translate(-31 -132)"/><path class="cls-9" d="M222.28,607c1.57,0,2.31,2.43,1.46,3.77a1.9,1.9,0,0,1-.38.9c-1,1.33-2.5-.35-2.72-1.67S220.89,607,222.28,607Z" transform="translate(-31 -132)"/><path class="cls-5" d="M242.42,463.73c7.56-8.12,16.17-13.64,26.33-15.16,11-1.62,22,.07,33-1.41,21.74-2.94,45.17-14,63.26,6.67a95.51,95.51,0,0,1,7.26,9.63c-1.67-4.77-3.37-9.52-5.15-14.21-7.81-20.64-20-42.09-40-46.39-19.84-4.27-41.68,3.87-58.76,15.87-19.81,13.91-29.5,36.5-38.81,60.72-.61,1.57-1.24,3.16-1.86,4.74A111.75,111.75,0,0,1,242.42,463.73Z" transform="translate(-31 -132)"/><path class="cls-2" d="M427.25,217.69c-26.06-30.19-65.71-35.27-99.79-27.79a276.11,276.11,0,0,0-59.31,20.91,183.7,183.7,0,0,0-25.43,14.83c-4.49,2.55-8.92,5.27-13.27,8.21-16,10.76-29.24,25.07-41,41.75-22.38,31.69-37.64,75-25.92,116.12,12.33,43.38,48.4,60.9,83.83,64a195.75,195.75,0,0,0,62.3-4.53c20.68-4.92,38.1-15.45,56.49-27.26,17.13-11,31.19-26.18,44-43.55,12.41-16.85,23.77-36,31.1-56.76C452.4,289.17,450.63,244.79,427.25,217.69Z" transform="translate(-31 -132)"/><path class="cls-4" d="M396.29,390.41c-15.43,18.55-34.49,31.48-54.05,42.83-20.45,11.87-44.09,16.42-66.59,17.88-26.84,1.75-55.49-.75-79.34-16.81-27.3-18.37-39.44-57.22-33.29-93,5.52-32,22.74-60.39,42.25-82.54a139.17,139.17,0,0,1,14.9-14.48c-.36.48-.73.95-1.07,1.47-1.34,2.07.54,4.9,2.08,2.53,6.18-9.48,16.79-15,25.35-20.89,10.85-7.46,22.79-13,34.57-17.89,20.75-8.66,42.93-15.76,64.91-17.44,38.82-3,84.87,16.89,95.63,66.06C452.65,308.47,424.4,356.62,396.29,390.41Z" transform="translate(-31 -132)"/><path class="cls-5" d="M441.64,258.17C430.88,209,384.83,189.12,346,192.11c-22,1.68-44.16,8.78-64.91,17.44-11.78,4.91-23.72,10.43-34.57,17.89-8.56,5.89-19.17,11.41-25.35,20.89-1.54,2.37-3.42-.46-2.08-2.53.34-.52.71-1,1.07-1.47a139.17,139.17,0,0,0-14.9,14.48C185.76,281,168.54,309.33,163,341.35c-6.15,35.74,6,74.59,33.29,93,23.85,16.06,52.5,18.56,79.34,16.81,22.5-1.46,46.14-6,66.59-17.88,19.56-11.35,38.62-24.28,54.05-42.83C424.4,356.62,452.65,308.47,441.64,258.17Zm-29.25,52.41A141.48,141.48,0,0,1,394.3,369a139.45,139.45,0,0,1-22.5,29.43c-14.48,20-38.82,31.46-58.94,38-30.71,10-61.68,15.52-91.8-.34-25.91-13.62-44.72-38.41-49.54-72.23-2.75-19.19-3.23-43.35,8.38-56.71,3.07-4.29,6-9.3,11.15-9,6.7.35,10.56,10.38,15.23,14.65,12.82,11.71,37.75,10.87,50.56-.71,10.59-9.57,16-26.14,27.35-34.5,12.13-8.88,21.11,3.29,32.76,7.23,19.94,6.72,39.5-4.16,56.6-15.24,7.63-4.94,19.39-12.67,27.79-5.64C412.52,273.26,413.58,295.91,412.39,310.58Z" transform="translate(-31 -132)"/><path class="cls-2" d="M379.6,252.5a110.29,110.29,0,0,1-16.57,12,62.53,62.53,0,0,0,9-17.23c6.35-18,6.77-40.45,3-59.2-4-19.57-12.44-41.11-27.5-51.71-7.78-5.47-17.39-5.41-26.13-2-13.56,1.82-26.29,12.58-32.63,26.91-.53,1.17.5,1.85,1.14.8,4.92-8,10.49-14,16.86-18-.26.27-.54.52-.79.78-1.23,1.34-2.36,2.73-3.45,4.18a37.34,37.34,0,0,0-6.79,8c-5.43,8.43-8.14,18.53-9.78,28.83a87.5,87.5,0,0,0-1,15.29c-1.1-9.12-3.33-17.83-7.24-25.2-3.09-5.82-6-9.54-10.28-12.25,2,.08,4,.22,6,.49.62.09,1.08-1.16.41-1.45a38.85,38.85,0,0,0-22.68-2.47,4.57,4.57,0,0,0-.48.1c-21.38,4.23-40.62,25.06-49.93,47.9-7.08,17.36-9,38.26-6.4,57.2,1.57,11.41,6.21,24.31,13.59,33a42.22,42.22,0,0,1-15.85-14.17c-.34-.51-.93.41-.67.87,6.46,11.46,16.7,20.13,28.17,22a3.88,3.88,0,0,0,.36.15c14.42,5.28,30.15-3.54,40.86-15,12.78-13.66,20-31.36,23-51.31a166.33,166.33,0,0,0,1.9-29.37A112.06,112.06,0,0,0,299,250.7a63.16,63.16,0,0,0,7.82,11.22c1.3,1.66,2.64,3.26,4.05,4.74a1.2,1.2,0,0,0,1.09.38A42.25,42.25,0,0,0,329,276.22a69.15,69.15,0,0,1-16.57-.24c-.4-.05-.73.86-.27.94a77.09,77.09,0,0,0,28.79.44,27,27,0,0,0,9.92-2.56,68.7,68.7,0,0,0,29.76-20.11C381.55,253.66,380.86,251.41,379.6,252.5Z" transform="translate(-31 -132)"/><path class="cls-10" d="M280.49,245.7a82.8,82.8,0,0,1-23.35,45.59c-11,11-26.84,18.25-40.29,9.51C204,292.44,198.46,273.29,197.13,257a104.9,104.9,0,0,1,9.17-51.57c10.65-22.84,29.47-36.8,50.24-39.84a25.81,25.81,0,0,1,4.47.71c7.8,2.05,12.44,11.62,15.65,19.5C283.73,203.18,283.44,227.15,280.49,245.7Z" transform="translate(-31 -132)"/><path class="cls-10" d="M308.63,256.82c-17.21-25.72-24.45-61.4-11.41-92,8.24-19.32,28.19-33.61,46.1-24.39,16.23,8.36,24.94,34.06,28.31,53.19,3.51,19.87,1.91,43-6.61,60.8-9.86,20.65-31.77,21.7-47.54,10.65A48.21,48.21,0,0,1,308.63,256.82Z" transform="translate(-31 -132)"/><path class="cls-11" d="M269.81,234.42c-.32,25.13-13.08,45.27-28.49,45s-27.65-20.87-27.33-46,13.08-45.27,28.49-45S270.13,209.3,269.81,234.42Z" transform="translate(-31 -132)"/><path class="cls-12" d="M257.53,235.8c-.19,14.41-7.52,26-16.37,25.82s-15.86-12-15.68-26.42,7.51-26,16.35-25.82S257.7,221.37,257.53,235.8Z" transform="translate(-31 -132)"/><path class="cls-10" d="M240.79,219.93c-.12,9.36-4.87,16.85-10.61,16.75s-10.29-7.77-10.17-17.13,4.87-16.85,10.6-16.74S240.91,210.58,240.79,219.93Z" transform="translate(-31 -132)"/><path class="cls-10" d="M238.37,250.05c0,3.25-1.69,5.86-3.69,5.83s-3.58-2.71-3.54-6,1.69-5.87,3.69-5.82S238.41,246.79,238.37,250.05Z" transform="translate(-31 -132)"/><path class="cls-2" d="M409.12,346.85a47.61,47.61,0,0,0-15.19-24.1c-5.78-4.67-13.8-9.26-21.19-10.34,6.47-8.68,12.19-18.12,15.95-28.23a29,29,0,0,0-.1-9.74,2.53,2.53,0,0,0-.23.55c-2.17,10.65-8.71,20.52-14.19,29-6.16,9.55-13.4,18-20.81,26.15a257.16,257.16,0,0,1-47,40.84,159.41,159.41,0,0,1-53.6,23.09,56,56,0,0,1-26,.26,33.37,33.37,0,0,1-11.06-5c-4.3-3-5.67-7.11-5.57-11.57a24,24,0,0,1-.05-9.77c-2.71,5.67-4.38,13.09-1.09,18.55,5.15,8.55,13.58,11.11,21.85,12.88,10.58,2.26,21.77-1,32-3.68C274,392.9,284.7,388,295,382.35c3.21-1.76,6.37-3.67,9.49-5.64,18.25,5.15,28.67,28.39,44.87,39,16.58,10.82,36.63,2.57,48.75-13.43C409.09,387.72,414,365.8,409.12,346.85Z" transform="translate(-31 -132)"/><path class="cls-13" d="M388.85,407.14c-7.93,7-17.38,11.12-27.29,9.89-8.82-1.09-16.82-7.73-23.47-14.24-9.84-9.64-18.57-25-31.65-27.38A241.55,241.55,0,0,0,344,344.76a58.82,58.82,0,0,1,5.92.7,35.37,35.37,0,0,1,8.54,3.28c4.24,2.31,11.9,6.71,11.66,13.32,0,.89.92.63,1-.08.71-6.12-3.93-10.15-7.75-13.12a30.69,30.69,0,0,0-16.77-6.7c2.22-2.25,4.43-4.52,6.58-6.83,5.34-5.71,11.06-12,16.47-18.87,6.51.38,13.91,4.35,19.47,8.06,8.34,5.55,14.75,15.72,17.52,26.52C412,371.89,402.71,394.85,388.85,407.14Z" transform="translate(-31 -132)"/><path class="cls-14" d="M333.1,365.56c15.58-13.38,29.21-1.33,41.41,11.09,4.21-7.77-1.93-18.37-4.79-25.56a33.33,33.33,0,0,1-1.51-19.72,29.33,29.33,0,0,1,7.15-13.78,23.64,23.64,0,0,0-5.72-1.13c-5.41,6.83-11.13,13.16-16.47,18.87-2.15,2.31-4.36,4.58-6.58,6.83a30.69,30.69,0,0,1,16.77,6.7c3.82,3,8.46,7,7.75,13.12-.09.71-1,1-1,.08.24-6.61-7.42-11-11.66-13.32a35.37,35.37,0,0,0-8.54-3.28,58.82,58.82,0,0,0-5.92-.7,241.55,241.55,0,0,1-37.54,30.65c8.11,1.49,14.55,7.95,20.62,14.94C325.32,381,326.78,371,333.1,365.56Z" transform="translate(-31 -132)"/><path class="cls-15" d="M359.22,374.78a11.26,11.26,0,0,0-8-1.18c-2.61-.26-4.72,1.37-6.24,4a8.36,8.36,0,0,0-1.13,2.5c-.07.17-.15.33-.21.51-1.73,5.17.08,10.88,2.32,15.35,4.61,9.23,17.34,17.89,23.81,6.13C374.81,393.06,365.9,378.7,359.22,374.78Z" transform="translate(-31 -132)"/><path class="cls-15" d="M384,333.85a6,6,0,0,0-4.24-.63c-1.39-.13-2.52.73-3.33,2.16a4.31,4.31,0,0,0-.61,1.32,2.49,2.49,0,0,1-.11.29c-.92,2.75.05,5.8,1.24,8.19,2.46,4.91,9.25,9.53,12.7,3.25C392.29,343.59,387.54,335.94,384,333.85Z" transform="translate(-31 -132)"/><path class="cls-2" d="M287.38,306.47c-.52-1-1.5-.14-1.67.72a7.44,7.44,0,0,0,0,2.86.94.94,0,0,0,.32.55c.05.49.27.9.73.8l.35-.07a1.29,1.29,0,0,0,.79-1A6,6,0,0,0,287.38,306.47Z" transform="translate(-31 -132)"/><path class="cls-2" d="M296.15,302.45c-.87-1-1.89.82-1.72,1.79s.32,2.58,1.28,3.08,1.67-1,1.44-1.92A4,4,0,0,0,296.15,302.45Z" transform="translate(-31 -132)"/><path class="cls-2" d="M355.66,190c-10,0-19.06,6.24-26,14.46-4.51,5.39-6.9,11.75-8,18.58-1.48-22.38,6.95-44.53,25.59-53.45.31-.14.33-.87-.08-.7-23.4,9.51-33.59,41.77-26.14,69,.56,2,2.8-.25,2.58-1.77-3.47-24.66,13.5-40.1,31.83-44.06C356.3,191.89,356.75,190,355.66,190Z" transform="translate(-31 -132)"/></g></g></svg>