<svg xmlns="http://www.w3.org/2000/svg" viewBox="0 0 521 652"><defs><style>.cls-1{isolation:isolate;}.cls-2{fill:#231f20;}.cls-3{fill:#fef5ab;}.cls-4{fill:#7fbb47;}.cls-5{fill:#80a22f;}.cls-14,.cls-16,.cls-5,.cls-7,.cls-8{opacity:0.4;}.cls-14,.cls-5{mix-blend-mode:multiply;}.cls-6{fill:#b2cd3c;}.cls-10,.cls-17,.cls-7,.cls-8{fill:#fff;}.cls-7{mix-blend-mode:screen;}.cls-17,.cls-8{mix-blend-mode:overlay;}.cls-9{fill:#35622a;opacity:0.3;}.cls-11{fill:#50423d;}.cls-12{fill:#332723;}.cls-13{fill:#ce4e4b;}.cls-14{fill:#b84342;}.cls-15,.cls-16{fill:#d2a09a;}.cls-16{mix-blend-mode:color-burn;}.cls-17{opacity:0.5;}</style></defs><g class="cls-1"><g id="Calque_1" data-name="Calque 1"><path class="cls-2" d="M437,567.54c-4.67-10.27-12.55-19.24-17.6-29.47-5.51-11.18-9.61-22.9-14.31-34.38-14.12-34.45-25.58-79.37-69-90.58-19.85-5.14-41.73-.41-60.6,5.83-1.25.42-2.48.88-3.73,1.33-.52.17-1,.37-1.55.54-.69.26-1.37.49-2.07.74-1.88.72-3.75,1.47-5.59,2.28-12.65,5.34-24.68,12.4-34.26,21.62-17.76,15.15-28,34.77-36.45,55.68-17.08,42.15-61.47,86.68-30.2,132.74,12.93,19.06,35.31,32.87,58.14,39A256.17,256.17,0,0,0,301.36,681c27.38-1.89,55.7-11.06,79.31-24a1.35,1.35,0,0,0,1.42-.21c2.7-1.71,5.38-3.42,8-5.13,16.38-9.66,33.6-21.82,43.83-36.46C443.86,601,443.9,582.77,437,567.54Z" transform="translate(-39 -130)"/><path class="cls-3" d="M278.09,675.77c-26.4-1.29-54.15-4.91-77.44-16.78-13.25-8.29-24.82-18-33.06-31.52-13.12-21.58-5.84-43.29-1.19-65.76,4.14-9.06,9.62-17.58,14.49-26.31,6.82-12.26,13.17-25,19.36-37.55,12.41-25.17,25.29-48.66,51.7-63.14,22.75-12.47,51.84-20.93,78.28-16.5,26.67,4.48,42.88,26.8,53.29,48.24,10.82,22.29,19.77,45.49,29.73,68.12,3.93,8.92,8.85,17.09,14,25.31,7.15,16,11.27,31.35,1.83,49.19-4.31,8.16-10.64,15.25-17.62,21.6-1.11.84-2.25,1.67-3.34,2.48A259.92,259.92,0,0,1,371,656.65C343.4,670.69,309.34,677.3,278.09,675.77Z" transform="translate(-39 -130)"/><path class="cls-4" d="M427.22,559.88c-5.12-8.22-10-16.39-14-25.31-10-22.63-18.91-45.83-29.73-68.12-10.41-21.44-26.62-43.76-53.29-48.24-26.44-4.43-55.53,4-78.28,16.5-26.41,14.48-39.29,38-51.7,63.14-6.19,12.56-12.54,25.29-19.36,37.55-4.87,8.73-10.35,17.25-14.49,26.31-4.65,22.47-11.93,44.18,1.19,65.76C175.83,641,187.4,650.7,200.65,659c.8.41,1.63.74,2.44,1.12-4-7.69-6.52-16.41-8-21.25-6.77-21.89-7-43.37-2.12-65.79,8.35-38.55,29.5-75.54,70.24-90.84,32.78-12.3,79.43-15.77,103.39,13.69,33.45,41.13,40.51,110,12.55,156.33a284.58,284.58,0,0,0,29-19.1c1.09-.81,2.23-1.64,3.34-2.48,7-6.35,13.31-13.44,17.62-21.6C438.49,591.23,434.37,575.84,427.22,559.88Z" transform="translate(-39 -130)"/><path class="cls-2" d="M390.66,694.75c5.67,13.18,15.91,23.23,24,35,6.12,8.85,9.67,18,13.16,28,1.93,5.45,4.08,10.23,7.9,14.76,6.07,7.25,20.49,13.2,29.34,6.87,8.22-5.86,11.48-16,9.69-25.43-1.47-7.81-5.18-15.2-14-17.22-5.63-1.3-9.67,1.38-12.4,5.22a15.33,15.33,0,0,0-2.12-2.59,45.09,45.09,0,0,1-6.38-9.47c-1.35-2.53-3-5-4.4-7.6,16-2.9,38.48,13.19,46.29,25.43-.27,6.22,4.42,13.25,9.73,16.1a26,26,0,0,0,7,2.37c4.83,1.33,9.88,1.07,14.35-2.42,5.77-4.52,9.44-11.6,8.46-18.69,3.55,6.73,7.72,13.83,15.67,14.51,12.65,1.13,21.34-10.19,22.83-20.84,1.33-9.41-3.7-18.23-13-22.06-3.83-1.58-10.43-2-14.28-.31a13.38,13.38,0,0,0-3.71,2.27c-20.38-7.19-41.36-12.78-61.67-20.32-4.61-1.72-28.44-9.24-31.79-15.61.56-.59,1.13-1.17,1.68-1.78,5.12-5.62,10.56-11,15.36-16.83a322.91,322.91,0,0,0,28.29-39.93C497,596.65,506.93,567.57,514,536.91c2.51-10.93,5.16-24.27-1-34.64-4.58-7.72-12.15-13.13-22.19-11.25-14.14,2.68-27.67,12.59-38.32,21.25-6.86,5.58-12.33,12.39-18.51,18.58-3.85,3.84-8.54,8-9.77,13.39-1.46,6.33,3.67,9.61,6.19,14.87,3.53,7.34,8.42,14.8,9.93,22.82,1.67,8.72,1.11,18-.62,26.72-8.95,20.38-19.42,40.44-27.38,61.13-3.32-5.49-13-5.77-17.92-1.76C386,674.86,386.78,685.74,390.66,694.75Z" transform="translate(-39 -130)"/><path class="cls-4" d="M391.85,684.42c-.1-4.66.53-10.26,5.32-13,3.94-2.27,10.13-4.09,13.54.15a1.7,1.7,0,0,0,.68.49c-1.47,3.89-2.86,7.81-4.1,11.76,0,.06,0,.14,0,.2,1.26-2.54,3-5,4.34-7.43,4.67-8.66,8.92-17.43,13.19-26.27q8.82-18.3,18.26-36.36,2-4.74,3.82-9.52c10.42-27.16,19.88-55.48,35.81-80.37.27-.41-.45-1.26-.88-.84-9.12,9.18-14.21,22.39-20,33.57-6.55,12.57-11.48,25.67-16.65,38.75a51.41,51.41,0,0,0-3.24-19.43c-4.81-11.91-14-24.37-10.83-36.48a89.5,89.5,0,0,1,23.4-24.87c9.2-6.76,20.84-15.5,32.14-18.71,41.57-11.77,20.37,49.32,15.8,66.28-6.7,24.88-17.72,48-32.06,69.89a288,288,0,0,1-23.57,31.84c-1.43,1.63-2.86,3.32-4.34,5-1.58,2.06-3.14,4.14-4.76,6.18-4.05,5.11-7.95,10.64-12.65,15.33a30.06,30.06,0,0,0,9.14-6.67c7.78,13.51,78.85,34,92.62,37.41a31,31,0,0,1-1.3,3.39c-.6.09-.53.62-.28,1.08a38.56,38.56,0,0,1,3.88-2.43,5.86,5.86,0,0,1,.69-.51c.27-.17.62-.26.92-.41a7,7,0,0,1,3.82-2.34c5.15-1.24,12.06-1,16.16,2.63,6.3,5.63,7.27,15.88,2.72,22.86-5.45,8.39-18.14,16.27-25.83,4.84-3.3-4.91-5.35-10.61-9.53-15a1.25,1.25,0,0,0-.66-.38c-.29-.47-.66-.88-1-1.33-.07-.06-.14-.1-.21-.17A24.25,24.25,0,0,0,498.89,725a18.25,18.25,0,0,1,3.38,1.26,13,13,0,0,1,3,2.17c4.65,2.13,8.61,5.47,10.53,10.15,2.76,6.7,2.59,15.49-3.86,20.54-5.84,4.57-11.58,4.36-17.52,2.17a14.34,14.34,0,0,1-2.52-1.44,16,16,0,0,1-2.77-2.91,15.64,15.64,0,0,1-2.35-3.64,19.14,19.14,0,0,1-2.4-6,13.62,13.62,0,0,1-.08-4.59v0a.94.94,0,0,0-1.32.41,9.59,9.59,0,0,0-1,2.73c-3.74-8.26-12.4-13.3-20.14-18.21C454.42,723,443.6,716.44,434.3,720h0a23.38,23.38,0,0,1-2-5.53c-.31.91-.58,1.83-.82,2.74,1,4.16,3.54,8,5.48,11.88a85.13,85.13,0,0,0,10.08,15,30.63,30.63,0,0,0-2.55,6.36,1.27,1.27,0,0,0,.34,1,12.53,12.53,0,0,1,4.68-6.58,26.33,26.33,0,0,1,2-2.09,14.5,14.5,0,0,1,1.48-1.24c3-2.3,6.24-3.37,9.14-1.89a9.72,9.72,0,0,1,5.81,4c4.33,6.35,5.59,16.35,1.5,23.14-6.58,10.85-18.12,12.85-28.79,4.66-8.26-6.33-10-16.52-13.39-25.43-5.15-13.49-14.9-24.07-23.4-35.72C398.38,702.85,392,693.81,391.85,684.42Z" transform="translate(-39 -130)"/><path class="cls-2" d="M204.64,668c-4.88-4-14.59-3.73-17.9,1.76-8-20.69-18.44-40.75-27.39-61.13-1.72-8.7-2.29-18-.63-26.72,1.53-8,6.42-15.48,9.93-22.82a26.66,26.66,0,0,0,2.51-15c.32-.19.58-.58.41-.9-.32-.65,2.24-2.43,1.91-3.06,4.83-3.48-6.12-6.72-9.59-9.82a90.13,90.13,0,0,0-17.31-18c-10.66-8.66-24.2-18.57-38.33-21.25-10-1.88-17.6,3.53-22.2,11.25-6.15,10.37-3.5,23.71-1,34.64,7,30.66,17,59.74,33.27,87.21a322.83,322.83,0,0,0,28.28,39.93c4.78,5.86,10.24,11.21,15.36,16.83.54.61,1.12,1.19,1.67,1.78-3.34,6.37-27.17,13.89-31.78,15.61-20.3,7.54-41.28,13.13-61.67,20.32a13.62,13.62,0,0,0-3.7-2.27c-3.88-1.72-10.46-1.27-14.3.31-9.27,3.83-14.29,12.65-13,22.06,1.49,10.65,10.18,22,22.82,20.84,8-.68,12.13-7.78,15.68-14.51-1,7.09,2.68,14.17,8.47,18.69,4.46,3.49,9.52,3.75,14.35,2.42a26,26,0,0,0,7-2.37c5.3-2.85,10-9.88,9.74-16.1,7.8-12.24,30.24-28.33,46.3-25.43h0c-1.46,2.58-3.09,5.07-4.44,7.6a45.14,45.14,0,0,1-6.39,9.47,15.11,15.11,0,0,0-2.1,2.59c-2.76-3.84-6.77-6.52-12.41-5.22-8.83,2-12.53,9.41-14,17.22-1.79,9.42,1.48,19.57,9.68,25.43,8.86,6.33,23.26.38,29.34-6.87,3.83-4.53,6-9.31,7.9-14.76,3.5-9.94,7-19.1,13.17-28,8.14-11.76,18.37-21.81,24.05-35C212.23,685.74,213,674.86,204.64,668Z" transform="translate(-39 -130)"/><path class="cls-4" d="M195.17,710.31C186.69,722,176.92,732.54,171.78,746c-3.4,8.91-5.13,19.1-13.38,25.43-10.7,8.19-22.24,6.19-28.79-4.66-4.1-6.79-2.86-16.79,1.48-23.14a9.79,9.79,0,0,1,5.83-4c2.88-1.48,6.14-.41,9.13,1.89a14.62,14.62,0,0,1,1.49,1.24c.68.65,1.35,1.35,2,2.09a12.62,12.62,0,0,1,4.67,6.58,1.15,1.15,0,0,0,.32-1,30,30,0,0,0-2.53-6.36,82.89,82.89,0,0,0,10.06-15c1.95-3.9,4.48-7.72,5.51-11.88-.26-.91-.53-1.83-.84-2.74a23.77,23.77,0,0,1-2,5.53h0c-9.3-3.55-20.11,3-27.56,7.68-7.73,4.91-16.39,10-20.13,18.21a9.3,9.3,0,0,0-1-2.73.93.93,0,0,0-1.31-.41v0a13.61,13.61,0,0,1-.07,4.59,18.71,18.71,0,0,1-2.42,6,15,15,0,0,1-2.34,3.64,15.64,15.64,0,0,1-2.77,2.91,14.5,14.5,0,0,1-2.53,1.44c-5.93,2.19-11.66,2.4-17.51-2.17-6.46-5-6.62-13.84-3.86-20.54,1.91-4.68,5.89-8,10.53-10.15a13,13,0,0,1,3-2.17,17.91,17.91,0,0,1,3.4-1.26,24.29,24.29,0,0,0-17.33,8.58,1.12,1.12,0,0,1-.2.17c-.31.45-.67.86-1,1.33a1.36,1.36,0,0,0-.67.38c-4.17,4.35-6.2,10-9.51,15-7.7,11.43-20.39,3.55-25.83-4.84-4.56-7-3.59-17.23,2.73-22.86,4.07-3.64,11-3.87,16.15-2.63a7.07,7.07,0,0,1,3.82,2.34c.3.15.62.24.92.41a4.28,4.28,0,0,1,.66.51,35.75,35.75,0,0,1,3.9,2.43c.25-.46.33-1-.29-1.08a34.14,34.14,0,0,1-1.29-3.39c13.76-3.43,84.84-23.9,92.61-37.41a30.31,30.31,0,0,0,9.14,6.67c-4.7-4.69-8.58-10.22-12.64-15.33-1.61-2-3.18-4.12-4.78-6.18-1.45-1.71-2.89-3.4-4.32-5-8.71-9.94-16.39-20.91-23.56-31.84-14.35-21.89-25.38-45-32.09-69.89-4.55-17-25.75-78.05,15.81-66.28,11.31,3.21,22.93,11.95,32.14,18.71a89.5,89.5,0,0,1,23.4,24.87c3.19,12.11-6,24.57-10.81,36.48a51.21,51.21,0,0,0-3.24,19.43c-5.19-13.08-10.11-26.18-16.65-38.75-5.81-11.18-10.91-24.39-20-33.57-.41-.42-1.12.43-.87.84,15.93,24.89,25.4,53.21,35.82,80.37q1.84,4.79,3.82,9.52,9.39,18.07,18.25,36.36c4.26,8.84,8.54,17.61,13.21,26.27,1.32,2.47,3.08,4.89,4.32,7.43,0-.06,0-.14,0-.2-1.24-3.95-2.65-7.87-4.09-11.76a1.75,1.75,0,0,0,.67-.49c3.42-4.24,9.61-2.42,13.54-.15,4.8,2.76,5.43,8.36,5.32,13C207,693.81,200.62,702.85,195.17,710.31Z" transform="translate(-39 -130)"/><path class="cls-5" d="M140.06,513.13c2.53,5.08,7.8,14.7,4,20.32-3.93,5.78-13.53.69-22.75-5.42,6.64,8.66,11.05,19.39,15.9,28.75,6.54,12.57,11.46,25.67,16.65,38.75a51.21,51.21,0,0,1,3.24-19.43c4.78-11.91,14-24.37,10.81-36.48a89.5,89.5,0,0,0-23.4-24.87c-1.87-1.37-3.86-2.83-5.9-4.31C139.11,511.33,139.63,512.22,140.06,513.13Z" transform="translate(-39 -130)"/><path class="cls-5" d="M201.83,671.4c-3.93-2.27-10.12-4.09-13.54.15a1.75,1.75,0,0,1-.67.49c1.44,3.89,2.85,7.81,4.09,11.76,0,.06,0,.14,0,.2-1.24-2.54-3-5-4.32-7.43-4.67-8.66-9-17.43-13.21-26.27q-8.82-18.3-18.25-36.36-2-4.74-3.82-9.52c-10.28-26.8-19.67-54.74-35.23-79.39-4.38-3-8.43-5.94-11.42-7.52,7.65,18.18,16.31,36,23.68,54.26C137,591.12,143,611,152.26,629.83c4.8,9.79,10,19.45,15.71,28.82,4.8,7.78,10.89,15.3,14.72,23.57,5.21,11.28,3,20.88-.72,32.33-2.87,8.82-22.4,66.41-40.65,52-6.55-5.18-10.07-18.19-6-26.33a9.58,9.58,0,0,0-4.2,3.45c-4.34,6.35-5.58,16.35-1.48,23.14,6.55,10.85,18.09,12.85,28.79,4.66,8.25-6.33,10-16.52,13.38-25.43,5.14-13.49,14.91-24.07,23.39-35.72,5.45-7.46,11.79-16.5,12-25.89C207.26,679.76,206.63,674.16,201.83,671.4Z" transform="translate(-39 -130)"/><path class="cls-5" d="M162.11,719.28c3.27-3.7,5.32-11.14-2.32-10.6-5.51.38-10.81,2.61-15.62,5C132.74,719.53,126,728.18,117,736.67c-6.07,5.68-13.38,11.85-22.4,8.23-3.32-1.33-4.89-4.56-6-7.53-.46-1.24,1-5.12,1.39-6.76a18.18,18.18,0,0,0-6.76,8c-2.76,6.7-2.6,15.49,3.86,20.54,5.85,4.57,11.58,4.36,17.51,2.17a14.5,14.5,0,0,0,2.53-1.44,15.64,15.64,0,0,0,2.77-2.91,15,15,0,0,0,2.34-3.64,18.71,18.71,0,0,0,2.42-6,13.61,13.61,0,0,0,.07-4.59v0a.93.93,0,0,1,1.31.41,9.3,9.3,0,0,1,1,2.73c3.74-8.26,12.4-13.3,20.13-18.21C143.91,723.38,153.45,717.63,162.11,719.28Z" transform="translate(-39 -130)"/><path class="cls-5" d="M50.82,729.47a16,16,0,0,1-2-7.1c-.17.13-.34.23-.49.37-6.32,5.63-7.29,15.88-2.73,22.86,5.44,8.39,18.13,16.27,25.83,4.84,3.31-4.91,5.34-10.61,9.51-15a1.36,1.36,0,0,1,.67-.38c.3-.47.66-.88,1-1.33a1.12,1.12,0,0,0,.2-.17c.52-.59,1-1.12,1.59-1.66C72.35,736.25,57.83,742.26,50.82,729.47Z" transform="translate(-39 -130)"/><path class="cls-4" d="M391.85,684.42c-.1-4.66.53-10.26,5.32-13,3.94-2.27,10.13-4.09,13.54.15a1.7,1.7,0,0,0,.68.49c-1.47,3.89-2.86,7.81-4.1,11.76,0,.06,0,.14,0,.2,1.26-2.54,3-5,4.34-7.43,4.67-8.66,8.92-17.43,13.19-26.27q8.82-18.3,18.26-36.36,2-4.74,3.82-9.52c10.42-27.16,19.88-55.48,35.81-80.37.27-.41-.45-1.26-.88-.84-9.12,9.18-14.21,22.39-20,33.57-6.55,12.57-11.48,25.67-16.65,38.75a51.41,51.41,0,0,0-3.24-19.43c-4.81-11.91-14-24.37-10.83-36.48a89.5,89.5,0,0,1,23.4-24.87c9.2-6.76,20.84-15.5,32.14-18.71,41.57-11.77,20.37,49.32,15.8,66.28-6.7,24.88-17.72,48-32.06,69.89a288,288,0,0,1-23.57,31.84c-1.43,1.63-2.86,3.32-4.34,5-1.58,2.06-3.14,4.14-4.76,6.18-4.05,5.11-7.95,10.64-12.65,15.33a30.06,30.06,0,0,0,9.14-6.67c7.78,13.51,78.85,34,92.62,37.41a31,31,0,0,1-1.3,3.39c-.6.09-.53.62-.28,1.08a38.56,38.56,0,0,1,3.88-2.43,5.86,5.86,0,0,1,.69-.51c.27-.17.62-.26.92-.41a7,7,0,0,1,3.82-2.34c5.15-1.24,12.06-1,16.16,2.63,6.3,5.63,7.27,15.88,2.72,22.86-5.45,8.39-18.14,16.27-25.83,4.84-3.3-4.91-5.35-10.61-9.53-15a1.25,1.25,0,0,0-.66-.38c-.29-.47-.66-.88-1-1.33-.07-.06-.14-.1-.21-.17A24.25,24.25,0,0,0,498.89,725a18.25,18.25,0,0,1,3.38,1.26,13,13,0,0,1,3,2.17c4.65,2.13,8.61,5.47,10.53,10.15,2.76,6.7,2.59,15.49-3.86,20.54-5.84,4.57-11.58,4.36-17.52,2.17a14.34,14.34,0,0,1-2.52-1.44,16,16,0,0,1-2.77-2.91,15.64,15.64,0,0,1-2.35-3.64,19.14,19.14,0,0,1-2.4-6,13.62,13.62,0,0,1-.08-4.59v0a.94.94,0,0,0-1.32.41,9.59,9.59,0,0,0-1,2.73c-3.74-8.26-12.4-13.3-20.14-18.21C454.42,723,443.6,716.44,434.3,720h0a23.38,23.38,0,0,1-2-5.53c-.31.91-.58,1.83-.82,2.74,1,4.16,3.54,8,5.48,11.88a85.13,85.13,0,0,0,10.08,15,30.63,30.63,0,0,0-2.55,6.36,1.27,1.27,0,0,0,.34,1,12.53,12.53,0,0,1,4.68-6.58,26.33,26.33,0,0,1,2-2.09,14.5,14.5,0,0,1,1.48-1.24c3-2.3,6.24-3.37,9.14-1.89a9.72,9.72,0,0,1,5.81,4c4.33,6.35,5.59,16.35,1.5,23.14-6.58,10.85-18.12,12.85-28.79,4.66-8.26-6.33-10-16.52-13.39-25.43-5.15-13.49-14.9-24.07-23.4-35.72C398.38,702.85,392,693.81,391.85,684.42Z" transform="translate(-39 -130)"/><path class="cls-4" d="M391.85,684.42c-.1-4.66.53-10.26,5.32-13,3.94-2.27,10.13-4.09,13.54.15a1.7,1.7,0,0,0,.68.49c-1.47,3.89-2.86,7.81-4.1,11.76,0,.06,0,.14,0,.2,1.26-2.54,3-5,4.34-7.43,4.67-8.66,8.92-17.43,13.19-26.27q8.82-18.3,18.26-36.36,2-4.74,3.82-9.52c10.42-27.16,19.88-55.48,35.81-80.37.27-.41-.45-1.26-.88-.84-9.12,9.18-14.21,22.39-20,33.57-6.55,12.57-11.48,25.67-16.65,38.75a51.41,51.41,0,0,0-3.24-19.43c-4.81-11.91-14-24.37-10.83-36.48a89.5,89.5,0,0,1,23.4-24.87c9.2-6.76,20.84-15.5,32.14-18.71,41.57-11.77,20.37,49.32,15.8,66.28-6.7,24.88-17.72,48-32.06,69.89a288,288,0,0,1-23.57,31.84c-1.43,1.63-2.86,3.32-4.34,5-1.58,2.06-3.14,4.14-4.76,6.18-4.05,5.11-7.95,10.64-12.65,15.33a30.06,30.06,0,0,0,9.14-6.67c7.78,13.51,78.85,34,92.62,37.41a31,31,0,0,1-1.3,3.39c-.6.09-.53.62-.28,1.08a38.56,38.56,0,0,1,3.88-2.43,5.86,5.86,0,0,1,.69-.51c.27-.17.62-.26.92-.41a7,7,0,0,1,3.82-2.34c5.15-1.24,12.06-1,16.16,2.63,6.3,5.63,7.27,15.88,2.72,22.86-5.45,8.39-18.14,16.27-25.83,4.84-3.3-4.91-5.35-10.61-9.53-15a1.25,1.25,0,0,0-.66-.38c-.29-.47-.66-.88-1-1.33-.07-.06-.14-.1-.21-.17A24.25,24.25,0,0,0,498.89,725a18.25,18.25,0,0,1,3.38,1.26,13,13,0,0,1,3,2.17c4.65,2.13,8.61,5.47,10.53,10.15,2.76,6.7,2.59,15.49-3.86,20.54-5.84,4.57-11.58,4.36-17.52,2.17a14.34,14.34,0,0,1-2.52-1.44,16,16,0,0,1-2.77-2.91,15.64,15.64,0,0,1-2.35-3.64,19.14,19.14,0,0,1-2.4-6,13.62,13.62,0,0,1-.08-4.59v0a.94.94,0,0,0-1.32.41,9.59,9.59,0,0,0-1,2.73c-3.74-8.26-12.4-13.3-20.14-18.21C454.42,723,443.6,716.44,434.3,720h0a23.38,23.38,0,0,1-2-5.53c-.31.91-.58,1.83-.82,2.74,1,4.16,3.54,8,5.48,11.88a85.13,85.13,0,0,0,10.08,15,30.63,30.63,0,0,0-2.55,6.36,1.27,1.27,0,0,0,.34,1,12.53,12.53,0,0,1,4.68-6.58,26.33,26.33,0,0,1,2-2.09,14.5,14.5,0,0,1,1.48-1.24c3-2.3,6.24-3.37,9.14-1.89a9.72,9.72,0,0,1,5.81,4c4.33,6.35,5.59,16.35,1.5,23.14-6.58,10.85-18.12,12.85-28.79,4.66-8.26-6.33-10-16.52-13.39-25.43-5.15-13.49-14.9-24.07-23.4-35.72C398.38,702.85,392,693.81,391.85,684.42Z" transform="translate(-39 -130)"/><path class="cls-4" d="M452.05,516.71c-.93,1.68-1.9,3.35-2.76,5.07-3.11,6.25-9.32,16.42-7.2,23.62,3.49,11.78,21-8.69,23.79-11.85,7-8,14.49-15.78,24.08-21.15,1.33-.74,2.82,1.17,2.47,2.29-7.06,23.42-20.18,44.52-28.9,67.36-4.16,10.87-9,21.42-13.48,32.17-4.39,10.59-20.13,45.85-9.65,57.52l2-2.66c1.48-1.71,2.91-3.4,4.34-5a288,288,0,0,0,23.57-31.84c14.34-21.89,25.36-45,32.06-69.89,4.57-17,25.77-78.05-15.8-66.28-11.3,3.21-22.94,11.95-32.14,18.71C453.61,515.38,452.86,516.06,452.05,516.71Z" transform="translate(-39 -130)"/><path class="cls-4" d="M462.09,739.66c-2.9-1.48-6.16-.41-9.14,1.89a14.5,14.5,0,0,0-1.48,1.24,26.33,26.33,0,0,0-2,2.09,12.53,12.53,0,0,0-4.68,6.58,1.27,1.27,0,0,1-.34-1,30.63,30.63,0,0,1,2.55-6.36,85.13,85.13,0,0,1-10.08-15c-1.28-2.6-2.78-5.18-4-7.83-.71.41-1.4.86-2.1,1.35-1.62,7.67,9.29,27.87,11.56,31.45,2.91,4.63,6.49,7.07,11.75,9.36,2.21,1,8.76,3.71,14.41,4.6.27-.4.55-.79.82-1.22,4.09-6.79,2.83-16.79-1.5-23.14A9.72,9.72,0,0,0,462.09,739.66Z" transform="translate(-39 -130)"/><path class="cls-5" d="M493.23,743.38c-16-8.47-36.85-29.9-55.62-24.17,8.46-1.21,17.67,4.28,24.24,8.46,7.74,4.91,16.4,10,20.14,18.21a9.59,9.59,0,0,1,1-2.73.94.94,0,0,1,1.32-.41v0a13.62,13.62,0,0,0,.08,4.59,19.14,19.14,0,0,0,2.4,6,15.64,15.64,0,0,0,2.35,3.64,16,16,0,0,0,2.77,2.91,14.34,14.34,0,0,0,2.52,1.44c5.94,2.19,11.68,2.4,17.52-2.17,5.43-4.25,6.37-11.15,4.91-17.21C513.79,751,502.19,748.13,493.23,743.38Z" transform="translate(-39 -130)"/><path class="cls-5" d="M553.91,726.91a21.65,21.65,0,0,1-6.56,8.64c-8.42,6.72-18.64,7.3-27.21,2.56,2.84,3.88,4.75,8.34,7.43,12.33,7.69,11.43,20.38,3.55,25.83-4.84A18.5,18.5,0,0,0,553.91,726.91Z" transform="translate(-39 -130)"/><path class="cls-5" d="M428.25,652.51c4-7.87,8.24-15.74,12.41-23.68l.5-1.41c4.83-13.26,11-26,16.27-39.06,9.51-23.43,22.21-46.12,30.19-70.07-12.38,8.61-19.46,21.48-31.56,30.37-4.29,3.17-13.2,6-16.18-.55-3.22-7,.54-15.5,3.46-22,.49-1.07,1-2.15,1.53-3.2a87.74,87.74,0,0,0-13.8,16.73c-3.17,12.11,6,24.57,10.83,36.48a51.41,51.41,0,0,1,3.24,19.43c5.17-13.08,10.1-26.18,16.65-38.75,5.81-11.18,10.9-24.39,20-33.57.43-.42,1.15.43.88.84-15.93,24.89-25.39,53.21-35.81,80.37q-1.85,4.79-3.82,9.52Q433.66,632,424.8,650.3c-3.11,6.45-6.27,12.86-9.55,19.21v.84a1.43,1.43,0,0,1-1.06,1.22c-.86,1.66-1.69,3.35-2.58,5-.73,1.36-1.58,2.73-2.43,4.09.36,4.18,1.89,9.5,4.07,15.33C412.58,681.13,422,664.56,428.25,652.51Z" transform="translate(-39 -130)"/><path class="cls-5" d="M440.59,757.13a137.92,137.92,0,0,1-7.1-13.39c-9.59-12.46-16.67-28.36-22.2-42-3-7.36-7-16.34-6-24.44a10.21,10.21,0,0,1,2.56-6.21,6.65,6.65,0,0,1,1.15-1c-3.51-2.13-8.45-.57-11.79,1.35-4.79,2.76-5.42,8.36-5.32,13,.19,9.39,6.53,18.43,12,25.89,8.5,11.65,18.25,22.23,23.4,35.72,3.4,8.91,5.13,19.1,13.39,25.43,9,6.91,18.61,6.55,25.35-.24C455.81,769,443.67,762,440.59,757.13Z" transform="translate(-39 -130)"/><path class="cls-2" d="M273.29,721.11c-12.09-5.26-19.72-16.26-28.71-25.08a1.53,1.53,0,0,0,.21-1.09c-4.87-20.88-10.67-41.15-13.33-62.46a344.11,344.11,0,0,1-1.64-61.14c1.16-21.33,4.29-42.53,5.57-63.86.31-5.33,3.08-22-1.85-29.18.05-.08.08-.14,0-.22a14.17,14.17,0,0,0-1.16-1.6c3.49,14.15,1.37,28.49-.89,42.85-.29,1.81-4,2-3.7-.09.79-5,1.56-9.95,2.08-14.92a.94.94,0,0,1-.66-1c.16-2.63.4-5.37.55-8.14a89.53,89.53,0,0,0-1.33-16.58c-.12-.41-.31-.79-.46-1.19a107.49,107.49,0,0,0-7.65,16.65c-2.45,7.61-4,15.35-3.33,23.43.16,1.9-3.6,2.72-3.77.85-.09-1.13-.07-2.28-.09-3.41a1.19,1.19,0,0,1-.34-.89,62.49,62.49,0,0,1,.73-7.44c.19-1.42.47-2.83.77-4.24v-.09a70.29,70.29,0,0,1,2.13-8.18c1.5-4.5,2.82-9.52,5.18-13.7.86-1.5,1.79-3,2.7-4.46-4.39,3.46-8.24,11.28-9.69,14.55-9.33,21.15-10.64,44.3-11.93,66.84-1.41,24.56-1.71,49.26.32,73.8,1.71,20.6,4.56,42.63,11.48,62.58,0,.06,0,.11,0,.17,3.19,7.3-5.89,14.76-10.86,19.28-4.62,4.18-13.16,12.18-19.74,11.93-12.12-.49-18.7,10.42-12.37,19.63,4.81,7,18.31,10,23.71,1.91,1.81-2.74,2.43-5.73,3.25-8.7,3.19-3.27,7.2-5.9,12-3.17,3.12,1.78,4.13,5.39,6.5,7.85-2.3,2.32-4.17,5.32-2.55,8.69a19.52,19.52,0,0,0,26,9.19c7.83-3.61,7.4-11.82,5.28-19.39,1.65-3.48,2.9-6.67,7.08-8.75,5.19-2.59,9.74.24,14.07,2.7a1.13,1.13,0,0,0,.06,1c5.67,8.8,25.26,13.68,25.36-1.35C292.36,722.91,282.25,725,273.29,721.11Z" transform="translate(-39 -130)"/><path class="cls-6" d="M219.11,740c-1.89-4.6-6.13-9-11.39-9.42a10.81,10.81,0,0,0-7.47,2.59,2.56,2.56,0,0,0,.11-.24c2.45-4.52,12.79-18.19,18.74-12.5l.07.05C219.87,726.42,222,734.72,219.11,740Z" transform="translate(-39 -130)"/><path class="cls-6" d="M252.74,729.55a18.51,18.51,0,0,0-8.29,7.55c-.93-2.6-1.91-5-2.68-6.92-.45-1.17-4.69-14.36-2.15-13.29,3.22,1.37,6.11,3.56,9.36,5a57.65,57.65,0,0,1,11.62,6.75A14.55,14.55,0,0,0,252.74,729.55Z" transform="translate(-39 -130)"/><path class="cls-4" d="M270.08,734.73a1,1,0,0,0-.1-1,11,11,0,0,0-.81-.86c-4.41-8.81-15.06-11.79-23.43-16.85-3.94-2.4-11.69-4.69-11.41,2.88.2,5.64,2.89,10.76,5,16a84,84,0,0,1,4.08,13.83q-5.91,14.46-16.66,9.32a18.21,18.21,0,0,1-6.14-4.36c-5.34-5,2-13.16,2.74-18.49.82-5.75-.58-12-1.41-17.71-.18-1.3-1.68-1-2.47-.22-4.08-2.74-10.59,2.52-13.4,5.31a67.44,67.44,0,0,0-9,11.07,15.87,15.87,0,0,0-2,5.27c-2.37,9.53-11.43,11.55-19,5.3-7.95-6.58.71-16.23,10.22-16a13.91,13.91,0,0,0,6.71-2.25c4.67-4,9.33-8.13,13.86-12.28,3.56-3.25,8.61-8.18,10.12-13.28,0,0,0,0,0,.07.63,1.58,3.48.11,3.19-1.27-3.65-17.86-8.43-35.3-10.83-53.4-2.48-18.58-3.14-37.29-3.11-56,0-19,.76-38.15,2.32-57.11a182.36,182.36,0,0,1,4.88-29.29,127.25,127.25,0,0,1,5.13-15.46c.85-2.1,5-11.47,9.76-12.1,0,0,0,.06.08.07,5.93,2,4.71,14,4.69,18.65-.07,10.35-.89,20.68-1.83,31C229.5,545.35,227,565.07,226.4,585a381.48,381.48,0,0,0,2.82,58.11c2,16.44,4.86,34,10.85,49.75-.44.25-.74.73-.41,1.15l1.68,2.13c.08.17.13.35.19.51a1.15,1.15,0,0,0,.75.68c8.17,10.24,16.65,20,28.71,26.59,7,3.83,19.58,2.25,17.66,13.55C286.93,747.48,274.73,738.16,270.08,734.73Z" transform="translate(-39 -130)"/><path class="cls-5" d="M220.19,699.18c.29,1.38-2.56,2.85-3.19,1.27,0,0,0,0,0-.07-1.51,5.1-6.56,10-10.12,13.28-2.45,2.24-5,4.42-7.5,6.64,9-2.22,20.35-11.36,23.63-17.27,6.27-11.29-.47-26.27-2.71-38a514.15,514.15,0,0,1-8.86-71.4c-1.15-22.91-1.12-46.08-.25-69,.19-5.45.55-10.91,1.15-16.33a182.42,182.42,0,0,0-3.74,24.33c-1.56,19-2.29,38.08-2.32,57.11,0,18.7.63,37.41,3.11,56C211.76,663.88,216.54,681.32,220.19,699.18Z" transform="translate(-39 -130)"/><path class="cls-5" d="M177.58,737a12.05,12.05,0,0,1-1.31-5.15c-3.77,3.35-5,8.38-.21,12.31,7.06,5.81,15.29,4.38,18.34-3.49C188.48,743.81,181,743.89,177.58,737Z" transform="translate(-39 -130)"/><path class="cls-5" d="M229.52,750.88c-5.4.43-8.69-1.14-10.62-3.73-.51,2.4-.26,4.66,1.7,6.52a18.21,18.21,0,0,0,6.14,4.36q10.72,5.15,16.66-9.32a90.64,90.64,0,0,0-2.44-9.08C239.65,745.43,236.37,750.35,229.52,750.88Z" transform="translate(-39 -130)"/><path class="cls-5" d="M282.94,727.77a9.47,9.47,0,0,1-3.43,8.9,11.86,11.86,0,0,1-3.82,2c5.32,3.31,11.74,5.89,13-1.21C289.63,731.67,286.85,729.26,282.94,727.77Z" transform="translate(-39 -130)"/><path class="cls-2" d="M405.38,725.1c-6.56.25-15.1-7.75-19.73-11.93-5-4.52-14-12-10.87-19.28,0-.06,0-.11,0-.17,6.92-20,9.77-42,11.46-62.58,2.05-24.54,1.75-49.24.34-73.8-1.28-22.54-2.6-45.69-11.93-66.84-1.48-3.32-5.43-11.37-9.94-14.71,4.29,6.58,8.26,12.64,10.43,20.79,2.54,9.58,4.39,19.11,4.61,29,0,1.78-3.49,3.12-3.53,1A111.64,111.64,0,0,0,370,492.12c-2.05-5.78-5.72-10.68-9.22-15.7-.32.63-.6,1.25-.86,1.89-1.71,9.25,1.54,21.71,3.45,28.41.41,1.43-1.5,2.08-2.76,1.66,1,4.07,2,7.93,2.73,11.3.47,2.11-3.3,1.91-3.68.14-2.62-11.92-8.35-29.34-3.6-42.19a4.07,4.07,0,0,0-.34.45c-.05.08,0,.14,0,.22-4.91,7.22-2.14,23.85-1.84,29.18,1.28,21.33,4.42,42.53,5.57,63.86a344.11,344.11,0,0,1-1.64,61.14c-2.65,21.31-8.45,41.58-13.33,62.46a1.59,1.59,0,0,0,.21,1.09c-9,8.82-16.62,19.82-28.71,25.08-9,3.91-19.07,1.8-19,13.57.1,15,19.69,10.15,25.36,1.35a1.09,1.09,0,0,0,.06-1c4.33-2.46,8.88-5.29,14.09-2.7,4.16,2.08,5.41,5.27,7.06,8.75-2.12,7.57-2.55,15.78,5.28,19.39a19.52,19.52,0,0,0,26-9.19c1.62-3.37-.25-6.37-2.55-8.69,2.37-2.46,3.38-6.07,6.5-7.85,4.79-2.73,8.8-.1,12,3.17.81,3,1.43,6,3.24,8.7,5.4,8.14,18.89,5.1,23.71-1.91C424.08,735.52,417.51,724.61,405.38,725.1Z" transform="translate(-39 -130)"/><path class="cls-6" d="M370.1,720.46l.07-.05c5.95-5.69,16.29,8,18.74,12.5a2.56,2.56,0,0,0,.11.24,10.81,10.81,0,0,0-7.47-2.59c-5.26.4-9.5,4.82-11.38,9.42C367.25,734.72,369.4,726.42,370.1,720.46Z" transform="translate(-39 -130)"/><path class="cls-6" d="M328.67,728.65a57.65,57.65,0,0,1,11.62-6.75c3.25-1.45,6.14-3.64,9.36-5,2.54-1.07-1.7,12.12-2.15,13.29-.75,1.93-1.75,4.32-2.68,6.92a18.51,18.51,0,0,0-8.29-7.55A14.53,14.53,0,0,0,328.67,728.65Z" transform="translate(-39 -130)"/><path class="cls-4" d="M300.62,737.43c-1.92-11.3,10.64-9.72,17.66-13.55,12.05-6.59,20.54-16.35,28.71-26.59a1.12,1.12,0,0,0,.74-.68c.07-.16.12-.34.2-.51l1.68-2.13c.33-.42,0-.9-.41-1.15,6-15.78,8.84-33.31,10.85-49.75A380.19,380.19,0,0,0,362.86,585c-.59-19.89-3.09-39.61-4.87-59.42-.95-10.31-1.76-20.64-1.83-31,0-4.67-1.24-16.67,4.69-18.65,0,0,0,0,.08-.07,4.79.63,8.91,10,9.76,12.1a120.68,120.68,0,0,1,5.13,15.46,181.25,181.25,0,0,1,4.88,29.29c1.55,19,2.29,38.08,2.32,57.11,0,18.7-.63,37.41-3.11,56-2.4,18.1-7.18,35.54-10.83,53.4-.29,1.38,2.56,2.85,3.19,1.27,0,0,0,0,0-.07,1.51,5.1,6.56,10,10.12,13.28,4.54,4.15,9.19,8.28,13.86,12.28a13.94,13.94,0,0,0,6.71,2.25c9.51-.22,18.17,9.43,10.22,16-7.57,6.25-16.63,4.23-19-5.3a16.5,16.5,0,0,0-2-5.27,68.62,68.62,0,0,0-9-11.07c-2.81-2.79-9.32-8-13.4-5.31-.79-.79-2.27-1.08-2.46.22-.84,5.69-2.24,12-1.42,17.71.76,5.33,8.09,13.47,2.74,18.49a18.11,18.11,0,0,1-6.14,4.36q-10.72,5.15-16.66-9.32A84,84,0,0,1,350,734.88c2.1-5.21,4.79-10.33,5-16,.27-7.57-7.49-5.28-11.42-2.88-8.37,5.06-19,8-23.43,16.85a11,11,0,0,0-.81.86,1,1,0,0,0-.1,1C314.54,738.16,302.34,747.48,300.62,737.43Z" transform="translate(-39 -130)"/><path class="cls-5" d="M376.46,549.82c0,27.07.45,54.18-1.45,81.21a259.58,259.58,0,0,1-5,37.66c-2.37,10.82-7.94,25.16-.45,35.26,5.72,7.71,16.74,20.42,27.91,22.74a6.87,6.87,0,0,1-1.21-.75c-4.67-4-9.32-8.13-13.86-12.28-3.56-3.25-8.61-8.18-10.12-13.28,0,0,0,0,0,.07-.63,1.58-3.48.11-3.19-1.27,3.65-17.86,8.43-35.3,10.83-53.4,2.48-18.58,3.14-37.29,3.11-56,0-19-.77-38.15-2.32-57.11a180.67,180.67,0,0,0-4.19-26.27C377.43,520.87,376.46,535.63,376.46,549.82Z" transform="translate(-39 -130)"/><path class="cls-5" d="M367.19,718.46a11.53,11.53,0,0,0-1.63.75,22.92,22.92,0,0,0-.55,3.94,55.88,55.88,0,0,0,1,13.72c1,5.39,1.43,11.35-3,15.58a16.43,16.43,0,0,1-11.27,4.84c3.08,2.45,6.7,2.74,10.86.74a18.11,18.11,0,0,0,6.14-4.36c5.35-5-2-13.16-2.74-18.49S366.35,723.89,367.19,718.46Z" transform="translate(-39 -130)"/><path class="cls-5" d="M307,731.58a19.58,19.58,0,0,1-4.44-1.63c-1.67,1.58-2.55,3.88-1.95,7.48,1.72,10.05,13.92.73,18.57-2.7a1,1,0,0,1,.1-1,11,11,0,0,1,.81-.86c4.4-8.81,15.06-11.79,23.43-16.85a16.66,16.66,0,0,1,2.87-1.4C331.51,716.36,322.91,735.27,307,731.58Z" transform="translate(-39 -130)"/><path class="cls-7" d="M140.31,632.25c-12.2-20.81-23.26-41.29-32.62-63.4-4.15-9.78-6.7-20.25-8.89-30.53-2-9.19-.65-20.3-4.53-28.9-.43-.93-1.57,0-1.48.74.65,4.75-.45,9.39,0,14.14.49,5.5.61,10.82,1.52,16.28a158.09,158.09,0,0,0,9.57,33.79c8.51,20.69,17.38,43.57,33.35,60.34C138.7,636.27,141.26,633.88,140.31,632.25Z" transform="translate(-39 -130)"/><path class="cls-7" d="M497.46,540c-.82,1.83-1.62,3.65-2.44,5.48-.58,1.4-1.15,2.77-1.72,4.16-2.18,10.13-4.69,20.45-8.79,30.08-9.36,22.11-20.41,42.58-32.6,63.38-1,1.65,1.58,4,3.08,2.46,16-16.76,24.86-39.65,33.36-60.32a157.73,157.73,0,0,0,9.56-33.8c.67-4,.93-7.93,1.2-11.9A13.22,13.22,0,0,0,497.46,540Z" transform="translate(-39 -130)"/><path class="cls-7" d="M70.48,728.91a3.18,3.18,0,0,0-.43-1.65,1.61,1.61,0,0,0-.11-.63c-.77-1.7-3.16-3.3-5.53-4.21a7.63,7.63,0,0,0-4-.75,5.94,5.94,0,0,0-4.65,1.89c-1.07,1.32-.26,3.23,1.65,4.61a14.51,14.51,0,0,0,7.07,4C68.17,732.88,70.38,731.28,70.48,728.91Z" transform="translate(-39 -130)"/><path class="cls-7" d="M147.89,745.89a7.38,7.38,0,0,0-.73-.66c-.11-.19-.22-.42-.35-.61a3.48,3.48,0,0,0-.49-.6,1.83,1.83,0,0,0-1.47-.61,2.88,2.88,0,0,0-2.71-1c-2.24.41-3.2,2.5-3.69,4.34-1.39,5.25,1,10.62,5.3,14.08a5.3,5.3,0,0,0,8.62-4.46A18.23,18.23,0,0,0,147.89,745.89Z" transform="translate(-39 -130)"/><path class="cls-7" d="M105.7,737.63a3.05,3.05,0,0,0-.7-2.39,3.65,3.65,0,0,0-.24-.31,5,5,0,0,0-1.05-2,4.9,4.9,0,0,0-3.15-1.52c-.11,0-.22-.13-.35-.18a4.42,4.42,0,0,0-6,2.33,3.67,3.67,0,0,0-.11.5,3.76,3.76,0,0,0-.44,4.28c.92,1.78,3.33,3,5.58,3.22a5.66,5.66,0,0,0,4.38-.51,4.56,4.56,0,0,0,1.64-1.89,3.11,3.11,0,0,0,.46-1.48A.56.56,0,0,1,105.7,737.63Z" transform="translate(-39 -130)"/><path class="cls-7" d="M231.43,738.65a7.81,7.81,0,0,0-5.07,1.76,5.51,5.51,0,0,0-3.66,5.43c.3,3.3,3.73,4.62,6.88,4.08s6.35-2.76,6.64-5.93A4.72,4.72,0,0,0,231.43,738.65Z" transform="translate(-39 -130)"/><path class="cls-7" d="M188.38,731.71a5.12,5.12,0,0,0-3.3-1.38,4.13,4.13,0,0,0-4.47,1c-1.51,1.71-.55,3.85,1.22,5s4.42,1.48,6.15.08A3,3,0,0,0,188.38,731.71Z" transform="translate(-39 -130)"/><path class="cls-7" d="M280.43,730.35a5.18,5.18,0,0,0-3.3-1.38,4.12,4.12,0,0,0-4.47,1c-1.5,1.71-.55,3.84,1.24,5s4.41,1.48,6.14.08A3,3,0,0,0,280.43,730.35Z" transform="translate(-39 -130)"/><path class="cls-7" d="M407.32,732.32a7.78,7.78,0,0,0-5.08,1.76,5.51,5.51,0,0,0-3.66,5.43c.32,3.28,3.73,4.62,6.89,4.08s6.36-2.76,6.63-5.94A4.71,4.71,0,0,0,407.32,732.32Z" transform="translate(-39 -130)"/><path class="cls-7" d="M360.87,743.47a5.21,5.21,0,0,0-3.31-1.38,4.14,4.14,0,0,0-4.47,1c-1.5,1.71-.55,3.84,1.24,5s4.41,1.48,6.14.08A3,3,0,0,0,360.87,743.47Z" transform="translate(-39 -130)"/><path class="cls-7" d="M311.54,727.63a3.1,3.1,0,0,0-2.08-.38,2.33,2.33,0,0,0-2.38,1.11c-.62,1.15.23,2.23,1.39,2.65a3.15,3.15,0,0,0,3.48-.7A1.72,1.72,0,0,0,311.54,727.63Z" transform="translate(-39 -130)"/><path class="cls-8" d="M229.52,496.22c-2.4,6.74-3.35,14-4.63,20.9-.85,4.56-1.81,9.09-2.73,13.63-.06.38-.09.76-.14,1.16a413.9,413.9,0,0,0-3.87,42.88c-.89,27.85.31,57.55,8.24,84.57.51,1.77,2.94,0,2.72-1.39a448.1,448.1,0,0,1-5.62-91.23c.58-14.3,2.64-28.4,4.4-42.59.8-6.46.57-12.92,1.82-19.33.61-3,1.48-5.68-.05-8.45A.4.4,0,0,0,229.52,496.22Z" transform="translate(-39 -130)"/><path class="cls-8" d="M368.56,571.12c-.57-16.09-1.17-32-2.54-48-.54-6.39-1.17-12.79-2.11-19.13-.58-3.89-.38-8.49-4-11.07,0,0-.08,0-.11,0,.11,8.31,1.83,16.72,2.21,25q.45,9.87,1.14,19.7c1.23,12.61,2.68,26.46,3.14,39.22.52,14.9-.19,28.51-.39,43.44s-2.43,29.72-4.08,44.62c-.15,1.36,1.88.66,2.12-.28C371.56,634.12,369.65,602.07,368.56,571.12Z" transform="translate(-39 -130)"/><path class="cls-7" d="M544.71,724.68a3.46,3.46,0,0,0-1.54-.89,2.44,2.44,0,0,0-.57-.37c-1.83-.68-4.72-.23-7.1.71a7.31,7.31,0,0,0-3.38,2.13,5.19,5.19,0,0,0-1.85,4.42c.24,1.64,2.29,2.46,4.68,2.15a15.24,15.24,0,0,0,8-1.88C546.12,729,546.45,726.41,544.71,724.68Z" transform="translate(-39 -130)"/><path class="cls-7" d="M464.27,745.43a7.41,7.41,0,0,0-.72-.65c-.11-.2-.22-.43-.34-.61a3.19,3.19,0,0,0-.5-.6,1.82,1.82,0,0,0-1.47-.62,2.92,2.92,0,0,0-2.7-1c-2.24.42-3.21,2.5-3.7,4.34-1.39,5.26,1,10.63,5.31,14.08a5.29,5.29,0,0,0,8.61-4.46A18.17,18.17,0,0,0,464.27,745.43Z" transform="translate(-39 -130)"/><path class="cls-7" d="M512.21,738.54a3,3,0,0,0-.69-2.4,2.25,2.25,0,0,0-.24-.3,5.22,5.22,0,0,0-1-2,4.8,4.8,0,0,0-3.15-1.5,2.47,2.47,0,0,0-.36-.19,4.39,4.39,0,0,0-6,2.33,3.36,3.36,0,0,0-.11.5,3.78,3.78,0,0,0-.45,4.28c.91,1.78,3.34,3,5.58,3.22a5.73,5.73,0,0,0,4.39-.51,4.66,4.66,0,0,0,1.64-1.9,3.21,3.21,0,0,0,.45-1.48S512.21,738.56,512.21,738.54Z" transform="translate(-39 -130)"/><path class="cls-9" d="M421,565.68c-.45-3.46-2-8-6.28-8.57a3.4,3.4,0,0,0-2.39.53,2.06,2.06,0,0,0-1.77,1.08c-1.89,3.52-1.7,8-.41,11.69,1.12,3.17,4.29,6.32,8.07,4.71C421.79,573.63,421.41,568.56,421,565.68Z" transform="translate(-39 -130)"/><path class="cls-9" d="M426.82,584.7a1,1,0,0,0-.82-.49c-.43-1-2.16-.08-2.22,1a8.12,8.12,0,0,0,.06,1.32,7.46,7.46,0,0,0-.1,1.07c0,1,.61,1.28,1.29,1.2.73.51,1.67-.27,2-.83C427.87,586.65,427.57,585.94,426.82,584.7Z" transform="translate(-39 -130)"/><path class="cls-9" d="M419.2,595.09a3.36,3.36,0,0,0-3.11-.46c-1.39-.54-2.59.48-3,1.91a4.8,4.8,0,0,0-.67,3c-.24,2,.49,4,2.47,4.55a3,3,0,0,0,3.23-.48,5.87,5.87,0,0,0,1.75-2.25,1.07,1.07,0,0,0,.6-.64C420.89,598.81,420.94,596.47,419.2,595.09Z" transform="translate(-39 -130)"/><path class="cls-9" d="M412.27,616.53l-.14,0a.88.88,0,0,0-.57.16c-.56.06-1.22.75-1,1.24s.08.91.62,1.28a1,1,0,0,0,1.3-.32,2.23,2.23,0,0,0,.59-1.52A.82.82,0,0,0,412.27,616.53Z" transform="translate(-39 -130)"/><path class="cls-9" d="M401.75,621.24a2.48,2.48,0,0,0-1.95,3.94,1.85,1.85,0,0,0,.5.94c1.37,1.38,3.33-.37,3.63-1.74S403.61,621.29,401.75,621.24Z" transform="translate(-39 -130)"/><path class="cls-9" d="M174.1,581.91c3.79,1.61,7-1.55,8.09-4.71,1.28-3.64,1.47-8.18-.41-11.68a2.08,2.08,0,0,0-1.78-1.09,3.37,3.37,0,0,0-2.38-.54c-4.23.59-5.84,5.12-6.3,8.58C170.93,575.34,170.56,580.41,174.1,581.91Z" transform="translate(-39 -130)"/><path class="cls-9" d="M165.52,591.49a1,1,0,0,1,.82-.49c.43-1,2.18-.08,2.22,1a11.43,11.43,0,0,1,0,1.32,9.11,9.11,0,0,1,.08,1.07c0,1-.6,1.28-1.28,1.19-.74.52-1.68-.26-2-.82C164.48,593.44,164.77,592.73,165.52,591.49Z" transform="translate(-39 -130)"/><path class="cls-9" d="M173.16,601.88a3.35,3.35,0,0,1,3.11-.46c1.38-.55,2.58.48,3,1.91a5,5,0,0,1,.67,3c.22,2-.49,3.95-2.47,4.53a3,3,0,0,1-3.25-.46,5.94,5.94,0,0,1-1.74-2.25,1.15,1.15,0,0,1-.61-.64C171.47,605.6,171.41,603.26,173.16,601.88Z" transform="translate(-39 -130)"/><path class="cls-9" d="M180.09,623.3h.13a.93.93,0,0,1,.58.16c.56,0,1.2.73,1,1.24s-.08.91-.64,1.28a1,1,0,0,1-1.3-.33,2.18,2.18,0,0,1-.57-1.51A.83.83,0,0,1,180.09,623.3Z" transform="translate(-39 -130)"/><path class="cls-9" d="M190.6,628a2.49,2.49,0,0,1,2,3.94,1.81,1.81,0,0,1-.51.93c-1.36,1.39-3.34-.36-3.64-1.75S188.75,628.08,190.6,628Z" transform="translate(-39 -130)"/><path class="cls-5" d="M217.9,481.52c10.07-8.45,21.53-14.19,35.09-15.76,14.59-1.71,29.35.06,43.92-1.48,28.95-3.06,60.16-14.56,84.27,7a105.9,105.9,0,0,1,9.66,10c-2.23-5-4.48-9.9-6.85-14.79-10.41-21.44-26.62-43.76-53.3-48.24-26.44-4.43-55.52,4-78.28,16.5-26.39,14.48-39.28,38-51.7,63.14-.8,1.65-1.66,3.3-2.47,4.95A121.28,121.28,0,0,1,217.9,481.52Z" transform="translate(-39 -130)"/><path class="cls-2" d="M504.91,245.59C477.83,207.21,426.56,191,379.6,189.4a454.2,454.2,0,0,0-83.71,5.31,280.42,280.42,0,0,0-37.34,8.34c-6.57,1.4-13.09,3-19.59,4.83-23.8,6.73-44.89,17.87-64.62,31.88-37.43,26.59-68.3,67.16-62.92,112.93,5.64,48.24,49.1,76.28,95.27,89.21a337.63,337.63,0,0,0,83.63,12.46c28.61.6,54.27-5.49,81.54-12.64,25.37-6.65,47.75-18.5,69-33,20.57-14,40.34-30.69,55.17-50.12C520.64,326.41,529.2,280,504.91,245.59Z" transform="translate(-39 -130)"/><path class="cls-4" d="M421.39,415.65c-25,14.94-53.43,23.05-82.13,29.41-30,6.65-62.43,4.85-92.6.18-36-5.58-73.31-16.06-100.95-39.22-31.62-26.5-38.14-70-21.2-105.27,15.2-31.59,45-56.18,76.28-73.71a185.74,185.74,0,0,1,23.3-10.9c-.6.42-1.2.79-1.77,1.25-2.29,1.77-.49,5.21,2.13,3.19,10.5-8.11,25.92-10.88,38.71-14.63,16.21-4.73,33.4-7.15,50.21-9,29.6-3.24,60.73-4.48,90.25-.17,52.15,7.59,108.23,40.82,110.39,94.61C516.22,346.44,466.94,388.45,421.39,415.65Z" transform="translate(-39 -130)"/><path class="cls-5" d="M514,291.4c-2.16-53.79-58.24-87-110.39-94.61-29.52-4.31-60.65-3.07-90.25.17-16.81,1.84-34,4.26-50.21,9-12.79,3.75-28.21,6.52-38.71,14.63-2.62,2-4.42-1.42-2.13-3.19.57-.46,1.17-.83,1.77-1.25a185.74,185.74,0,0,0-23.3,10.9c-31.29,17.53-61.08,42.12-76.28,73.71C107.57,336,114.09,379.52,145.71,406c27.64,23.16,65,33.64,100.95,39.22,30.17,4.67,62.59,6.47,92.6-.18,28.7-6.36,57.13-14.47,82.13-29.41C466.94,388.45,516.22,346.44,514,291.4Zm-51.65,46.14c-7.37,21.1-21,40.28-38.33,55.4A165.77,165.77,0,0,1,387,417.18c-24.09,16.67-59.14,21.84-87.41,23.08-43.14,1.88-85.51-.94-121.52-25.61-30.93-21.2-49.75-52-47.81-88.32,1.1-20.59,6.4-45.71,25.06-56.31,5.13-3.6,10.27-8,17-6.28,8.79,2.22,11.43,13.64,16.56,19.34C203,298.73,236.17,304.71,256,296.27c16.37-7,27.55-22.64,44.73-28.16,18.24-5.85,27.13,9.21,41.59,16.49,24.75,12.43,53.34,6.54,78.71-.18,11.33-3,28.8-7.79,38.2,1.81C471.72,299,467.56,322.7,462.36,337.54Z" transform="translate(-39 -130)"/><path class="cls-2" d="M433.23,268.48a161.75,161.75,0,0,1-24.89,7.86A65.75,65.75,0,0,0,424.49,261c12.84-16.86,18.93-40,18.52-60.41-.43-21.31-6.35-45.93-23.7-61-8.95-7.78-21.69-10.38-34.09-9.3-18.43-1.84-37.93,5.78-49.85,18.83-1,1.09.2,2.07,1.31,1.15a69.6,69.6,0,0,1,26.78-14c-.41.2-.85.38-1.24.6-2,1-3.8,2.17-5.61,3.35a45.85,45.85,0,0,0-11,6.42c-9.26,7.22-15.34,16.9-20,27.12a73.52,73.52,0,0,0-5.1,15.53c.8-9.72,0-19.36-3.38-28-2.66-6.86-5.63-11.52-10.6-15.48,2.63.62,5.28,1.32,7.87,2.16.81.26,1.73-.9.92-1.38a65.59,65.59,0,0,0-29.43-8.81l-.65,0c-29.39-1.51-60,14.74-78,35.78-13.64,16-21.32,37.1-22.55,57.4-.73,12.23,2.22,26.83,9.87,37.86a52.46,52.46,0,0,1-17.51-19c-.33-.62-1.32.17-1.11.73,5.76,13.62,17.18,25.39,31.9,30.46l.44.27c17.81,9.43,40.81,4.62,57.81-4.27,20.3-10.61,34.17-26.93,43.09-46.73A140.22,140.22,0,0,0,319,200.32c-1,14.92,2.13,30.08,7.89,44.11a67,67,0,0,0,7.59,13.76c1.3,2.05,2.7,4.07,4.2,6a1.86,1.86,0,0,0,1.35.7,61.69,61.69,0,0,0,20.39,14.19,118.86,118.86,0,0,1-21.88-4.8c-.52-.17-1.17.67-.59.9a132.87,132.87,0,0,0,38,8.37,45.15,45.15,0,0,0,13.77.08A100.87,100.87,0,0,0,434.09,271C435.54,270.2,435.17,267.69,433.23,268.48Z" transform="translate(-39 -130)"/><path class="cls-10" d="M303.65,234.17c-8.26,18-23.73,31.86-42.15,40.72-17.3,8.32-40.05,11.48-55.71-1.25-15-12.18-17.57-33.52-15.32-50.73,2.44-18.58,11.54-36.87,24.83-50.8,19.74-20.67,48.1-29.94,76.35-27.36a40.06,40.06,0,0,1,5.74,2c9.84,4.27,13.63,15.43,15.93,24.46C318.41,191.1,312.11,215.8,303.65,234.17Z" transform="translate(-39 -130)"/><path class="cls-10" d="M338.17,253.41c-16.46-31.33-17.25-70.21,7.55-98.27,15.68-17.73,45.62-27,67.07-12.55,19.43,13.1,24.63,42.09,24.39,62.78-.25,21.53-8.05,45-23.71,61.06-18.15,18.64-47.43,13.69-65.59-2.08A58.42,58.42,0,0,1,338.17,253.41Z" transform="translate(-39 -130)"/><path class="cls-11" d="M292.27,219.57c-6.6,25.89-28.45,43.2-48.8,38.67S212,229.05,218.61,203.16s28.46-43.2,48.81-38.67S298.89,193.68,292.27,219.57Z" transform="translate(-39 -130)"/><path class="cls-12" d="M275.66,217.62c-3.79,14.86-16.34,24.79-28,22.19s-18.06-16.76-14.27-31.62,16.34-24.8,28-22.2S279.45,202.75,275.66,217.62Z" transform="translate(-39 -130)"/><path class="cls-10" d="M257.41,196.61c-2.46,9.63-10.59,16.08-18.17,14.4S227.53,200.14,230,190.5s10.58-16.08,18.17-14.39S259.86,187,257.41,196.61Z" transform="translate(-39 -130)"/><path class="cls-10" d="M246.79,227.09c-.86,3.35-3.68,5.59-6.33,5s-4.06-3.78-3.21-7.13,3.69-5.59,6.32-5S247.64,223.74,246.79,227.09Z" transform="translate(-39 -130)"/><path class="cls-11" d="M421.71,208.24c-.41,26.62-17.68,48-38.59,47.69S345.57,233.85,346,207.25s17.68-48,38.61-47.7S422.1,181.63,421.71,208.24Z" transform="translate(-39 -130)"/><path class="cls-12" d="M405,209.72c-.23,15.28-10.15,27.53-22.16,27.38s-21.55-12.68-21.32-27.95,10.15-27.53,22.15-27.38S405.25,194.43,405,209.72Z" transform="translate(-39 -130)"/><path class="cls-10" d="M382.31,192.94c-.15,9.92-6.58,17.87-14.37,17.76s-14-8.21-13.81-18.13,6.57-17.84,14.35-17.74S382.46,183,382.31,192.94Z" transform="translate(-39 -130)"/><path class="cls-10" d="M379.08,224.85c-.06,3.45-2.3,6.21-5,6.17s-4.86-2.85-4.8-6.3,2.29-6.21,5-6.18S379.12,221.4,379.08,224.85Z" transform="translate(-39 -130)"/><path class="cls-2" d="M438,326.69c2.56-2.71,5.47-5.67,9-7.35,1.24-.59,2.5-1.11,3.77-1.64a2.13,2.13,0,0,0,.2-.48c1.63-.57,3.33-1.27,5-2,.34-.2.68-.36,1-.58a1.3,1.3,0,0,1,.68-.2c.36-.17.7-.3,1-.46,5.85-4.93,10.78-10.17,10.07-17.35a2.47,2.47,0,0,0-.28,1.23c1.31,13.69-24.63,19-35.22,20.82-13.08,2.27-26.65,2.06-39.89,1.72a387.58,387.58,0,0,1-45.93-3.71c-15.32-2.21-30.19-5.51-45.74-6.38-29.64-1.68-58.21,8.08-87.19,12.15-15.72,2.21-31.6,2.45-47-1.61-7-1.86-13.25-4.9-17.75-10.37s-3.17-25.37,10-21.46c.44.13.93-.56.45-.8-5.59-2.75-14.13,4.33-15.13,9.55-2.43,12.67,5.31,20.9,17.2,25.88.9.37,1.82.71,2.73,1,3.69,5.88,7.83,11.6,11.61,17.46,4.94,7.7,8.46,15.9,12.66,23.95,7.56,14.5,18.23,26.55,31.18,37.06,24,19.48,55.72,32.39,87.79,31.7,30.64-.66,57.94-17.44,78.48-37.45,11.05-10.72,20.23-23.05,28.59-35.68,4.29-6.45,8.13-13.1,11.84-19.84a56.91,56.91,0,0,1,4.78-7.2A46.41,46.41,0,0,1,438,326.69Z" transform="translate(-39 -130)"/><path class="cls-10" d="M279.29,315.58c20.28-1.66,39.67.84,59.67,3.7,10,1.43,20.16,2.43,30.3,3.12-.84.93-1.57,2-2.54,3.05-5.36,6.12-14.34,9.69-22.09,12.26-13.08,4.33-27.39,5.05-41.14,5.3A316.06,316.06,0,0,1,256,340.6c-9.55-1.28-28.34-4.69-33.43-14.46C242,322.57,261.34,317.05,279.29,315.58Z" transform="translate(-39 -130)"/><path class="cls-13" d="M393.55,384.67c-20.73,24.4-49.68,44.17-83.89,46-32.39,1.72-64.38-13.36-88.34-32.57-2.14-1.73-4.11-3.53-6-5.39,2.21-2,3.63-4.81,6.06-6.65,6.77-5.22,15.88-8.2,24.14-10.55,17.92-5.1,35.66-3.48,53.1,1.83a11.81,11.81,0,0,0-4.27,6.42c-.21.95.94.91,1.35.23,3.86-6.34,14.06-9.15,21.09-11.29a112.32,112.32,0,0,1,33.94-5.25c16.23.18,34.44,1.66,45.23,14.27C395.13,382.7,394.35,383.7,393.55,384.67Z" transform="translate(-39 -130)"/><path class="cls-14" d="M286.46,377.66c1.21.18,1.93,1.73.75,2.42a36.08,36.08,0,0,0-16.48,20.31c19-11.29,37-21,60.31-22.35a93.57,93.57,0,0,1,34.57,4.68c7.23,2.34,13.6,6.56,19.95,10.66,2.78-2.81,5.45-5.73,8-8.71.8-1,1.58-2,2.37-3-10.79-12.61-29-14.09-45.23-14.27a112.32,112.32,0,0,0-33.94,5.25c-7,2.14-17.23,4.95-21.09,11.29-.41.68-1.56.72-1.35-.23a11.81,11.81,0,0,1,4.27-6.42c-17.44-5.31-35.18-6.93-53.1-1.83-8.26,2.35-17.37,5.33-24.14,10.55-2.43,1.84-3.85,4.68-6.06,6.65,1.11,1.07,2.23,2.1,3.39,3.12C233.59,378,263.86,374.25,286.46,377.66Z" transform="translate(-39 -130)"/><path class="cls-15" d="M398.56,378.48c-12.42-14.2-34-15.79-52.46-15.3-12.35.32-25,3.53-36.39,8a48.65,48.65,0,0,0-8.49,4.24c-16.58-7.26-34.29-8.11-52-4.36a90.55,90.55,0,0,0-24.2,9,45,45,0,0,0-7.46,5.31c-1.88,1.59-2.47,3.85-3.89,5.75-19.06-19.34-27.53-44.68-44.93-65.23,16.53,5.08,34.18,3.74,51.85.61.8,7,12.3,12.17,18.2,14.28,16.3,5.84,35.31,6.29,52.53,6.51,15.85.2,31.84-.38,47.31-3.85a78.05,78.05,0,0,0,19.85-7.53,51.84,51.84,0,0,0,8.2-5.76c2-1.59,4.12-5.54,6.33-6.81a2.29,2.29,0,0,0,.72-.7q13.5.78,27,1c14.25.18,28.7-.56,42.47-4.08-9.84,7.35-16.63,15.61-22.7,26.52A236.88,236.88,0,0,1,398.56,378.48Z" transform="translate(-39 -130)"/><path class="cls-16" d="M400.75,323.61c-3.68-.05-7.36-.16-11-.27a49,49,0,0,1-20.89,26.1c-19.79,12.17-50,9.06-72.19,7.23-16-1.33-33.39-3.93-49.42-1.44-10.1,1.56-19.76,4.74-29.75,6.65-9.53,1.83-18.18,2-25.54-.69,6.26,10.55,12.85,20.89,21.74,29.93,1.42-1.9,2-4.16,3.89-5.75a45,45,0,0,1,7.46-5.31,90.55,90.55,0,0,1,24.2-9c17.71-3.75,35.42-2.9,52,4.36a48.65,48.65,0,0,1,8.49-4.24c11.36-4.43,24-7.64,36.39-8,18.5-.49,40,1.1,52.46,15.3a236.88,236.88,0,0,0,22-32.43c6.07-10.91,12.86-19.17,22.7-26.52C429.45,323.05,415,323.79,400.75,323.61Z" transform="translate(-39 -130)"/><path class="cls-2" d="M300.41,291.63a.88.88,0,0,0-1.14-1,1.77,1.77,0,0,0-1.73,1.71,3.84,3.84,0,0,0,.26,1.42,1,1,0,0,0,.2.33.12.12,0,0,0,0,.08.58.58,0,0,0,.15.25c.52.74,1.8-.11,1.78-.89a1.46,1.46,0,0,0,.18-.35A5.7,5.7,0,0,0,300.41,291.63Z" transform="translate(-39 -130)"/><path class="cls-2" d="M319,289.83a3.49,3.49,0,0,0-.44.05c-.67-.67-2.08.5-1.9,1.43,0,.06.05.18.09.29a2.61,2.61,0,0,0-.06.27,4.63,4.63,0,0,0,.12.91l0,0a.9.9,0,0,0,.39.54.86.86,0,0,0,1.07.17A1.92,1.92,0,0,0,319.9,292a4.68,4.68,0,0,0,.12-1C320.05,290.16,319.59,289.82,319,289.83Z" transform="translate(-39 -130)"/><path class="cls-17" d="M331.1,388.53c-15.72-5.38-37.39,5.17-40.12,20.61a1,1,0,0,0,.61,1.26c-.79,6.39,5.43,10.85,11.23,12.62,8.83,2.67,18.87-2.79,25.8-7.33C338,409.55,345.42,393.45,331.1,388.53Z" transform="translate(-39 -130)"/></g></g></svg>