<svg xmlns="http://www.w3.org/2000/svg" viewBox="0 0 438.24 613.48"><defs><style>.cls-1{isolation:isolate;}.cls-2{fill:#231f20;}.cls-3{fill:#fef5ab;}.cls-4{fill:#7fbb47;}.cls-5{fill:#80a22f;mix-blend-mode:multiply;}.cls-5,.cls-8,.cls-9{opacity:0.4;}.cls-6{fill:#b2cd3c;}.cls-7,.cls-8,.cls-9{fill:#fff;}.cls-8{mix-blend-mode:screen;}.cls-9{mix-blend-mode:overlay;}.cls-10{fill:#50423d;}.cls-11{fill:#332723;}.cls-12{fill:#35622a;opacity:0.3;}.cls-13{fill:#13110c;}.cls-14{fill:#e03333;}</style></defs><g class="cls-1"><g id="Calque_1" data-name="Calque 1"><path class="cls-2" d="M374,517.51c-3.5-8.27-9.42-15.51-13.2-23.75-4.14-9-7.21-18.48-10.74-27.74-10.6-27.77-19.2-64-51.74-73-14.91-4.14-31.33-.33-45.49,4.71-.94.33-1.86.71-2.81,1.06l-1.15.46c-.52.19-1,.38-1.55.59-1.42.57-2.82,1.17-4.21,1.83-9.49,4.31-18.52,10-25.7,17.43-13.33,12.22-21,28-27.36,44.9-12.81,34-46.13,69.9-22.66,107,9.71,15.36,26.49,26.5,43.63,31.47a179.41,179.41,0,0,0,61.2,6.52c20.54-1.52,41.81-8.92,59.52-19.34.25.16.6.16,1.08-.17,2-1.38,4-2.76,6-4.13,12.3-7.8,25.22-17.6,32.9-29.4C379.13,544.47,379.17,529.79,374,517.51Z" transform="translate(-75.3 -76.98)"/><path class="cls-3" d="M254.72,604.8c-19.81-1-40.63-4-58.1-13.53-10-6.69-18.64-14.5-24.82-25.43-9.85-17.39-4.38-34.91-.89-53,3.1-7.32,7.22-14.19,10.87-21.23,5.12-9.87,9.88-20.14,14.53-30.26,9.32-20.3,19-39.26,38.8-50.93,17.08-10,38.9-16.87,58.74-13.3,20,3.62,32.19,21.6,40,38.91,8.12,18,14.84,36.67,22.31,54.92a168.43,168.43,0,0,0,10.48,20.41C372,524.21,375.1,536.61,368,551a65.43,65.43,0,0,1-13.21,17.43c-.85.68-1.7,1.33-2.52,2a195.82,195.82,0,0,1-27.82,19C303.74,600.69,278.18,606,254.72,604.8Z" transform="translate(-75.3 -76.98)"/><path class="cls-4" d="M366.64,511.34a168.43,168.43,0,0,1-10.48-20.41C348.69,472.68,342,454,333.85,436c-7.81-17.31-20-35.29-40-38.91-19.84-3.57-41.66,3.25-58.74,13.3-19.81,11.67-29.48,30.63-38.8,50.93-4.65,10.12-9.41,20.39-14.53,30.26-3.65,7-7.77,13.91-10.87,21.23-3.49,18.11-9,35.63.89,53,6.18,10.93,14.87,18.74,24.82,25.43.59.31,1.22.58,1.82.89a110.59,110.59,0,0,1-6-17.14c-5.09-17.64-5.24-35-1.6-53,6.27-31.08,22.15-60.91,52.73-73.25,24.59-9.92,59.6-12.71,77.57,11,25.11,33.18,30.41,88.69,9.43,126.06a212.16,212.16,0,0,0,21.74-15.4c.82-.66,1.67-1.31,2.52-2A65.43,65.43,0,0,0,368,551C375.1,536.61,372,524.21,366.64,511.34Z" transform="translate(-75.3 -76.98)"/><path class="cls-4" d="M366.64,511.34a168.43,168.43,0,0,1-10.48-20.41C348.69,472.68,342,454,333.85,436c-7.81-17.31-20-35.29-40-38.91-19.84-3.57-41.66,3.25-58.74,13.3-19.81,11.67-29.48,30.63-38.8,50.93-4.65,10.12-9.41,20.39-14.53,30.26-3.65,7-7.77,13.91-10.87,21.23-3.49,18.11-9,35.63.89,53,6.18,10.93,14.87,18.74,24.82,25.43.59.31,1.22.58,1.82.89a110.59,110.59,0,0,1-6-17.14c-5.09-17.64-5.24-35-1.6-53,6.27-31.08,22.15-60.91,52.73-73.25,24.59-9.92,59.6-12.71,77.57,11,25.11,33.18,30.41,88.69,9.43,126.06a212.16,212.16,0,0,0,21.74-15.4c.82-.66,1.67-1.31,2.52-2A65.43,65.43,0,0,0,368,551C375.1,536.61,372,524.21,366.64,511.34Z" transform="translate(-75.3 -76.98)"/><path class="cls-5" d="M209.21,448.15c7.55-6.8,16.15-11.44,26.33-12.71,11-1.37,22,.05,33-1.19,21.73-2.47,45.15-11.73,63.23,5.6a80.26,80.26,0,0,1,7.26,8.08c-1.67-4-3.37-8-5.14-11.92-7.81-17.31-20-35.29-40-38.91-19.84-3.57-41.66,3.25-58.74,13.3-19.81,11.67-29.48,30.63-38.8,50.93-.6,1.32-1.25,2.65-1.85,4A95.64,95.64,0,0,1,209.21,448.15Z" transform="translate(-75.3 -76.98)"/><path class="cls-2" d="M339.21,620.1c4.25,10.61,11.93,18.72,18.05,28.2,4.59,7.14,7.25,14.53,9.87,22.54a37.31,37.31,0,0,0,5.93,11.92c4.57,5.83,15.39,10.64,22,5.54,6.16-4.74,8.61-12.93,7.27-20.52-1.11-6.29-3.89-12.24-10.51-13.88-4.23-1-7.25,1.1-9.31,4.2a13.12,13.12,0,0,0-1.59-2.08,36.61,36.61,0,0,1-4.79-7.64c-1-2-2.24-4-3.3-6.13,12-2.34,28.88,10.64,34.74,20.51-.2,5,3.32,10.68,7.3,13a18.5,18.5,0,0,0,5.23,1.92c3.63,1.06,7.42.86,10.77-2,4.34-3.65,7.09-9.36,6.35-15.07,2.66,5.44,5.79,11.15,11.76,11.71,9.49.9,16-8.23,17.14-16.8a16.74,16.74,0,0,0-9.74-17.81c-2.88-1.27-7.83-1.63-10.72-.24a9.84,9.84,0,0,0-2.79,1.82c-15.29-5.79-31-10.29-46.27-16.38-3.47-1.39-21.36-7.44-23.86-12.58.41-.48.84-1,1.26-1.45,3.83-4.53,7.93-8.84,11.52-13.57a259.23,259.23,0,0,0,21.23-32.18c12.21-22.16,19.69-45.62,25-70.33,1.89-8.81,3.87-19.57-.76-27.94-3.43-6.22-9.12-10.59-16.65-9.07C403.71,458,393.56,466,385.55,473c-5.14,4.49-9.24,10-13.87,15-2.9,3.09-6.42,6.49-7.34,10.79-1.1,5.11,2.75,7.75,4.65,12,2.65,5.92,6.31,11.94,7.46,18.4a61.51,61.51,0,0,1-.48,21.56c-6.72,16.43-14.57,32.61-20.55,49.29-2.49-4.43-9.77-4.66-13.44-1.42C335.7,604.07,336.3,612.83,339.21,620.1Z" transform="translate(-75.3 -76.98)"/><path class="cls-4" d="M340.1,611.76c-.08-3.76.38-8.27,4-10.5,3-1.82,7.61-3.3,10.16.13a1.51,1.51,0,0,0,.52.39c-1.1,3.14-2.15,6.29-3.09,9.48,0,0,0,.11,0,.16.95-2,2.26-4,3.26-6,3.5-7,6.69-14,9.9-21.18q6.62-14.76,13.7-29.32c1-2.55,1.94-5.1,2.86-7.67,7.84-21.91,14.94-44.74,26.89-64.81.19-.34-.34-1-.67-.69-6.84,7.41-10.67,18.06-15,27.08-4.91,10.13-8.61,20.69-12.49,31.24a43.57,43.57,0,0,0-2.44-15.66c-3.59-9.6-10.5-19.66-8.12-29.43a70.86,70.86,0,0,1,17.57-20.05c6.91-5.44,15.63-12.49,24.12-15.08,31.2-9.48,15.29,39.78,11.85,53.44A201.87,201.87,0,0,1,399,569.66a229.66,229.66,0,0,1-17.69,25.67c-1.06,1.32-2.15,2.68-3.24,4.06-1.2,1.67-2.37,3.35-3.59,5-3,4.11-5.95,8.57-9.49,12.36a22.53,22.53,0,0,0,6.86-5.38c5.84,10.89,59.18,27.4,69.51,30.16a25.68,25.68,0,0,1-1,2.75c-.46.06-.4.49-.22.87a25.33,25.33,0,0,1,2.93-2,2.53,2.53,0,0,1,.5-.42,6.14,6.14,0,0,1,.69-.32,5.23,5.23,0,0,1,2.86-1.9c3.88-1,9.06-.82,12.13,2.12,4.73,4.54,5.46,12.8,2,18.43-4.1,6.77-13.62,13.11-19.39,3.91-2.48-4-4-8.56-7.15-12.06a.91.91,0,0,0-.5-.31,12.63,12.63,0,0,0-.73-1.07l-.15-.13a17.68,17.68,0,0,0-13-6.92,11.93,11.93,0,0,1,2.54,1,8.93,8.93,0,0,1,2.26,1.75,15.38,15.38,0,0,1,7.91,8.17c2.06,5.41,1.95,12.5-2.89,16.56-4.39,3.69-8.7,3.53-13.16,1.75a9.5,9.5,0,0,1-1.88-1.16,12.13,12.13,0,0,1-2.09-2.34,12.26,12.26,0,0,1-1.76-2.94,16.1,16.1,0,0,1-1.8-4.8,11.28,11.28,0,0,1-.06-3.71v0a.69.69,0,0,0-1,.33,7.91,7.91,0,0,0-.75,2.21c-2.81-6.67-9.31-10.74-15.11-14.69-5.58-3.8-13.71-9.06-20.67-6.2h0a19.94,19.94,0,0,1-1.5-4.45c-.24.72-.44,1.46-.64,2.2.79,3.35,2.68,6.44,4.14,9.58a68.58,68.58,0,0,0,7.56,12.1,25.36,25.36,0,0,0-1.91,5.12,1,1,0,0,0,.26.83,10,10,0,0,1,3.5-5.31,18.59,18.59,0,0,1,1.49-1.68,7.5,7.5,0,0,1,1.12-1c2.23-1.85,4.68-2.73,6.85-1.52a7.18,7.18,0,0,1,4.36,3.22c3.26,5.11,4.2,13.17,1.13,18.66-4.93,8.74-13.59,10.36-21.61,3.75-6.2-5.1-7.49-13.32-10.05-20.51-3.85-10.87-11.18-19.4-17.56-28.8C345,626.63,340.24,619.33,340.1,611.76Z" transform="translate(-75.3 -76.98)"/><path class="cls-2" d="M199.61,598.54c-3.67-3.24-11-3-13.44,1.42-6-16.68-13.84-32.86-20.55-49.29a61.51,61.51,0,0,1-.47-21.56c1.14-6.46,4.81-12.48,7.45-18.4a22.86,22.86,0,0,0,1.88-12.12.63.63,0,0,0,.31-.73c-.25-.51,1.68-2,1.43-2.46,3.63-2.8-4.58-5.43-7.19-7.92A70.77,70.77,0,0,0,156,473c-8-7-18.15-15-28.76-17.15-7.53-1.52-13.21,2.85-16.66,9.07-4.62,8.37-2.63,19.13-.76,27.94,5.28,24.71,12.77,48.17,25,70.33A261.43,261.43,0,0,0,156,595.33c3.6,4.73,7.69,9,11.53,13.57.42.5.84,1,1.26,1.45-2.51,5.14-20.39,11.19-23.85,12.58-15.24,6.09-31,10.59-46.29,16.38a9.58,9.58,0,0,0-2.77-1.82c-2.9-1.39-7.84-1-10.73.24a16.74,16.74,0,0,0-9.74,17.81c1.12,8.57,7.64,17.7,17.13,16.8,6-.56,9.1-6.27,11.77-11.71-.74,5.71,2,11.42,6.35,15.07,3.35,2.82,7.15,3,10.77,2a18.31,18.31,0,0,0,5.22-1.92c4-2.3,7.51-8,7.31-13,5.86-9.87,22.7-22.85,34.75-20.51h0c-1.1,2.08-2.32,4.09-3.34,6.13a36.21,36.21,0,0,1-4.79,7.64,12.31,12.31,0,0,0-1.57,2.08c-2.06-3.1-5.08-5.25-9.32-4.2-6.62,1.64-9.4,7.59-10.5,13.88-1.36,7.59,1.1,15.78,7.25,20.52,6.65,5.1,17.46.29,22-5.54a36.9,36.9,0,0,0,5.93-11.92c2.62-8,5.28-15.4,9.88-22.54,6.11-9.48,13.79-17.59,18-28.2C205.3,612.83,205.88,604.07,199.61,598.54Z" transform="translate(-75.3 -76.98)"/><path class="cls-4" d="M192.5,632.64c-6.37,9.4-13.7,17.93-17.55,28.8-2.56,7.19-3.86,15.41-10,20.51-8,6.61-16.68,5-21.6-3.75-3.08-5.49-2.14-13.55,1.11-18.66a7.25,7.25,0,0,1,4.38-3.22c2.16-1.21,4.6-.33,6.84,1.52a7.5,7.5,0,0,1,1.12,1,22.36,22.36,0,0,1,1.5,1.68,10.06,10.06,0,0,1,3.5,5.31A1,1,0,0,0,162,665a24.68,24.68,0,0,0-1.89-5.12,68,68,0,0,0,7.55-12.1c1.46-3.14,3.35-6.23,4.13-9.58-.18-.74-.4-1.48-.64-2.2a19,19,0,0,1-1.49,4.45h0c-7-2.86-15.09,2.4-20.68,6.2-5.8,4-12.31,8-15.1,14.69a8,8,0,0,0-.77-2.21.67.67,0,0,0-1-.33v0a11.84,11.84,0,0,1-.05,3.71,15.85,15.85,0,0,1-1.81,4.8,18,18,0,0,1-3.84,5.28,9.77,9.77,0,0,1-1.9,1.16c-4.45,1.78-8.75,1.94-13.14-1.75-4.84-4.06-5-11.15-2.9-16.56a15.4,15.4,0,0,1,7.9-8.17,9.35,9.35,0,0,1,2.27-1.75,11.73,11.73,0,0,1,2.54-1,17.68,17.68,0,0,0-13,6.92c0,.05-.1.08-.14.13-.25.36-.51.69-.74,1.07a1,1,0,0,0-.49.31c-3.14,3.5-4.67,8.1-7.14,12.06-5.79,9.2-15.3,2.86-19.39-3.91-3.42-5.63-2.7-13.89,2-18.43,3.06-2.94,8.25-3.12,12.13-2.12a5.16,5.16,0,0,1,2.86,1.9,7.24,7.24,0,0,1,.7.32,2.79,2.79,0,0,1,.49.42,25.33,25.33,0,0,1,2.93,2c.18-.38.24-.81-.22-.87-.09,0-.62-1.74-1-2.75,10.34-2.76,63.67-19.27,69.5-30.16a23,23,0,0,0,6.86,5.38c-3.53-3.79-6.44-8.25-9.49-12.36-1.21-1.64-2.38-3.32-3.57-5-1.1-1.38-2.18-2.74-3.25-4.06a229.66,229.66,0,0,1-17.69-25.67,201.89,201.89,0,0,1-24.07-56.36c-3.43-13.66-19.33-62.92,11.86-53.44,8.49,2.59,17.21,9.64,24.13,15.08A70.63,70.63,0,0,1,172.05,495c2.39,9.77-4.53,19.83-8.11,29.43a44,44,0,0,0-2.44,15.66c-3.88-10.55-7.57-21.11-12.49-31.24-4.36-9-8.19-19.67-15-27.08-.31-.34-.84.35-.65.69,11.95,20.07,19.06,42.9,26.88,64.81.92,2.57,1.88,5.12,2.87,7.67q7,14.58,13.7,29.32c3.19,7.13,6.4,14.21,9.91,21.18,1,2,2.31,4,3.24,6,0,0,0-.11,0-.16-.93-3.19-2-6.34-3.07-9.48a1.37,1.37,0,0,0,.5-.39c2.57-3.43,7.22-1.95,10.17-.13,3.6,2.23,4.07,6.74,4,10.5C201.35,619.33,196.59,626.63,192.5,632.64Z" transform="translate(-75.3 -76.98)"/><path class="cls-5" d="M151.14,473.64c1.9,4.1,5.86,11.85,3,16.39s-10.15.55-17.08-4.38c5,7,8.3,15.64,11.94,23.19,4.92,10.13,8.61,20.69,12.49,31.24a44,44,0,0,1,2.44-15.66c3.58-9.6,10.5-19.66,8.11-29.43a70.63,70.63,0,0,0-17.55-20.05l-4.44-3.47C150.42,472.19,150.81,472.91,151.14,473.64Z" transform="translate(-75.3 -76.98)"/><path class="cls-5" d="M197.5,601.26c-2.95-1.82-7.6-3.3-10.17.13a1.37,1.37,0,0,1-.5.39c1.09,3.14,2.14,6.29,3.07,9.48,0,0,0,.11,0,.16-.93-2-2.25-4-3.24-6-3.51-7-6.72-14-9.91-21.18q-6.63-14.76-13.7-29.32c-1-2.55-1.95-5.1-2.87-7.67-7.72-21.62-14.76-44.15-26.43-64-3.3-2.44-6.34-4.78-8.58-6.06,5.75,14.66,12.24,29,17.78,43.75,5.87,15.61,10.39,31.63,17.33,46.83,3.61,7.9,7.49,15.69,11.8,23.23,3.6,6.29,8.18,12.34,11,19,3.92,9.11,2.24,16.85-.54,26.08-2.15,7.12-16.8,53.55-30.5,41.92-4.92-4.18-7.56-14.67-4.53-21.23a7.32,7.32,0,0,0-3.15,2.79c-3.25,5.11-4.19,13.17-1.11,18.66,4.92,8.74,13.57,10.36,21.6,3.75,6.19-5.1,7.49-13.32,10-20.51,3.85-10.87,11.18-19.4,17.55-28.8,4.09-6,8.85-13.31,9-20.88C201.57,608,201.1,603.49,197.5,601.26Z" transform="translate(-75.3 -76.98)"/><path class="cls-5" d="M167.68,639.88c2.46-3,4-9-1.74-8.56-4.13.31-8.1,2.11-11.72,4.08-8.58,4.67-13.63,11.66-20.42,18.5-4.56,4.57-10,9.55-16.81,6.63-2.5-1.07-3.68-3.68-4.51-6.06-.34-1,.76-4.14,1-5.46a14.45,14.45,0,0,0-5.08,6.44c-2.07,5.41-1.94,12.5,2.9,16.56,4.39,3.69,8.69,3.53,13.14,1.75a9.77,9.77,0,0,0,1.9-1.16,18,18,0,0,0,3.84-5.28,15.85,15.85,0,0,0,1.81-4.8,11.84,11.84,0,0,0,.05-3.71v0a.67.67,0,0,1,1,.33,8,8,0,0,1,.77,2.21c2.79-6.67,9.3-10.74,15.1-14.69C154,643.19,161.18,638.55,167.68,639.88Z" transform="translate(-75.3 -76.98)"/><path class="cls-5" d="M84.17,648.09a13.58,13.58,0,0,1-1.5-5.72c-.12.11-.25.18-.37.29-4.74,4.54-5.46,12.8-2,18.43,4.09,6.77,13.6,13.11,19.39,3.91,2.47-4,4-8.56,7.14-12.06a1,1,0,0,1,.49-.31c.23-.38.49-.71.74-1.07,0,0,.1-.08.14-.13a17.43,17.43,0,0,1,1.19-1.34C100.33,653.56,89.43,658.4,84.17,648.09Z" transform="translate(-75.3 -76.98)"/><path class="cls-4" d="M340.1,611.76c-.08-3.76.38-8.27,4-10.5,3-1.82,7.61-3.3,10.16.13a1.51,1.51,0,0,0,.52.39c-1.1,3.14-2.15,6.29-3.09,9.48,0,0,0,.11,0,.16.95-2,2.26-4,3.26-6,3.5-7,6.69-14,9.9-21.18q6.62-14.76,13.7-29.32c1-2.55,1.94-5.1,2.86-7.67,7.84-21.91,14.94-44.74,26.89-64.81.19-.34-.34-1-.67-.69-6.84,7.41-10.67,18.06-15,27.08-4.91,10.13-8.61,20.69-12.49,31.24a43.57,43.57,0,0,0-2.44-15.66c-3.59-9.6-10.5-19.66-8.12-29.43a70.86,70.86,0,0,1,17.57-20.05c6.91-5.44,15.63-12.49,24.12-15.08,31.2-9.48,15.29,39.78,11.85,53.44A201.87,201.87,0,0,1,399,569.66a229.66,229.66,0,0,1-17.69,25.67c-1.06,1.32-2.15,2.68-3.24,4.06-1.2,1.67-2.37,3.35-3.59,5-3,4.11-5.95,8.57-9.49,12.36a22.53,22.53,0,0,0,6.86-5.38c5.84,10.89,59.18,27.4,69.51,30.16a25.68,25.68,0,0,1-1,2.75c-.46.06-.4.49-.22.87a25.33,25.33,0,0,1,2.93-2,2.53,2.53,0,0,1,.5-.42,6.14,6.14,0,0,1,.69-.32,5.23,5.23,0,0,1,2.86-1.9c3.88-1,9.06-.82,12.13,2.12,4.73,4.54,5.46,12.8,2,18.43-4.1,6.77-13.62,13.11-19.39,3.91-2.48-4-4-8.56-7.15-12.06a.91.91,0,0,0-.5-.31,12.63,12.63,0,0,0-.73-1.07l-.15-.13a17.68,17.68,0,0,0-13-6.92,11.93,11.93,0,0,1,2.54,1,8.93,8.93,0,0,1,2.26,1.75,15.38,15.38,0,0,1,7.91,8.17c2.06,5.41,1.95,12.5-2.89,16.56-4.39,3.69-8.7,3.53-13.16,1.75a9.5,9.5,0,0,1-1.88-1.16,12.13,12.13,0,0,1-2.09-2.34,12.26,12.26,0,0,1-1.76-2.94,16.1,16.1,0,0,1-1.8-4.8,11.28,11.28,0,0,1-.06-3.71v0a.69.69,0,0,0-1,.33,7.91,7.91,0,0,0-.75,2.21c-2.81-6.67-9.31-10.74-15.11-14.69-5.58-3.8-13.71-9.06-20.67-6.2h0a19.94,19.94,0,0,1-1.5-4.45c-.24.72-.44,1.46-.64,2.2.79,3.35,2.68,6.44,4.14,9.58a68.58,68.58,0,0,0,7.56,12.1,25.36,25.36,0,0,0-1.91,5.12,1,1,0,0,0,.26.83,10,10,0,0,1,3.5-5.31,18.59,18.59,0,0,1,1.49-1.68,7.5,7.5,0,0,1,1.12-1c2.23-1.85,4.68-2.73,6.85-1.52a7.18,7.18,0,0,1,4.36,3.22c3.26,5.11,4.2,13.17,1.13,18.66-4.93,8.74-13.59,10.36-21.61,3.75-6.2-5.1-7.49-13.32-10.05-20.51-3.85-10.87-11.18-19.4-17.56-28.8C345,626.63,340.24,619.33,340.1,611.76Z" transform="translate(-75.3 -76.98)"/><path class="cls-4" d="M340.1,611.76c-.08-3.76.38-8.27,4-10.5,3-1.82,7.61-3.3,10.16.13a1.51,1.51,0,0,0,.52.39c-1.1,3.14-2.15,6.29-3.09,9.48,0,0,0,.11,0,.16.95-2,2.26-4,3.26-6,3.5-7,6.69-14,9.9-21.18q6.62-14.76,13.7-29.32c1-2.55,1.94-5.1,2.86-7.67,7.84-21.91,14.94-44.74,26.89-64.81.19-.34-.34-1-.67-.69-6.84,7.41-10.67,18.06-15,27.08-4.91,10.13-8.61,20.69-12.49,31.24a43.57,43.57,0,0,0-2.44-15.66c-3.59-9.6-10.5-19.66-8.12-29.43a70.86,70.86,0,0,1,17.57-20.05c6.91-5.44,15.63-12.49,24.12-15.08,31.2-9.48,15.29,39.78,11.85,53.44A201.87,201.87,0,0,1,399,569.66a229.66,229.66,0,0,1-17.69,25.67c-1.06,1.32-2.15,2.68-3.24,4.06-1.2,1.67-2.37,3.35-3.59,5-3,4.11-5.95,8.57-9.49,12.36a22.53,22.53,0,0,0,6.86-5.38c5.84,10.89,59.18,27.4,69.51,30.16a25.68,25.68,0,0,1-1,2.75c-.46.06-.4.49-.22.87a25.33,25.33,0,0,1,2.93-2,2.53,2.53,0,0,1,.5-.42,6.14,6.14,0,0,1,.69-.32,5.23,5.23,0,0,1,2.86-1.9c3.88-1,9.06-.82,12.13,2.12,4.73,4.54,5.46,12.8,2,18.43-4.1,6.77-13.62,13.11-19.39,3.91-2.48-4-4-8.56-7.15-12.06a.91.91,0,0,0-.5-.31,12.63,12.63,0,0,0-.73-1.07l-.15-.13a17.68,17.68,0,0,0-13-6.92,11.93,11.93,0,0,1,2.54,1,8.93,8.93,0,0,1,2.26,1.75,15.38,15.38,0,0,1,7.91,8.17c2.06,5.41,1.95,12.5-2.89,16.56-4.39,3.69-8.7,3.53-13.16,1.75a9.5,9.5,0,0,1-1.88-1.16,12.13,12.13,0,0,1-2.09-2.34,12.26,12.26,0,0,1-1.76-2.94,16.1,16.1,0,0,1-1.8-4.8,11.28,11.28,0,0,1-.06-3.71v0a.69.69,0,0,0-1,.33,7.91,7.91,0,0,0-.75,2.21c-2.81-6.67-9.31-10.74-15.11-14.69-5.58-3.8-13.71-9.06-20.67-6.2h0a19.94,19.94,0,0,1-1.5-4.45c-.24.72-.44,1.46-.64,2.2.79,3.35,2.68,6.44,4.14,9.58a68.58,68.58,0,0,0,7.56,12.1,25.36,25.36,0,0,0-1.91,5.12,1,1,0,0,0,.26.83,10,10,0,0,1,3.5-5.31,18.59,18.59,0,0,1,1.49-1.68,7.5,7.5,0,0,1,1.12-1c2.23-1.85,4.68-2.73,6.85-1.52a7.18,7.18,0,0,1,4.36,3.22c3.26,5.11,4.2,13.17,1.13,18.66-4.93,8.74-13.59,10.36-21.61,3.75-6.2-5.1-7.49-13.32-10.05-20.51-3.85-10.87-11.18-19.4-17.56-28.8C345,626.63,340.24,619.33,340.1,611.76Z" transform="translate(-75.3 -76.98)"/><path class="cls-4" d="M385.27,476.52c-.69,1.36-1.42,2.71-2.06,4.09-2.34,5-7,13.25-5.41,19.05,2.62,9.5,15.79-7,17.85-9.56,5.26-6.46,10.88-12.72,18.07-17,1-.61,2.12.94,1.86,1.84-5.29,18.89-15.14,35.9-21.69,54.31-3.12,8.77-6.75,17.28-10.1,26-3.31,8.52-15.12,37-7.26,46.38l1.55-2.16c1.09-1.38,2.18-2.74,3.24-4.06A229.66,229.66,0,0,0,399,569.66a201.87,201.87,0,0,0,24.06-56.36c3.44-13.66,19.35-62.92-11.85-53.44-8.49,2.59-17.21,9.64-24.12,15.08C386.46,475.46,385.89,476,385.27,476.52Z" transform="translate(-75.3 -76.98)"/><path class="cls-4" d="M392.81,656.32c-2.17-1.21-4.62-.33-6.85,1.52a7.5,7.5,0,0,0-1.12,1,18.59,18.59,0,0,0-1.49,1.68,10,10,0,0,0-3.5,5.31,1,1,0,0,1-.26-.83,25.36,25.36,0,0,1,1.91-5.12,68.58,68.58,0,0,1-7.56-12.1c-1-2.1-2.09-4.17-3-6.31-.53.33-1.05.69-1.57,1.09-1.22,6.18,7,22.47,8.67,25.35,2.19,3.75,4.88,5.71,8.83,7.57a49,49,0,0,0,10.8,3.7c.21-.32.41-.64.62-1,3.07-5.49,2.13-13.55-1.13-18.66A7.18,7.18,0,0,0,392.81,656.32Z" transform="translate(-75.3 -76.98)"/><path class="cls-5" d="M416.19,659.32c-12-6.85-27.66-24.13-41.75-19.49,6.35-1,13.26,3.45,18.2,6.81,5.8,4,12.3,8,15.11,14.69a7.91,7.91,0,0,1,.75-2.21.69.69,0,0,1,1-.33v0a11.28,11.28,0,0,0,.06,3.71,16.1,16.1,0,0,0,1.8,4.8,12.26,12.26,0,0,0,1.76,2.94,12.13,12.13,0,0,0,2.09,2.34,9.5,9.5,0,0,0,1.88,1.16c4.46,1.78,8.77,1.94,13.16-1.75,4.06-3.42,4.78-9,3.67-13.88C431.61,665.44,422.91,663.14,416.19,659.32Z" transform="translate(-75.3 -76.98)"/><path class="cls-5" d="M461.73,646a17.66,17.66,0,0,1-4.94,7c-6.3,5.41-14,5.87-20.41,2.06,2.13,3.13,3.55,6.73,5.57,9.94,5.77,9.2,15.29,2.86,19.39-3.91A15.94,15.94,0,0,0,461.73,646Z" transform="translate(-75.3 -76.98)"/><path class="cls-5" d="M367.42,586c3-6.34,6.18-12.69,9.31-19.08.13-.39.25-.79.37-1.15,3.63-10.69,8.24-21,12.23-31.5,7.12-18.89,16.65-37.19,22.64-56.5-9.28,6.95-14.6,17.32-23.69,24.5-3.21,2.55-9.9,4.79-12.14-.44-2.41-5.62.41-12.52,2.6-17.78.36-.86.77-1.71,1.16-2.57A70.44,70.44,0,0,0,369.53,495c-2.38,9.77,4.53,19.83,8.12,29.43a43.57,43.57,0,0,1,2.44,15.66c3.88-10.55,7.58-21.11,12.49-31.24,4.36-9,8.19-19.67,15-27.08.33-.34.86.35.67.69-11.95,20.07-19,42.9-26.89,64.81-.92,2.57-1.88,5.12-2.86,7.67q-7,14.58-13.7,29.32c-2.33,5.21-4.71,10.36-7.16,15.49v.69a1.11,1.11,0,0,1-.8,1c-.65,1.35-1.28,2.71-1.94,4-.55,1.1-1.2,2.2-1.82,3.3a52.38,52.38,0,0,0,3.06,12.37C355.67,609.11,362.75,595.74,367.42,586Z" transform="translate(-75.3 -76.98)"/><path class="cls-5" d="M376.67,670.39a114.33,114.33,0,0,1-5.32-10.79c-7.2-10.05-12.5-22.88-16.67-33.91-2.24-5.94-5.22-13.17-4.51-19.7a8.48,8.48,0,0,1,1.9-5,6.25,6.25,0,0,1,.87-.79c-2.64-1.72-6.34-.46-8.85,1.08-3.61,2.23-4.07,6.74-4,10.5.14,7.57,4.9,14.87,9,20.88,6.38,9.4,13.71,17.93,17.56,28.8,2.56,7.19,3.85,15.41,10.05,20.51,6.76,5.58,14,5.28,19-.19C388.1,680,379,674.35,376.67,670.39Z" transform="translate(-75.3 -76.98)"/><path class="cls-2" d="M251.12,641.35c-9.07-4.24-14.79-13.11-21.54-20.22a1.41,1.41,0,0,0,.17-.88c-3.67-16.84-8-33.19-10-50.37a298.36,298.36,0,0,1-1.24-49.29c.87-17.21,3.22-34.31,4.18-51.49.24-4.31,2.31-17.73-1.38-23.55a.16.16,0,0,0,0-.16,10.62,10.62,0,0,0-.87-1.31c2.62,11.41,1,23-.67,34.57-.21,1.45-3,1.64-2.77-.07.59-4,1.17-8,1.56-12a.77.77,0,0,1-.49-.79c.12-2.14.29-4.35.4-6.58a75.84,75.84,0,0,0-1-13.37c-.09-.32-.23-.64-.35-1a90.84,90.84,0,0,0-5.74,13.43c-1.82,6.14-3,12.38-2.5,18.89.12,1.53-2.7,2.19-2.82.69-.08-.93-.06-1.83-.07-2.75a1,1,0,0,1-.26-.72,53.71,53.71,0,0,1,.55-6c.14-1.14.35-2.28.57-3.42a.19.19,0,0,1,0-.08,63.78,63.78,0,0,1,1.59-6.59c1.13-3.63,2.12-7.67,3.9-11.05.64-1.21,1.33-2.4,2-3.59-3.3,2.78-6.18,9.1-7.27,11.73-7,17.06-8,35.72-9,53.89a454.67,454.67,0,0,0,.25,59.52c1.27,16.61,3.41,34.37,8.6,50.47,0,0,0,.08,0,.12,2.39,5.9-4.42,11.92-8.15,15.56-3.47,3.38-9.88,9.82-14.82,9.61-9.1-.38-14,8.42-9.28,15.83,3.62,5.67,13.74,8.11,17.79,1.55,1.36-2.2,1.82-4.63,2.44-7,2.39-2.64,5.4-4.77,9-2.57,2.33,1.45,3.1,4.36,4.87,6.33-1.72,1.87-3.13,4.3-1.9,7,3.48,7.68,11.89,11.2,19.52,7.41,5.87-2.91,5.55-9.53,4-15.63,1.24-2.81,2.18-5.39,5.31-7.06,3.9-2.09,7.31.19,10.57,2.19a1,1,0,0,0,0,.78c4.26,7.09,19,11,19-1.1C265.43,642.81,257.85,644.5,251.12,641.35Z" transform="translate(-75.3 -76.98)"/><path class="cls-6" d="M210.47,656.57c-1.42-3.72-4.61-7.28-8.55-7.6a7.77,7.77,0,0,0-5.61,2.09,1.76,1.76,0,0,0,.09-.2c1.83-3.64,9.59-14.67,14.06-10.07l0,0C211,645.63,212.65,652.32,210.47,656.57Z" transform="translate(-75.3 -76.98)"/><path class="cls-6" d="M235.7,648.15a14.37,14.37,0,0,0-6.22,6.1c-.7-2.1-1.43-4-2-5.59-.34-.93-3.52-11.58-1.62-10.71,2.42,1.1,4.6,2.87,7,4a42.73,42.73,0,0,1,8.72,5.45A10.33,10.33,0,0,0,235.7,648.15Z" transform="translate(-75.3 -76.98)"/><path class="cls-4" d="M248.71,652.33a.8.8,0,0,0-.07-.79,8.27,8.27,0,0,0-.61-.7c-3.3-7.11-11.29-9.51-17.57-13.59-3-1.92-8.78-3.78-8.58,2.32.16,4.55,2.17,8.68,3.75,12.89a71.49,71.49,0,0,1,3.07,11.14q-4.45,11.67-12.51,7.53a13.87,13.87,0,0,1-4.61-3.52c-4-4.05,1.5-10.62,2.07-14.92.61-4.63-.45-9.69-1.07-14.28-.14-1-1.26-.81-1.86-.17-3.06-2.21-7.94,2-10.05,4.28a54.27,54.27,0,0,0-6.73,8.93,13.53,13.53,0,0,0-1.52,4.24c-1.78,7.68-8.58,9.32-14.25,4.27-6-5.3.52-13.08,7.67-12.9a9.73,9.73,0,0,0,5-1.82c3.5-3.22,7-6.55,10.4-9.9,2.68-2.62,6.46-6.6,7.6-10.71a.25.25,0,0,0,0,.07c.47,1.26,2.61.08,2.41-1-2.76-14.39-6.34-28.47-8.14-43.06a360.6,360.6,0,0,1-2.34-45.16c0-15.33.58-30.75,1.74-46a157.94,157.94,0,0,1,3.67-23.61,103.49,103.49,0,0,1,3.85-12.48c.63-1.7,3.73-9.24,7.32-9.76,0,0,0,.05.06.06,4.45,1.59,3.54,11.28,3.52,15.05,0,8.34-.66,16.67-1.36,25-1.35,16-3.22,31.88-3.66,47.92a329,329,0,0,0,2.1,46.86c1.51,13.26,3.65,27.39,8.14,40.11-.33.22-.55.61-.29.94.4.57.84,1.15,1.24,1.71a4.3,4.3,0,0,1,.16.41.85.85,0,0,0,.56.55c6.12,8.27,12.49,16.13,21.54,21.44,5.27,3.09,14.69,1.82,13.25,10.93C261.36,662.61,252.22,655.09,248.71,652.33Z" transform="translate(-75.3 -76.98)"/><path class="cls-5" d="M211.29,623.67c.2,1.11-1.94,2.29-2.41,1a.25.25,0,0,1,0-.07c-1.14,4.11-4.92,8.09-7.6,10.71-1.84,1.81-3.74,3.57-5.63,5.35,6.72-1.79,15.28-9.15,17.74-13.92,4.7-9.1-.34-21.17-2-30.61a443.51,443.51,0,0,1-6.66-57.58c-.86-18.47-.84-37.14-.18-55.63.14-4.39.42-8.8.87-13.17a158.34,158.34,0,0,0-2.82,19.63c-1.16,15.29-1.72,30.71-1.74,46a360.6,360.6,0,0,0,2.34,45.16C205,595.2,208.53,609.28,211.29,623.67Z" transform="translate(-75.3 -76.98)"/><path class="cls-5" d="M179.29,654.19a10.47,10.47,0,0,1-1-4.15c-2.82,2.71-3.73,6.76-.14,9.92,5.28,4.7,11.46,3.55,13.75-2.81C187.47,659.65,181.87,659.72,179.29,654.19Z" transform="translate(-75.3 -76.98)"/><path class="cls-5" d="M218.28,665.36c-4.06.34-6.52-.92-8-3a5.49,5.49,0,0,0,1.28,5.26,13.87,13.87,0,0,0,4.61,3.52q8,4.14,12.51-7.53c-.49-2.48-1.13-4.91-1.84-7.31C225.87,661,223.42,664.93,218.28,665.36Z" transform="translate(-75.3 -76.98)"/><path class="cls-5" d="M258.37,646.72a7.94,7.94,0,0,1-2.58,7.18,8.67,8.67,0,0,1-2.87,1.58c4,2.69,8.82,4.75,9.73-1C263.39,649.86,261.3,647.92,258.37,646.72Z" transform="translate(-75.3 -76.98)"/><path class="cls-2" d="M350.25,644.56c-4.92.21-11.33-6.23-14.8-9.61-3.74-3.64-10.55-9.66-8.16-15.56,0,0,0-.08,0-.12,5.19-16.1,7.32-33.86,8.6-50.47a458.18,458.18,0,0,0,.24-59.52c-1-18.17-1.95-36.83-8.95-53.89-1.1-2.68-4.09-9.17-7.46-11.85,3.22,5.3,6.21,10.18,7.82,16.75A105.75,105.75,0,0,1,331,483.67c0,1.45-2.62,2.54-2.65.82a96.1,96.1,0,0,0-4.64-27.79c-1.55-4.66-4.3-8.6-6.93-12.66-.23.5-.46,1-.65,1.52-1.27,7.46,1.16,17.52,2.59,22.91.31,1.15-1.13,1.67-2.07,1.33.72,3.29,1.5,6.4,2.05,9.12.35,1.7-2.48,1.55-2.76.11-2-9.61-6.27-23.66-2.71-34a4.2,4.2,0,0,0-.24.38.14.14,0,0,0,0,.16c-3.7,5.82-1.62,19.24-1.4,23.55,1,17.18,3.31,34.28,4.19,51.49a298.36,298.36,0,0,1-1.24,49.29c-2,17.18-6.33,33.53-10,50.37a1.39,1.39,0,0,0,.15.88c-6.73,7.11-12.47,16-21.54,20.22-6.71,3.15-14.31,1.46-14.26,10.94.08,12.13,14.78,8.19,19,1.1a.93.93,0,0,0,.05-.78c3.25-2,6.66-4.28,10.57-2.19,3.12,1.67,4.07,4.25,5.3,7.06-1.58,6.1-1.91,12.72,4,15.63,7.61,3.79,16,.27,19.52-7.41,1.23-2.71-.17-5.14-1.91-7,1.78-2,2.53-4.88,4.89-6.33,3.58-2.2,6.59-.07,9,2.57a24.34,24.34,0,0,0,2.43,7c4.06,6.56,14.18,4.12,17.8-1.55C364.29,653,359.35,644.18,350.25,644.56Z" transform="translate(-75.3 -76.98)"/><path class="cls-6" d="M323.78,640.82s0,0,.05,0c4.46-4.6,12.23,6.43,14.06,10.07a1.76,1.76,0,0,1,.09.2,7.76,7.76,0,0,0-5.61-2.09c-3.94.32-7.13,3.88-8.54,7.6C321.64,652.32,323.25,645.63,323.78,640.82Z" transform="translate(-75.3 -76.98)"/><path class="cls-6" d="M292.69,647.43a42.46,42.46,0,0,1,8.72-5.45c2.43-1.16,4.61-2.93,7-4,1.91-.87-1.27,9.78-1.62,10.71-.56,1.56-1.3,3.49-2,5.59a14.41,14.41,0,0,0-6.24-6.1A10.28,10.28,0,0,0,292.69,647.43Z" transform="translate(-75.3 -76.98)"/><path class="cls-4" d="M271.64,654.51c-1.44-9.11,8-7.84,13.24-10.93,9.05-5.31,15.42-13.17,21.55-21.44a.86.86,0,0,0,.57-.55c0-.13.09-.27.14-.41.42-.56.84-1.14,1.26-1.71.26-.33,0-.72-.31-.94,4.5-12.72,6.65-26.85,8.14-40.11a330.53,330.53,0,0,0,2.12-46.86c-.45-16-2.32-31.94-3.66-47.92-.71-8.3-1.32-16.63-1.37-25,0-3.77-.93-13.46,3.52-15.05,0,0,0,0,.07-.06,3.58.52,6.67,8.06,7.31,9.76a103.49,103.49,0,0,1,3.85,12.48,155.39,155.39,0,0,1,3.66,23.61c1.17,15.29,1.72,30.71,1.75,46a364.43,364.43,0,0,1-2.33,45.16c-1.81,14.59-5.4,28.67-8.14,43.06-.22,1.11,1.92,2.29,2.4,1,0,0,0-.05,0-.07,1.14,4.11,4.93,8.09,7.59,10.71,3.41,3.35,6.9,6.68,10.4,9.9a9.83,9.83,0,0,0,5,1.82c7.13-.18,13.64,7.6,7.67,12.9-5.68,5-12.48,3.41-14.25-4.27a13.57,13.57,0,0,0-1.54-4.24,53.12,53.12,0,0,0-6.72-8.93c-2.11-2.25-7-6.49-10.06-4.28-.59-.64-1.71-.87-1.85.17-.63,4.59-1.67,9.65-1.07,14.28.57,4.3,6.08,10.87,2.06,14.92a13.83,13.83,0,0,1-4.6,3.52q-8.06,4.14-12.51-7.53a69.38,69.38,0,0,1,3.08-11.14c1.56-4.21,3.59-8.34,3.73-12.89.21-6.1-5.61-4.24-8.57-2.32-6.27,4.08-14.27,6.48-17.57,13.59a6.8,6.8,0,0,0-.61.7.86.86,0,0,0-.08.79C282.08,655.09,272.93,662.61,271.64,654.51Z" transform="translate(-75.3 -76.98)"/><path class="cls-5" d="M328.55,503.22c0,21.83.35,43.7-1.09,65.5a224.57,224.57,0,0,1-3.73,30.36c-1.79,8.74-6,20.28-.35,28.43,4.3,6.22,12.57,16.47,21,18.34a5.06,5.06,0,0,1-.92-.61c-3.5-3.22-7-6.55-10.4-9.9-2.66-2.62-6.45-6.6-7.59-10.71,0,0,0,0,0,.07-.48,1.26-2.62.08-2.4-1,2.74-14.39,6.33-28.47,8.14-43.06a364.43,364.43,0,0,0,2.33-45.16c0-15.33-.58-30.75-1.75-46a156.26,156.26,0,0,0-3.14-21.19C329.27,479.89,328.55,491.78,328.55,503.22Z" transform="translate(-75.3 -76.98)"/><path class="cls-5" d="M321.6,639.21a10,10,0,0,0-1.23.61A21.15,21.15,0,0,0,320,643a48.43,48.43,0,0,0,.73,11.08c.75,4.33,1.07,9.14-2.28,12.56a12.06,12.06,0,0,1-8.46,3.9c2.31,2,5,2.2,8.15.6a13.83,13.83,0,0,0,4.6-3.52c4-4.05-1.49-10.62-2.06-14.92S321,643.59,321.6,639.21Z" transform="translate(-75.3 -76.98)"/><path class="cls-5" d="M276.43,649.79a14.26,14.26,0,0,1-3.33-1.31c-1.26,1.27-1.91,3.12-1.46,6,1.29,8.1,10.44.58,13.93-2.18a.86.86,0,0,1,.08-.79,6.8,6.8,0,0,1,.61-.7c3.3-7.11,11.3-9.51,17.57-13.59a13.4,13.4,0,0,1,2.17-1.13C294.81,637.53,288.37,652.76,276.43,649.79Z" transform="translate(-75.3 -76.98)"/><path class="cls-2" d="M425,257.9c-20.33-30.95-58.81-44-94-45.31a318.61,318.61,0,0,0-62.83,4.29,198.71,198.71,0,0,0-28,6.71q-7.38,1.69-14.7,3.9c-17.85,5.43-33.69,14.41-48.49,25.71-28.09,21.45-51.26,54.15-47.23,91.06,4.24,38.9,36.87,61.51,71.51,71.95a237.31,237.31,0,0,0,62.76,10c21.47.48,40.73-4.43,61.19-10.2,19-5.36,35.84-14.91,51.76-26.55,15.44-11.29,30.27-24.76,41.4-40.42C436.75,323.07,443.18,285.68,425,257.9Z" transform="translate(-75.3 -76.98)"/><path class="cls-4" d="M362.27,395c-18.77,12.05-40.1,18.6-61.63,23.72-22.53,5.36-46.86,3.91-69.5.14-27-4.5-55-12.93-75.76-31.62-23.73-21.37-28.63-56.45-15.91-84.88,11.4-25.49,33.76-45.31,57.25-59.45a132.78,132.78,0,0,1,17.48-8.77c-.44.32-.9.63-1.33,1-1.72,1.43-.37,4.21,1.6,2.57,7.88-6.53,19.45-8.77,29.05-11.79,12.17-3.81,25.07-5.77,37.68-7.25,22.21-2.62,45.58-3.61,67.73-.14,39.15,6.13,81.23,32.92,82.84,76.3C433.43,339.22,396.45,373.1,362.27,395Z" transform="translate(-75.3 -76.98)"/><path class="cls-5" d="M431.77,294.85c-1.61-43.38-43.69-70.17-82.84-76.3-22.15-3.47-45.52-2.48-67.73.14-12.61,1.48-25.51,3.44-37.68,7.25-9.6,3-21.17,5.26-29.05,11.79-2,1.64-3.32-1.14-1.6-2.57.43-.36.89-.67,1.33-1a132.78,132.78,0,0,0-17.48,8.77c-23.49,14.14-45.85,34-57.25,59.45-12.72,28.43-7.82,63.51,15.91,84.88,20.74,18.69,48.75,27.12,75.76,31.62,22.64,3.77,47,5.22,69.5-.14,21.53-5.12,42.86-11.67,61.63-23.72C396.45,373.1,433.43,339.22,431.77,294.85ZM393,332.06a107.33,107.33,0,0,1-28.76,44.67,124.19,124.19,0,0,1-27.81,19.54c-18.08,13.44-44.39,17.62-65.6,18.6-32.37,1.52-64.17-.75-91.19-20.64-23.22-17.1-37.34-41.94-35.89-71.21.83-16.61,4.8-36.86,18.81-45.42,3.84-2.9,7.7-6.42,12.75-5.06,6.6,1.78,8.58,11,12.43,15.59,10.59,12.62,35.53,17.44,50.39,10.63,12.28-5.63,20.68-18.25,33.57-22.69,13.69-4.73,20.37,7.42,31.22,13.28,18.57,10,40,5.29,59.06-.14,8.5-2.42,21.62-6.28,28.67,1.46C400,301,396.91,320.08,393,332.06Z" transform="translate(-75.3 -76.98)"/><path class="cls-2" d="M371.17,276.36a116.3,116.3,0,0,1-18.7,6.34,51.07,51.07,0,0,0,12.12-12.36c9.64-13.59,14.21-32.23,13.91-48.71-.33-17.2-4.77-37-17.79-49.21-6.72-6.28-16.28-8.37-25.58-7.51-13.83-1.49-28.46,4.66-37.41,15.19-.74.87.15,1.66,1,.93a50.89,50.89,0,0,1,20.08-11.31c-.31.17-.62.31-.92.48-1.47.84-2.86,1.76-4.21,2.72a34,34,0,0,0-8.22,5.16c-7,5.83-11.53,13.65-15.05,21.88a62,62,0,0,0-3.83,12.53c.6-7.85,0-15.62-2.54-22.63-2-5.53-4.22-9.28-7.95-12.49,2,.51,4,1.07,5.91,1.75.6.22,1.3-.73.68-1.12a46.55,46.55,0,0,0-22.08-7.09,4,4,0,0,0-.49,0c-22-1.22-45,11.88-58.49,28.85-10.25,12.9-16,29.92-16.92,46.28-.55,9.86,1.66,21.64,7.4,30.54a41.56,41.56,0,0,1-13.14-15.32c-.25-.52-1,.12-.83.57,4.32,11,12.89,20.49,23.93,24.57l.34.21c13.36,7.6,30.62,3.73,43.38-3.44,15.23-8.56,25.64-21.72,32.34-37.68a120.06,120.06,0,0,0,7.32-24.06A85.68,85.68,0,0,0,291.33,257a55.58,55.58,0,0,0,5.7,11.1c1,1.66,2,3.28,3.15,4.84a1.32,1.32,0,0,0,1,.56,46.31,46.31,0,0,0,15.32,11.45A82.93,82.93,0,0,1,300.08,281c-.39-.13-.88.56-.44.73a93.78,93.78,0,0,0,28.53,6.75,31.24,31.24,0,0,0,10.34.06A71.75,71.75,0,0,0,371.8,278.4C372.89,277.74,372.62,275.72,371.17,276.36Z" transform="translate(-75.3 -76.98)"/><path class="cls-7" d="M273.91,248.69c-6.2,14.49-17.81,25.7-31.63,32.84-13,6.7-30.06,9.26-41.8-1-11.25-9.82-13.2-27-11.51-40.91a77,77,0,0,1,18.64-41c14.8-16.67,36.09-24.14,57.29-22.07a29.17,29.17,0,0,1,4.32,1.59c7.37,3.45,10.22,12.45,11.95,19.73C285,214,280.26,233.88,273.91,248.69Z" transform="translate(-75.3 -76.98)"/><path class="cls-7" d="M299.81,264.2c-12.35-25.26-12.94-56.6,5.67-79.23,11.76-14.3,34.24-21.77,50.33-10.12,14.59,10.57,18.49,33.93,18.3,50.62-.18,17.36-6,36.26-17.79,49.23-13.61,15-35.59,11.05-49.22-1.67A46.82,46.82,0,0,1,299.81,264.2Z" transform="translate(-75.3 -76.98)"/><path class="cls-8" d="M151.33,569.69c-9.16-16.78-17.45-33.28-24.48-51.12-3.11-7.88-5-16.33-6.68-24.62-1.48-7.4-.48-16.36-3.4-23.3-.31-.75-1.17,0-1.09.59.47,3.83-.35,7.57,0,11.41.37,4.43.46,8.72,1.15,13.13A134.64,134.64,0,0,0,124,523c6.39,16.68,13,35.13,25,48.65C150.12,572.94,152,571,151.33,569.69Z" transform="translate(-75.3 -76.98)"/><path class="cls-8" d="M419.36,495.3c-.61,1.48-1.22,2.95-1.84,4.43l-1.29,3.36c-1.64,8.17-3.52,16.48-6.59,24.23-7,17.84-15.32,34.35-24.47,51.14-.71,1.31,1.2,3.24,2.31,2,12-13.52,18.66-32,25-48.65a134.07,134.07,0,0,0,7.17-27.25c.51-3.23.7-6.39.9-9.59Q420.05,495.07,419.36,495.3Z" transform="translate(-75.3 -76.98)"/><path class="cls-8" d="M98.92,647.63a2.58,2.58,0,0,0-.32-1.32,1.55,1.55,0,0,0-.08-.51c-.58-1.37-2.38-2.66-4.16-3.39a5.38,5.38,0,0,0-3-.61,4.29,4.29,0,0,0-3.48,1.52c-.82,1.08-.2,2.61,1.23,3.72a10.62,10.62,0,0,0,5.3,3.2C97.19,650.84,98.85,649.56,98.92,647.63Z" transform="translate(-75.3 -76.98)"/><path class="cls-8" d="M157,661.33a4.59,4.59,0,0,0-.56-.53c-.08-.16-.16-.34-.25-.5a3.32,3.32,0,0,0-.37-.47,1.35,1.35,0,0,0-1.1-.5,2.12,2.12,0,0,0-2-.78c-1.68.32-2.4,2-2.77,3.5a11.48,11.48,0,0,0,4,11.35c2.88,2.47,6.59,0,6.47-3.59A15.39,15.39,0,0,0,157,661.33Z" transform="translate(-75.3 -76.98)"/><path class="cls-8" d="M125.35,654.67a2.63,2.63,0,0,0-.52-1.93,2,2,0,0,0-.18-.25,4.07,4.07,0,0,0-.79-1.6,3.61,3.61,0,0,0-2.37-1.22c-.08,0-.16-.1-.25-.14a3.25,3.25,0,0,0-4.52,1.88,2.57,2.57,0,0,0-.07.4,3.2,3.2,0,0,0-.34,3.45,5.51,5.51,0,0,0,4.19,2.61,4.09,4.09,0,0,0,3.29-.42,3.62,3.62,0,0,0,1.22-1.53,2.59,2.59,0,0,0,.35-1.2A.43.43,0,0,1,125.35,654.67Z" transform="translate(-75.3 -76.98)"/><path class="cls-8" d="M219.71,655.5a5.57,5.57,0,0,0-3.81,1.42,4.43,4.43,0,0,0-2.74,4.37c.24,2.66,2.79,3.73,5.16,3.29s4.77-2.21,5-4.78A3.73,3.73,0,0,0,219.71,655.5Z" transform="translate(-75.3 -76.98)"/><path class="cls-8" d="M187.4,649.9a3.74,3.74,0,0,0-2.47-1.12,2.94,2.94,0,0,0-3.36.8c-1.13,1.37-.41,3.09.92,4a3.89,3.89,0,0,0,4.62.07A2.5,2.5,0,0,0,187.4,649.9Z" transform="translate(-75.3 -76.98)"/><path class="cls-8" d="M256.48,648.8a3.71,3.71,0,0,0-2.47-1.11,3,3,0,0,0-3.36.79c-1.13,1.37-.41,3.09.93,4a3.87,3.87,0,0,0,4.61.08A2.5,2.5,0,0,0,256.48,648.8Z" transform="translate(-75.3 -76.98)"/><path class="cls-8" d="M351.71,650.39a5.55,5.55,0,0,0-3.8,1.42,4.41,4.41,0,0,0-2.75,4.37c.23,2.65,2.79,3.73,5.16,3.29s4.77-2.22,5-4.78A3.71,3.71,0,0,0,351.71,650.39Z" transform="translate(-75.3 -76.98)"/><path class="cls-8" d="M316.85,659.38a3.75,3.75,0,0,0-2.48-1.11,3,3,0,0,0-3.36.79c-1.13,1.38-.41,3.09.93,4a3.89,3.89,0,0,0,4.61.07A2.5,2.5,0,0,0,316.85,659.38Z" transform="translate(-75.3 -76.98)"/><path class="cls-8" d="M279.83,646.61a2.21,2.21,0,0,0-1.56-.31,1.73,1.73,0,0,0-1.79.89,1.58,1.58,0,0,0,1,2.15,2.25,2.25,0,0,0,2.61-.57A1.45,1.45,0,0,0,279.83,646.61Z" transform="translate(-75.3 -76.98)"/><path class="cls-9" d="M218.29,460c-1.81,5.44-2.53,11.31-3.49,16.86-.64,3.67-1.34,7.33-2.05,11,0,.31-.06.63-.1.94-1.47,11.54-2.56,23-2.91,34.58-.66,22.47.25,46.4,6.18,68.19.39,1.44,2.22,0,2.05-1.11a386.91,386.91,0,0,1-4.21-73.57c.42-11.52,2-22.9,3.29-34.35.6-5.2.43-10.41,1.37-15.58.45-2.42,1.12-4.58,0-6.81A.43.43,0,0,0,218.29,460Z" transform="translate(-75.3 -76.98)"/><path class="cls-9" d="M322.62,520.39c-.43-13-.88-25.77-1.9-38.71-.41-5.15-.88-10.31-1.58-15.43-.44-3.13-.31-6.84-3-8.93,0,0-.06,0-.08,0,.08,6.7,1.37,13.48,1.66,20.15.23,5.3.5,10.59.86,15.88.92,10.17,2,21.34,2.35,31.62.39,12-.14,23-.3,35s-1.81,24-3.06,36c-.11,1.11,1.42.53,1.6-.22C324.87,571.2,323.44,545.35,322.62,520.39Z" transform="translate(-75.3 -76.98)"/><path class="cls-8" d="M454.83,644.21a2.7,2.7,0,0,0-1.17-.7,1.67,1.67,0,0,0-.42-.3c-1.38-.55-3.55-.19-5.33.57a5.48,5.48,0,0,0-2.54,1.72,4.29,4.29,0,0,0-1.38,3.56c.18,1.34,1.71,2,3.5,1.74a10.77,10.77,0,0,0,6-1.52C455.87,647.71,456.13,645.62,454.83,644.21Z" transform="translate(-75.3 -76.98)"/><path class="cls-8" d="M394.46,661a4.43,4.43,0,0,0-.55-.52c-.1-.17-.16-.35-.25-.5a3.48,3.48,0,0,0-.38-.48,1.37,1.37,0,0,0-1.1-.5,2.11,2.11,0,0,0-2-.78c-1.68.33-2.4,2-2.78,3.51a11.51,11.51,0,0,0,4,11.35c2.86,2.47,6.59,0,6.46-3.59A15.34,15.34,0,0,0,394.46,661Z" transform="translate(-75.3 -76.98)"/><path class="cls-8" d="M430.43,655.4a2.61,2.61,0,0,0-.52-1.93,2,2,0,0,0-.18-.25,4.07,4.07,0,0,0-.79-1.6,3.54,3.54,0,0,0-2.37-1.21c-.09,0-.16-.11-.25-.15a3.25,3.25,0,0,0-4.52,1.88,4,4,0,0,0-.08.4,3.22,3.22,0,0,0-.33,3.45,5.45,5.45,0,0,0,4.19,2.6,4.09,4.09,0,0,0,3.29-.41,3.7,3.7,0,0,0,1.22-1.53,2.63,2.63,0,0,0,.35-1.2A.43.43,0,0,1,430.43,655.4Z" transform="translate(-75.3 -76.98)"/><path class="cls-10" d="M265.37,236.92c-4.95,20.87-21.35,34.84-36.63,31.19s-23.62-23.55-18.65-44.42,21.35-34.84,36.63-31.18S270.34,216,265.37,236.92Z" transform="translate(-75.3 -76.98)"/><path class="cls-11" d="M252.91,235.35c-2.85,12-12.27,20-21,17.89s-13.55-13.52-10.7-25.5,12.26-20,21-17.89S255.76,223.36,252.91,235.35Z" transform="translate(-75.3 -76.98)"/><path class="cls-7" d="M239.2,218.41c-1.84,7.77-7.94,13-13.63,11.6s-8.79-8.76-6.94-16.52,7.94-13,13.63-11.61S241.05,210.64,239.2,218.41Z" transform="translate(-75.3 -76.98)"/><path class="cls-7" d="M231.24,243c-.64,2.7-2.76,4.51-4.75,4s-3.05-3.05-2.41-5.76,2.77-4.51,4.74-4S231.88,240.28,231.24,243Z" transform="translate(-75.3 -76.98)"/><path class="cls-10" d="M362.51,227.79c-.31,21.46-13.27,38.67-29,38.46s-28.17-17.8-27.87-39.27,13.28-38.67,29-38.45S362.81,206.33,362.51,227.79Z" transform="translate(-75.3 -76.98)"/><path class="cls-11" d="M350,229c-.17,12.32-7.62,22.2-16.63,22.07s-16.18-10.22-16-22.54S325,206.31,334,206.44,350.17,216.66,350,229Z" transform="translate(-75.3 -76.98)"/><path class="cls-7" d="M332.94,215.46c-.11,8-4.94,14.39-10.78,14.31s-10.48-6.63-10.37-14.62,4.93-14.39,10.78-14.31S333.05,207.46,332.94,215.46Z" transform="translate(-75.3 -76.98)"/><path class="cls-7" d="M330.52,241.17c0,2.79-1.73,5-3.75,5s-3.66-2.3-3.62-5.08,1.72-5,3.75-5S330.54,238.4,330.52,241.17Z" transform="translate(-75.3 -76.98)"/><path class="cls-12" d="M362,516c-.34-2.79-1.55-6.44-4.73-6.92a2.39,2.39,0,0,0-1.79.44,1.51,1.51,0,0,0-1.33.86,12.88,12.88,0,0,0-.3,9.42c.83,2.56,3.22,5.1,6.06,3.81C362.57,522.42,362.28,518.34,362,516Z" transform="translate(-75.3 -76.98)"/><path class="cls-12" d="M366.34,531.35a.71.71,0,0,0-.61-.4c-.33-.78-1.63-.06-1.66.8a7.66,7.66,0,0,0,0,1.08c0,.28-.07.56-.07.85,0,.79.46,1,1,1,.55.41,1.26-.22,1.52-.67C367.13,532.92,366.92,532.35,366.34,531.35Z" transform="translate(-75.3 -76.98)"/><path class="cls-12" d="M360.62,539.72a2.38,2.38,0,0,0-2.33-.35c-1.05-.45-2,.38-2.25,1.54a4.07,4.07,0,0,0-.51,2.42c-.17,1.6.38,3.18,1.86,3.67a2.11,2.11,0,0,0,2.42-.38,4.57,4.57,0,0,0,1.31-1.81.89.89,0,0,0,.45-.51C361.89,542.73,361.93,540.85,360.62,539.72Z" transform="translate(-75.3 -76.98)"/><path class="cls-12" d="M355.42,557h-.1a.63.63,0,0,0-.43.13c-.42,0-.91.59-.74,1s.06.73.48,1a.72.72,0,0,0,1-.27,1.79,1.79,0,0,0,.45-1.22A.67.67,0,0,0,355.42,557Z" transform="translate(-75.3 -76.98)"/><path class="cls-12" d="M347.53,560.83c-1.57-.05-2.33,2-1.47,3.16a1.65,1.65,0,0,0,.38.76c1,1.12,2.5-.3,2.73-1.41S348.92,560.86,347.53,560.83Z" transform="translate(-75.3 -76.98)"/><path class="cls-12" d="M176.68,529.1c2.85,1.3,5.24-1.24,6.07-3.8a12.88,12.88,0,0,0-.3-9.42,1.55,1.55,0,0,0-1.33-.87,2.37,2.37,0,0,0-1.8-.43c-3.17.47-4.38,4.13-4.73,6.92C174.31,523.81,174,527.9,176.68,529.1Z" transform="translate(-75.3 -76.98)"/><path class="cls-12" d="M170.24,536.83a.78.78,0,0,1,.63-.41c.32-.78,1.63,0,1.67.81a9.48,9.48,0,0,1,0,1.08,7.49,7.49,0,0,1,.07.85c0,.79-.46,1-1,1-.56.43-1.25-.2-1.52-.65A2.21,2.21,0,0,1,170.24,536.83Z" transform="translate(-75.3 -76.98)"/><path class="cls-12" d="M176,545.2a2.39,2.39,0,0,1,2.33-.36c1.05-.45,1.94.38,2.25,1.54a4.11,4.11,0,0,1,.51,2.43c.16,1.59-.37,3.18-1.86,3.65a2.13,2.13,0,0,1-2.43-.37,4.85,4.85,0,0,1-1.31-1.81.89.89,0,0,1-.45-.51C174.71,548.21,174.67,546.32,176,545.2Z" transform="translate(-75.3 -76.98)"/><path class="cls-12" d="M181.18,562.48h.1a.67.67,0,0,1,.43.12c.42,0,.9.6.74,1s-.06.73-.47,1a.75.75,0,0,1-1-.27,1.83,1.83,0,0,1-.44-1.21A.66.66,0,0,1,181.18,562.48Z" transform="translate(-75.3 -76.98)"/><path class="cls-12" d="M189.07,566.3c1.57,0,2.33,2,1.46,3.17a1.58,1.58,0,0,1-.37.76c-1,1.12-2.5-.3-2.74-1.41S187.68,566.32,189.07,566.3Z" transform="translate(-75.3 -76.98)"/><path class="cls-2" d="M285.81,193.42c.6-5.52-1.88-11.92-3.5-16.7-2.17-6.44-4.16-13-7.52-19a73.14,73.14,0,0,0-8.56-12,53.48,53.48,0,0,0-18.55-11.61c-12.73-4.75-24.92.68-32.07,11.89-3.27,5.1-4.79,12.18-5,18.14,0,1.2-.14,2.6-.2,4,1.48,2.4,3.78,2.3,6.22,1.2,7.48-12.5,24.12-17.95,37.6-11.59,15.64,7.37,20.45,23.61,27.84,37.59.51,1,1.76.7,2.4.05A6.89,6.89,0,0,0,285.81,193.42Z" transform="translate(-75.3 -76.98)"/><path class="cls-2" d="M293,193.46c-.41-5.54,2.29-11.84,4.07-16.57,2.39-6.36,4.61-12.86,8.18-18.7a73.37,73.37,0,0,1,8.94-11.65,54.2,54.2,0,0,1,18.94-11c12.9-4.29,24.89,1.55,31.65,13,3.09,5.22,4.38,12.34,4.36,18.31,0,1.2.06,2.6.08,4-1.57,2.34-3.87,2.17-6.26,1-7.07-12.74-23.51-18.77-37.19-12.88-15.89,6.84-21.25,22.91-29.11,36.61a1.48,1.48,0,0,1-2.4,0A6.65,6.65,0,0,1,293,193.46Z" transform="translate(-75.3 -76.98)"/><path class="cls-2" d="M268.79,317.48c-.2-.44-.67-.36-1.06-.12a1.16,1.16,0,0,0-1,1,4.68,4.68,0,0,0,.16.83,2.85,2.85,0,0,0,.29,1.59l0,0c.35.52,1.3.23,1.56-.4A3.52,3.52,0,0,0,268.79,317.48Z" transform="translate(-75.3 -76.98)"/><path class="cls-2" d="M279.69,317a6.36,6.36,0,0,0-.54.87,1,1,0,0,0,.3,1.32v0a.83.83,0,0,1,.13.14,2.86,2.86,0,0,0,.28.9h0c.29.44,1.2.13,1.42-.37.3-.7.28-1.46.51-2.18C282.29,316.15,280.44,316.17,279.69,317Z" transform="translate(-75.3 -76.98)"/><path class="cls-2" d="M389.52,322.32s0,0,0,.05a1,1,0,0,0-.6-.76,1.89,1.89,0,0,0-.9-.18.06.06,0,0,1,0,0c-.09-1.14-1.48-.44-1.52.41,0,.7,0,1.38,0,2.07a11.57,11.57,0,0,0-.05,2.66c0,.23.07.44.1.67-7.58-.75-14.7-1.54-22.52-1.14a216.21,216.21,0,0,0-31.11,4.34c-20.36,4-40.05,11-59.53,18.07-19.66,7.12-39.07,14.9-58.76,21.88-7.82,2.78-17.53,7.1-26,4.84-15.19-4.07,8.67-18.77,10.58-14.34.2.48.92-.19.82-.58-1.6-6.13-18.28,4.82-18,10.58.92,18.12,38.68.83,45.26-1.67,26.14-10,52.49-19.92,79.23-28.13a289.53,289.53,0,0,1,40.09-9.2,175.64,175.64,0,0,1,24.77-2c5.41-.07,10.45,1.07,15.77,1.53.28,1.7.61,3.39,1,5.12.43,2,2.95.1,3-1.21C391.38,331.3,390.18,325.56,389.52,322.32Z" transform="translate(-75.3 -76.98)"/><path class="cls-2" d="M310.66,348.76c-8.64.18-18.1,2-25.86,5.87-5.12,2.59-12,5.76-14.28,11.44-.48,1.21.77,1.77,1.53.81,7.72-9.63,25.94-14.8,37.6-14.08C311.79,352.92,313.16,348.71,310.66,348.76Z" transform="translate(-75.3 -76.98)"/><path class="cls-13" d="M513.54,131.64v0Z" transform="translate(-75.3 -76.98)"/><path class="cls-13" d="M461.94,149.16l-.16.15Z" transform="translate(-75.3 -76.98)"/><path class="cls-13" d="M449.33,201.86l0,.1Z" transform="translate(-75.3 -76.98)"/><path class="cls-13" d="M493.77,92.65l-.16-.13C471.18,71.15,430,70.27,417.16,99.66c-6.3,13.3-4,12.19,9.2,17.64a141.05,141.05,0,0,0,13.82,5.37c6.68.11,6.45-17.08,24-2.16l0,0a1,1,0,0,1,.14.15c12.62,14.59-7.06,33-23.17,32.5l-.28,0c-4.45.83-10-.67-13.91,1.25-4.65,12-8.73,24.39-12.29,36.71,39.28,17.2,29.44,20.57,42.78-9.29C509.38,193.09,532.89,121.85,493.77,92.65Zm-22.45,86.46c-5.16.83-10.54-.47-15.63-.16-4.32,6.65-7.32,14.76-9.53,22.45-5-1.85-10-3.55-14.82-5.67l0,0a.61.61,0,0,0-.18-.08c-4.27-1.87-8.61-3.69-13-5.38,3.54-11.14,7.31-22.21,11.54-33.12,20.18,3.15,46.22-9.8,41.61-31.75C467.71,113,447.41,105,440.8,118.59a.06.06,0,0,1,0,.06v0c-.16.23-.29.48-.44.73-1.94-.6-3.89-1.24-5.77-2-5.93-2.49-11.89-4.87-17.79-7.42,2.05-6.5,4.84-12.66,9.7-17.64h0a.64.64,0,0,0,.13-.15v0a37.82,37.82,0,0,1,7.34-7c6.75-4.57,15.39-5.12,23.57-4.73,12.91.47,24.77,6.89,34.41,15.08a41.28,41.28,0,0,1,10.83,13C519.16,134.34,504.07,176.5,471.32,179.11Z" transform="translate(-75.3 -76.98)"/><path class="cls-13" d="M440.63,230.53c5.46-23.61-35.06-32.84-38.53-8.54C397.39,245.45,436.6,255.15,440.63,230.53Zm-5.3,4.37c-9.9,17-37.69.47-28.78-16.17,8.52-15.83,36.11-5,30.42,12.47,0,.1-.05.2-.09.3A12.76,12.76,0,0,1,435.33,234.9Z" transform="translate(-75.3 -76.98)"/><path class="cls-14" d="M471.32,179.11c-5.16.83-10.54-.47-15.63-.16-4.32,6.65-7.32,14.76-9.53,22.45-5-1.85-10-3.55-14.82-5.67l0,0a.61.61,0,0,0-.18-.08c-4.27-1.87-8.61-3.69-13-5.38,3.54-11.14,7.31-22.21,11.54-33.12,20.18,3.15,46.22-9.8,41.61-31.75C467.71,113,447.41,105,440.8,118.59a.06.06,0,0,1,0,.06v0c-.16.23-.29.48-.44.73-1.94-.6-3.89-1.24-5.77-2-5.93-2.49-11.89-4.87-17.79-7.42,2.05-6.5,4.84-12.66,9.7-17.64h0a.64.64,0,0,0,.13-.15v0a37.82,37.82,0,0,1,7.34-7c6.75-4.57,15.39-5.12,23.57-4.73,12.91.47,24.77,6.89,34.41,15.08a41.28,41.28,0,0,1,10.83,13C519.16,134.34,504.07,176.5,471.32,179.11Z" transform="translate(-75.3 -76.98)"/><path class="cls-14" d="M436.88,231.5a12.76,12.76,0,0,1-1.55,3.4c-9.9,17-37.69.47-28.78-16.17,8.52-15.83,36.11-5,30.42,12.47C436.94,231.3,436.92,231.4,436.88,231.5Z" transform="translate(-75.3 -76.98)"/></g></g></svg>