<svg id="svg2" xmlns="http://www.w3.org/2000/svg" viewBox="0 0 502.77 621.92"><defs><style>.cls-1{fill:#4a0;}.cls-2{fill:#55d400;}.cls-3{fill:#338000;}.cls-4{fill:#fff;}.cls-5{fill:red;}.cls-6{fill:#ffd85f;}.cls-7{fill:#fbbf3f;}.cls-8{fill:#f7aa06;}.cls-9{fill:#232324;}.cls-10{fill:#1d1d1d;}.cls-11{fill:#fcc402;}.cls-12{fill:#7d5828;}.cls-13{fill:#cb933d;}.cls-14{fill:#f2cd6d;}</style></defs><g id="layer1"><g id="g3003"><g id="g2951"><path id="path2953" class="cls-1" d="M420.07,582.15c13.08-4.13,33,22,44.52,58.43s10.24,69.27-2.83,73.41-33-22-44.52-58.43S407,586.29,420.07,582.15Z" transform="translate(-111.63 -105.88)"/><path id="path2955" class="cls-2" d="M430.5,700.12a12.79,12.79,0,1,1-3.13,17.82A12.79,12.79,0,0,1,430.5,700.12Z" transform="translate(-111.63 -105.88)"/><path id="path2957" class="cls-2" d="M455.55,704.53a12.79,12.79,0,1,1-3.14,17.82A12.78,12.78,0,0,1,455.55,704.53Z" transform="translate(-111.63 -105.88)"/><path id="path2959" class="cls-2" d="M469.45,682.59a12.79,12.79,0,1,1-3.14,17.82A12.8,12.8,0,0,1,469.45,682.59Z" transform="translate(-111.63 -105.88)"/></g><g id="g2961"><path id="path2963" class="cls-1" d="M324,582.15c-13.08-4.13-33,22-44.52,58.43s-10.24,69.27,2.84,73.41,33-22,44.52-58.43S337.1,586.29,324,582.15Z" transform="translate(-111.63 -105.88)"/><path id="path2965" class="cls-2" d="M313.59,700.12a12.79,12.79,0,1,0,3.14,17.82A12.79,12.79,0,0,0,313.59,700.12Z" transform="translate(-111.63 -105.88)"/><path id="path2967" class="cls-2" d="M288.55,704.53a12.79,12.79,0,1,0,3.13,17.82A12.79,12.79,0,0,0,288.55,704.53Z" transform="translate(-111.63 -105.88)"/><path id="path2969" class="cls-2" d="M274.64,682.59a12.79,12.79,0,1,0,3.14,17.82A12.79,12.79,0,0,0,274.64,682.59Z" transform="translate(-111.63 -105.88)"/></g></g><path id="path2889" class="cls-2" d="M522.24,606.21c0,48-66.43,86.88-148.38,86.88s-148.37-38.9-148.37-86.88,66.43-86.89,148.37-86.89S522.24,558.22,522.24,606.21Z" transform="translate(-111.63 -105.88)"/><path id="path3299" class="cls-2" d="M588.64,449.11c0,74-97.79,133.94-218.41,133.94s-218.41-60-218.41-133.94,97.79-133.94,218.41-133.94S588.64,375.14,588.64,449.11Z" transform="translate(-111.63 -105.88)"/><path id="path3301" class="cls-3" d="M338.71,347.53a93,93,0,1,1-93-93A93,93,0,0,1,338.71,347.53Z" transform="translate(-111.63 -105.88)"/><path id="path3303" class="cls-3" d="M591.33,347.53a93,93,0,1,1-93-93A93,93,0,0,1,591.33,347.53Z" transform="translate(-111.63 -105.88)"/><path id="path3311" class="cls-4" d="M331.27,347.53A76.23,76.23,0,1,1,255,271.3,76.23,76.23,0,0,1,331.27,347.53Z" transform="translate(-111.63 -105.88)"/><path id="path3313" class="cls-4" d="M565.29,347.53a76.23,76.23,0,1,1-76.23-76.23A76.23,76.23,0,0,1,565.29,347.53Z" transform="translate(-111.63 -105.88)"/><path id="path3327" d="M517.94,347.53a48.82,48.82,0,1,1-11.27-31.21L469.1,347.53Z" transform="translate(-111.63 -105.88)"/><path id="path3331" d="M226.16,347.53a48.82,48.82,0,1,0,11.27-31.21L275,347.53Z" transform="translate(-111.63 -105.88)"/><path id="path3337" class="cls-5" d="M280.4,496.29A32.28,32.28,0,1,1,248.13,464,32.27,32.27,0,0,1,280.4,496.29Z" transform="translate(-111.63 -105.88)"/><path id="path3339" class="cls-5" d="M528.25,496.29A32.28,32.28,0,1,1,496,464,32.28,32.28,0,0,1,528.25,496.29Z" transform="translate(-111.63 -105.88)"/><path id="path3358" d="M263.32,508.69c7.62,20.3,53.35,35.91,108.73,35.91S473.15,529,480.78,508.69c-27.15,15.4-65.8,25.1-108.73,25.1s-81.58-9.7-108.73-25.1Z" transform="translate(-111.63 -105.88)"/><path id="path4156" class="cls-4" d="M481.06,638.13c0,22-48,39.86-107.18,39.86s-107.21-17.84-107.22-39.85h0c0-22,48-39.87,107.19-39.87s107.21,17.84,107.21,39.86Z" transform="translate(-111.63 -105.88)"/><g id="g2903"><path id="path4184" class="cls-1" d="M500.07,572.15c13.08-4.13,33,22,44.52,58.43s10.24,69.27-2.83,73.41-33-22-44.52-58.43S487,576.29,500.07,572.15Z" transform="translate(-111.63 -105.88)"/><path id="path4186" class="cls-2" d="M510.5,690.12a12.79,12.79,0,1,1-3.13,17.82A12.79,12.79,0,0,1,510.5,690.12Z" transform="translate(-111.63 -105.88)"/><path id="path4188" class="cls-2" d="M535.55,694.53a12.79,12.79,0,1,1-3.14,17.82A12.78,12.78,0,0,1,535.55,694.53Z" transform="translate(-111.63 -105.88)"/><path id="path4190" class="cls-2" d="M549.45,672.59a12.79,12.79,0,1,1-3.14,17.82A12.8,12.8,0,0,1,549.45,672.59Z" transform="translate(-111.63 -105.88)"/></g><g id="g2909"><path id="path4221" class="cls-1" d="M244,572.15c-13.08-4.13-33,22-44.52,58.43s-10.24,69.27,2.84,73.41,33-22,44.52-58.43S257.1,576.29,244,572.15Z" transform="translate(-111.63 -105.88)"/><path id="path4223" class="cls-2" d="M233.59,690.12a12.79,12.79,0,1,0,3.14,17.82A12.79,12.79,0,0,0,233.59,690.12Z" transform="translate(-111.63 -105.88)"/><path id="path4225" class="cls-2" d="M208.55,694.53a12.79,12.79,0,1,0,3.13,17.82A12.79,12.79,0,0,0,208.55,694.53Z" transform="translate(-111.63 -105.88)"/><path id="path4227" class="cls-2" d="M194.64,672.59a12.79,12.79,0,1,0,3.14,17.82A12.79,12.79,0,0,0,194.64,672.59Z" transform="translate(-111.63 -105.88)"/></g></g><path class="cls-6" d="M614.39,275.48c0,29.33-112.54,53.11-251.38,53.11s-251.38-23.78-251.38-53.11S224.17,222.36,363,222.36,614.39,246.14,614.39,275.48Z" transform="translate(-111.63 -105.88)"/><path class="cls-7" d="M578.49,248.11c5.52,4.37,8.47,9,8.47,13.71,0,29.33-112.54,53.12-251.38,53.12-91.45,0-171.5-10.32-215.48-25.75,28.61,22.69,126.52,39.4,242.91,39.4,138.84,0,251.38-23.78,251.38-53.11C614.39,265.46,601.28,256.1,578.49,248.11Z" transform="translate(-111.63 -105.88)"/><path class="cls-8" d="M589.89,272.26l0-.36-.06-.71a12.34,12.34,0,0,0-2.37-5.67,20.59,20.59,0,0,0-3.71-3.89,44.71,44.71,0,0,0-8.15-5.27,107.28,107.28,0,0,0-15.78-6.43c-5-1.63-9.56-2.91-13.73-4-8.35-2.13-15-3.36-19.49-4.21l-6.93-1.22,6.89,1.51c4.48,1,11,2.59,19.32,4.92,4.13,1.19,8.68,2.6,13.57,4.37a107.32,107.32,0,0,1,15.4,6.81,43.73,43.73,0,0,1,7.7,5.28,19.27,19.27,0,0,1,3.26,3.6,11.61,11.61,0,0,1,1.17,2.13,9,9,0,0,1,.39,1.14c.1.38.15.69.22,1.09.38,3.37-1.59,6.39-4.15,8.79a41.13,41.13,0,0,1-8.92,6,123.73,123.73,0,0,1-21.37,8.23c-7.58,2.25-15.53,4.14-23.75,5.84-16.44,3.34-33.95,5.82-52.11,7.87s-37,3.39-56.15,4.38-38.62,1.41-58.11,1.4-39-.43-58.11-1.4-38-2.35-56.14-4.37-35.67-4.52-52.12-7.87c-8.21-1.7-16.17-3.59-23.75-5.84a124.55,124.55,0,0,1-21.37-8.23,41.42,41.42,0,0,1-8.92-6.05,15.46,15.46,0,0,1-3.18-4,9.28,9.28,0,0,1-.83-2.26c0-.18-.09-.33-.12-.54l-.05-.72a9.16,9.16,0,0,1,0-1.16,10.07,10.07,0,0,1,1.79-4.45,19.21,19.21,0,0,1,3.26-3.59,43.2,43.2,0,0,1,7.7-5.28,109.56,109.56,0,0,1,15.4-6.82c4.89-1.76,9.44-3.17,13.57-4.36,8.28-2.34,14.84-3.91,19.33-4.93l6.88-1.5-6.93,1.22c-4.51.85-11.14,2.08-19.48,4.21-4.18,1.07-8.78,2.34-13.74,4a109.43,109.43,0,0,0-15.77,6.43,44.9,44.9,0,0,0-8.15,5.27,21.21,21.21,0,0,0-3.71,3.89,12.4,12.4,0,0,0-2.36,5.6,11.52,11.52,0,0,0-.07,1.69l0,.71c0,.26.08.58.13.86a11.86,11.86,0,0,0,1,3.11,18.31,18.31,0,0,0,3.64,4.8,43.83,43.83,0,0,0,9.39,6.62,126.82,126.82,0,0,0,21.7,8.82c7.65,2.42,15.65,4.48,23.9,6.34a530.15,530.15,0,0,0,52.34,8.73c18.23,2.17,37.12,3.84,56.35,4.85s38.76,1.54,58.32,1.58,39.09-.55,58.31-1.58,38.12-2.68,56.35-4.85A526.56,526.56,0,0,0,530,304.08c8.26-1.86,16.25-3.92,23.91-6.34a128,128,0,0,0,21.7-8.82A44.23,44.23,0,0,0,585,282.3a18.4,18.4,0,0,0,3.65-4.81,11.58,11.58,0,0,0,1-3.07,8.26,8.26,0,0,0,.19-1.65v-.21A2.58,2.58,0,0,0,589.89,272.26Z" transform="translate(-111.63 -105.88)"/><path class="cls-6" d="M363,105.88c-62,0-112.18,57.16-112.18,127.66A144,144,0,0,0,256,272c31.89,9.54,68.31,15,107,15s75.09-5.42,107-15a143.57,143.57,0,0,0,5.2-38.5C475.19,163,425,105.88,363,105.88Z" transform="translate(-111.63 -105.88)"/><path class="cls-7" d="M418.2,122.38c12.9,16.66,21.73,39.37,20.59,60.19-.88,16-5.6,31.86-11.84,46.22-4.79,11-10.95,21.73-19.63,29.32-9.51,8.31-20.51,12.06-32.38,12.94-17,1.27-34,.3-50.94-1.52-14.11-1.52-28.28-3.35-42.28-5.88-9.92-1.79-19.91-4.08-29.24-8.31A142.13,142.13,0,0,0,256,272c31.89,9.54,68.31,15,107,15s75.09-5.42,107-15a143.57,143.57,0,0,0,5.2-38.5C475.19,185.87,452.22,144.31,418.2,122.38Z" transform="translate(-111.63 -105.88)"/><path class="cls-9" d="M363,244.9c-40.27,0-78.34-5.28-112.14-14.66,0,1.09,0,2.2,0,3.3A144,144,0,0,0,256,272c31.89,9.54,68.31,15,107,15s75.09-5.42,107-15a143.57,143.57,0,0,0,5.2-38.5c0-1.1,0-2.21,0-3.3C441.35,239.62,403.28,244.9,363,244.9Z" transform="translate(-111.63 -105.88)"/><path class="cls-10" d="M475.15,230.24a395.52,395.52,0,0,1-54.39,10.94,66.56,66.56,0,0,1-13.44,16.93c-9.51,8.31-20.51,12.06-32.38,12.94-17,1.27-34,.3-50.94-1.52-14.11-1.52-28.28-3.35-42.28-5.88-9.92-1.79-19.91-4.08-29.24-8.31A142.13,142.13,0,0,0,256,272c31.89,9.54,68.31,15,107,15s75.09-5.42,107-15a143.57,143.57,0,0,0,5.2-38.5C475.19,232.44,475.18,231.33,475.15,230.24Z" transform="translate(-111.63 -105.88)"/><path class="cls-8" d="M450.1,216.4c2.5-15.29,2.55-27.62,0-28.22s-6.77,10.59-9.83,25.62A22.49,22.49,0,0,1,450.1,216.4Z" transform="translate(-111.63 -105.88)"/><path class="cls-8" d="M439.63,271.91a22.34,22.34,0,0,1-9.59-2.19c-2.46,15.21-2.5,27.44,0,28s6.82-10.71,9.88-25.86Z" transform="translate(-111.63 -105.88)"/><path class="cls-8" d="M465.17,243a31.7,31.7,0,0,1-2.12,11.26c13.62,2.93,24.65,3,25.19.08S478.65,246.51,465.17,243Z" transform="translate(-111.63 -105.88)"/><path class="cls-8" d="M416.19,231.46c-13.18-2.73-23.73-2.75-24.25.12s9.13,7.63,22.16,11.1A31.73,31.73,0,0,1,416.19,231.46Z" transform="translate(-111.63 -105.88)"/><path class="cls-8" d="M481.21,212.27c-1.44-2.49-11.6,2.15-23.26,10.49a30.18,30.18,0,0,1,5.48,9.67C474.83,223.56,482.65,214.78,481.21,212.27Z" transform="translate(-111.63 -105.88)"/><path class="cls-8" d="M416.11,254c-11.06,8.69-18.56,17.2-17.15,19.65s11.36-2,22.84-10.17A30,30,0,0,1,416.11,254Z" transform="translate(-111.63 -105.88)"/><path class="cls-8" d="M457.77,263.15a26.21,26.21,0,0,1-8.36,6.48c7.77,12.93,15.46,21.77,17.65,20.14S465.15,276.48,457.77,263.15Z" transform="translate(-111.63 -105.88)"/><path class="cls-8" d="M430.45,215.78c-7.66-12.64-15.17-21.22-17.34-19.61S414.87,209,422,222A25.94,25.94,0,0,1,430.45,215.78Z" transform="translate(-111.63 -105.88)"/><path class="cls-8" d="M458.29,223.17c7.63-13.06,12-24.5,9.81-26.2s-10,6.84-18,19.44A26.57,26.57,0,0,1,458.29,223.17Z" transform="translate(-111.63 -105.88)"/><path class="cls-8" d="M421.59,263.26c-7.44,12.85-11.64,24-9.51,25.71S422,282.2,430,269.68A26.16,26.16,0,0,1,421.59,263.26Z" transform="translate(-111.63 -105.88)"/><path class="cls-8" d="M463.12,254.12a30,30,0,0,1-5.75,9.48c11.52,8.73,21.64,13.71,23.14,11.24S474.35,263.34,463.12,254.12Z" transform="translate(-111.63 -105.88)"/><path class="cls-8" d="M422.13,221.83c-11.24-8.41-21-13.15-22.47-10.73s5.82,11.09,16.64,20.09A30,30,0,0,1,422.13,221.83Z" transform="translate(-111.63 -105.88)"/><path class="cls-8" d="M488.43,232.71c-.48-3-11.47-3.12-25.09-.53a31.75,31.75,0,0,1,1.83,10.67c0,.22,0,.44,0,.65C478.71,240.33,488.92,235.65,488.43,232.71Z" transform="translate(-111.63 -105.88)"/><path class="cls-8" d="M414.1,242.85v-.19c-13.09,3.16-22.83,7.69-22.35,10.57s11.05,3.11,24.32.68A31.85,31.85,0,0,1,414.1,242.85Z" transform="translate(-111.63 -105.88)"/><path class="cls-8" d="M439.69,271.9c2.79,15.22,6.85,26.63,9.42,26.09s2.74-13,.48-28.44A22.4,22.4,0,0,1,439.69,271.9Z" transform="translate(-111.63 -105.88)"/><path class="cls-8" d="M439.63,213.79h.81c-2.79-15.09-6.82-26.39-9.37-25.85s-2.74,12.66-.57,27.81A22.36,22.36,0,0,1,439.63,213.79Z" transform="translate(-111.63 -105.88)"/><path class="cls-11" d="M439.63,213.79a22,22,0,0,1,5.51.7c-.3-15.48-2.45-27.48-5.05-27.48s-4.73,11.89-5,27.26A22.55,22.55,0,0,1,439.63,213.79Z" transform="translate(-111.63 -105.88)"/><path class="cls-11" d="M439.63,271.91a21.87,21.87,0,0,1-4.59-.49c.3,15.49,2.44,27.52,5,27.52s4.77-12.14,5.05-27.74A22,22,0,0,1,439.63,271.91Z" transform="translate(-111.63 -105.88)"/><path class="cls-11" d="M464.67,237.21a31.72,31.72,0,0,1,.5,5.64,32.56,32.56,0,0,1-.54,5.88c13.84-.3,24.64-2.76,24.64-5.76S478.49,237.51,464.67,237.21Z" transform="translate(-111.63 -105.88)"/><path class="cls-11" d="M414.1,242.85a32.25,32.25,0,0,1,.49-5.61c-13.37.38-23.68,2.8-23.68,5.73s10.33,5.36,23.72,5.74A32.34,32.34,0,0,1,414.1,242.85Z" transform="translate(-111.63 -105.88)"/><path class="cls-11" d="M461.07,227.23c9.57-11.32,15.65-21.72,13.79-23.83S463.93,208.15,454,219A28.51,28.51,0,0,1,461.07,227.23Z" transform="translate(-111.63 -105.88)"/><path class="cls-11" d="M418.65,259.24c-9.3,11.11-15.17,21.22-13.34,23.3s10.78-4.64,20.59-15.3A28.15,28.15,0,0,1,418.65,259.24Z" transform="translate(-111.63 -105.88)"/><path class="cls-11" d="M461,258.61a28.36,28.36,0,0,1-7.09,8.22c10,10.9,19.1,17.83,21,15.71S470.6,270,461,258.61Z" transform="translate(-111.63 -105.88)"/><path class="cls-11" d="M425.76,218.56C416,208,407.14,201.31,405.31,203.4s4,12.12,13.26,23.19A28.22,28.22,0,0,1,425.76,218.56Z" transform="translate(-111.63 -105.88)"/><path class="cls-11" d="M454.41,219.27c5.1-14.51,7.29-26.66,4.88-27.83s-8.5,8.95-14.08,23.07A24.1,24.1,0,0,1,454.41,219.27Z" transform="translate(-111.63 -105.88)"/><path class="cls-11" d="M425.64,267c-5,14.34-7.14,26.3-4.75,27.46s8.5-9,14.09-23.09A23.84,23.84,0,0,1,425.64,267Z" transform="translate(-111.63 -105.88)"/><path class="cls-11" d="M464.65,248.57a31,31,0,0,1-4,10.58c12.85,5.89,23.67,8.43,24.69,5.67S477.29,255,464.65,248.57Z" transform="translate(-111.63 -105.88)"/><path class="cls-11" d="M418.68,226.41c-12.49-5.62-22.86-8-23.87-5.29s7.65,9.51,19.84,15.8A30.93,30.93,0,0,1,418.68,226.41Z" transform="translate(-111.63 -105.88)"/><path class="cls-11" d="M485.58,221.73c-1-2.77-11.77-.4-24.64,5.28a31.1,31.1,0,0,1,3.81,10.67C477.43,231.43,486.58,224.5,485.58,221.73Z" transform="translate(-111.63 -105.88)"/><path class="cls-11" d="M414.62,248.66c-12.26,6.14-21,12.84-20,15.55s11.44.48,24-5A31.25,31.25,0,0,1,414.62,248.66Z" transform="translate(-111.63 -105.88)"/><path class="cls-11" d="M444.83,271.28c5.46,14.31,11.5,24.6,13.92,23.47s.35-13.42-4.65-28.08A23.85,23.85,0,0,1,444.83,271.28Z" transform="translate(-111.63 -105.88)"/><path class="cls-11" d="M435.19,214.24c-5.42-14.09-11.37-24.17-13.77-23.05s-.41,13,4.4,27.32A23.76,23.76,0,0,1,435.19,214.24Z" transform="translate(-111.63 -105.88)"/><path class="cls-12" d="M467.5,242.85c0,17.23-12.27,31.19-27.41,31.19s-27.41-14-27.41-31.19,12.27-31.2,27.41-31.2S467.5,225.62,467.5,242.85Z" transform="translate(-111.63 -105.88)"/><path class="cls-13" d="M440.1,268a1.42,1.42,0,1,0,1.24,1.41A1.34,1.34,0,0,0,440.1,268Z" transform="translate(-111.63 -105.88)"/><path class="cls-13" d="M418.06,250.65a1.46,1.46,0,0,0-.8,1.78,1.27,1.27,0,0,0,1.18,1l.38-.07a1.47,1.47,0,0,0,.8-1.78A1.21,1.21,0,0,0,418.06,250.65Z" transform="translate(-111.63 -105.88)"/><path class="cls-13" d="M427.1,263.23a1.13,1.13,0,0,0-1.73.31,1.54,1.54,0,0,0,.27,2,1.16,1.16,0,0,0,.73.27,1.19,1.19,0,0,0,1-.58A1.53,1.53,0,0,0,427.1,263.23Z" transform="translate(-111.63 -105.88)"/><path class="cls-13" d="M433.26,266.8a1.21,1.21,0,0,0-1.56.91,1.45,1.45,0,0,0,.8,1.77l.38.07a1.26,1.26,0,0,0,1.18-1A1.47,1.47,0,0,0,433.26,266.8Z" transform="translate(-111.63 -105.88)"/><path class="cls-13" d="M420.47,257.35a1.54,1.54,0,0,0-.27,2,1.19,1.19,0,0,0,1,.58,1.16,1.16,0,0,0,.73-.27,1.54,1.54,0,0,0,.27-2A1.14,1.14,0,0,0,420.47,257.35Z" transform="translate(-111.63 -105.88)"/><path class="cls-13" d="M440.05,217.67a1.42,1.42,0,1,0-1.24-1.41A1.33,1.33,0,0,0,440.05,217.67Z" transform="translate(-111.63 -105.88)"/><path class="cls-13" d="M446.93,266.79a1.45,1.45,0,0,0-.79,1.78,1.26,1.26,0,0,0,1.18,1l.38-.07a1.45,1.45,0,0,0,.79-1.78A1.21,1.21,0,0,0,446.93,266.79Z" transform="translate(-111.63 -105.88)"/><path class="cls-13" d="M426.33,222.77a1.14,1.14,0,0,0,.73-.27,1.54,1.54,0,0,0,.28-2,1.15,1.15,0,0,0-1.74-.31,1.54,1.54,0,0,0-.27,2A1.19,1.19,0,0,0,426.33,222.77Z" transform="translate(-111.63 -105.88)"/><path class="cls-13" d="M459,228.59a1.13,1.13,0,0,0,.74-.27,1.53,1.53,0,0,0,.26-2,1.14,1.14,0,0,0-1.73-.31,1.55,1.55,0,0,0-.27,2A1.19,1.19,0,0,0,459,228.59Z" transform="translate(-111.63 -105.88)"/><path class="cls-13" d="M462.3,236l.38-.07a1.47,1.47,0,0,0,.8-1.78,1.22,1.22,0,0,0-1.57-.9,1.45,1.45,0,0,0-.79,1.78A1.25,1.25,0,0,0,462.3,236Z" transform="translate(-111.63 -105.88)"/><path class="cls-13" d="M432.84,219l.38-.06a1.48,1.48,0,0,0,.8-1.79,1.22,1.22,0,0,0-1.57-.9,1.46,1.46,0,0,0-.79,1.78A1.26,1.26,0,0,0,432.84,219Z" transform="translate(-111.63 -105.88)"/><path class="cls-13" d="M462.69,249.72a1.22,1.22,0,0,0-1.56.91,1.44,1.44,0,0,0,.8,1.77l.38.08a1.28,1.28,0,0,0,1.18-1A1.47,1.47,0,0,0,462.69,249.72Z" transform="translate(-111.63 -105.88)"/><path class="cls-13" d="M463.45,241.38a1.34,1.34,0,0,0-1.24,1.42v0a1.25,1.25,0,1,0,2.48,0v0h0A1.34,1.34,0,0,0,463.45,241.38Z" transform="translate(-111.63 -105.88)"/><path class="cls-13" d="M459.72,257.33a1.14,1.14,0,0,0-1.73.31,1.54,1.54,0,0,0,.27,2,1.14,1.14,0,0,0,.73.27,1.19,1.19,0,0,0,1-.58h0A1.53,1.53,0,0,0,459.72,257.33Z" transform="translate(-111.63 -105.88)"/><path class="cls-13" d="M453.09,263.21a1.55,1.55,0,0,0-.27,2,1.19,1.19,0,0,0,1,.58,1.14,1.14,0,0,0,.73-.27,1.54,1.54,0,0,0,.28-2A1.15,1.15,0,0,0,453.09,263.21Z" transform="translate(-111.63 -105.88)"/><path class="cls-13" d="M453.06,222.46a1.13,1.13,0,0,0,.73.26,1.19,1.19,0,0,0,1-.58,1.54,1.54,0,0,0-.28-2,1.14,1.14,0,0,0-1.73.32A1.54,1.54,0,0,0,453.06,222.46Z" transform="translate(-111.63 -105.88)"/><path class="cls-13" d="M446.89,218.89l.38.07a1.27,1.27,0,0,0,1.18-1,1.47,1.47,0,0,0-.8-1.78,1.22,1.22,0,0,0-1.56.91A1.47,1.47,0,0,0,446.89,218.89Z" transform="translate(-111.63 -105.88)"/><path class="cls-13" d="M429.9,229.78a1.14,1.14,0,0,0,.78-.31,1.55,1.55,0,0,0,.19-2,1.14,1.14,0,0,0-1.74-.22h0a1.54,1.54,0,0,0-.19,2A1.17,1.17,0,0,0,429.9,229.78Z" transform="translate(-111.63 -105.88)"/><path class="cls-13" d="M426,252.18a1.5,1.5,0,0,0,.58-1.88,1.19,1.19,0,0,0-1.66-.66,1.52,1.52,0,0,0-.58,1.89,1.24,1.24,0,0,0,1.12.8A1.08,1.08,0,0,0,426,252.18Z" transform="translate(-111.63 -105.88)"/><path class="cls-13" d="M424.85,236.1a1.21,1.21,0,0,0,.54.14,1.26,1.26,0,0,0,1.12-.8,1.53,1.53,0,0,0-.58-1.89,1.19,1.19,0,0,0-1.66.66h0A1.52,1.52,0,0,0,424.85,236.1Z" transform="translate(-111.63 -105.88)"/><path class="cls-13" d="M425,242.87a1.25,1.25,0,1,0-1.23,1.41A1.34,1.34,0,0,0,425,242.87Z" transform="translate(-111.63 -105.88)"/><path class="cls-13" d="M449.44,229.43a1.21,1.21,0,0,0,.78.3,1.2,1.2,0,0,0,1-.53,1.54,1.54,0,0,0-.2-2,1.13,1.13,0,0,0-1.74.22A1.56,1.56,0,0,0,449.44,229.43Z" transform="translate(-111.63 -105.88)"/><path class="cls-13" d="M454.21,233.48a1.53,1.53,0,0,0-.57,1.9,1.25,1.25,0,0,0,1.12.79,1.21,1.21,0,0,0,.54-.14,1.52,1.52,0,0,0,.57-1.89h0A1.19,1.19,0,0,0,454.21,233.48Z" transform="translate(-111.63 -105.88)"/><path class="cls-13" d="M449.48,256.24a1.55,1.55,0,0,0-.2,2,1.18,1.18,0,0,0,1,.53,1.14,1.14,0,0,0,.78-.31,1.54,1.54,0,0,0,.19-2A1.14,1.14,0,0,0,449.48,256.24Z" transform="translate(-111.63 -105.88)"/><path class="cls-13" d="M443.45,259.55a1.43,1.43,0,0,0-.94,1.69,1.3,1.3,0,0,0,1.21,1.1l.28,0a1.42,1.42,0,0,0,.93-1.69A1.25,1.25,0,0,0,443.45,259.55Z" transform="translate(-111.63 -105.88)"/><path class="cls-13" d="M455.31,249.62a1.19,1.19,0,0,0-1.66.66h0a1.51,1.51,0,0,0,.58,1.89,1.12,1.12,0,0,0,.53.13,1.23,1.23,0,0,0,1.12-.79A1.5,1.5,0,0,0,455.31,249.62Z" transform="translate(-111.63 -105.88)"/><path class="cls-13" d="M443.41,226.13l.27,0a1.29,1.29,0,0,0,1.21-1.1,1.42,1.42,0,0,0-.94-1.69,1.24,1.24,0,0,0-1.48,1.07A1.42,1.42,0,0,0,443.41,226.13Z" transform="translate(-111.63 -105.88)"/><path class="cls-13" d="M457.62,242.82v0a1.32,1.32,0,0,0-1.24-1.4,1.34,1.34,0,0,0-1.24,1.41v0a1.25,1.25,0,1,0,2.48,0h0Z" transform="translate(-111.63 -105.88)"/><path class="cls-13" d="M430.71,256.26a1.13,1.13,0,0,0-1.74.22,1.54,1.54,0,0,0,.19,2,1.16,1.16,0,0,0,.78.31,1.18,1.18,0,0,0,1-.53A1.53,1.53,0,0,0,430.71,256.26Z" transform="translate(-111.63 -105.88)"/><path class="cls-13" d="M436.43,226.18l.28,0a1.44,1.44,0,0,0,.93-1.69,1.24,1.24,0,0,0-1.49-1.06,1.42,1.42,0,0,0-.93,1.69A1.28,1.28,0,0,0,436.43,226.18Z" transform="translate(-111.63 -105.88)"/><path class="cls-13" d="M436.75,259.56h0a1.25,1.25,0,0,0-1.48,1.06,1.42,1.42,0,0,0,.94,1.69l.27,0a1.29,1.29,0,0,0,1.21-1.11A1.42,1.42,0,0,0,436.75,259.56Z" transform="translate(-111.63 -105.88)"/><path class="cls-13" d="M432.56,234.33a1.54,1.54,0,0,0,0,2,1.12,1.12,0,0,0,1.75,0,1.54,1.54,0,0,0,0-2A1.14,1.14,0,0,0,432.56,234.33Z" transform="translate(-111.63 -105.88)"/><path class="cls-13" d="M432.59,249.4a1.57,1.57,0,0,0,0,2,1.2,1.2,0,0,0,.88.41,1.18,1.18,0,0,0,.88-.41,1.57,1.57,0,0,0,0-2A1.14,1.14,0,0,0,432.59,249.4Z" transform="translate(-111.63 -105.88)"/><path class="cls-13" d="M430.71,241.46a1.42,1.42,0,1,0,1.25,1.41A1.33,1.33,0,0,0,430.71,241.46Z" transform="translate(-111.63 -105.88)"/><path class="cls-13" d="M440.1,254.92a1.42,1.42,0,0,0,0-2.82h0a1.42,1.42,0,0,0,0,2.82Z" transform="translate(-111.63 -105.88)"/><path class="cls-13" d="M440.06,233.59h0a1.33,1.33,0,0,0,1.24-1.41,1.25,1.25,0,1,0-2.48,0A1.33,1.33,0,0,0,440.06,233.59Z" transform="translate(-111.63 -105.88)"/><path class="cls-13" d="M446.69,236.69a1.16,1.16,0,0,0,.88-.42,1.56,1.56,0,0,0,0-2,1.14,1.14,0,0,0-1.75,0,1.54,1.54,0,0,0,0,2A1.17,1.17,0,0,0,446.69,236.69Z" transform="translate(-111.63 -105.88)"/><path class="cls-13" d="M447.6,251.38a1.54,1.54,0,0,0,0-2,1.13,1.13,0,0,0-1.75,0,1.56,1.56,0,0,0,0,2,1.16,1.16,0,0,0,.88.42A1.17,1.17,0,0,0,447.6,251.38Z" transform="translate(-111.63 -105.88)"/><path class="cls-13" d="M450.7,242.85v0a1.25,1.25,0,1,0-2.48,0v0a1.25,1.25,0,1,0,2.48,0Z" transform="translate(-111.63 -105.88)"/><path class="cls-14" d="M437.21,264a.75.75,0,0,0-.85.7.83.83,0,0,0,.62,1h.11a.79.79,0,0,0,.74-.72A.84.84,0,0,0,437.21,264Z" transform="translate(-111.63 -105.88)"/><path class="cls-14" d="M431.13,223.89l.34-.1a.91.91,0,0,0,.32-1.14.69.69,0,0,0-1-.36.9.9,0,0,0-.32,1.14A.74.74,0,0,0,431.13,223.89Z" transform="translate(-111.63 -105.88)"/><path class="cls-14" d="M426.19,228a.72.72,0,0,0,.53-.24,1,1,0,0,0,0-1.2.68.68,0,0,0-1,0,.94.94,0,0,0,0,1.2A.72.72,0,0,0,426.19,228Z" transform="translate(-111.63 -105.88)"/><path class="cls-14" d="M436.94,221.7h.12a.83.83,0,0,0,.61-1,.75.75,0,0,0-.85-.7.85.85,0,0,0-.62,1A.8.8,0,0,0,436.94,221.7Z" transform="translate(-111.63 -105.88)"/><path class="cls-14" d="M422.33,252.28a.92.92,0,0,0-.32,1.14.76.76,0,0,0,.67.46l.34-.09a.91.91,0,0,0,.32-1.14A.71.71,0,0,0,422.33,252.28Z" transform="translate(-111.63 -105.88)"/><path class="cls-14" d="M431.59,262a.71.71,0,0,0-1,.38.91.91,0,0,0,.33,1.13l.34.09a.74.74,0,0,0,.67-.46A.91.91,0,0,0,431.59,262Z" transform="translate(-111.63 -105.88)"/><path class="cls-14" d="M425.76,258.06a.94.94,0,0,0,0,1.2.69.69,0,0,0,1.05,0,.94.94,0,0,0,0-1.2A.69.69,0,0,0,425.76,258.06Z" transform="translate(-111.63 -105.88)"/><path class="cls-14" d="M422.27,233.56l.34.1a.75.75,0,0,0,.66-.47.91.91,0,0,0-.33-1.14.71.71,0,0,0-1,.38A.9.9,0,0,0,422.27,233.56Z" transform="translate(-111.63 -105.88)"/><path class="cls-14" d="M453.35,227.62a.67.67,0,0,0,.52.25.7.7,0,0,0,.53-.25.92.92,0,0,0,0-1.2.67.67,0,0,0-1.05,0A.91.91,0,0,0,453.35,227.62Z" transform="translate(-111.63 -105.88)"/><path class="cls-14" d="M443,221.67h.12a.78.78,0,0,0,.73-.72.84.84,0,0,0-.62-1,.77.77,0,0,0-.85.71A.86.86,0,0,0,443,221.67Z" transform="translate(-111.63 -105.88)"/><path class="cls-14" d="M420.64,245.58a.84.84,0,0,0-.61,1,.76.76,0,0,0,.73.71h.12a.83.83,0,0,0,.61-1A.76.76,0,0,0,420.64,245.58Z" transform="translate(-111.63 -105.88)"/><path class="cls-14" d="M420.63,240.29h.11a.8.8,0,0,0,.74-.72.85.85,0,0,0-.63-1,.78.78,0,0,0-.85.71A.85.85,0,0,0,420.63,240.29Z" transform="translate(-111.63 -105.88)"/><path class="cls-14" d="M459.55,245.39a.77.77,0,0,0-.85.71v0h0a.83.83,0,0,0,.62,1h.11a.78.78,0,0,0,.74-.72h0v0A.84.84,0,0,0,459.55,245.39Z" transform="translate(-111.63 -105.88)"/><path class="cls-14" d="M457.49,233.49l.34-.09a.9.9,0,0,0,.32-1.14.7.7,0,0,0-1-.37.9.9,0,0,0-.32,1.14A.72.72,0,0,0,457.49,233.49Z" transform="translate(-111.63 -105.88)"/><path class="cls-14" d="M443.1,264h0a.84.84,0,0,0-.62,1,.78.78,0,0,0,.73.71h.12a.83.83,0,0,0,.62-1A.75.75,0,0,0,443.1,264Z" transform="translate(-111.63 -105.88)"/><path class="cls-14" d="M453.45,258a.92.92,0,0,0,0,1.19.68.68,0,0,0,1.05,0,.94.94,0,0,0,0-1.2A.67.67,0,0,0,453.45,258Z" transform="translate(-111.63 -105.88)"/><path class="cls-14" d="M448.69,261.91a.92.92,0,0,0-.32,1.15.75.75,0,0,0,.66.46l.34-.1h0a.91.91,0,0,0,.32-1.14A.7.7,0,0,0,448.69,261.91Z" transform="translate(-111.63 -105.88)"/><path class="cls-14" d="M459.41,240.1h.12a.84.84,0,0,0,.62-1,.77.77,0,0,0-.86-.71.84.84,0,0,0-.61,1A.77.77,0,0,0,459.41,240.1Z" transform="translate(-111.63 -105.88)"/><path class="cls-14" d="M448.57,223.7l.33.1a.73.73,0,0,0,.66-.47.9.9,0,0,0-.33-1.14.71.71,0,0,0-1,.38A.9.9,0,0,0,448.57,223.7Z" transform="translate(-111.63 -105.88)"/><path class="cls-14" d="M457.9,252.15a.7.7,0,0,0-1,.37.9.9,0,0,0,.33,1.14l.33.09a.76.76,0,0,0,.67-.46A.91.91,0,0,0,457.9,252.15Z" transform="translate(-111.63 -105.88)"/><path class="cls-14" d="M450,252.29a1,1,0,0,0,.09,1.2.7.7,0,0,0,.48.19.71.71,0,0,0,.57-.3.92.92,0,0,0-.09-1.19A.68.68,0,0,0,450,252.29Z" transform="translate(-111.63 -105.88)"/><path class="cls-14" d="M426.55,245.12a.86.86,0,0,0-.58,1,.78.78,0,0,0,.73.68l.15,0a.85.85,0,0,0,.58-1A.76.76,0,0,0,426.55,245.12Z" transform="translate(-111.63 -105.88)"/><path class="cls-14" d="M450.5,232.76a.93.93,0,0,0-.15,1.18.73.73,0,0,0,.6.33.65.65,0,0,0,.45-.17.91.91,0,0,0,.14-1.18A.67.67,0,0,0,450.5,232.76Z" transform="translate(-111.63 -105.88)"/><path class="cls-14" d="M427,238.22a.75.75,0,0,0-.91.61.88.88,0,0,0,.54,1l.19,0a.77.77,0,0,0,.72-.63A.86.86,0,0,0,427,238.22Z" transform="translate(-111.63 -105.88)"/><path class="cls-14" d="M453.46,240.56h.15a.85.85,0,0,0,.59-1h0a.76.76,0,0,0-.88-.66.86.86,0,0,0-.58,1A.76.76,0,0,0,453.46,240.56Z" transform="translate(-111.63 -105.88)"/><path class="cls-14" d="M454,246.89v0a.88.88,0,0,0-.54-1,.74.74,0,0,0-.91.62v0h0a.88.88,0,0,0,.54,1l.18,0A.76.76,0,0,0,454,246.89Z" transform="translate(-111.63 -105.88)"/><path class="cls-14" d="M429.8,251.73a.69.69,0,0,0-1-.16.93.93,0,0,0-.14,1.19.7.7,0,0,0,.59.34.68.68,0,0,0,.45-.18.91.91,0,0,0,.14-1.18Z" transform="translate(-111.63 -105.88)"/><path class="cls-14" d="M434.13,227.92a.9.9,0,0,0-.36,1.13.73.73,0,0,0,.67.49l.31-.07a.9.9,0,0,0,.37-1.13A.72.72,0,0,0,434.13,227.92Z" transform="translate(-111.63 -105.88)"/><path class="cls-14" d="M445.4,256.24h0a.9.9,0,0,0-.37,1.12.74.74,0,0,0,.68.5l.3-.08a.89.89,0,0,0,.38-1.12A.71.71,0,0,0,445.4,256.24Z" transform="translate(-111.63 -105.88)"/><path class="cls-14" d="M439.78,257.54a.85.85,0,0,0,0,1.69h0a.79.79,0,0,0,.74-.82A.82.82,0,0,0,439.78,257.54Z" transform="translate(-111.63 -105.88)"/><path class="cls-14" d="M440.41,226.46a.85.85,0,0,0,0,1.69h0a.79.79,0,0,0,.75-.82A.81.81,0,0,0,440.41,226.46Z" transform="translate(-111.63 -105.88)"/><path class="cls-14" d="M429,232.33a.94.94,0,0,0,.1,1.2.7.7,0,0,0,.48.19.71.71,0,0,0,.57-.3.94.94,0,0,0-.09-1.19A.7.7,0,0,0,429,232.33Z" transform="translate(-111.63 -105.88)"/><path class="cls-14" d="M446.62,228.24a.71.71,0,0,0-1,.38.9.9,0,0,0,.33,1.13l.34.09a.74.74,0,0,0,.66-.46A.91.91,0,0,0,446.62,228.24Z" transform="translate(-111.63 -105.88)"/><path class="cls-14" d="M434.21,255.93h0a.71.71,0,0,0-1,.37.92.92,0,0,0,.33,1.14l.34.09a.73.73,0,0,0,.66-.46A.91.91,0,0,0,434.21,255.93Z" transform="translate(-111.63 -105.88)"/><path class="cls-14" d="M445.21,245.09v0a.68.68,0,0,0,.33.85l.2,0a.57.57,0,0,0,.54-.41v0h0a.68.68,0,0,0-.34-.84A.56.56,0,0,0,445.21,245.09Z" transform="translate(-111.63 -105.88)"/><path class="cls-14" d="M442.27,237.06a.59.59,0,0,0,.54-.42.69.69,0,0,0-.33-.84.55.55,0,0,0-.74.37.68.68,0,0,0,.33.85Z" transform="translate(-111.63 -105.88)"/><path class="cls-14" d="M445.63,240.7l.23,0a.7.7,0,0,0,.3-.87.55.55,0,0,0-.76-.33.68.68,0,0,0-.29.86A.56.56,0,0,0,445.63,240.7Z" transform="translate(-111.63 -105.88)"/><path class="cls-14" d="M437.4,235.93a.7.7,0,0,0-.29.87.57.57,0,0,0,.52.39l.24-.06a.69.69,0,0,0,.29-.86A.56.56,0,0,0,437.4,235.93Z" transform="translate(-111.63 -105.88)"/><path class="cls-14" d="M434.31,245a.69.69,0,0,0-.3.86.58.58,0,0,0,.53.39l.23,0a.7.7,0,0,0,.29-.87A.54.54,0,0,0,434.31,245Z" transform="translate(-111.63 -105.88)"/><path class="cls-14" d="M434.22,241l.21,0a.59.59,0,0,0,.54-.41.7.7,0,0,0-.33-.85.56.56,0,0,0-.75.37A.7.7,0,0,0,434.22,241Z" transform="translate(-111.63 -105.88)"/><path class="cls-14" d="M442.76,249.76a.68.68,0,0,0,.3-.86.55.55,0,0,0-.76-.33.68.68,0,0,0-.29.86.57.57,0,0,0,.53.39Z" transform="translate(-111.63 -105.88)"/><path class="cls-14" d="M438.1,248.67a.55.55,0,0,0-.74.38.69.69,0,0,0,.33.85h0l.21,0a.58.58,0,0,0,.54-.42A.68.68,0,0,0,438.1,248.67Z" transform="translate(-111.63 -105.88)"/><path class="cls-4" d="M421.64,223.4a.76.76,0,0,0-1.12-.32,2.29,2.29,0,0,0-.59.75,31.07,31.07,0,0,0-4.19,10,18.72,18.72,0,0,0-.48,6,.77.77,0,0,0,1.07.6,1.29,1.29,0,0,0,.62-.75c.48-1,.8-2.11,1.22-3.16s.78-2.41,1.19-3.61.8-2.65,1.17-4c.31-1.14.64-2.27.88-3.42.1-.48.18-.95.25-1.43A1.23,1.23,0,0,0,421.64,223.4Z" transform="translate(-111.63 -105.88)"/><path class="cls-4" d="M416.31,242.62a.84.84,0,0,0-1.47.32,9.43,9.43,0,0,0-.55,2.39,9.76,9.76,0,0,0,.12,2.91,4.15,4.15,0,0,0,.91,2c.56.59,1.41,0,1.48-.68,0-.4.1-.81.11-1.21s0-.87,0-1.31c0-.91-.1-1.81-.21-2.72A4.25,4.25,0,0,0,416.31,242.62Z" transform="translate(-111.63 -105.88)"/><path class="cls-4" d="M316.07,134.57a2.84,2.84,0,0,0-3.3-2.53,7.21,7.21,0,0,0-2.67,1.62,95.4,95.4,0,0,0-8.3,7.13,90.7,90.7,0,0,0-15.51,19.49c-3.43,5.86-6.42,12.08-7.74,18.84a2.91,2.91,0,0,0,2.82,3.37,4,4,0,0,0,2.78-1.59c2.62-2.68,4.76-5.73,7.19-8.57,2.75-3.19,5-6.72,7.56-10.05,2.8-3.63,5.28-7.47,7.84-11.29,2.18-3.25,4.42-6.45,6.37-9.85.81-1.4,1.57-2.81,2.27-4.25A4.15,4.15,0,0,0,316.07,134.57Z" transform="translate(-111.63 -105.88)"/><path class="cls-4" d="M279.1,189.42a2.89,2.89,0,0,0-5.07-.93,28.82,28.82,0,0,0-4.24,7,33.1,33.1,0,0,0-2.6,9.54c-.26,2.39-.26,5.53.83,7.76,1.2,2.63,4.49,2,5.47-.25.45-1.27,1.15-2.46,1.61-3.74s.94-2.79,1.34-4.21c.85-3,1.54-6,2.12-9C278.9,193.71,279.63,191.3,279.1,189.42Z" transform="translate(-111.63 -105.88)"/></svg>